;TYPE=PLATED
;Layer: PTH_Through
;EasyEDA Pro Client v2.2.40.8, 2025-11-29 03:04:22
;Gerber Generator version 0.3
M48
METRIC,LZ,0000.00000
;Hole size 1 = 0.30000 METRIC
T01C0.30000
;Hole size 2 = 0.30100 METRIC
T02C0.30100
;Hole size 3 = 0.30500 METRIC
T03C0.30500
;Hole size 4 = 0.60000 METRIC
T04C0.60000
;Hole size 5 = 0.90000 METRIC
T05C0.90000
;Hole size 6 = 2.50000 METRIC
T06C2.50000
%
G05
G90
T01
X45.8001Y13.1999
X48.8999Y15.1999
T02
X10.80001Y22.10001
X10.4Y19.9
X46.8Y19.6
X56.5Y14.7
X57.7Y17.7
X57.7Y19.9
X56.3Y16.5
X57.7Y13.0
X57.7Y11.4
X57.8Y8.4
X22.5Y20.6
X57.8Y22.4
X57.80003Y24.70001
X57.60003Y0.8
X53.20003Y4.4
X43.6Y5.6
X29.1Y2.4
X34.2Y8.2
X1.4Y18.6
X1.4Y16.8
X3.4Y19.9
X3.4Y17.8
X3.4Y15.5
X13.10001Y21.40001
X12.3Y15.3
X10.5Y17.7
X13.0Y24.5
X16.0Y24.5
X18.8Y24.5
X18.60001Y22.40001
X14.40001Y23.80001
X17.40001Y23.80001
X3.5Y10.9
X3.5Y8.3
X1.2Y8.3
X1.2Y10.9
X5.6Y6.5
X8.6Y6.5
X0.9Y4.6
X4.7Y0.9
X4.9Y4.4
X15.2Y1.4
X57.7Y14.3
X57.7Y16.7
X56.6Y17.7
X46.0Y19.6
X56.9Y19.7
X44.1Y7.7
X19.70001Y18.30001
X13.4Y18.16677
X55.00003Y14.50001
X48.10003Y5.7
T03
X46.0Y8.6
X63.3Y20.4
X64.5Y8.4
X36.1Y15.0
X36.8Y15.7
X37.5Y15.0
X39.0Y16.1
X38.2Y15.7
X53.4Y22.6
X31.5Y5.6
X36.6Y22.6
X31.5Y20.6
X43.8Y16.9
X40.3Y17.5
X36.1Y20.2
X39.7Y7.9
X35.6Y8.2
X41.3Y7.9
X56.1Y7.0
X54.9Y3.3
X56.5Y12.9
X28.1Y19.7
X23.1Y15.8
X16.7Y7.8
X18.5Y8.2
X21.8Y13.9
X38.1Y10.3
X37.4Y10.9
X36.7Y10.3
X35.3Y10.3
X36.0Y10.9
X25.0Y15.8
X6.4Y24.10001
X7.8Y19.10001
X6.2Y12.3
X9.1Y12.80001
X8.0Y4.6
X10.7Y6.0
X11.7Y9.5
X14.2Y8.5
X13.4Y7.8
X25.3Y17.6
X11.99998Y17.29997
X53.54839Y21.04821
X51.8999Y19.79996
X55.634Y17.79101
X55.09989Y19.39996
X54.49989Y5.29999
X53.25004Y11.05004
X55.79989Y8.49998
X55.14998Y9.35002
X49.82534Y7.67466
X56.50003Y5.7
X42.39992Y10.09998
X45.8Y9.5
X45.7Y10.8
X16.0Y21.1
X15.19997Y20.59996
X42.5Y8.6
X18.2Y15.8
X17.1Y14.4
X8.1Y18.20001
X56.29989Y11.39998
X54.6Y11.1
X54.59989Y12.89997
X51.3Y5.0
X52.30003Y5.1
X17.0Y21.3
X17.5Y20.8
X32.19994Y12.59997
X33.19993Y12.89997
X48.49103Y10.20899
X49.2Y11.4
X45.69991Y14.09997
X7.3Y13.7
X45.8Y15.6
X6.1Y14.4
X25.69995Y9.09998
X11.8Y2.5
X15.79997Y13.29997
X30.6Y12.6
X29.55169Y12.75169
X27.6Y12.1
X6.1Y23.00001
X39.79992Y14.69997
X28.69994Y11.09998
X30.1Y10.891
X52.69989Y11.79998
X51.8999Y11.19998
X50.43628Y8.2856
X50.53465Y13.68797
X51.7Y13.7
X52.69989Y13.69997
X56.7Y3.8
X54.3Y16.8
X53.3Y16.8
X42.8Y19.9
X54.7Y21.8
X52.79989Y19.89996
X49.9Y20.4
X50.8Y19.9
X49.9Y17.5
X51.6Y15.2
X50.6Y16.7
X51.7Y16.7
X38.8Y10.9
X39.9Y16.1
X37.6Y19.1
X26.0Y22.4
X56.964Y7.4394
X7.7Y0.9
X10.4Y0.9
X54.90003Y8.4
X52.70003Y14.90001
X21.40001Y10.10001
X18.90001Y15.20001
X25.80001Y11.60001
X20.60001Y10.80001
X22.30001Y9.46601
X22.20001Y10.80001
T04
X20.20494Y19.42496G85X20.20494Y20.32496
X11.55491Y19.42497G85X11.55491Y20.325
X20.20499Y23.77503G85X20.20499Y24.37503
X11.55502Y23.77503G85X11.55502Y24.37503
T05
X37.82Y24.13
X35.28Y24.13
X40.36Y24.13
X42.9Y24.13
X45.44Y24.13
X47.98Y24.13
X53.06Y24.13
X50.52Y24.13
X30.2Y24.13
X32.74Y24.13
X27.66Y24.13
X25.12Y24.13
X22.58Y24.13
X55.6Y24.13
X12.42Y3.81
X14.96Y3.81
X37.82Y3.81
X35.28Y3.81
X40.36Y3.81
X42.9Y3.81
X45.44Y3.81
X47.98Y3.81
X50.52Y3.81
X32.74Y3.81
X32.74Y1.27
X50.52Y1.27
X53.06Y1.27
X47.98Y1.27
X45.44Y1.27
X42.9Y1.27
X40.36Y1.27
X55.6Y1.27
X35.28Y1.27
X37.82Y1.27
X30.2Y3.81
X27.66Y3.81
X25.12Y3.81
X22.58Y3.81
X20.04Y3.81
X17.5Y3.81
X17.5Y1.27
X20.04Y1.27
X22.58Y1.27
X25.12Y1.27
X27.66Y1.27
X30.2Y1.27
X57.96Y6.2
X60.5Y6.2
T06
X65.3Y22.7
X65.3Y2.7
X2.7Y2.7
M30