G04 Layer: BottomLayer*
G04 EasyEDA Pro v2.2.40.8, 2025-11-29 03:04:21*
G04 Gerber Generator version 0.3*
G04 Scale: 100 percent, Rotated: No, Reflected: No*
G04 Dimensions in millimeters*
G04 Leading zeros omitted, absolute positions, 4 integers and 5 decimals*
G04 Generated by custom config*
%FSLAX45Y45*%
%MOMM*%
%ADD10C,0.2032*%
%ADD11C,0.254*%
%ADD12C,2.0*%
%ADD13C,3.5*%
%ADD14R,1.0X0.95*%
%ADD15C,1.5047*%
%ADD16C,1.5*%
%ADD17O,1.1X2.0*%
%ADD18O,1.2X1.8*%
%ADD19C,1.0*%
%ADD20C,0.61*%
%ADD21C,0.6*%
%ADD22C,0.15*%
%ADD23C,0.3*%
%ADD24C,0.25*%
%ADD25C,0.4*%
%ADD26C,0.35*%
%ADD27C,0.2*%
G75*


G04 Copper Start*
G36*
G01X1935163Y40160D02*
G01X1809757Y40160D01*
G01X1825473Y53407D01*
G01X1838320Y69452D01*
G01X1847808Y87686D01*
G01X1853578Y107414D01*
G01X1855410Y127886D01*
G01X1853234Y148325D01*
G01X1847133Y167954D01*
G01X1837340Y186025D01*
G01X1824225Y201852D01*
G01X1808288Y214833D01*
G01X1790135Y224474D01*
G01X1770457Y230410D01*
G01X1750000Y232414D01*
G01X1729544Y230410D01*
G01X1709865Y224474D01*
G01X1691712Y214833D01*
G01X1675775Y201852D01*
G01X1662661Y186025D01*
G01X1652867Y167954D01*
G01X1646766Y148325D01*
G01X1644590Y127886D01*
G01X1646422Y107414D01*
G01X1652192Y87686D01*
G01X1661680Y69452D01*
G01X1674527Y53407D01*
G01X1690243Y40160D01*
G01X201423Y40160D01*
G01X134079Y59401D01*
G01X87186Y87537D01*
G01X69051Y114739D01*
G01X58264Y142017D01*
G01X40160Y201511D01*
G01X40160Y270000D01*
G01X64586Y270000D01*
G01X66499Y242029D01*
G01X72203Y214580D01*
G01X81592Y188163D01*
G01X94490Y163270D01*
G01X110658Y140366D01*
G01X129794Y119876D01*
G01X151542Y102183D01*
G01X175496Y87616D01*
G01X201211Y76446D01*
G01X228207Y68882D01*
G01X255982Y65065D01*
G01X284018Y65065D01*
G01X311793Y68882D01*
G01X338789Y76446D01*
G01X364504Y87616D01*
G01X388458Y102183D01*
G01X410206Y119876D01*
G01X429342Y140366D01*
G01X445510Y163270D01*
G01X458408Y188163D01*
G01X467797Y214580D01*
G01X473501Y242029D01*
G01X474447Y255864D01*
G01X1119369Y255864D01*
G01X1119757Y240980D01*
G01X1123745Y226636D01*
G01X1131093Y213687D01*
G01X1141363Y202907D01*
G01X1153942Y194941D01*
G01X1153942Y194941D01*
G01X1168077Y190264D01*
G01X1182924Y189156D01*
G01X1197596Y191683D01*
G01X1211218Y197694D01*
G01X1222974Y206829D01*
G01X1232163Y218544D01*
G01X1238236Y232138D01*
G01X1240830Y246799D01*
G01X1239789Y261651D01*
G01X1235177Y275807D01*
G01X1254569Y276338D01*
G01X1273535Y280413D01*
G01X1291433Y287895D01*
G01X1307657Y298530D01*
G01X1321658Y311958D01*
G01X1332960Y327724D01*
G01X1341183Y345294D01*
G01X1346046Y364074D01*
G01X1347386Y383427D01*
G01X1345157Y402697D01*
G01X1339434Y421233D01*
G01X1330412Y438406D01*
G01X1318395Y453635D01*
G01X1303792Y466404D01*
G01X1287095Y476281D01*
G01X1268872Y482931D01*
G01X1249738Y486130D01*
G01X1230342Y485767D01*
G01X1211341Y481857D01*
G01X1193379Y474531D01*
G01X1177063Y464038D01*
G01X1162946Y450732D01*
G01X1151507Y435065D01*
G01X1143132Y417567D01*
G01X1138105Y398830D01*
G01X1136597Y379490D01*
G01X1138658Y360201D01*
G01X1144220Y341616D01*
G01X1153092Y324365D01*
G01X1164976Y309032D01*
G01X1151104Y303624D01*
G01X1138959Y295013D01*
G01X1129265Y283712D01*
G01X1122603Y270397D01*
G01X1119369Y255864D01*
G01X474447Y255864D01*
G01X475414Y270000D01*
G01X473501Y297971D01*
G01X467797Y325420D01*
G01X458408Y351837D01*
G01X445510Y376730D01*
G01X429342Y399634D01*
G01X410206Y420124D01*
G01X388458Y437817D01*
G01X364504Y452384D01*
G01X338789Y463554D01*
G01X311793Y471118D01*
G01X284018Y474935D01*
G01X255982Y474935D01*
G01X228207Y471118D01*
G01X201211Y463554D01*
G01X175496Y452384D01*
G01X151542Y437817D01*
G01X129794Y420124D01*
G01X110658Y399634D01*
G01X94490Y376730D01*
G01X81592Y351837D01*
G01X72203Y325420D01*
G01X66499Y297971D01*
G01X64586Y270000D01*
G01X64586Y270000D01*
G01X40160Y270000D01*
G01X40160Y1370000D01*
G01X669086Y1370000D01*
G01X670856Y1355422D01*
G01X676063Y1341692D01*
G01X684405Y1329607D01*
G01X695397Y1319869D01*
G01X708400Y1313045D01*
G01X722658Y1309530D01*
G01X737342Y1309530D01*
G01X751600Y1313045D01*
G01X764603Y1319869D01*
G01X775595Y1329607D01*
G01X783937Y1341692D01*
G01X789144Y1355422D01*
G01X790914Y1370000D01*
G01X789144Y1384578D01*
G01X783937Y1398308D01*
G01X775595Y1410393D01*
G01X764603Y1420131D01*
G01X751600Y1426956D01*
G01X737342Y1430470D01*
G01X722658Y1430470D01*
G01X708400Y1426956D01*
G01X695397Y1420131D01*
G01X684405Y1410393D01*
G01X676063Y1398308D01*
G01X670856Y1384578D01*
G01X669086Y1370000D01*
G01X669086Y1370000D01*
G01X40160Y1370000D01*
G01X40160Y1440000D01*
G01X549086Y1440000D01*
G01X550856Y1425422D01*
G01X556063Y1411692D01*
G01X564405Y1399607D01*
G01X575397Y1389869D01*
G01X588400Y1383044D01*
G01X602658Y1379530D01*
G01X617342Y1379530D01*
G01X631600Y1383044D01*
G01X644603Y1389869D01*
G01X655595Y1399607D01*
G01X663937Y1411692D01*
G01X669144Y1425422D01*
G01X670914Y1440000D01*
G01X669144Y1454578D01*
G01X663937Y1468308D01*
G01X655595Y1480393D01*
G01X644603Y1490131D01*
G01X631600Y1496955D01*
G01X617342Y1500470D01*
G01X602658Y1500470D01*
G01X588400Y1496955D01*
G01X575397Y1490131D01*
G01X564405Y1480393D01*
G01X556063Y1468308D01*
G01X550856Y1454578D01*
G01X549086Y1440000D01*
G01X549086Y1440000D01*
G01X40160Y1440000D01*
G01X40160Y1823845D01*
G01X749208Y1823845D01*
G01X750045Y1809240D01*
G01X754339Y1795255D01*
G01X761845Y1782698D01*
G01X772128Y1772292D01*
G01X784595Y1764638D01*
G01X798528Y1760177D01*
G01X969586Y1589119D01*
G01X969586Y857000D01*
G01X969586Y857000D01*
G01X971304Y843952D01*
G01X976340Y831793D01*
G01X984352Y821352D01*
G01X1394890Y410814D01*
G01X1391091Y391310D01*
G01X1391021Y371439D01*
G01X1394680Y351909D01*
G01X1401939Y333411D01*
G01X1412541Y316605D01*
G01X1426108Y302087D01*
G01X1442159Y290373D01*
G01X1460123Y281879D01*
G01X1479361Y276908D01*
G01X1499191Y275634D01*
G01X1518907Y278105D01*
G01X1537810Y284232D01*
G01X1555227Y293797D01*
G01X1570539Y306461D01*
G01X1583203Y321773D01*
G01X1592768Y339190D01*
G01X1598895Y358093D01*
G01X1601366Y377809D01*
G01X1601161Y381000D01*
G01X1644586Y381000D01*
G01X1646612Y360435D01*
G01X1652610Y340660D01*
G01X1662352Y322435D01*
G01X1675461Y306461D01*
G01X1691435Y293352D01*
G01X1709660Y283610D01*
G01X1729435Y277612D01*
G01X1750000Y275586D01*
G01X1770565Y277612D01*
G01X1790340Y283610D01*
G01X1808565Y293352D01*
G01X1824539Y306461D01*
G01X1837649Y322435D01*
G01X1847390Y340660D01*
G01X1853388Y360435D01*
G01X1855414Y381000D01*
G01X1893186Y381000D01*
G01X1895073Y360638D01*
G01X1900669Y340969D01*
G01X1909784Y322664D01*
G01X1922108Y306345D01*
G01X1937220Y292569D01*
G01X1954606Y281803D01*
G01X1973674Y274416D01*
G01X1993775Y270659D01*
G01X2014225Y270659D01*
G01X2034326Y274416D01*
G01X2053394Y281803D01*
G01X2070780Y292569D01*
G01X2085893Y306345D01*
G01X2098216Y322664D01*
G01X2107331Y340969D01*
G01X2112927Y360638D01*
G01X2114814Y381000D01*
G01X2114814Y381000D01*
G01X2152586Y381000D01*
G01X2154612Y360435D01*
G01X2160610Y340660D01*
G01X2170352Y322435D01*
G01X2183461Y306461D01*
G01X2199435Y293352D01*
G01X2217660Y283610D01*
G01X2237435Y277612D01*
G01X2258000Y275586D01*
G01X2278565Y277612D01*
G01X2298340Y283610D01*
G01X2316565Y293352D01*
G01X2332539Y306461D01*
G01X2345649Y322435D01*
G01X2355390Y340660D01*
G01X2361388Y360435D01*
G01X2363414Y381000D01*
G01X2363414Y381000D01*
G01X2361388Y401565D01*
G01X2355390Y421340D01*
G01X2345649Y439565D01*
G01X2332539Y455539D01*
G01X2316565Y468648D01*
G01X2298340Y478390D01*
G01X2278565Y484388D01*
G01X2258000Y486414D01*
G01X2237435Y484388D01*
G01X2217660Y478390D01*
G01X2199435Y468648D01*
G01X2183461Y455539D01*
G01X2170352Y439565D01*
G01X2160610Y421340D01*
G01X2154612Y401565D01*
G01X2152586Y381000D01*
G01X2114814Y381000D01*
G01X2114814Y381000D01*
G01X2112927Y401362D01*
G01X2107331Y421031D01*
G01X2098216Y439336D01*
G01X2085893Y455655D01*
G01X2070780Y469431D01*
G01X2053394Y480197D01*
G01X2034326Y487584D01*
G01X2014225Y491341D01*
G01X1993775Y491341D01*
G01X1973674Y487584D01*
G01X1954606Y480197D01*
G01X1937220Y469431D01*
G01X1922108Y455655D01*
G01X1909784Y439336D01*
G01X1900669Y421031D01*
G01X1895073Y401362D01*
G01X1893186Y381000D01*
G01X1855414Y381000D01*
G01X1855414Y381000D01*
G01X1855414Y381000D01*
G01X1853388Y401565D01*
G01X1847390Y421340D01*
G01X1837649Y439565D01*
G01X1824539Y455539D01*
G01X1808565Y468648D01*
G01X1790340Y478390D01*
G01X1770565Y484388D01*
G01X1750000Y486414D01*
G01X1729435Y484388D01*
G01X1709660Y478390D01*
G01X1691435Y468648D01*
G01X1675461Y455539D01*
G01X1662352Y439565D01*
G01X1652610Y421340D01*
G01X1646612Y401565D01*
G01X1644586Y381000D01*
G01X1601161Y381000D01*
G01X1600093Y397639D01*
G01X1595121Y416878D01*
G01X1586627Y434841D01*
G01X1574913Y450892D01*
G01X1560395Y464459D01*
G01X1543589Y475061D01*
G01X1525092Y482320D01*
G01X1505561Y485979D01*
G01X1485690Y485909D01*
G01X1466186Y482110D01*
G01X1070414Y877882D01*
G01X1070414Y1010001D01*
G01X2079087Y1010001D01*
G01X2080857Y995423D01*
G01X2086065Y981692D01*
G01X2094406Y969607D01*
G01X2105398Y959869D01*
G01X2118401Y953045D01*
G01X2132659Y949531D01*
G01X2147344Y949531D01*
G01X2161602Y953045D01*
G01X2174604Y959869D01*
G01X2185596Y969607D01*
G01X2193938Y981692D01*
G01X2199145Y995423D01*
G01X2200915Y1010001D01*
G01X2199145Y1024578D01*
G01X2193938Y1038309D01*
G01X2185596Y1050394D01*
G01X2174604Y1060132D01*
G01X2161602Y1066956D01*
G01X2147344Y1070470D01*
G01X2132659Y1070470D01*
G01X2118401Y1066956D01*
G01X2105398Y1060132D01*
G01X2094406Y1050394D01*
G01X2086065Y1038309D01*
G01X2080857Y1024578D01*
G01X2079087Y1010001D01*
G01X2079087Y1010001D01*
G01X1070414Y1010001D01*
G01X1070414Y1610001D01*
G01X1068696Y1623049D01*
G01X1063660Y1635208D01*
G01X1055648Y1645649D01*
G01X869824Y1831473D01*
G01X865364Y1845406D01*
G01X857710Y1857874D01*
G01X847304Y1868157D01*
G01X834746Y1875662D01*
G01X820761Y1879957D01*
G01X806156Y1880793D01*
G01X791772Y1878123D01*
G01X778440Y1872101D01*
G01X766928Y1863074D01*
G01X757900Y1851562D01*
G01X751878Y1838229D01*
G01X749208Y1823845D01*
G01X40160Y1823845D01*
G01X40160Y2348211D01*
G01X57589Y2396149D01*
G01X97208Y2442792D01*
G01X143636Y2482229D01*
G01X201512Y2499840D01*
G01X1090013Y2499840D01*
G01X1079410Y2486336D01*
G01X1071550Y2471071D01*
G01X1066718Y2454595D01*
G01X1065088Y2437503D01*
G01X1065088Y2377503D01*
G01X1067064Y2358705D01*
G01X1072904Y2340728D01*
G01X1082355Y2324359D01*
G01X1095003Y2310312D01*
G01X1110295Y2299202D01*
G01X1127562Y2291514D01*
G01X1146051Y2287584D01*
G01X1164952Y2287584D01*
G01X1183441Y2291514D01*
G01X1200709Y2299202D01*
G01X1216000Y2310312D01*
G01X1228648Y2324359D01*
G01X1238099Y2340728D01*
G01X1243940Y2358705D01*
G01X1245915Y2377503D01*
G01X1245915Y2437503D01*
G01X1244285Y2454595D01*
G01X1239453Y2471071D01*
G01X1231594Y2486336D01*
G01X1220990Y2499840D01*
G01X1955010Y2499840D01*
G01X1944407Y2486336D01*
G01X1936547Y2471071D01*
G01X1931715Y2454595D01*
G01X1930085Y2437503D01*
G01X1930085Y2377503D01*
G01X1931061Y2364251D01*
G01X1933969Y2351285D01*
G01X1938746Y2338886D01*
G01X1935686Y2341946D01*
G01X1926799Y2348766D01*
G01X1916449Y2353053D01*
G01X1905342Y2354515D01*
G01X1371601Y2354515D01*
G01X1360494Y2353053D01*
G01X1350144Y2348766D01*
G01X1341257Y2341946D01*
G01X1252224Y2252914D01*
G01X1123233Y2252914D01*
G01X1112001Y2261832D01*
G01X1098996Y2267878D01*
G01X1084938Y2270715D01*
G01X1070606Y2270186D01*
G01X1056795Y2266322D01*
G01X1044270Y2259335D01*
G01X1033726Y2249614D01*
G01X1025747Y2237697D01*
G01X1020775Y2224245D01*
G01X1019087Y2210003D01*
G01X1020775Y2195761D01*
G01X1025745Y2182309D01*
G01X1033724Y2170391D01*
G01X1044267Y2160669D01*
G01X1056792Y2153682D01*
G01X1070603Y2149817D01*
G01X1084934Y2149287D01*
G01X1098993Y2152124D01*
G01X1111998Y2158168D01*
G01X1123230Y2167086D01*
G01X1270000Y2167086D01*
G01X1281107Y2168548D01*
G01X1291457Y2172835D01*
G01X1300344Y2179655D01*
G01X1321829Y2201140D01*
G01X1326866Y2186567D01*
G01X1334592Y2173223D01*
G01X1344723Y2161599D01*
G01X1356886Y2152122D01*
G01X1370634Y2145141D01*
G01X1385462Y2140912D01*
G01X1459475Y2066899D01*
G01X1459470Y2053139D01*
G01X1462553Y2039730D01*
G01X1468568Y2027354D01*
G01X1477206Y2016644D01*
G01X1488028Y2008146D01*
G01X1500481Y2002293D01*
G01X1513930Y1999385D01*
G01X1527689Y1999570D01*
G01X1541055Y2002838D01*
G01X1553346Y2009022D01*
G01X1562300Y2005415D01*
G01X1571875Y2004186D01*
G01X1612195Y2004186D01*
G01X1650086Y1966295D01*
G01X1650086Y1832002D01*
G01X1651378Y1822189D01*
G01X1655166Y1813045D01*
G01X1661191Y1805193D01*
G01X1825741Y1640643D01*
G01X1810803Y1640215D01*
G01X1796418Y1636164D01*
G01X1783453Y1628732D01*
G01X1772688Y1618367D01*
G01X1764770Y1605693D01*
G01X1760176Y1591472D01*
G01X1674352Y1505648D01*
G01X1667107Y1496491D01*
G01X1662164Y1485914D01*
G01X1659786Y1474482D01*
G01X1653202Y1462011D01*
G01X1649662Y1448360D01*
G01X1649357Y1434262D01*
G01X1257309Y1826309D01*
G01X1249457Y1832335D01*
G01X1240313Y1836122D01*
G01X1230500Y1837414D01*
G01X1136219Y1837414D01*
G01X941144Y2032488D01*
G01X1070088Y2032488D01*
G01X1070088Y1942488D01*
G01X1071954Y1924730D01*
G01X1077472Y1907747D01*
G01X1086400Y1892283D01*
G01X1098349Y1879014D01*
G01X1112795Y1868518D01*
G01X1129107Y1861255D01*
G01X1146573Y1857542D01*
G01X1164430Y1857542D01*
G01X1181896Y1861255D01*
G01X1198209Y1868518D01*
G01X1212655Y1879014D01*
G01X1224603Y1892283D01*
G01X1233531Y1907747D01*
G01X1239049Y1924730D01*
G01X1240915Y1942488D01*
G01X1240915Y1942488D01*
G01X1240915Y2032488D01*
G01X1239049Y2050247D01*
G01X1233531Y2067229D01*
G01X1224603Y2082693D01*
G01X1212655Y2095963D01*
G01X1198209Y2106459D01*
G01X1181896Y2113722D01*
G01X1164430Y2117434D01*
G01X1146573Y2117434D01*
G01X1129107Y2113722D01*
G01X1112795Y2106459D01*
G01X1098349Y2095963D01*
G01X1086400Y2082693D01*
G01X1077472Y2067229D01*
G01X1071954Y2050247D01*
G01X1070088Y2032488D01*
G01X941144Y2032488D01*
G01X670851Y2302782D01*
G01X668340Y2317521D01*
G01X662315Y2331204D01*
G01X653139Y2343008D01*
G01X641363Y2352221D01*
G01X627698Y2358288D01*
G01X612967Y2360843D01*
G01X598057Y2359733D01*
G01X583867Y2355024D01*
G01X571251Y2347001D01*
G01X560969Y2336146D01*
G01X553641Y2323114D01*
G01X549709Y2308689D01*
G01X549409Y2293741D01*
G01X552759Y2279170D01*
G01X559558Y2265854D01*
G01X569395Y2254595D01*
G01X581679Y2246072D01*
G01X595669Y2240797D01*
G01X610522Y2239090D01*
G01X625344Y2241052D01*
G01X1093705Y1772691D01*
G01X1101557Y1766666D01*
G01X1110701Y1762878D01*
G01X1120514Y1761586D01*
G01X1147915Y1761586D01*
G01X1141757Y1747843D01*
G01X1139158Y1733010D01*
G01X1140278Y1717992D01*
G01X1145048Y1703708D01*
G01X1153177Y1691031D01*
G01X1164167Y1680735D01*
G01X1177348Y1673450D01*
G01X1191912Y1669622D01*
G01X1206971Y1669483D01*
G01X1221604Y1673043D01*
G01X1234916Y1680084D01*
G01X1246094Y1690176D01*
G01X1254454Y1702702D01*
G01X1259486Y1716896D01*
G01X1585742Y1390640D01*
G01X1570857Y1390222D01*
G01X1556519Y1386205D01*
G01X1543583Y1378829D01*
G01X1532824Y1368536D01*
G01X1524883Y1355939D01*
G01X1520236Y1341792D01*
G01X1519160Y1326941D01*
G01X1521719Y1312272D01*
G01X1527761Y1298662D01*
G01X1536924Y1286925D01*
G01X1548661Y1277761D01*
G01X1562271Y1271720D01*
G01X1576940Y1269160D01*
G01X1591792Y1270236D01*
G01X1605938Y1274883D01*
G01X1618535Y1282824D01*
G01X1628829Y1293584D01*
G01X1636204Y1306519D01*
G01X1640221Y1320858D01*
G01X1640639Y1335742D01*
G01X1653192Y1323190D01*
G01X1661044Y1317165D01*
G01X1670188Y1313377D01*
G01X1680001Y1312085D01*
G01X1719999Y1312085D01*
G01X1729812Y1313377D01*
G01X1738956Y1317165D01*
G01X1746809Y1323190D01*
G01X1883098Y1459479D01*
G01X1897099Y1459502D01*
G01X1910725Y1462720D01*
G01X1923256Y1468965D01*
G01X1934030Y1477906D01*
G01X1942478Y1489071D01*
G01X1948154Y1501869D01*
G01X1950758Y1515626D01*
G01X2016686Y1449698D01*
G01X2016686Y1338058D01*
G01X2017978Y1328245D01*
G01X2021765Y1319101D01*
G01X2027791Y1311249D01*
G01X2392450Y946589D01*
G01X2400303Y940564D01*
G01X2409447Y936776D01*
G01X2419260Y935484D01*
G01X2514669Y935484D01*
G01X2510316Y922202D01*
G01X2509105Y908277D01*
G01X2511101Y894443D01*
G01X2516197Y881428D01*
G01X2524126Y869917D01*
G01X2534470Y860516D01*
G01X2546684Y853721D01*
G01X2560126Y849889D01*
G01X2574087Y849222D01*
G01X2587833Y851755D01*
G01X2600640Y857354D01*
G01X2611833Y865726D01*
G01X2620824Y876428D01*
G01X2627138Y888898D01*
G01X2653845Y862191D01*
G01X2661697Y856166D01*
G01X2670841Y852378D01*
G01X2680654Y851086D01*
G01X4189742Y851086D01*
G01X4193466Y837319D01*
G01X4200290Y824795D01*
G01X4209839Y814201D01*
G01X4221589Y806118D01*
G01X4234897Y800988D01*
G01X4249033Y799094D01*
G01X4263221Y800538D01*
G01X4276686Y805243D01*
G01X4288687Y812949D01*
G01X4298567Y823234D01*
G01X4305785Y835535D01*
G01X4309945Y849177D01*
G01X4310818Y863413D01*
G01X4308358Y877461D01*
G01X4302698Y890552D01*
G01X4294149Y901968D01*
G01X4283180Y911084D01*
G01X4270392Y917399D01*
G01X4256487Y920568D01*
G01X4242225Y920416D01*
G01X4232099Y925253D01*
G01X4221000Y926914D01*
G01X4210526Y926914D01*
G01X4233088Y949476D01*
G01X4246700Y949455D01*
G01X4259976Y952456D01*
G01X4272254Y958330D01*
G01X4282922Y966784D01*
G01X4291446Y977395D01*
G01X4297401Y989635D01*
G01X4300489Y1002891D01*
G01X4300557Y1016502D01*
G01X4297601Y1029788D01*
G01X4291768Y1042086D01*
G01X4522324Y1042086D01*
G01X4533039Y1031581D01*
G01X4545998Y1024014D01*
G01X4560413Y1019845D01*
G01X4575410Y1019327D01*
G01X4590079Y1022491D01*
G01X4603529Y1029145D01*
G01X4614945Y1038885D01*
G01X4623633Y1051120D01*
G01X4629066Y1065108D01*
G01X4630914Y1080000D01*
G01X4629066Y1094892D01*
G01X4623633Y1108880D01*
G01X4614945Y1121115D01*
G01X4603529Y1130856D01*
G01X4590079Y1137510D01*
G01X4575410Y1140673D01*
G01X4560413Y1140155D01*
G01X4545998Y1135986D01*
G01X4533039Y1128419D01*
G01X4522324Y1117914D01*
G01X4211046Y1117914D01*
G01X4201233Y1116622D01*
G01X4192089Y1112835D01*
G01X4184237Y1106809D01*
G01X4076341Y998914D01*
G01X3862385Y998914D01*
G01X3867045Y1008638D01*
G01X3869918Y1019031D01*
G01X3870913Y1029768D01*
G01X3885668Y1029350D01*
G01X3900090Y1032494D01*
G01X3913332Y1039015D01*
G01X3924617Y1048529D01*
G01X3933282Y1060479D01*
G01X3938819Y1074162D01*
G01X3940902Y1088775D01*
G01X3939408Y1103459D01*
G01X3934427Y1117354D01*
G01X3926249Y1129642D01*
G01X3915356Y1139603D01*
G01X3902387Y1146651D01*
G01X3888103Y1150373D01*
G01X3873344Y1150549D01*
G01X3858975Y1147171D01*
G01X3845841Y1140435D01*
G01X3834713Y1130738D01*
G01X3826244Y1118649D01*
G01X3820931Y1104877D01*
G01X3819087Y1090232D01*
G01X3810000Y1090914D01*
G01X3800913Y1090232D01*
G01X3799096Y1104768D01*
G01X3793862Y1118450D01*
G01X3785512Y1130487D01*
G01X3774529Y1140182D01*
G01X3761550Y1146975D01*
G01X3747325Y1150472D01*
G01X3732675Y1150472D01*
G01X3718450Y1146975D01*
G01X3705470Y1140182D01*
G01X3694488Y1130487D01*
G01X3686138Y1118450D01*
G01X3680903Y1104768D01*
G01X3679086Y1090232D01*
G01X3670000Y1090914D01*
G01X3660913Y1090232D01*
G01X3659342Y1103749D01*
G01X3654809Y1116579D01*
G01X3647541Y1128083D01*
G01X3637901Y1137686D01*
G01X3626370Y1144910D01*
G01X3613522Y1149394D01*
G01X3600000Y1150914D01*
G01X3586478Y1149394D01*
G01X3573630Y1144910D01*
G01X3562099Y1137687D01*
G01X3552458Y1128083D01*
G01X3545191Y1116579D01*
G01X3540658Y1103749D01*
G01X3539086Y1090232D01*
G01X3523861Y1090604D01*
G01X3509020Y1087187D01*
G01X3495490Y1080195D01*
G01X3484117Y1070066D01*
G01X3475612Y1057432D01*
G01X3470508Y1043083D01*
G01X3469122Y1027916D01*
G01X3471541Y1012880D01*
G01X3477615Y998914D01*
G01X2712040Y998914D01*
G01X2648746Y1062207D01*
G01X2640894Y1068233D01*
G01X2631750Y1072020D01*
G01X2621937Y1073312D01*
G01X2460645Y1073312D01*
G01X2201100Y1332857D01*
G01X2212631Y1338563D01*
G01X2222706Y1346564D01*
G01X2230876Y1356502D01*
G01X2236777Y1367935D01*
G01X2240145Y1380352D01*
G01X2240830Y1393200D01*
G01X2238801Y1405904D01*
G01X2234149Y1417899D01*
G01X2227082Y1428650D01*
G01X2217914Y1437676D01*
G01X2217914Y1760000D01*
G01X2469086Y1760000D01*
G01X2470856Y1745422D01*
G01X2476063Y1731692D01*
G01X2484405Y1719607D01*
G01X2495397Y1709869D01*
G01X2508400Y1703045D01*
G01X2522658Y1699530D01*
G01X2537342Y1699530D01*
G01X2551600Y1703045D01*
G01X2564603Y1709869D01*
G01X2575595Y1719607D01*
G01X2583937Y1731692D01*
G01X2589144Y1745422D01*
G01X2590914Y1760000D01*
G01X2589144Y1774578D01*
G01X2583937Y1788308D01*
G01X2575595Y1800393D01*
G01X2564603Y1810131D01*
G01X2551600Y1816956D01*
G01X2537342Y1820470D01*
G01X2522658Y1820470D01*
G01X2508400Y1816956D01*
G01X2495397Y1810131D01*
G01X2484405Y1800393D01*
G01X2476063Y1788308D01*
G01X2470856Y1774578D01*
G01X2469086Y1760000D01*
G01X2469086Y1760000D01*
G01X2217914Y1760000D01*
G01X2217914Y1910000D01*
G01X3699086Y1910000D01*
G01X3700856Y1895422D01*
G01X3706064Y1881692D01*
G01X3714405Y1869607D01*
G01X3725397Y1859869D01*
G01X3738400Y1853045D01*
G01X3752658Y1849530D01*
G01X3767342Y1849530D01*
G01X3781600Y1853045D01*
G01X3794603Y1859869D01*
G01X3805595Y1869607D01*
G01X3813937Y1881692D01*
G01X3819144Y1895422D01*
G01X3820914Y1910000D01*
G01X3819144Y1924578D01*
G01X3813937Y1938308D01*
G01X3805595Y1950393D01*
G01X3794603Y1960131D01*
G01X3781600Y1966955D01*
G01X3767342Y1970470D01*
G01X3752658Y1970470D01*
G01X3738400Y1966955D01*
G01X3725397Y1960131D01*
G01X3714405Y1950393D01*
G01X3706064Y1938308D01*
G01X3700856Y1924578D01*
G01X3699086Y1910000D01*
G01X3699086Y1910000D01*
G01X2217914Y1910000D01*
G01X2217914Y1990000D01*
G01X4219086Y1990000D01*
G01X4220856Y1975422D01*
G01X4226063Y1961692D01*
G01X4234405Y1949607D01*
G01X4245397Y1939869D01*
G01X4258400Y1933045D01*
G01X4272658Y1929530D01*
G01X4287342Y1929530D01*
G01X4301600Y1933045D01*
G01X4314603Y1939869D01*
G01X4325595Y1949607D01*
G01X4333937Y1961692D01*
G01X4339144Y1975422D01*
G01X4340914Y1990000D01*
G01X4339144Y2004578D01*
G01X4333937Y2018308D01*
G01X4325595Y2030393D01*
G01X4314603Y2040131D01*
G01X4301600Y2046956D01*
G01X4287342Y2050470D01*
G01X4272658Y2050470D01*
G01X4258400Y2046956D01*
G01X4245397Y2040131D01*
G01X4234405Y2030393D01*
G01X4226063Y2018308D01*
G01X4220856Y2004578D01*
G01X4219086Y1990000D01*
G01X4219086Y1990000D01*
G01X2217914Y1990000D01*
G01X2217914Y2191586D01*
G01X2333500Y2191586D01*
G01X2344607Y2193049D01*
G01X2354957Y2197336D01*
G01X2363845Y2204155D01*
G01X2399690Y2240000D01*
G01X2539086Y2240000D01*
G01X2540856Y2225422D01*
G01X2546063Y2211692D01*
G01X2554405Y2199607D01*
G01X2565397Y2189869D01*
G01X2578400Y2183045D01*
G01X2592658Y2179530D01*
G01X2607342Y2179530D01*
G01X2621600Y2183045D01*
G01X2634603Y2189869D01*
G01X2645595Y2199607D01*
G01X2653936Y2211692D01*
G01X2659144Y2225422D01*
G01X2660914Y2240000D01*
G01X2659144Y2254578D01*
G01X2653936Y2268308D01*
G01X2645595Y2280393D01*
G01X2634603Y2290131D01*
G01X2621600Y2296956D01*
G01X2607342Y2300470D01*
G01X2592658Y2300470D01*
G01X2578400Y2296956D01*
G01X2565397Y2290131D01*
G01X2554405Y2280393D01*
G01X2546063Y2268308D01*
G01X2540856Y2254578D01*
G01X2539086Y2240000D01*
G01X2539086Y2240000D01*
G01X2399690Y2240000D01*
G01X2474262Y2314573D01*
G01X2492655Y2309376D01*
G01X2511684Y2307587D01*
G01X2530723Y2309262D01*
G01X2549147Y2314348D01*
G01X2566350Y2322677D01*
G01X2581766Y2333976D01*
G01X2594888Y2347872D01*
G01X2605286Y2363909D01*
G01X2612616Y2381561D01*
G01X2616640Y2400245D01*
G01X2617223Y2419349D01*
G01X2614347Y2438245D01*
G01X2608106Y2456310D01*
G01X2598706Y2472952D01*
G01X2586455Y2487623D01*
G01X2571757Y2499840D01*
G01X2706243Y2499840D01*
G01X2690527Y2486593D01*
G01X2677680Y2470548D01*
G01X2668192Y2452314D01*
G01X2662422Y2432586D01*
G01X2660590Y2412114D01*
G01X2662766Y2391675D01*
G01X2668867Y2372046D01*
G01X2678661Y2353975D01*
G01X2691775Y2338148D01*
G01X2707712Y2325167D01*
G01X2725865Y2315526D01*
G01X2745544Y2309590D01*
G01X2766000Y2307586D01*
G01X2786457Y2309590D01*
G01X2806135Y2315526D01*
G01X2824288Y2325167D01*
G01X2840225Y2338148D01*
G01X2853340Y2353975D01*
G01X2863133Y2372046D01*
G01X2869234Y2391675D01*
G01X2871410Y2412114D01*
G01X2869578Y2432586D01*
G01X2863808Y2452314D01*
G01X2854320Y2470548D01*
G01X2841473Y2486593D01*
G01X2825757Y2499840D01*
G01X2960243Y2499840D01*
G01X2945306Y2487383D01*
G01X2932911Y2472394D01*
G01X2923482Y2455383D01*
G01X2917338Y2436928D01*
G01X2914689Y2417660D01*
G01X2915626Y2398232D01*
G01X2920115Y2379308D01*
G01X2928006Y2361530D01*
G01X2939028Y2345505D01*
G01X2952807Y2331777D01*
G01X2968873Y2320815D01*
G01X2986680Y2312991D01*
G01X3005621Y2308571D01*
G01X3025052Y2307707D01*
G01X3044311Y2310428D01*
G01X3062742Y2316640D01*
G01X3296191Y2083191D01*
G01X3304043Y2077166D01*
G01X3313187Y2073378D01*
G01X3323000Y2072086D01*
G01X4938222Y2072086D01*
G01X4932492Y2060084D01*
G01X4929504Y2047125D01*
G01X4929400Y2033826D01*
G01X4932184Y2020821D01*
G01X4937724Y2008731D01*
G01X4945757Y1998131D01*
G01X4955898Y1989527D01*
G01X4967665Y1983329D01*
G01X4980496Y1979832D01*
G01X4993781Y1979204D01*
G01X5006885Y1981473D01*
G01X5019185Y1986533D01*
G01X5022041Y1971257D01*
G01X5028670Y1957201D01*
G01X5038640Y1945280D01*
G01X5051302Y1936270D01*
G01X5065831Y1930757D01*
G01X5081283Y1929100D01*
G01X5096652Y1931406D01*
G01X5110936Y1937527D01*
G01X5123207Y1947062D01*
G01X5132666Y1959393D01*
G01X5139696Y1945630D01*
G01X5149963Y1934079D01*
G01X5162806Y1925484D01*
G01X5177399Y1920398D01*
G01X5192802Y1919147D01*
G01X5208024Y1921813D01*
G01X5222086Y1928224D01*
G01X5222086Y1701584D01*
G01X5213123Y1713023D01*
G01X5201705Y1722012D01*
G01X5188483Y1728042D01*
G01X5174210Y1730768D01*
G01X5159696Y1730036D01*
G01X5145769Y1725887D01*
G01X5133221Y1718557D01*
G01X5122767Y1708464D01*
G01X5115000Y1696182D01*
G01X5107867Y1707673D01*
G01X5098374Y1717307D01*
G01X5086990Y1724608D01*
G01X5074274Y1729218D01*
G01X5060856Y1730908D01*
G01X5047395Y1729595D01*
G01X5050595Y1743775D01*
G01X5050345Y1758308D01*
G01X5046658Y1772369D01*
G01X5039745Y1785156D01*
G01X5029999Y1795941D01*
G01X5017976Y1804110D01*
G01X5004359Y1809197D01*
G01X4989925Y1810914D01*
G01X4975495Y1809162D01*
G01X4961891Y1804041D01*
G01X4949888Y1795842D01*
G01X4940169Y1785034D01*
G01X4933287Y1772230D01*
G01X4929635Y1758160D01*
G01X4929420Y1743626D01*
G01X4932656Y1729454D01*
G01X4939156Y1716453D01*
G01X4948552Y1705362D01*
G01X4960308Y1696813D01*
G01X4973755Y1691292D01*
G01X4988127Y1689115D01*
G01X5002605Y1690405D01*
G01X4999324Y1675374D01*
G01X4999912Y1660001D01*
G01X5004334Y1645265D01*
G01X5012307Y1632107D01*
G01X5023321Y1621367D01*
G01X5036676Y1613728D01*
G01X5051518Y1609679D01*
G01X5066901Y1609478D01*
G01X5081845Y1613138D01*
G01X5095394Y1620424D01*
G01X5106686Y1630873D01*
G01X5115000Y1643818D01*
G01X5122767Y1631536D01*
G01X5133221Y1621442D01*
G01X5145769Y1614113D01*
G01X5159696Y1609964D01*
G01X5174210Y1609232D01*
G01X5188483Y1611958D01*
G01X5201705Y1617988D01*
G01X5213123Y1626977D01*
G01X5222086Y1638416D01*
G01X5222086Y1610004D01*
G01X5223378Y1600191D01*
G01X5227165Y1591047D01*
G01X5233191Y1583195D01*
G01X5342089Y1474296D01*
G01X5342089Y1440001D01*
G01X5343381Y1430188D01*
G01X5347169Y1421044D01*
G01X5353194Y1413191D01*
G01X5423194Y1343192D01*
G01X5426071Y1340594D01*
G01X5415151Y1331229D01*
G01X5406732Y1319564D01*
G01X5401284Y1306250D01*
G01X5399109Y1292030D01*
G01X5400330Y1277696D01*
G01X5404879Y1264049D01*
G01X5412501Y1251848D01*
G01X5422772Y1241775D01*
G01X5435118Y1234392D01*
G01X5448852Y1230110D01*
G01X5463207Y1229169D01*
G01X5477382Y1231619D01*
G01X5490587Y1237326D01*
G01X5502086Y1245971D01*
G01X5502086Y1154037D01*
G01X5490751Y1162582D01*
G01X5477745Y1168272D01*
G01X5463775Y1170797D01*
G01X5449601Y1170020D01*
G01X5435991Y1165983D01*
G01X5423685Y1158906D01*
G01X5413352Y1149172D01*
G01X5405552Y1137311D01*
G01X5400709Y1123967D01*
G01X5399086Y1109864D01*
G01X5400772Y1095769D01*
G01X5405674Y1082446D01*
G01X5413527Y1070620D01*
G01X5423904Y1060933D01*
G01X5436241Y1053911D01*
G01X5449868Y1049935D01*
G01X5464046Y1049221D01*
G01X5478004Y1051808D01*
G01X5490985Y1057555D01*
G01X5502282Y1066151D01*
G01X5504127Y1057729D01*
G01X5507827Y1049941D01*
G01X5513191Y1043191D01*
G01X5605475Y950906D01*
G01X5605475Y905324D01*
G01X5594253Y909219D01*
G01X5582488Y910861D01*
G01X5570628Y910189D01*
G01X5574935Y924140D01*
G01X5575798Y938716D01*
G01X5573168Y953079D01*
G01X5567195Y966403D01*
G01X5558222Y977922D01*
G01X5546767Y986976D01*
G01X5533485Y993043D01*
G01X5519142Y995775D01*
G01X5504560Y995015D01*
G01X5490578Y990807D01*
G01X5478000Y983393D01*
G01X5467547Y973198D01*
G01X5459820Y960808D01*
G01X5455264Y946936D01*
G01X5454140Y932378D01*
G01X5456513Y917971D01*
G01X5462246Y904542D01*
G01X5471011Y892864D01*
G01X5482303Y883606D01*
G01X5495473Y877302D01*
G01X5509765Y874313D01*
G01X5524358Y874812D01*
G01X5520116Y861210D01*
G01X5519149Y846995D01*
G01X5521511Y832944D01*
G01X5527072Y819826D01*
G01X5535529Y808359D01*
G01X5546418Y799170D01*
G01X5559144Y792762D01*
G01X5519791Y753409D01*
G01X5513765Y745557D01*
G01X5509978Y736413D01*
G01X5508686Y726600D01*
G01X5508686Y546284D01*
G01X5504114Y557945D01*
G01X5497254Y568424D01*
G01X5488396Y577279D01*
G01X5477914Y584135D01*
G01X5477914Y635051D01*
G01X5476622Y644864D01*
G01X5472834Y654008D01*
G01X5466809Y661860D01*
G01X5314518Y814151D01*
G01X5314518Y1045000D01*
G01X5328584Y1044196D01*
G01X5342458Y1046644D01*
G01X5355399Y1052215D01*
G01X5366714Y1060610D01*
G01X5375797Y1071380D01*
G01X5382163Y1083949D01*
G01X5385472Y1097644D01*
G01X5385545Y1111732D01*
G01X5382380Y1125461D01*
G01X5376146Y1138096D01*
G01X5367175Y1148960D01*
G01X5355949Y1157472D01*
G01X5343067Y1163178D01*
G01X5329219Y1165772D01*
G01X5330901Y1180489D01*
G01X5328982Y1195177D01*
G01X5323574Y1208967D01*
G01X5314997Y1221044D01*
G01X5303759Y1230694D01*
G01X5290524Y1237346D01*
G01X5276075Y1240607D01*
G01X5261266Y1240284D01*
G01X5246973Y1236396D01*
G01X5234041Y1229173D01*
G01X5223234Y1219042D01*
G01X5215192Y1206602D01*
G01X5210391Y1192589D01*
G01X5209114Y1177832D01*
G01X5196094Y1180605D01*
G01X5182782Y1180484D01*
G01X5169815Y1177474D01*
G01X5157811Y1171719D01*
G01X5147344Y1163493D01*
G01X5138914Y1153191D01*
G01X5138914Y1185303D01*
G01X5263086Y1309476D01*
G01X5277327Y1309527D01*
G01X5291167Y1312883D01*
G01X5303849Y1319361D01*
G01X5314681Y1328607D01*
G01X5323070Y1340115D01*
G01X5328558Y1353256D01*
G01X5330844Y1367312D01*
G01X5329804Y1381515D01*
G01X5325495Y1395089D01*
G01X5318153Y1407291D01*
G01X5308177Y1417454D01*
G01X5296115Y1425024D01*
G01X5282624Y1429586D01*
G01X5268443Y1430892D01*
G01X5254347Y1428868D01*
G01X5241105Y1423628D01*
G01X5229442Y1415455D01*
G01X5219996Y1404799D01*
G01X5210980Y1415068D01*
G01X5199902Y1423070D01*
G01X5187318Y1428400D01*
G01X5173864Y1430791D01*
G01X5160214Y1430123D01*
G01X5147057Y1426428D01*
G01X5135055Y1419894D01*
G01X5124812Y1410848D01*
G01X5116843Y1399746D01*
G01X5111549Y1387147D01*
G01X5105340Y1400728D01*
G01X5096012Y1412389D01*
G01X5084128Y1421431D01*
G01X5070401Y1427310D01*
G01X5055656Y1429672D01*
G01X5040780Y1428376D01*
G01X5026666Y1423499D01*
G01X5014162Y1415335D01*
G01X5004021Y1404375D01*
G01X4996851Y1391276D01*
G01X4993083Y1376826D01*
G01X4992944Y1361894D01*
G01X4983191Y1352141D01*
G01X4977165Y1344289D01*
G01X4973378Y1335145D01*
G01X4972086Y1325332D01*
G01X4972086Y1231533D01*
G01X4856819Y1346799D01*
G01X4848967Y1352824D01*
G01X4839823Y1356612D01*
G01X4830010Y1357904D01*
G01X4627046Y1357904D01*
G01X4621483Y1363919D01*
G01X4615158Y1369127D01*
G01X4623503Y1380894D01*
G01X4628846Y1394294D01*
G01X4630888Y1408574D01*
G01X4629515Y1422934D01*
G01X4624804Y1436568D01*
G01X4617019Y1448713D01*
G01X4606596Y1458686D01*
G01X4866600Y1458686D01*
G01X4878646Y1460650D01*
G01X4892680Y1459636D01*
G01X4906569Y1461895D01*
G01X4919559Y1467306D01*
G01X4930944Y1475576D01*
G01X4940107Y1486254D01*
G01X4946552Y1498763D01*
G01X4952124Y1493191D01*
G01X4959976Y1487166D01*
G01X4969121Y1483378D01*
G01X4978933Y1482086D01*
G01X5112324Y1482086D01*
G01X5123039Y1471581D01*
G01X5135998Y1464014D01*
G01X5150413Y1459845D01*
G01X5165411Y1459327D01*
G01X5180079Y1462491D01*
G01X5193530Y1469145D01*
G01X5204945Y1478885D01*
G01X5213633Y1491120D01*
G01X5219066Y1505108D01*
G01X5220914Y1520000D01*
G01X5219066Y1534892D01*
G01X5213633Y1548880D01*
G01X5204945Y1561115D01*
G01X5193530Y1570855D01*
G01X5180079Y1577509D01*
G01X5165411Y1580673D01*
G01X5150413Y1580155D01*
G01X5135998Y1575986D01*
G01X5123039Y1568419D01*
G01X5112324Y1557914D01*
G01X4994638Y1557914D01*
G01X4902343Y1650209D01*
G01X4894490Y1656235D01*
G01X4885346Y1660022D01*
G01X4875533Y1661314D01*
G01X4529560Y1661314D01*
G01X4519747Y1660022D01*
G01X4510603Y1656235D01*
G01X4502750Y1650209D01*
G01X4430455Y1577914D01*
G01X4041778Y1577914D01*
G01X4048040Y1591512D01*
G01X4050797Y1606227D01*
G01X4049881Y1621171D01*
G01X4045348Y1635439D01*
G01X4037471Y1648171D01*
G01X4026727Y1658596D01*
G01X4013765Y1666087D01*
G01X3999367Y1670190D01*
G01X3984403Y1670656D01*
G01X3969777Y1667459D01*
G01X3956373Y1660791D01*
G01X3945000Y1651055D01*
G01X3934180Y1660421D01*
G01X3921473Y1667004D01*
G01X3907581Y1670440D01*
G01X3893270Y1670541D01*
G01X3879331Y1667300D01*
G01X3866533Y1660897D01*
G01X3855582Y1651684D01*
G01X3847083Y1640171D01*
G01X3841504Y1626992D01*
G01X3827779Y1630415D01*
G01X3813634Y1630580D01*
G01X3799832Y1627478D01*
G01X3787118Y1621277D01*
G01X3776178Y1612310D01*
G01X3767600Y1601061D01*
G01X3761849Y1588137D01*
G01X3759233Y1574235D01*
G01X3759895Y1560105D01*
G01X3750000Y1560914D01*
G01X3740105Y1560105D01*
G01X3740696Y1575144D01*
G01X3737583Y1589868D01*
G01X3730954Y1603380D01*
G01X3721214Y1614854D01*
G01X3708958Y1623590D01*
G01X3694935Y1629055D01*
G01X3680000Y1630914D01*
G01X3665065Y1629055D01*
G01X3651042Y1623590D01*
G01X3638786Y1614854D01*
G01X3629046Y1603380D01*
G01X3622417Y1589868D01*
G01X3619304Y1575144D01*
G01X3619895Y1560105D01*
G01X3606233Y1560797D01*
G01X3592760Y1558423D01*
G01X3580157Y1553103D01*
G01X3569059Y1545104D01*
G01X3560026Y1534830D01*
G01X3553514Y1522800D01*
G01X3549850Y1509619D01*
G01X3549221Y1495954D01*
G01X3551656Y1482492D01*
G01X3557035Y1469914D01*
G01X3518159Y1469914D01*
G01X3508346Y1468622D01*
G01X3499202Y1464834D01*
G01X3491350Y1458809D01*
G01X3430455Y1397914D01*
G01X2729997Y1397914D01*
G01X2720184Y1396622D01*
G01X2711040Y1392835D01*
G01X2703188Y1386809D01*
G01X2553192Y1236813D01*
G01X2547167Y1228961D01*
G01X2543379Y1219817D01*
G01X2542087Y1210004D01*
G01X2542087Y1207677D01*
G01X2531871Y1197337D01*
G01X2524396Y1184871D01*
G01X2520087Y1170988D01*
G01X2519189Y1156480D01*
G01X2521755Y1142172D01*
G01X2527637Y1128880D01*
G01X2536501Y1117360D01*
G01X2547843Y1108267D01*
G01X2561015Y1102121D01*
G01X2575269Y1099271D01*
G01X2589792Y1099879D01*
G01X2603758Y1103910D01*
G01X2616370Y1111135D01*
G01X2626912Y1121143D01*
G01X2634783Y1133364D01*
G01X2639534Y1147102D01*
G01X2640895Y1161574D01*
G01X2638789Y1175956D01*
G01X2633335Y1189430D01*
G01X2624844Y1201228D01*
G01X2633616Y1210000D01*
G01X2699086Y1210000D01*
G01X2700856Y1195422D01*
G01X2706063Y1181692D01*
G01X2714405Y1169607D01*
G01X2725397Y1159869D01*
G01X2738400Y1153045D01*
G01X2752658Y1149530D01*
G01X2767342Y1149530D01*
G01X2781600Y1153045D01*
G01X2794603Y1159869D01*
G01X2805595Y1169607D01*
G01X2813937Y1181692D01*
G01X2819144Y1195422D01*
G01X2820914Y1210000D01*
G01X2819144Y1224578D01*
G01X2813937Y1238308D01*
G01X2805595Y1250394D01*
G01X2794603Y1260131D01*
G01X2781600Y1266956D01*
G01X2767342Y1270470D01*
G01X2752658Y1270470D01*
G01X2738400Y1266956D01*
G01X2725397Y1260131D01*
G01X2714405Y1250394D01*
G01X2706063Y1238308D01*
G01X2700856Y1224578D01*
G01X2699086Y1210000D01*
G01X2699086Y1210000D01*
G01X2633616Y1210000D01*
G01X2745702Y1322086D01*
G01X2916319Y1322086D01*
G01X2906519Y1311825D01*
G01X2899359Y1299575D01*
G01X2895226Y1286001D01*
G01X2894347Y1271839D01*
G01X2896767Y1257858D01*
G01X2902356Y1244816D01*
G01X2910811Y1233422D01*
G01X2921673Y1224292D01*
G01X2934353Y1217923D01*
G01X2933191Y1216809D01*
G01X2885331Y1168949D01*
G01X2870509Y1170910D01*
G01X2855655Y1169200D01*
G01X2841666Y1163924D01*
G01X2829383Y1155399D01*
G01X2819547Y1144139D01*
G01X2812750Y1130822D01*
G01X2809402Y1116250D01*
G01X2809704Y1101302D01*
G01X2813639Y1086878D01*
G01X2820968Y1073846D01*
G01X2831251Y1062993D01*
G01X2843869Y1054971D01*
G01X2858060Y1050264D01*
G01X2872970Y1049157D01*
G01X2887701Y1051714D01*
G01X2901365Y1057783D01*
G01X2913139Y1066998D01*
G01X2922314Y1078803D01*
G01X2928337Y1092487D01*
G01X2930845Y1107227D01*
G01X2975704Y1152086D01*
G01X3009468Y1152086D01*
G01X3007337Y1149956D01*
G01X2992592Y1147474D01*
G01X2978896Y1141474D01*
G01X2967074Y1132319D01*
G01X2957839Y1120560D01*
G01X2951746Y1106905D01*
G01X2949164Y1092177D01*
G01X2950247Y1077264D01*
G01X2954931Y1063064D01*
G01X2962933Y1050433D01*
G01X2973771Y1040132D01*
G01X2986791Y1032781D01*
G01X3001211Y1028824D01*
G01X3016160Y1028499D01*
G01X3030737Y1031825D01*
G01X3044066Y1038602D01*
G01X3055341Y1048422D01*
G01X3063885Y1060694D01*
G01X3069182Y1074677D01*
G01X3070912Y1089528D01*
G01X3068973Y1104355D01*
G01X3085704Y1121086D01*
G01X3332840Y1121086D01*
G01X3342653Y1122378D01*
G01X3351797Y1126166D01*
G01X3359649Y1132191D01*
G01X3559545Y1332086D01*
G01X4013840Y1332086D01*
G01X4023653Y1333378D01*
G01X4032797Y1337166D01*
G01X4040650Y1343191D01*
G01X4108545Y1411086D01*
G01X4459000Y1411086D01*
G01X4468813Y1412378D01*
G01X4477957Y1416166D01*
G01X4485809Y1422191D01*
G01X4522304Y1458686D01*
G01X4533386Y1458686D01*
G01X4523039Y1448805D01*
G01X4515282Y1436783D01*
G01X4510544Y1423283D01*
G01X4509084Y1409051D01*
G01X4510985Y1394870D01*
G01X4516141Y1381525D01*
G01X4524267Y1369749D01*
G01X4534916Y1360195D01*
G01X4526997Y1348964D01*
G01X4521821Y1336235D01*
G01X4519655Y1322665D01*
G01X4520612Y1308957D01*
G01X4524642Y1295819D01*
G01X4531536Y1283933D01*
G01X4540938Y1273911D01*
G01X4552362Y1266274D01*
G01X4565216Y1261415D01*
G01X4578836Y1259588D01*
G01X4592516Y1260885D01*
G01X4605549Y1265240D01*
G01X4617261Y1272428D01*
G01X4627046Y1282076D01*
G01X4814306Y1282076D01*
G01X4899148Y1197234D01*
G01X4885439Y1190160D01*
G01X4873947Y1179870D01*
G01X4865408Y1167023D01*
G01X4860370Y1152442D01*
G01X4859157Y1137064D01*
G01X4861845Y1121874D01*
G01X4868264Y1107847D01*
G01X4878000Y1095881D01*
G01X4890429Y1086745D01*
G01X4904755Y1081025D01*
G01X4920059Y1079086D01*
G01X4935359Y1081054D01*
G01X4949674Y1086803D01*
G01X4962086Y1095963D01*
G01X4962086Y872188D01*
G01X4963378Y862375D01*
G01X4967165Y853231D01*
G01X4973191Y845379D01*
G01X4983106Y835463D01*
G01X4982714Y828380D01*
G01X4975631Y827988D01*
G01X4887017Y916602D01*
G01X4887017Y973223D01*
G01X4897522Y983939D01*
G01X4905088Y996897D01*
G01X4909257Y1011313D01*
G01X4909776Y1026310D01*
G01X4906612Y1040979D01*
G01X4899958Y1054429D01*
G01X4890218Y1065844D01*
G01X4877982Y1074532D01*
G01X4863994Y1079965D01*
G01X4849103Y1081813D01*
G01X4834211Y1079965D01*
G01X4820223Y1074532D01*
G01X4807987Y1065844D01*
G01X4798247Y1054429D01*
G01X4791593Y1040979D01*
G01X4788429Y1026310D01*
G01X4788948Y1011313D01*
G01X4793117Y996897D01*
G01X4800683Y983939D01*
G01X4811189Y973223D01*
G01X4811189Y900897D01*
G01X4812481Y891085D01*
G01X4816268Y881940D01*
G01X4822293Y874088D01*
G01X4922013Y774369D01*
G01X4921884Y761801D01*
G01X4924338Y749475D01*
G01X4929269Y737914D01*
G01X2870000Y737914D01*
G01X2860187Y736622D01*
G01X2851043Y732835D01*
G01X2843191Y726809D01*
G01X2613191Y496809D01*
G01X2607166Y488957D01*
G01X2603378Y479813D01*
G01X2602086Y470000D01*
G01X2602086Y435741D01*
G01X2590451Y451409D01*
G01X2576128Y464664D01*
G01X2559607Y475052D01*
G01X2541454Y482216D01*
G01X2522291Y485910D01*
G01X2502776Y486010D01*
G01X2483577Y482510D01*
G01X2465352Y475531D01*
G01X2448726Y465312D01*
G01X2434268Y452203D01*
G01X2422475Y436654D01*
G01X2413750Y419197D01*
G01X2408393Y400432D01*
G01X2406586Y381000D01*
G01X2408393Y361568D01*
G01X2413750Y342803D01*
G01X2422475Y325346D01*
G01X2434268Y309797D01*
G01X2448726Y296688D01*
G01X2465352Y286469D01*
G01X2483577Y279490D01*
G01X2502776Y275990D01*
G01X2522291Y276090D01*
G01X2541454Y279784D01*
G01X2559607Y286948D01*
G01X2576128Y297336D01*
G01X2590451Y310591D01*
G01X2602086Y326259D01*
G01X2602086Y270704D01*
G01X2554742Y223360D01*
G01X2536311Y229572D01*
G01X2517052Y232293D01*
G01X2497621Y231429D01*
G01X2478680Y227009D01*
G01X2460873Y219185D01*
G01X2444807Y208223D01*
G01X2431028Y194495D01*
G01X2420006Y178470D01*
G01X2412115Y160692D01*
G01X2407626Y141768D01*
G01X2406689Y122340D01*
G01X2409338Y103072D01*
G01X2415482Y84617D01*
G01X2424911Y67606D01*
G01X2437306Y52617D01*
G01X2452243Y40160D01*
G01X2317757Y40160D01*
G01X2333473Y53407D01*
G01X2346320Y69452D01*
G01X2355808Y87686D01*
G01X2361578Y107414D01*
G01X2363410Y127886D01*
G01X2361234Y148325D01*
G01X2355133Y167954D01*
G01X2345340Y186025D01*
G01X2332225Y201852D01*
G01X2316288Y214833D01*
G01X2298135Y224474D01*
G01X2278457Y230410D01*
G01X2258000Y232414D01*
G01X2237544Y230410D01*
G01X2217865Y224474D01*
G01X2199712Y214833D01*
G01X2183775Y201852D01*
G01X2170661Y186025D01*
G01X2160867Y167954D01*
G01X2154766Y148325D01*
G01X2152590Y127886D01*
G01X2154422Y107414D01*
G01X2160192Y87686D01*
G01X2169680Y69452D01*
G01X2182527Y53407D01*
G01X2198243Y40160D01*
G01X2072837Y40160D01*
G01X2088006Y54732D01*
G01X2100149Y71907D01*
G01X2108827Y91068D01*
G01X2113728Y111523D01*
G01X2114676Y132536D01*
G01X2111636Y153350D01*
G01X2104718Y173214D01*
G01X2094171Y191413D01*
G01X2080375Y207291D01*
G01X2063827Y220276D01*
G01X2045124Y229901D01*
G01X2024939Y235818D01*
G01X2004000Y237814D01*
G01X1983061Y235818D01*
G01X1962876Y229901D01*
G01X1944173Y220276D01*
G01X1927625Y207291D01*
G01X1913829Y191413D01*
G01X1903282Y173214D01*
G01X1896364Y153350D01*
G01X1893324Y132536D01*
G01X1894272Y111523D01*
G01X1899173Y91068D01*
G01X1907852Y71907D01*
G01X1919994Y54732D01*
G01X1935163Y40160D01*
G37*
G36*
G01X1787914Y2032324D02*
G01X1788078Y2032488D01*
G01X1935085Y2032488D01*
G01X1935085Y1942488D01*
G01X1936951Y1924730D01*
G01X1942469Y1907747D01*
G01X1951397Y1892283D01*
G01X1963346Y1879014D01*
G01X1977792Y1868518D01*
G01X1994104Y1861255D01*
G01X2011570Y1857542D01*
G01X2029427Y1857542D01*
G01X2046893Y1861255D01*
G01X2063206Y1868518D01*
G01X2077652Y1879014D01*
G01X2089600Y1892283D01*
G01X2098528Y1907747D01*
G01X2104046Y1924730D01*
G01X2105912Y1942488D01*
G01X2105912Y1942488D01*
G01X2105912Y2032488D01*
G01X2104046Y2050247D01*
G01X2098528Y2067229D01*
G01X2089600Y2082693D01*
G01X2077652Y2095963D01*
G01X2063206Y2106459D01*
G01X2046893Y2113722D01*
G01X2029427Y2117434D01*
G01X2011570Y2117434D01*
G01X1994104Y2113722D01*
G01X1977792Y2106459D01*
G01X1963346Y2095963D01*
G01X1951397Y2082693D01*
G01X1942469Y2067229D01*
G01X1936951Y2050247D01*
G01X1935085Y2032488D01*
G01X1788078Y2032488D01*
G01X1797798Y2042240D01*
G01X1805157Y2054151D01*
G01X1809602Y2067428D01*
G01X1810899Y2081369D01*
G01X1808977Y2095238D01*
G01X1803940Y2108302D01*
G01X1796053Y2119870D01*
G01X1785733Y2129332D01*
G01X1773526Y2136188D01*
G01X1760075Y2140075D01*
G01X1756068Y2153810D01*
G01X1748967Y2166231D01*
G01X1739165Y2176654D01*
G01X1727203Y2184502D01*
G01X1713740Y2189344D01*
G01X1699518Y2190912D01*
G01X1685324Y2189120D01*
G01X1671939Y2184065D01*
G01X1678099Y2200843D01*
G01X1680402Y2218567D01*
G01X1678733Y2236362D01*
G01X1673175Y2253348D01*
G01X1664001Y2268687D01*
G01X1887566Y2268687D01*
G01X1952098Y2204155D01*
G01X1960986Y2197336D01*
G01X1971336Y2193049D01*
G01X1982443Y2191586D01*
G01X2142086Y2191586D01*
G01X2142086Y1531534D01*
G01X1787914Y1885706D01*
G01X1787914Y2032324D01*
G37*
G36*
G01X2960243Y40160D02*
G01X2825757Y40160D01*
G01X2841264Y53193D01*
G01X2853991Y68952D01*
G01X2863470Y86854D01*
G01X2869349Y106238D01*
G01X2871412Y126389D01*
G01X2869583Y146563D01*
G01X2863929Y166014D01*
G01X2854658Y184024D01*
G01X2842114Y199929D01*
G01X2826760Y213141D01*
G01X2916809Y303191D01*
G01X2922784Y310956D01*
G01X2926569Y319992D01*
G01X2927913Y329697D01*
G01X2939475Y312972D01*
G01X2954033Y298778D01*
G01X2971045Y287643D01*
G01X2989879Y279981D01*
G01X3009833Y276078D01*
G01X3030165Y276077D01*
G01X3050119Y279980D01*
G01X3068953Y287642D01*
G01X3085965Y298776D01*
G01X3100523Y312970D01*
G01X3112086Y329694D01*
G01X3112086Y272704D01*
G01X3062742Y223360D01*
G01X3044311Y229572D01*
G01X3025052Y232293D01*
G01X3005621Y231429D01*
G01X2986680Y227009D01*
G01X2968873Y219185D01*
G01X2952807Y208223D01*
G01X2939028Y194495D01*
G01X2928006Y178470D01*
G01X2920115Y160692D01*
G01X2915626Y141768D01*
G01X2914689Y122340D01*
G01X2917338Y103072D01*
G01X2923482Y84617D01*
G01X2932911Y67606D01*
G01X2945306Y52617D01*
G01X2960243Y40160D01*
G37*
G36*
G01X3277468Y631086D02*
G01X3123191Y476809D01*
G01X3117166Y468957D01*
G01X3113378Y459813D01*
G01X3112086Y450000D01*
G01X3112086Y432306D01*
G01X3100524Y449030D01*
G01X3085965Y463223D01*
G01X3068953Y474358D01*
G01X3050120Y482019D01*
G01X3030166Y485923D01*
G01X3009834Y485923D01*
G01X2989880Y482019D01*
G01X2971047Y474358D01*
G01X2954035Y463223D01*
G01X2939477Y449030D01*
G01X2927914Y432306D01*
G01X2927914Y474296D01*
G01X3084705Y631086D01*
G01X3277468Y631086D01*
G37*
G36*
G01X3205163Y40160D02*
G01X3079757Y40160D01*
G01X3093828Y51757D01*
G01X3105691Y65606D01*
G01X3114989Y81292D01*
G01X3121445Y98345D01*
G01X3124865Y116256D01*
G01X3125148Y134488D01*
G01X3122284Y152496D01*
G01X3116360Y169742D01*
G01X3176809Y230191D01*
G01X3182834Y238043D01*
G01X3186622Y247187D01*
G01X3187914Y257000D01*
G01X3187914Y320162D01*
G01X3200826Y305121D01*
G01X3216326Y292763D01*
G01X3233865Y283525D01*
G01X3252824Y277735D01*
G01X3272532Y275596D01*
G01X3292291Y277185D01*
G01X3311404Y282445D01*
G01X3329194Y291191D01*
G01X3345032Y303112D01*
G01X3358358Y317788D01*
G01X3368701Y334699D01*
G01X3375695Y353247D01*
G01X3379093Y372777D01*
G01X3378961Y381000D01*
G01X3422586Y381000D01*
G01X3424612Y360435D01*
G01X3430610Y340660D01*
G01X3440352Y322435D01*
G01X3453461Y306461D01*
G01X3469435Y293352D01*
G01X3487660Y283610D01*
G01X3507435Y277612D01*
G01X3528000Y275586D01*
G01X3548565Y277612D01*
G01X3568340Y283610D01*
G01X3586565Y293352D01*
G01X3602539Y306461D01*
G01X3615649Y322435D01*
G01X3625390Y340660D01*
G01X3631388Y360435D01*
G01X3633414Y381000D01*
G01X3633414Y381000D01*
G01X3631388Y401565D01*
G01X3625390Y421340D01*
G01X3615649Y439565D01*
G01X3602539Y455539D01*
G01X3586565Y468648D01*
G01X3568340Y478390D01*
G01X3548565Y484388D01*
G01X3528000Y486414D01*
G01X3507435Y484388D01*
G01X3487660Y478390D01*
G01X3469435Y468648D01*
G01X3453461Y455539D01*
G01X3440352Y439565D01*
G01X3430610Y421340D01*
G01X3424612Y401565D01*
G01X3422586Y381000D01*
G01X3378961Y381000D01*
G01X3378774Y392598D01*
G01X3374750Y412008D01*
G01X3367163Y430322D01*
G01X3356282Y446892D01*
G01X3342491Y461132D01*
G01X3326278Y472538D01*
G01X3308216Y480706D01*
G01X3288944Y485349D01*
G01X3269144Y486302D01*
G01X3249515Y483531D01*
G01X3230752Y477134D01*
G01X3353705Y600086D01*
G01X5035681Y600086D01*
G01X5045494Y601378D01*
G01X5054638Y605166D01*
G01X5062490Y611191D01*
G01X5195837Y744538D01*
G01X5201862Y752390D01*
G01X5205650Y761534D01*
G01X5206942Y771347D01*
G01X5206942Y880502D01*
G01X5205650Y890315D01*
G01X5201862Y899459D01*
G01X5195837Y907311D01*
G01X5138914Y964234D01*
G01X5138914Y1086805D01*
G01X5147762Y1076096D01*
G01X5158806Y1067671D01*
G01X5171472Y1061967D01*
G01X5185101Y1059280D01*
G01X5198985Y1059752D01*
G01X5212400Y1063356D01*
G01X5224650Y1069906D01*
G01X5228431Y1060025D01*
G01X5234795Y1051574D01*
G01X5238690Y1047679D01*
G01X5238690Y798447D01*
G01X5239982Y788634D01*
G01X5243769Y779490D01*
G01X5249795Y771638D01*
G01X5402086Y619346D01*
G01X5402086Y567626D01*
G01X5394772Y555721D01*
G01X5390364Y542462D01*
G01X5389092Y528548D01*
G01X5391025Y514710D01*
G01X5396060Y501676D01*
G01X5403933Y490133D01*
G01X5414228Y480687D01*
G01X5426405Y473836D01*
G01X5439823Y469939D01*
G01X5453776Y469203D01*
G01X5467530Y471665D01*
G01X5480361Y477197D01*
G01X5491593Y485506D01*
G01X5500637Y496157D01*
G01X5507016Y508588D01*
G01X5510395Y522146D01*
G01X5514147Y513797D01*
G01X5519791Y506591D01*
G01X5616769Y409613D01*
G01X5611353Y396464D01*
G01X5609134Y382417D01*
G01X5610232Y368239D01*
G01X5614588Y354701D01*
G01X5621964Y342543D01*
G01X5631958Y332426D01*
G01X5644025Y324902D01*
G01X5657508Y320381D01*
G01X5671672Y319109D01*
G01X5685745Y321156D01*
G01X5698959Y326410D01*
G01X5710596Y334585D01*
G01X5720019Y345235D01*
G01X5726717Y357780D01*
G01X5730323Y371536D01*
G01X5730642Y385754D01*
G01X5727655Y399657D01*
G01X5721526Y412489D01*
G01X5712589Y423551D01*
G01X5701331Y432239D01*
G01X5700209Y433409D01*
G01X5584514Y549105D01*
G01X5584514Y644674D01*
G01X5597665Y640348D01*
G01X5611454Y639104D01*
G01X5625168Y641005D01*
G01X5638098Y645954D01*
G01X5649576Y653694D01*
G01X5659011Y663827D01*
G01X5665913Y675829D01*
G01X5669927Y689079D01*
G01X5683957Y684310D01*
G01X5698723Y683070D01*
G01X5713352Y685432D01*
G01X5702697Y669058D01*
G01X5695247Y650999D01*
G01X5691257Y631876D01*
G01X5690865Y612344D01*
G01X5694083Y593076D01*
G01X5700801Y574732D01*
G01X5710789Y557943D01*
G01X5723703Y543285D01*
G01X5739100Y531262D01*
G01X5756451Y522286D01*
G01X5775161Y516667D01*
G01X5794586Y514596D01*
G01X5794586Y477914D01*
G01X5790000Y477914D01*
G01X5780601Y476426D01*
G01X5772123Y472106D01*
G01X5765394Y465377D01*
G01X5761074Y456899D01*
G01X5759586Y447500D01*
G01X5759586Y352500D01*
G01X5761330Y342348D01*
G01X5766363Y333361D01*
G01X5774108Y326568D01*
G01X5783675Y322751D01*
G01X5774223Y319652D01*
G01X5765988Y314072D01*
G01X5759605Y306442D01*
G01X5755568Y297351D01*
G01X5754186Y287500D01*
G01X5754186Y192500D01*
G01X5755939Y181433D01*
G01X5761026Y171449D01*
G01X5768949Y163526D01*
G01X5778933Y158439D01*
G01X5790000Y156686D01*
G01X5799840Y156686D01*
G01X5799840Y40160D01*
G01X5628837Y40160D01*
G01X5644006Y54732D01*
G01X5656149Y71907D01*
G01X5664827Y91068D01*
G01X5669728Y111523D01*
G01X5670676Y132536D01*
G01X5667636Y153350D01*
G01X5660718Y173214D01*
G01X5650171Y191413D01*
G01X5636375Y207291D01*
G01X5619827Y220276D01*
G01X5601124Y229901D01*
G01X5580939Y235818D01*
G01X5560000Y237814D01*
G01X5539061Y235818D01*
G01X5518876Y229901D01*
G01X5500173Y220276D01*
G01X5483625Y207291D01*
G01X5469829Y191413D01*
G01X5459282Y173214D01*
G01X5452364Y153350D01*
G01X5449324Y132536D01*
G01X5450272Y111523D01*
G01X5455173Y91068D01*
G01X5463852Y71907D01*
G01X5475994Y54732D01*
G01X5491163Y40160D01*
G01X5365757Y40160D01*
G01X5380210Y52133D01*
G01X5392310Y66480D01*
G01X5401674Y82745D01*
G01X5408006Y100412D01*
G01X5411104Y118923D01*
G01X5410871Y137689D01*
G01X5407313Y156117D01*
G01X5400544Y173622D01*
G01X5390778Y189649D01*
G01X5378324Y203690D01*
G01X5363578Y215300D01*
G01X5347007Y224111D01*
G01X5329136Y229844D01*
G01X5310532Y232316D01*
G01X5291784Y231451D01*
G01X5273486Y227274D01*
G01X5216880Y283880D01*
G01X5206957Y291495D01*
G01X5195401Y296281D01*
G01X5183000Y297914D01*
G01X5119259Y297914D01*
G01X5117558Y298451D01*
G01X5131724Y312035D01*
G01X5143127Y328010D01*
G01X5151371Y345821D01*
G01X5156170Y364852D01*
G01X5157358Y384443D01*
G01X5154893Y403915D01*
G01X5148862Y422592D01*
G01X5139473Y439827D01*
G01X5152851Y443535D01*
G01X5165043Y450176D01*
G01X5175415Y459404D01*
G01X5183427Y470742D01*
G01X5194791Y460295D01*
G01X5208416Y453040D01*
G01X5223427Y449442D01*
G01X5238860Y449734D01*
G01X5253724Y453895D01*
G01X5267066Y461659D01*
G01X5278027Y472528D01*
G01X5285904Y485802D01*
G01X5290192Y500631D01*
G01X5290614Y516061D01*
G01X5287145Y531102D01*
G01X5280006Y544788D01*
G01X5269656Y556240D01*
G01X5256759Y564723D01*
G01X5242145Y569692D01*
G01X5226751Y570827D01*
G01X5211565Y568057D01*
G01X5197564Y561558D01*
G01X5185645Y551749D01*
G01X5176576Y539258D01*
G01X5166661Y548646D01*
G01X5154905Y555590D01*
G01X5141897Y559741D01*
G01X5128291Y560890D01*
G01X5114772Y558980D01*
G01X5102017Y554106D01*
G01X5090669Y546514D01*
G01X5081296Y536585D01*
G01X5074371Y524818D01*
G01X5070241Y511803D01*
G01X5069113Y498196D01*
G01X5071044Y484679D01*
G01X5051402Y486412D01*
G01X5031780Y484457D01*
G01X5012866Y478881D01*
G01X4995322Y469880D01*
G01X4979760Y457769D01*
G01X4966727Y442972D01*
G01X4956677Y426006D01*
G01X4949963Y407466D01*
G01X4946819Y387999D01*
G01X4947355Y368288D01*
G01X4951554Y349021D01*
G01X4959267Y330874D01*
G01X4970225Y314480D01*
G01X4984044Y300414D01*
G01X4865956Y300414D01*
G01X4879804Y314516D01*
G01X4890777Y330955D01*
G01X4898488Y349153D01*
G01X4902667Y368471D01*
G01X4903166Y388229D01*
G01X4899968Y407733D01*
G01X4893185Y426298D01*
G01X4883057Y443269D01*
G01X4869938Y458052D01*
G01X4854290Y470127D01*
G01X4836663Y479068D01*
G01X4817678Y484561D01*
G01X4798000Y486414D01*
G01X4778323Y484561D01*
G01X4759337Y479068D01*
G01X4741710Y470127D01*
G01X4726062Y458052D01*
G01X4712944Y443269D01*
G01X4702815Y426298D01*
G01X4696032Y407733D01*
G01X4692834Y388229D01*
G01X4693333Y368471D01*
G01X4697512Y349153D01*
G01X4705223Y330955D01*
G01X4716196Y314516D01*
G01X4730044Y300414D01*
G01X4611956Y300414D01*
G01X4625804Y314516D01*
G01X4636777Y330955D01*
G01X4644488Y349153D01*
G01X4648667Y368471D01*
G01X4649166Y388229D01*
G01X4645968Y407733D01*
G01X4639185Y426298D01*
G01X4629057Y443269D01*
G01X4615938Y458052D01*
G01X4600290Y470127D01*
G01X4582663Y479068D01*
G01X4563678Y484561D01*
G01X4544000Y486414D01*
G01X4524323Y484561D01*
G01X4505337Y479068D01*
G01X4487710Y470127D01*
G01X4472062Y458052D01*
G01X4458944Y443269D01*
G01X4448815Y426298D01*
G01X4442032Y407733D01*
G01X4438834Y388229D01*
G01X4439333Y368471D01*
G01X4443512Y349153D01*
G01X4451223Y330955D01*
G01X4462196Y314516D01*
G01X4476044Y300414D01*
G01X4357956Y300414D01*
G01X4371804Y314516D01*
G01X4382777Y330955D01*
G01X4390488Y349153D01*
G01X4394667Y368471D01*
G01X4395166Y388229D01*
G01X4391968Y407733D01*
G01X4385185Y426298D01*
G01X4375057Y443269D01*
G01X4361938Y458052D01*
G01X4346290Y470127D01*
G01X4328663Y479068D01*
G01X4309678Y484561D01*
G01X4290000Y486414D01*
G01X4270323Y484561D01*
G01X4251337Y479068D01*
G01X4233710Y470127D01*
G01X4218062Y458052D01*
G01X4204944Y443269D01*
G01X4194815Y426298D01*
G01X4188032Y407733D01*
G01X4184834Y388229D01*
G01X4185333Y368471D01*
G01X4189512Y349153D01*
G01X4197223Y330955D01*
G01X4208196Y314516D01*
G01X4222044Y300414D01*
G01X4103956Y300414D01*
G01X4117804Y314516D01*
G01X4128777Y330955D01*
G01X4136488Y349153D01*
G01X4140667Y368471D01*
G01X4141166Y388229D01*
G01X4137968Y407733D01*
G01X4131185Y426298D01*
G01X4121057Y443269D01*
G01X4107938Y458052D01*
G01X4092290Y470127D01*
G01X4074663Y479068D01*
G01X4055678Y484561D01*
G01X4036000Y486414D01*
G01X4016323Y484561D01*
G01X3997337Y479068D01*
G01X3979710Y470127D01*
G01X3964062Y458052D01*
G01X3950944Y443269D01*
G01X3940815Y426298D01*
G01X3934032Y407733D01*
G01X3930834Y388229D01*
G01X3931333Y368471D01*
G01X3935512Y349153D01*
G01X3943223Y330955D01*
G01X3954196Y314516D01*
G01X3968044Y300414D01*
G01X3849956Y300414D01*
G01X3863804Y314516D01*
G01X3874777Y330955D01*
G01X3882488Y349153D01*
G01X3886667Y368471D01*
G01X3887166Y388229D01*
G01X3883968Y407733D01*
G01X3877185Y426298D01*
G01X3867057Y443269D01*
G01X3853938Y458052D01*
G01X3838290Y470127D01*
G01X3820663Y479068D01*
G01X3801678Y484561D01*
G01X3782000Y486414D01*
G01X3762323Y484561D01*
G01X3743337Y479068D01*
G01X3725710Y470127D01*
G01X3710062Y458052D01*
G01X3696944Y443269D01*
G01X3686815Y426298D01*
G01X3680032Y407733D01*
G01X3676834Y388229D01*
G01X3677333Y368471D01*
G01X3681512Y349153D01*
G01X3689223Y330955D01*
G01X3700196Y314516D01*
G01X3714044Y300414D01*
G01X3653500Y300414D01*
G01X3641099Y298781D01*
G01X3629543Y293995D01*
G01X3619620Y286380D01*
G01X3560514Y227274D01*
G01X3542217Y231451D01*
G01X3523468Y232316D01*
G01X3504864Y229844D01*
G01X3486993Y224111D01*
G01X3470422Y215300D01*
G01X3455676Y203690D01*
G01X3443223Y189649D01*
G01X3433456Y173622D01*
G01X3426687Y156117D01*
G01X3423129Y137689D01*
G01X3422896Y118923D01*
G01X3425994Y100412D01*
G01X3432326Y82745D01*
G01X3441690Y66480D01*
G01X3453790Y52133D01*
G01X3468243Y40160D01*
G01X3342837Y40160D01*
G01X3358006Y54732D01*
G01X3370149Y71907D01*
G01X3378827Y91068D01*
G01X3383728Y111523D01*
G01X3384676Y132536D01*
G01X3381636Y153350D01*
G01X3374718Y173214D01*
G01X3364171Y191413D01*
G01X3350375Y207291D01*
G01X3333827Y220276D01*
G01X3315124Y229901D01*
G01X3294939Y235818D01*
G01X3274000Y237814D01*
G01X3253061Y235818D01*
G01X3232876Y229901D01*
G01X3214173Y220276D01*
G01X3197625Y207291D01*
G01X3183829Y191413D01*
G01X3173282Y173214D01*
G01X3166364Y153350D01*
G01X3163324Y132536D01*
G01X3164272Y111523D01*
G01X3169173Y91068D01*
G01X3177852Y71907D01*
G01X3189994Y54732D01*
G01X3205163Y40160D01*
G37*
G36*
G01X3565914Y2314640D02*
G01X3582993Y2323067D01*
G01X3598277Y2334430D01*
G01X3611267Y2348357D01*
G01X3621539Y2364394D01*
G01X3628758Y2382018D01*
G01X3632688Y2400653D01*
G01X3633201Y2419691D01*
G01X3630281Y2438510D01*
G01X3624021Y2456497D01*
G01X3614628Y2473064D01*
G01X3602407Y2487671D01*
G01X3587757Y2499840D01*
G01X3722243Y2499840D01*
G01X3706527Y2486593D01*
G01X3693680Y2470548D01*
G01X3684192Y2452314D01*
G01X3678422Y2432586D01*
G01X3676590Y2412114D01*
G01X3678766Y2391675D01*
G01X3684867Y2372046D01*
G01X3694661Y2353975D01*
G01X3707775Y2338148D01*
G01X3723712Y2325167D01*
G01X3741865Y2315526D01*
G01X3761544Y2309590D01*
G01X3782000Y2307586D01*
G01X3802457Y2309590D01*
G01X3822135Y2315526D01*
G01X3840288Y2325167D01*
G01X3856225Y2338148D01*
G01X3869340Y2353975D01*
G01X3879133Y2372046D01*
G01X3885234Y2391675D01*
G01X3887410Y2412114D01*
G01X3885578Y2432586D01*
G01X3879808Y2452314D01*
G01X3870320Y2470548D01*
G01X3857473Y2486593D01*
G01X3841757Y2499840D01*
G01X3976243Y2499840D01*
G01X3960527Y2486593D01*
G01X3947680Y2470548D01*
G01X3938192Y2452314D01*
G01X3932422Y2432586D01*
G01X3930590Y2412114D01*
G01X3932766Y2391675D01*
G01X3938867Y2372046D01*
G01X3948661Y2353975D01*
G01X3961775Y2338148D01*
G01X3977712Y2325167D01*
G01X3995865Y2315526D01*
G01X4015544Y2309590D01*
G01X4036000Y2307586D01*
G01X4056457Y2309590D01*
G01X4076135Y2315526D01*
G01X4094288Y2325167D01*
G01X4110225Y2338148D01*
G01X4123340Y2353975D01*
G01X4133133Y2372046D01*
G01X4139234Y2391675D01*
G01X4141410Y2412114D01*
G01X4139578Y2432586D01*
G01X4133808Y2452314D01*
G01X4124320Y2470548D01*
G01X4111473Y2486593D01*
G01X4095757Y2499840D01*
G01X4230243Y2499840D01*
G01X4214527Y2486593D01*
G01X4201680Y2470548D01*
G01X4192192Y2452314D01*
G01X4186422Y2432586D01*
G01X4184590Y2412114D01*
G01X4186766Y2391675D01*
G01X4192867Y2372046D01*
G01X4202661Y2353975D01*
G01X4215775Y2338148D01*
G01X4231712Y2325167D01*
G01X4249865Y2315526D01*
G01X4269544Y2309590D01*
G01X4290000Y2307586D01*
G01X4310457Y2309590D01*
G01X4330135Y2315526D01*
G01X4348288Y2325167D01*
G01X4364225Y2338148D01*
G01X4377340Y2353975D01*
G01X4387133Y2372046D01*
G01X4393234Y2391675D01*
G01X4395410Y2412114D01*
G01X4393578Y2432586D01*
G01X4387808Y2452314D01*
G01X4378320Y2470548D01*
G01X4365473Y2486593D01*
G01X4349757Y2499840D01*
G01X4484243Y2499840D01*
G01X4468527Y2486593D01*
G01X4455680Y2470548D01*
G01X4446192Y2452314D01*
G01X4440422Y2432586D01*
G01X4438590Y2412114D01*
G01X4440766Y2391675D01*
G01X4446867Y2372046D01*
G01X4456661Y2353975D01*
G01X4469775Y2338148D01*
G01X4485712Y2325167D01*
G01X4503865Y2315526D01*
G01X4523544Y2309590D01*
G01X4544000Y2307586D01*
G01X4564457Y2309590D01*
G01X4584135Y2315526D01*
G01X4602288Y2325167D01*
G01X4618225Y2338148D01*
G01X4631340Y2353975D01*
G01X4641133Y2372046D01*
G01X4647234Y2391675D01*
G01X4649410Y2412114D01*
G01X4647578Y2432586D01*
G01X4641808Y2452314D01*
G01X4632320Y2470548D01*
G01X4619473Y2486593D01*
G01X4603757Y2499840D01*
G01X4738243Y2499840D01*
G01X4722527Y2486593D01*
G01X4709680Y2470548D01*
G01X4700192Y2452314D01*
G01X4694422Y2432586D01*
G01X4692590Y2412114D01*
G01X4694766Y2391675D01*
G01X4700867Y2372046D01*
G01X4710661Y2353975D01*
G01X4723775Y2338148D01*
G01X4739712Y2325167D01*
G01X4757865Y2315526D01*
G01X4777544Y2309590D01*
G01X4798000Y2307586D01*
G01X4818457Y2309590D01*
G01X4838135Y2315526D01*
G01X4856288Y2325167D01*
G01X4872225Y2338148D01*
G01X4885340Y2353975D01*
G01X4895133Y2372046D01*
G01X4901234Y2391675D01*
G01X4903410Y2412114D01*
G01X4901578Y2432586D01*
G01X4895808Y2452314D01*
G01X4886320Y2470548D01*
G01X4873473Y2486593D01*
G01X4857757Y2499840D01*
G01X4992243Y2499840D01*
G01X4976527Y2486593D01*
G01X4963680Y2470548D01*
G01X4954192Y2452314D01*
G01X4948422Y2432586D01*
G01X4946590Y2412114D01*
G01X4948766Y2391675D01*
G01X4954867Y2372046D01*
G01X4964661Y2353975D01*
G01X4977775Y2338148D01*
G01X4993712Y2325167D01*
G01X5011865Y2315526D01*
G01X5031544Y2309590D01*
G01X5052000Y2307586D01*
G01X5072457Y2309590D01*
G01X5092135Y2315526D01*
G01X5110288Y2325167D01*
G01X5126225Y2338148D01*
G01X5139340Y2353975D01*
G01X5149133Y2372046D01*
G01X5155234Y2391675D01*
G01X5157410Y2412114D01*
G01X5155578Y2432586D01*
G01X5149808Y2452314D01*
G01X5140320Y2470548D01*
G01X5127473Y2486593D01*
G01X5111757Y2499840D01*
G01X5246243Y2499840D01*
G01X5230527Y2486593D01*
G01X5217680Y2470548D01*
G01X5208192Y2452314D01*
G01X5202422Y2432586D01*
G01X5200590Y2412114D01*
G01X5202766Y2391675D01*
G01X5208867Y2372046D01*
G01X5218661Y2353975D01*
G01X5231775Y2338148D01*
G01X5247712Y2325167D01*
G01X5265865Y2315526D01*
G01X5285544Y2309590D01*
G01X5306000Y2307586D01*
G01X5326457Y2309590D01*
G01X5346135Y2315526D01*
G01X5364288Y2325167D01*
G01X5380225Y2338148D01*
G01X5393340Y2353975D01*
G01X5403133Y2372046D01*
G01X5409234Y2391675D01*
G01X5411410Y2412114D01*
G01X5409578Y2432586D01*
G01X5403808Y2452314D01*
G01X5394320Y2470548D01*
G01X5381473Y2486593D01*
G01X5365757Y2499840D01*
G01X5491163Y2499840D01*
G01X5475994Y2485268D01*
G01X5463852Y2468093D01*
G01X5455173Y2448932D01*
G01X5450272Y2428477D01*
G01X5449324Y2407464D01*
G01X5452364Y2386650D01*
G01X5459282Y2366786D01*
G01X5469829Y2348587D01*
G01X5483625Y2332709D01*
G01X5500173Y2319724D01*
G01X5518876Y2310099D01*
G01X5539061Y2304182D01*
G01X5560000Y2302186D01*
G01X5580939Y2304182D01*
G01X5601124Y2310099D01*
G01X5619827Y2319724D01*
G01X5636375Y2332709D01*
G01X5650171Y2348587D01*
G01X5660718Y2366786D01*
G01X5667636Y2386650D01*
G01X5670676Y2407464D01*
G01X5669728Y2428477D01*
G01X5664827Y2448932D01*
G01X5656149Y2468093D01*
G01X5644006Y2485268D01*
G01X5628837Y2499840D01*
G01X5799840Y2499840D01*
G01X5799840Y2188914D01*
G01X5707160Y2188914D01*
G01X5697347Y2187622D01*
G01X5688203Y2183834D01*
G01X5680350Y2177809D01*
G01X5503055Y2000514D01*
G01X5488728Y1997079D01*
G01X5475645Y1990305D01*
G01X5464571Y1980588D01*
G01X5456153Y1968496D01*
G01X5456153Y2120681D01*
G01X5470450Y2119088D01*
G01X5484722Y2120892D01*
G01X5498173Y2125993D01*
G01X5510052Y2134105D01*
G01X5519698Y2144778D01*
G01X5526572Y2157414D01*
G01X5530291Y2171311D01*
G01X5530647Y2185692D01*
G01X5527621Y2199755D01*
G01X5521382Y2212717D01*
G01X5512277Y2223854D01*
G01X5500814Y2232545D01*
G01X5487632Y2238306D01*
G01X5473467Y2240815D01*
G01X5459109Y2239932D01*
G01X5445358Y2235707D01*
G01X5432981Y2228375D01*
G01X5422669Y2218345D01*
G01X5414997Y2206176D01*
G01X5410392Y2192548D01*
G01X5404131Y2198809D01*
G01X5396279Y2204834D01*
G01X5387135Y2208622D01*
G01X5377322Y2209914D01*
G01X3583704Y2209914D01*
G01X3565914Y2227704D01*
G01X3565914Y2314640D01*
G37*
G36*
G01X5735704Y2082086D02*
G01X5799840Y2082086D01*
G01X5799840Y783778D01*
G01X5747914Y835704D01*
G01X5747914Y1059986D01*
G01X5746622Y1069799D01*
G01X5742834Y1078943D01*
G01X5736809Y1086796D01*
G01X5690510Y1133095D01*
G01X5690519Y1146820D01*
G01X5687455Y1160200D01*
G01X5681473Y1172553D01*
G01X5672877Y1183254D01*
G01X5662104Y1191758D01*
G01X5649699Y1197634D01*
G01X5636294Y1200584D01*
G01X5622569Y1200458D01*
G01X5609221Y1197262D01*
G01X5596927Y1191158D01*
G01X5586312Y1182457D01*
G01X5577914Y1171600D01*
G01X5577914Y1330004D01*
G01X5576622Y1339817D01*
G01X5572835Y1348961D01*
G01X5566809Y1356813D01*
G01X5526812Y1396810D01*
G01X5518960Y1402835D01*
G01X5509816Y1406623D01*
G01X5500003Y1407915D01*
G01X5465707Y1407915D01*
G01X5417917Y1455705D01*
G01X5417917Y1490001D01*
G01X5416625Y1499814D01*
G01X5412837Y1508958D01*
G01X5406812Y1516810D01*
G01X5297914Y1625708D01*
G01X5297914Y1628222D01*
G01X5309037Y1622807D01*
G01X5321025Y1619751D01*
G01X5333384Y1619180D01*
G01X5345602Y1621118D01*
G01X5376930Y1589791D01*
G01X5384782Y1583765D01*
G01X5393926Y1579978D01*
G01X5403739Y1578686D01*
G01X5456261Y1578686D01*
G01X5466074Y1579978D01*
G01X5475218Y1583765D01*
G01X5483070Y1589791D01*
G01X5520209Y1626930D01*
G01X5526235Y1634782D01*
G01X5530022Y1643926D01*
G01X5531314Y1653739D01*
G01X5531314Y1726600D01*
G01X5531307Y1727326D01*
G01X5544107Y1721322D01*
G01X5557947Y1718431D01*
G01X5572080Y1718808D01*
G01X5585745Y1722433D01*
G01X5598207Y1729111D01*
G01X5608794Y1738482D01*
G01X5616935Y1750041D01*
G01X5622192Y1763165D01*
G01X5624282Y1777148D01*
G01X5623092Y1791236D01*
G01X5618687Y1804670D01*
G01X5611303Y1816727D01*
G01X5611303Y1957685D01*
G01X5735704Y2082086D01*
G37*
G54D10*
G01X1935163Y40160D02*
G01X1809757Y40160D01*
G03X1750000Y232414I-59757J86840D01*
G03X1690243Y40160I0J-105414D01*
G01X201423Y40160D01*
G01X134079Y59401D01*
G01X87186Y87537D01*
G01X69051Y114739D01*
G01X58264Y142017D01*
G01X40160Y201511D01*
G01X40160Y2348211D01*
G01X57589Y2396149D01*
G01X97208Y2442792D01*
G01X143636Y2482229D01*
G01X201512Y2499840D01*
G01X1090013Y2499840D01*
G03X1065088Y2437503I65488J-62337D01*
G01X1065088Y2377503D01*
G03X1245915Y2377503I90414J0D01*
G01X1245915Y2437503D01*
G03X1220990Y2499840I-90414J0D01*
G01X1955010Y2499840D01*
G03X1930085Y2437503I65488J-62337D01*
G01X1930085Y2377503D01*
G03X1938746Y2338886I90414J0D01*
G01X1935686Y2341946D01*
G03X1905342Y2354515I-30345J-30345D01*
G01X1371601Y2354515D01*
G03X1341257Y2341946I0J-42914D01*
G01X1252224Y2252914D01*
G01X1123233Y2252914D01*
G03X1019087Y2210003I-43232J-42913D01*
G03X1123230Y2167086I60914J-2D01*
G01X1270000Y2167086D01*
G03X1300344Y2179655I0J42914D01*
G01X1321829Y2201140D01*
G03X1385462Y2140912I78171J18861D01*
G01X1459475Y2066899D01*
G03X1488028Y2008146I60521J-6903D01*
G03X1553346Y2009022I31969J51851D01*
G03X1571875Y2004186I18529J33078D01*
G01X1612195Y2004186D01*
G01X1650086Y1966295D01*
G01X1650086Y1832002D01*
G03X1661191Y1805193I37914J0D01*
G01X1825741Y1640643D01*
G03X1760176Y1591472I-5741J-60643D01*
G01X1674352Y1505648D01*
G03X1659786Y1474482I35648J-35648D01*
G03X1649357Y1434262I50214J-34482D01*
G01X1257309Y1826309D01*
G03X1230500Y1837414I-26809J-26809D01*
G01X1136219Y1837414D01*
G01X670851Y2302782D01*
G03X560969Y2336146I-60850J-2781D01*
G03X625344Y2241052I49031J-36145D01*
G01X1093705Y1772691D01*
G03X1120514Y1761586I26809J26809D01*
G01X1147915Y1761586D01*
G03X1177348Y1673450I52083J-31590D01*
G03X1259486Y1716896I22650J56546D01*
G01X1585742Y1390640D01*
G03X1536924Y1286925I-5745J-60642D01*
G03X1640639Y1335742I43073J43073D01*
G01X1653192Y1323190D01*
G03X1680001Y1312085I26809J26809D01*
G01X1719999Y1312085D01*
G03X1746809Y1323190I0J37914D01*
G01X1883098Y1459479D01*
G03X1950758Y1515626I6903J60521D01*
G01X2016686Y1449698D01*
G01X2016686Y1338058D01*
G03X2027791Y1311249I37914J0D01*
G01X2392450Y946589D01*
G03X2419260Y935484I26809J26809D01*
G01X2514669Y935484D01*
G03X2546684Y853721I55326J-25486D01*
G03X2627138Y888898I23311J56277D01*
G01X2653845Y862191D01*
G03X2680654Y851086I26809J26809D01*
G01X4189742Y851086D01*
G03X4298567Y823234I60258J8914D01*
G03X4242225Y920416I-48567J36766D01*
G03X4221000Y926914I-21225J-31416D01*
G01X4210526Y926914D01*
G01X4233088Y949476D01*
G03X4291446Y977395I6903J60521D01*
G03X4291768Y1042086I-51454J32603D01*
G01X4522324Y1042086D01*
G03X4630914Y1080000I47676J37914D01*
G03X4522324Y1117914I-60914J0D01*
G01X4211046Y1117914D01*
G03X4184237Y1106809I0J-37914D01*
G01X4076341Y998914D01*
G01X3862385Y998914D01*
G03X3870913Y1029768I-52385J31086D01*
G03X3926249Y1129642I9087J60232D01*
G03X3819087Y1090232I-46249J-39642D01*
G03X3800913Y1090232I-9087J-60232D01*
G03X3679086Y1090232I-60913J-232D01*
G03X3660913Y1090232I-9086J-60232D01*
G03X3600000Y1150914I-60913J-232D01*
G03X3539086Y1090232I0J-60914D01*
G03X3477615Y998914I-9086J-60232D01*
G01X2712040Y998914D01*
G01X2648746Y1062207D01*
G03X2621937Y1073312I-26809J-26809D01*
G01X2460645Y1073312D01*
G01X2201100Y1332857D01*
G03X2240145Y1380352I-21100J57143D01*
G03X2217914Y1437676I-60145J9648D01*
G01X2217914Y2191586D01*
G01X2333500Y2191586D01*
G03X2363845Y2204155I0J42914D01*
G01X2474262Y2314573D01*
G03X2605286Y2363909I37738J98427D01*
G03X2571757Y2499840I-93286J49091D01*
G01X2706243Y2499840D01*
G03X2766000Y2307586I59757J-86840D01*
G03X2825757Y2499840I0J105414D01*
G01X2960243Y2499840D01*
G03X2928006Y2361530I59757J-86840D01*
G03X3062742Y2316640I91994J51470D01*
G01X3296191Y2083191D01*
G03X3323000Y2072086I26809J26809D01*
G01X4938222Y2072086D01*
G03X4945757Y1998131I51778J-32086D01*
G03X5019185Y1986533I44243J41869D01*
G03X5132666Y1959393I60815J3467D01*
G03X5222086Y1928224I57324J20603D01*
G01X5222086Y1701584D01*
G03X5115000Y1696182I-52086J-31584D01*
G03X5047395Y1729595I-55000J-26182D01*
G03X4949888Y1795842I-57395J20405D01*
G03X5002605Y1690405I40112J-45842D01*
G03X5036676Y1613728I57395J-20405D01*
G03X5115000Y1643818I23324J56272D01*
G03X5222086Y1638416I55000J26182D01*
G01X5222086Y1610004D01*
G03X5233191Y1583195I37914J0D01*
G01X5342089Y1474296D01*
G01X5342089Y1440001D01*
G03X5353194Y1413191I37914J0D01*
G01X5423194Y1343192D01*
G03X5426071Y1340594I26809J26809D01*
G03X5412501Y1251848I33918J-50597D01*
G03X5502086Y1245971I47488J38149D01*
G01X5502086Y1154037D01*
G03X5399086Y1109864I-42086J-44037D01*
G03X5502282Y1066151I60914J136D01*
G03X5513191Y1043191I37718J3849D01*
G01X5605475Y950906D01*
G01X5605475Y905324D01*
G03X5570628Y910189I-25486J-55326D01*
G03X5478000Y983393I-55631J24813D01*
G03X5524358Y874812I36998J-48391D01*
G03X5559144Y792762I55631J-24813D01*
G01X5519791Y753409D01*
G03X5508686Y726600I26809J-26809D01*
G01X5508686Y546284D01*
G03X5477914Y584135I-58697J-16285D01*
G01X5477914Y635051D01*
G03X5466809Y661860I-37914J0D01*
G01X5314518Y814151D01*
G01X5314518Y1045000D01*
G03X5385472Y1097644I10486J60005D01*
G03X5329219Y1165772I-60468J7360D01*
G03X5276075Y1240607I-59230J14226D01*
G03X5209114Y1177832I-6086J-60609D01*
G03X5138914Y1153191I-19124J-57834D01*
G01X5138914Y1185303D01*
G01X5263086Y1309476D01*
G03X5325495Y1395089I6903J60521D01*
G03X5219996Y1404799I-55506J-25091D01*
G03X5160214Y1430123I-49996J-34799D01*
G03X5111549Y1387147I9786J-60123D01*
G03X5040780Y1428376I-58084J-18350D01*
G03X4992944Y1361894I12685J-59578D01*
G01X4983191Y1352141D01*
G03X4972086Y1325332I26809J-26809D01*
G01X4972086Y1231533D01*
G01X4856819Y1346799D01*
G03X4830010Y1357904I-26809J-26809D01*
G01X4627046Y1357904D01*
G03X4615158Y1369127I-47036J-37914D01*
G03X4606596Y1458686I-45168J40870D01*
G01X4866600Y1458686D01*
G03X4878646Y1460650I0J37914D01*
G03X4946552Y1498763I11344J59339D01*
G01X4952124Y1493191D01*
G03X4978933Y1482086I26809J26809D01*
G01X5112324Y1482086D01*
G03X5220914Y1520000I47676J37914D01*
G03X5112324Y1557914I-60914J0D01*
G01X4994638Y1557914D01*
G01X4902343Y1650209D01*
G03X4875533Y1661314I-26809J-26809D01*
G01X4529560Y1661314D01*
G03X4502750Y1650209I0J-37914D01*
G01X4430455Y1577914D01*
G01X4041778Y1577914D01*
G03X4026727Y1658596I-51778J32086D01*
G03X3945000Y1651055I-36727J-48596D01*
G03X3841504Y1626992I-45000J-41055D01*
G03X3759895Y1560105I-21504J-56992D01*
G03X3750000Y1560914I-9895J-60105D01*
G03X3740105Y1560105I0J-60914D01*
G03X3680000Y1630914I-60105J9895D01*
G03X3619895Y1560105I0J-60914D01*
G03X3560026Y1534830I-9895J-60105D01*
G03X3557035Y1469914I49974J-34830D01*
G01X3518159Y1469914D01*
G03X3491350Y1458809I0J-37914D01*
G01X3430455Y1397914D01*
G01X2729997Y1397914D01*
G03X2703188Y1386809I0J-37914D01*
G01X2553192Y1236813D01*
G03X2542087Y1210004I26809J-26809D01*
G01X2542087Y1207677D01*
G03X2575269Y1099271I37914J-47676D01*
G03X2624844Y1201228I4733J60730D01*
G01X2745702Y1322086D01*
G01X2916319Y1322086D01*
G03X2934353Y1217923I38850J-46917D01*
G01X2933191Y1216809D01*
G01X2885331Y1168949D01*
G03X2820968Y1073846I-15337J-58952D01*
G03X2930845Y1107227I49026J36152D01*
G01X2975704Y1152086D01*
G01X3009468Y1152086D01*
G01X3007337Y1149956D01*
G03X2973771Y1040132I2663J-60856D01*
G03X3068973Y1104355I36230J48969D01*
G01X3085704Y1121086D01*
G01X3332840Y1121086D01*
G03X3359649Y1132191I0J37914D01*
G01X3559545Y1332086D01*
G01X4013840Y1332086D01*
G03X4040650Y1343191I0J37914D01*
G01X4108545Y1411086D01*
G01X4459000Y1411086D01*
G03X4485809Y1422191I0J37914D01*
G01X4522304Y1458686D01*
G01X4533386Y1458686D01*
G03X4534916Y1360195I36605J-48689D01*
G03X4540938Y1273911I45093J-40205D01*
G03X4627046Y1282076I39071J46079D01*
G01X4814306Y1282076D01*
G01X4899148Y1197234D01*
G03X4868264Y1107847I20852J-57234D01*
G03X4962086Y1095963I51737J32153D01*
G01X4962086Y872188D01*
G03X4973191Y845379I37914J0D01*
G01X4983106Y835463D01*
G03X4982714Y828380I60521J-6903D01*
G03X4975631Y827988I-180J-60914D01*
G01X4887017Y916602D01*
G01X4887017Y973223D01*
G03X4849103Y1081813I-37914J47676D01*
G03X4811189Y973223I0J-60914D01*
G01X4811189Y900897D01*
G03X4822293Y874088I37914J0D01*
G01X4922013Y774369D01*
G03X4929269Y737914I60522J-6903D01*
G01X2870000Y737914D01*
G03X2843191Y726809I0J-37914D01*
G01X2613191Y496809D01*
G03X2602086Y470000I26809J-26809D01*
G01X2602086Y435741D01*
G03X2406586Y381000I-90086J-54741D01*
G03X2602086Y326259I105414J0D01*
G01X2602086Y270704D01*
G01X2554742Y223360D01*
G03X2420006Y178470I-42742J-96360D01*
G03X2452243Y40160I91994J-51470D01*
G01X2317757Y40160D01*
G03X2258000Y232414I-59757J86840D01*
G03X2198243Y40160I0J-105414D01*
G01X2072837Y40160D01*
G03X2004000Y237814I-68837J86840D01*
G03X1935163Y40160I0J-110814D01*
G01X64586Y270000D02*
G03X475414Y270000I205414J0D01*
G03X64586Y270000I-205414J0D01*
G01X549086Y1440000D02*
G03X670914Y1440000I60914J0D01*
G03X549086Y1440000I-60914J0D01*
G01X669086Y1370000D02*
G03X790914Y1370000I60914J0D01*
G03X669086Y1370000I-60914J0D01*
G01X969586Y857000D02*
G03X984352Y821352I50414J0D01*
G01X1394890Y410814D01*
G03X1570539Y306461I101110J-29814D01*
G03X1466186Y482110I-74539J74539D01*
G01X1070414Y877882D01*
G01X1070414Y1610001D01*
G03X1055648Y1645649I-50414J0D01*
G01X869824Y1831473D01*
G03X766928Y1863074I-59824J-11472D01*
G03X798528Y1760177I43073J-43073D01*
G01X969586Y1589119D01*
G01X969586Y857000D01*
G01X1240915Y1942488D02*
G01X1240915Y2032488D01*
G03X1070088Y2032488I-85414J0D01*
G01X1070088Y1942488D01*
G03X1240915Y1942488I85414J0D01*
G01X1153942Y194941D02*
G03X1235177Y275807I26058J55059D01*
G03X1287095Y476281I6823J105193D01*
G03X1164976Y309032I-45095J-95281D01*
G03X1153942Y194941I15024J-59032D01*
G01X1855414Y381000D02*
G03X1644586Y381000I-105414J0D01*
G03X1855414Y381000I105414J0D01*
G01X2114814Y381000D02*
G03X1893186Y381000I-110814J0D01*
G03X2114814Y381000I110814J0D01*
G01X2079087Y1010001D02*
G03X2200915Y1010001I60914J0D01*
G03X2079087Y1010001I-60914J0D01*
G01X2363414Y381000D02*
G03X2152586Y381000I-105414J0D01*
G03X2363414Y381000I105414J0D01*
G01X2469086Y1760000D02*
G03X2590914Y1760000I60914J0D01*
G03X2469086Y1760000I-60914J0D01*
G01X2539086Y2240000D02*
G03X2660914Y2240000I60914J0D01*
G03X2539086Y2240000I-60914J0D01*
G01X2699086Y1210000D02*
G03X2820914Y1210000I60914J0D01*
G03X2699086Y1210000I-60914J0D01*
G01X3699086Y1910000D02*
G03X3820914Y1910000I60914J0D01*
G03X3699086Y1910000I-60914J0D01*
G01X4219086Y1990000D02*
G03X4340914Y1990000I60914J0D01*
G03X4219086Y1990000I-60914J0D01*
G01X1787914Y2032324D02*
G03X1808977Y2095238I-37914J47676D01*
G03X1760075Y2140075I-58977J-15238D01*
G03X1727203Y2184502I-60075J-10075D01*
G03X1671939Y2184065I-27203J-54502D01*
G03X1664001Y2268687I-71938J35936D01*
G01X1887566Y2268687D01*
G01X1952098Y2204155D01*
G03X1982443Y2191586I30345J30345D01*
G01X2142086Y2191586D01*
G01X2142086Y1531534D01*
G01X1787914Y1885706D01*
G01X1787914Y2032324D01*
G01X2105912Y1942488D02*
G01X2105912Y2032488D01*
G03X1935085Y2032488I-85414J0D01*
G01X1935085Y1942488D01*
G03X2105912Y1942488I85414J0D01*
G01X2960243Y40160D02*
G01X2825757Y40160D01*
G03X2826760Y213141I-59757J86840D01*
G01X2916809Y303191D01*
G03X2927913Y329697I-26809J26809D01*
G03X3112086Y329694I92087J51303D01*
G01X3112086Y272704D01*
G01X3062742Y223360D01*
G03X2928006Y178470I-42742J-96360D01*
G03X2960243Y40160I91994J-51470D01*
G01X3277468Y631086D02*
G01X3123191Y476809D01*
G03X3112086Y450000I26809J-26809D01*
G01X3112086Y432306D01*
G03X2927914Y432306I-92086J-51306D01*
G01X2927914Y474296D01*
G01X3084705Y631086D01*
G01X3277468Y631086D01*
G01X3205163Y40160D02*
G01X3079757Y40160D01*
G03X3116360Y169742I-59757J86840D01*
G01X3176809Y230191D01*
G03X3187914Y257000I-26809J26809D01*
G01X3187914Y320162D01*
G03X3375695Y353247I86086J60838D01*
G03X3230752Y477134I-101695J27753D01*
G01X3353705Y600086D01*
G01X5035681Y600086D01*
G03X5062490Y611191I0J37914D01*
G01X5195837Y744538D01*
G03X5206942Y771347I-26809J26809D01*
G01X5206942Y880502D01*
G03X5195837Y907311I-37914J0D01*
G01X5138914Y964234D01*
G01X5138914Y1086805D01*
G03X5224650Y1069906I51076J33193D01*
G03X5234795Y1051574I36954J8477D01*
G01X5238690Y1047679D01*
G01X5238690Y798447D01*
G03X5249795Y771638I37914J0D01*
G01X5402086Y619346D01*
G01X5402086Y567626D01*
G03X5426405Y473836I47903J-37627D01*
G03X5510395Y522146I23584J56163D01*
G03X5519791Y506591I36205J11254D01*
G01X5616769Y409613D01*
G03X5685745Y321156I53231J-29613D01*
G03X5701331Y432239I-15745J58844D01*
G01X5700209Y433409D01*
G01X5584514Y549105D01*
G01X5584514Y644674D01*
G03X5638098Y645954I25486J55326D01*
G03X5669927Y689079I-28098J54046D01*
G03X5713352Y685432I26473J54861D01*
G03X5794586Y514596I82648J-65432D01*
G01X5794586Y477914D01*
G01X5790000Y477914D01*
G03X5759586Y447500I0J-30414D01*
G01X5759586Y352500D01*
G03X5783675Y322751I30414J0D01*
G03X5754186Y287500I6325J-35251D01*
G01X5754186Y192500D01*
G03X5790000Y156686I35814J0D01*
G01X5799840Y156686D01*
G01X5799840Y40160D01*
G01X5628837Y40160D01*
G03X5560000Y237814I-68837J86840D01*
G03X5491163Y40160I0J-110814D01*
G01X5365757Y40160D01*
G03X5400544Y173622I-59757J86840D01*
G03X5273486Y227274I-94544J-46622D01*
G01X5216880Y283880D01*
G03X5183000Y297914I-33880J-33880D01*
G01X5119259Y297914D01*
G01X5117558Y298451D01*
G03X5139473Y439827I-65557J82549D01*
G03X5183427Y470742I-9473J60173D01*
G03X5290614Y516061I46576J39258D01*
G03X5176576Y539258I-60612J-6061D01*
G03X5102017Y554106I-46576J-39258D01*
G03X5071044Y484679I27983J-54106D01*
G03X4956677Y426006I-19044J-103679D01*
G03X4984044Y300414I95323J-45006D01*
G01X4865956Y300414D01*
G03X4798000Y486414I-67956J80586D01*
G03X4730044Y300414I0J-105414D01*
G01X4611956Y300414D01*
G03X4544000Y486414I-67956J80586D01*
G03X4476044Y300414I0J-105414D01*
G01X4357956Y300414D01*
G03X4290000Y486414I-67956J80586D01*
G03X4222044Y300414I0J-105414D01*
G01X4103956Y300414D01*
G03X4036000Y486414I-67956J80586D01*
G03X3968044Y300414I0J-105414D01*
G01X3849956Y300414D01*
G03X3782000Y486414I-67956J80586D01*
G03X3714044Y300414I0J-105414D01*
G01X3653500Y300414D01*
G03X3619620Y286380I0J-47914D01*
G01X3560514Y227274D01*
G03X3433456Y173622I-32514J-100274D01*
G03X3468243Y40160I94544J-46622D01*
G01X3342837Y40160D01*
G03X3274000Y237814I-68837J86840D01*
G03X3205163Y40160I0J-110814D01*
G01X3633414Y381000D02*
G03X3422586Y381000I-105414J0D01*
G03X3633414Y381000I105414J0D01*
G01X3565914Y2314640D02*
G03X3587757Y2499840I-37914J98360D01*
G01X3722243Y2499840D01*
G03X3782000Y2307586I59757J-86840D01*
G03X3841757Y2499840I0J105414D01*
G01X3976243Y2499840D01*
G03X4036000Y2307586I59757J-86840D01*
G03X4095757Y2499840I0J105414D01*
G01X4230243Y2499840D01*
G03X4290000Y2307586I59757J-86840D01*
G03X4349757Y2499840I0J105414D01*
G01X4484243Y2499840D01*
G03X4544000Y2307586I59757J-86840D01*
G03X4603757Y2499840I0J105414D01*
G01X4738243Y2499840D01*
G03X4798000Y2307586I59757J-86840D01*
G03X4857757Y2499840I0J105414D01*
G01X4992243Y2499840D01*
G03X5052000Y2307586I59757J-86840D01*
G03X5111757Y2499840I0J105414D01*
G01X5246243Y2499840D01*
G03X5306000Y2307586I59757J-86840D01*
G03X5365757Y2499840I0J105414D01*
G01X5491163Y2499840D01*
G03X5560000Y2302186I68837J-86840D01*
G03X5628837Y2499840I0J110814D01*
G01X5799840Y2499840D01*
G01X5799840Y2188914D01*
G01X5707160Y2188914D01*
G03X5680350Y2177809I0J-37914D01*
G01X5503055Y2000514D01*
G03X5456153Y1968496I6934J-60518D01*
G01X5456153Y2120681D01*
G03X5521382Y2212717I13847J59319D01*
G03X5410392Y2192548I-51382J-32717D01*
G01X5404131Y2198809D01*
G03X5377322Y2209914I-26809J-26809D01*
G01X3583704Y2209914D01*
G01X3565914Y2227704D01*
G01X3565914Y2314640D01*
G01X5735704Y2082086D02*
G01X5799840Y2082086D01*
G01X5799840Y783778D01*
G01X5747914Y835704D01*
G01X5747914Y1059986D01*
G03X5736809Y1086796I-37914J0D01*
G01X5690510Y1133095D01*
G03X5649699Y1197634I-60521J6903D01*
G03X5577914Y1171600I-19711J-57637D01*
G01X5577914Y1330004D01*
G03X5566809Y1356813I-37914J0D01*
G01X5526812Y1396810D01*
G03X5500003Y1407915I-26809J-26809D01*
G01X5465707Y1407915D01*
G01X5417917Y1455705D01*
G01X5417917Y1490001D01*
G03X5406812Y1516810I-37914J0D01*
G01X5297914Y1625708D01*
G01X5297914Y1628222D01*
G03X5345602Y1621118I32086J51778D01*
G01X5376930Y1589791D01*
G03X5403739Y1578686I26809J26809D01*
G01X5456261Y1578686D01*
G03X5483070Y1589791I0J37914D01*
G01X5520209Y1626930D01*
G03X5531314Y1653739I-26809J26809D01*
G01X5531314Y1726600D01*
G01X5531307Y1727326D01*
G03X5608794Y1738482I32092J51774D01*
G03X5611303Y1816727I-45394J40619D01*
G01X5611303Y1957685D01*
G01X5735704Y2082086D01*
G54D11*
G01X5790254Y240000D02*
G01X5764346Y240000D01*
G01X2078746Y381000D02*
G01X2104654Y381000D01*
G01X1929254Y381000D02*
G01X1903346Y381000D01*
G01X2004000Y306254D02*
G01X2004000Y280346D01*
G01X2004000Y455746D02*
G01X2004000Y481654D01*
G01X2078746Y127000D02*
G01X2104654Y127000D01*
G01X1929254Y127000D02*
G01X1903346Y127000D01*
G01X2004000Y201746D02*
G01X2004000Y227654D01*
G01X3348746Y127000D02*
G01X3374654Y127000D01*
G01X3199254Y127000D02*
G01X3173346Y127000D01*
G01X3274000Y201746D02*
G01X3274000Y227654D01*
G01X5560000Y2338254D02*
G01X5560000Y2312346D01*
G01X5485254Y2413000D02*
G01X5459346Y2413000D01*
G01X5634746Y2413000D02*
G01X5660654Y2413000D01*
G01X5634746Y127000D02*
G01X5660654Y127000D01*
G01X5485254Y127000D02*
G01X5459346Y127000D01*
G01X5560000Y201746D02*
G01X5560000Y227654D01*
G04 Copper End*

G04 Pad Start*
G54D12*
G01X6530000Y2270000D03*
G54D13*
G01X6530000Y270000D03*
G01X270000Y270000D03*
G54D14*
G01X6060000Y240000D03*
G01X6060000Y400000D03*
G01X5840000Y400000D03*
G01X5840000Y240000D03*
G54D16*
G01X3782000Y2413000D03*
G01X3528000Y2413000D03*
G01X4036000Y2413000D03*
G01X4290000Y2413000D03*
G01X4544000Y2413000D03*
G01X4798000Y2413000D03*
G01X5306000Y2413000D03*
G01X5052000Y2413000D03*
G01X3020000Y2413000D03*
G01X3274000Y2413000D03*
G01X2766000Y2413000D03*
G01X2512000Y2413000D03*
G01X2258000Y2413000D03*
G01X5560000Y2413000D03*
G01X1242000Y381000D03*
G01X1496000Y381000D03*
G01X3782000Y381000D03*
G01X3528000Y381000D03*
G01X4036000Y381000D03*
G01X4290000Y381000D03*
G01X4544000Y381000D03*
G01X4798000Y381000D03*
G01X5052000Y381000D03*
G01X3274000Y381000D03*
G01X3274000Y127000D03*
G01X5052000Y127000D03*
G01X5306000Y127000D03*
G01X4798000Y127000D03*
G01X4544000Y127000D03*
G01X4290000Y127000D03*
G01X4036000Y127000D03*
G01X5560000Y127000D03*
G01X3528000Y127000D03*
G01X3782000Y127000D03*
G01X3020000Y381000D03*
G01X2766000Y381000D03*
G01X2512000Y381000D03*
G01X2258000Y381000D03*
G01X2004000Y381000D03*
G01X1750000Y381000D03*
G01X1750000Y127000D03*
G01X2004000Y127000D03*
G01X2258000Y127000D03*
G01X2512000Y127000D03*
G01X2766000Y127000D03*
G01X3020000Y127000D03*
G01X5796000Y620000D03*
G01X6050000Y620000D03*
G54D17*
G01X2020499Y1987488D03*
G01X1155502Y1987488D03*
G54D18*
G01X2020499Y2407503D03*
G01X1155502Y2407503D03*
G54D19*
G01X1400000Y2220001D03*
G01X1600001Y2220001D03*
G04 Pad End*

G04 Via Start*
G54D20*
G01X4600000Y860000D03*
G01X1080001Y2210001D03*
G01X1040000Y1990000D03*
G01X6330000Y2040000D03*
G01X6450000Y840000D03*
G01X3610000Y1500000D03*
G01X3680000Y1570000D03*
G01X3750000Y1500000D03*
G01X3900000Y1610000D03*
G01X3820000Y1570000D03*
G01X5340000Y2260000D03*
G01X3150000Y560000D03*
G01X3660000Y2260000D03*
G01X3150000Y2060000D03*
G01X4380000Y1690000D03*
G01X4030000Y1750000D03*
G01X3610000Y2020000D03*
G01X3970000Y790000D03*
G01X3560000Y820000D03*
G01X4130000Y790000D03*
G01X5610000Y700000D03*
G01X5490000Y330000D03*
G01X5650000Y1290000D03*
G01X2810000Y1970000D03*
G01X2310000Y1580000D03*
G01X1670000Y780000D03*
G01X1850000Y820000D03*
G01X2180000Y1390000D03*
G01X3810000Y1030000D03*
G01X3740000Y1090000D03*
G01X3670000Y1030000D03*
G01X3530000Y1030000D03*
G01X3600000Y1090000D03*
G01X2500000Y1580000D03*
G01X640000Y2410001D03*
G01X780000Y1910001D03*
G01X620000Y1230000D03*
G01X910000Y1280001D03*
G01X800000Y460000D03*
G01X1070000Y600000D03*
G01X1170000Y950000D03*
G01X1420000Y850000D03*
G01X1340000Y780000D03*
G01X2530000Y1760000D03*
G01X1199998Y1729997D03*
G01X5354839Y2104821D03*
G01X5189990Y1979996D03*
G01X5563400Y1779101D03*
G01X5509989Y1939996D03*
G01X5449989Y529999D03*
G01X5325004Y1105004D03*
G01X5579989Y849998D03*
G01X5514998Y935002D03*
G01X4680000Y1960000D03*
G01X5650000Y1470000D03*
G01X5770000Y1770000D03*
G01X4982534Y767466D03*
G01X5770000Y1990000D03*
G01X5630000Y1650000D03*
G01X5770000Y1300000D03*
G01X5770000Y1140000D03*
G01X5780000Y840000D03*
G54D21*
G01X4580010Y1319990D03*
G54D20*
G01X5650003Y570000D03*
G01X4239992Y1009998D03*
G01X4580000Y950000D03*
G01X4570000Y1080000D03*
G01X1600000Y2110000D03*
G01X1519997Y2059996D03*
G01X4250000Y860000D03*
G01X1820000Y1580000D03*
G01X1710000Y1440000D03*
G01X810000Y1820001D03*
G54D21*
G01X4889990Y1519990D03*
G54D20*
G01X5629989Y1139998D03*
G01X5460000Y1110000D03*
G01X5459989Y1289997D03*
G01X5130000Y500000D03*
G01X5230003Y510000D03*
G01X1700000Y2130000D03*
G01X1750000Y2080000D03*
G01X3219994Y1259997D03*
G01X3319993Y1289997D03*
G01X4849103Y1020899D03*
G01X4920000Y1140000D03*
G01X4569991Y1409997D03*
G01X730000Y1370000D03*
G01X4580000Y1560000D03*
G01X610000Y1440000D03*
G01X2569995Y909998D03*
G01X1180000Y250000D03*
G01X1579997Y1329997D03*
G01X3060000Y1260000D03*
G01X2955169Y1275169D03*
G01X2760000Y1210000D03*
G01X610000Y2300001D03*
G01X3979992Y1469997D03*
G01X2869994Y1109998D03*
G01X3010000Y1089100D03*
G01X5269989Y1179998D03*
G01X5189990Y1119998D03*
G01X5043628Y828560D03*
G01X5053465Y1368797D03*
G01X5170000Y1370000D03*
G01X5269989Y1369997D03*
G01X5670000Y380000D03*
G01X5430000Y1680000D03*
G01X5330000Y1680000D03*
G01X4280000Y1990000D03*
G01X5470000Y2180000D03*
G01X5279989Y1989996D03*
G01X4990000Y2040000D03*
G01X5080000Y1990000D03*
G01X4990000Y1750000D03*
G01X5160000Y1520000D03*
G01X5060000Y1670000D03*
G01X5170000Y1670000D03*
G01X3880000Y1090000D03*
G01X3990000Y1610000D03*
G01X3760000Y1910000D03*
G01X2250000Y2060000D03*
G01X2600000Y2240000D03*
G01X5780000Y2240000D03*
G01X5780003Y2470001D03*
G01X5760003Y80000D03*
G01X5320003Y440000D03*
G01X4360000Y560000D03*
G01X2910000Y240000D03*
G01X3420000Y820000D03*
G01X140000Y1860000D03*
G01X140000Y1680000D03*
G01X340000Y1990000D03*
G01X340000Y1780000D03*
G01X340000Y1550000D03*
G01X1310001Y2140001D03*
G01X1230000Y1530000D03*
G01X1050000Y1770000D03*
G01X1300000Y2450000D03*
G01X1600000Y2450000D03*
G01X1880000Y2450000D03*
G01X1860001Y2240001D03*
G01X1440001Y2380001D03*
G01X1740001Y2380001D03*
G01X350000Y1090000D03*
G01X350000Y830000D03*
G01X120000Y830000D03*
G01X120000Y1090000D03*
G01X560000Y650000D03*
G01X860000Y650000D03*
G01X90000Y460000D03*
G01X470000Y90000D03*
G01X490000Y440000D03*
G01X1520000Y140000D03*
G01X5696400Y743940D03*
G01X5770000Y1430000D03*
G01X5770000Y1670000D03*
G01X5660000Y1770000D03*
G01X4600000Y1960000D03*
G01X5690000Y1970000D03*
G01X4410000Y770000D03*
G01X770000Y90000D03*
G01X1040000Y90000D03*
G01X1970001Y1830001D03*
G54D21*
G01X5490003Y840000D03*
G54D20*
G01X5270003Y1490001D03*
G01X1340000Y1816677D03*
G01X5500003Y1450001D03*
G01X4810003Y570000D03*
G01X2140001Y1010001D03*
G01X1890001Y1520001D03*
G01X2580001Y1160001D03*
G01X2060001Y1080001D03*
G01X2230001Y946601D03*
G01X2220001Y1080001D03*
G04 Via End*

G04 Track Start*
G54D22*
G01X6250000Y2120000D02*
G01X6330000Y2040000D01*
G01X6369000Y2151000D02*
G01X6540000Y1980000D01*
G01X6540000Y930000D02*
G01X6540000Y1980000D01*
G01X6450000Y840000D02*
G01X6540000Y930000D01*
G01X5707160Y2151000D02*
G01X6369000Y2151000D01*
G01X5720000Y2120000D02*
G01X6250000Y2120000D01*
G01X5509989Y1953829D02*
G01X5707160Y2151000D01*
G01X3832000Y1432000D02*
G01X3518159Y1432000D01*
G01X3446159Y1360000D01*
G01X3940000Y1540000D02*
G01X3832000Y1432000D01*
G01X3531000Y1401000D02*
G01X4001000Y1401000D01*
G01X3543840Y1370000D02*
G01X4013840Y1370000D01*
G01X3568000Y2172000D02*
G01X5377322Y2172000D01*
G01X3528000Y2212000D02*
G01X3568000Y2172000D01*
G01X3528000Y2212000D02*
G01X3528000Y2413000D01*
G01X3320000Y1190000D02*
G01X3531000Y1401000D01*
G01X4001000Y1401000D02*
G01X4080000Y1480000D01*
G01X4013840Y1370000D02*
G01X4092840Y1449000D01*
G01X3332840Y1159000D02*
G01X3543840Y1370000D01*
G54D23*
G01X5840000Y240000D02*
G01X6060000Y240000D01*
G54D22*
G01X3150000Y257000D02*
G01X3150000Y450000D01*
G01X3020000Y127000D02*
G01X3150000Y257000D01*
G01X3150000Y450000D02*
G01X3338000Y638000D01*
G01X5643389Y823389D02*
G01X5546600Y726600D01*
G01X5546600Y533400D01*
G01X5673400Y406600D01*
G01X5673400Y383400D01*
G01X6060000Y610000D02*
G01X6050000Y620000D01*
G54D23*
G01X6060000Y400000D02*
G01X6060000Y610000D01*
G54D22*
G01X5840000Y576000D02*
G01X5796000Y620000D01*
G54D23*
G01X5840000Y400000D02*
G01X5840000Y576000D01*
G54D24*
G01X2180000Y2234500D02*
G01X2333500Y2234500D01*
G01X1982443Y2234500D02*
G01X2180000Y2234500D01*
G54D22*
G01X2180000Y1390000D02*
G01X2180000Y2234500D01*
G01X2693495Y920000D02*
G01X4149993Y920000D01*
G01X2609096Y1004398D02*
G01X2693495Y920000D01*
G01X2596256Y973398D02*
G01X2680654Y889000D01*
G01X4221000Y889000D01*
G01X1604667Y2110000D02*
G01X1719000Y1995667D01*
G01X5420000Y1800000D02*
G01X5493400Y1726600D01*
G01X5456261Y1616600D02*
G01X5493400Y1653739D01*
G01X5493400Y1726600D01*
G01X5340018Y2090000D02*
G01X5354839Y2104821D01*
G01X5403739Y1616600D02*
G01X5456261Y1616600D01*
G01X5340339Y1680000D02*
G01X5403739Y1616600D01*
G01X5330000Y1680000D02*
G01X5340339Y1680000D01*
G01X5509989Y1939996D02*
G01X5509989Y1953829D01*
G01X5573389Y1973389D02*
G01X5720000Y2120000D01*
G01X5573389Y1789090D02*
G01X5573389Y1973389D01*
G01X5563400Y1779101D02*
G01X5573389Y1789090D01*
G01X5449989Y529999D02*
G01X5440000Y539988D01*
G01X5440000Y635051D01*
G01X5796000Y620000D02*
G01X5796000Y734000D01*
G01X1571875Y2042100D02*
G01X1627900Y2042100D01*
G01X1519997Y2059996D02*
G01X1553979Y2059996D01*
G01X1571875Y2042100D01*
G54D24*
G01X1600000Y2110000D02*
G01X1604667Y2110000D01*
G54D25*
G01X1710000Y1470000D02*
G01X1820000Y1580000D01*
G01X1710000Y1440000D02*
G01X1710000Y1470000D01*
G54D26*
G01X3528000Y127000D02*
G01X3653500Y252500D01*
G01X5103984Y252500D01*
G01X5106484Y250000D01*
G01X5183000Y250000D01*
G01X5306000Y127000D01*
G54D25*
G01X1020000Y857000D02*
G01X1496000Y381000D01*
G01X1020000Y1610001D02*
G01X1020000Y857000D01*
G01X810000Y1820001D02*
G01X1020000Y1610001D01*
G54D22*
G01X5796000Y734000D02*
G01X5710000Y820000D01*
G01X5710000Y1059986D01*
G01X5629989Y1139998D01*
G01X4580010Y1319990D02*
G01X4830010Y1319990D01*
G01X1700000Y2119227D02*
G01X1700000Y2130000D01*
G01X4982534Y767466D02*
G01X4849103Y900897D01*
G01X4849103Y1020899D01*
G01X2960000Y1190000D02*
G01X3320000Y1190000D01*
G01X2879998Y1109998D02*
G01X2960000Y1190000D01*
G01X2869994Y1109998D02*
G01X2879998Y1109998D01*
G01X4510000Y1560000D02*
G01X4580000Y1560000D01*
G01X4866600Y1496600D02*
G01X4889990Y1519990D01*
G01X4506600Y1496600D02*
G01X4866600Y1496600D01*
G01X3070000Y1159000D02*
G01X3332840Y1159000D01*
G01X3010000Y1099000D02*
G01X3070000Y1159000D01*
G01X3010000Y1089100D02*
G01X3010000Y1099000D01*
G01X4149993Y920000D02*
G01X4239992Y1009998D01*
G01X5261604Y1171612D02*
G01X5269989Y1179998D01*
G01X5261604Y1078383D02*
G01X5261604Y1171612D01*
G01X5000000Y872188D02*
G01X5000000Y1150000D01*
G01X4830010Y1319990D02*
G01X5000000Y1150000D01*
G01X5000000Y872188D02*
G01X5043628Y828560D01*
G01X5051203Y1368797D02*
G01X5053465Y1368797D01*
G01X5259664Y1369997D02*
G01X5269989Y1369997D01*
G01X5010000Y1325332D02*
G01X5053465Y1368797D01*
G01X5010000Y1183841D02*
G01X5010000Y1325332D01*
G01X5010000Y1183841D02*
G01X5031000Y1162841D01*
G01X5031000Y910000D02*
G01X5031000Y1162841D01*
G01X5031000Y910000D02*
G01X5049040Y891960D01*
G01X5069889Y891960D01*
G01X5107028Y854821D01*
G01X5107028Y797028D02*
G01X5107028Y854821D01*
G01X5010000Y700000D02*
G01X5107028Y797028D01*
G01X2870000Y700000D02*
G01X5010000Y700000D01*
G01X2640000Y470000D02*
G01X2870000Y700000D01*
G01X2640000Y255000D02*
G01X2640000Y470000D01*
G01X2512000Y127000D02*
G01X2640000Y255000D01*
G01X5070000Y1270000D02*
G01X5170000Y1370000D01*
G01X5070000Y935690D02*
G01X5070000Y1270000D01*
G01X5070000Y935690D02*
G01X5138028Y867661D01*
G01X5138028Y784188D02*
G01X5138028Y867661D01*
G01X5022841Y669000D02*
G01X5138028Y784188D01*
G01X3069000Y669000D02*
G01X5022841Y669000D01*
G01X2890000Y490000D02*
G01X3069000Y669000D01*
G01X5101000Y1201008D02*
G01X5269989Y1369997D01*
G01X5101000Y948530D02*
G01X5101000Y1201008D01*
G01X5101000Y948530D02*
G01X5169028Y880502D01*
G01X5169028Y771347D02*
G01X5169028Y880502D01*
G01X5035681Y638000D02*
G01X5169028Y771347D01*
G01X3338000Y638000D02*
G01X5035681Y638000D01*
G01X5540000Y1070000D02*
G01X5643389Y966611D01*
G01X5643389Y823389D01*
G01X5673400Y383400D02*
G01X5670000Y380000D01*
G01X5279989Y1979989D02*
G01X5260000Y1960000D01*
G01X5279989Y1989996D02*
G01X5279989Y1979989D01*
G01X5346600Y1763400D02*
G01X5430000Y1680000D01*
G01X5346600Y1763400D02*
G01X5346600Y2023400D01*
G01X5418239Y1801761D02*
G01X5418239Y2131082D01*
G01X5160000Y1520000D02*
G01X4978933Y1520000D01*
G01X4875533Y1623400D02*
G01X4529560Y1623400D01*
G01X4978933Y1520000D02*
G01X4875533Y1623400D01*
G01X4459000Y1449000D02*
G01X4506600Y1496600D01*
G01X4430000Y1480000D02*
G01X4510000Y1560000D01*
G01X4092840Y1449000D02*
G01X4459000Y1449000D01*
G01X4080000Y1480000D02*
G01X4430000Y1480000D01*
G01X4446160Y1540000D02*
G01X3940000Y1540000D01*
G01X4529560Y1623400D02*
G01X4446160Y1540000D01*
G01X3446159Y1360000D02*
G01X2729997Y1360000D01*
G01X3020000Y2413000D02*
G01X3323000Y2110000D01*
G01X3274000Y2413000D02*
G01X3546000Y2141000D01*
G01X5289018Y2141000D01*
G01X5340018Y2090000D01*
G01X5260000Y2110000D02*
G01X5346600Y2023400D01*
G01X3323000Y2110000D02*
G01X5260000Y2110000D01*
G01X5377322Y2172000D02*
G01X5418239Y2131082D01*
G01X4221000Y889000D02*
G01X4250000Y860000D01*
G01X1627900Y2042100D02*
G01X1688000Y1982000D01*
G01X2766000Y127000D02*
G01X2766000Y206000D01*
G01X2890000Y330000D01*
G01X2890000Y490000D01*
G54D24*
G01X2333500Y2234500D02*
G01X2512000Y2413000D01*
G54D22*
G01X5696400Y743940D02*
G01X5700000Y740339D01*
G54D23*
G01X5840000Y240000D02*
G01X5727700Y240000D01*
G54D24*
G01X1270000Y2210000D02*
G01X1371601Y2311601D01*
G01X1905342Y2311601D01*
G01X1982443Y2234500D01*
G01X1080002Y2210000D02*
G01X1270000Y2210000D01*
G54D22*
G01X5440000Y635051D02*
G01X5276604Y798447D01*
G01X5276604Y1063383D01*
G01X5261604Y1078383D01*
G01X5260000Y1960000D02*
G01X5260000Y1610004D01*
G01X5540000Y1330004D02*
G01X5540000Y1070000D01*
G01X5500003Y1370001D02*
G01X5540000Y1330004D01*
G01X5380003Y1490001D02*
G01X5380003Y1440001D01*
G01X5260000Y1610004D02*
G01X5380003Y1490001D01*
G01X5450003Y1370001D02*
G01X5500003Y1370001D01*
G01X5380003Y1440001D02*
G01X5450003Y1370001D01*
G01X1688000Y1982000D02*
G01X1688000Y1832002D01*
G01X2054600Y1465402D01*
G01X1719000Y1995667D02*
G01X1719000Y1851002D01*
G01X2085600Y1484402D01*
G01X1120514Y1799500D02*
G01X1230500Y1799500D01*
G01X620013Y2300001D02*
G01X1120514Y1799500D01*
G01X610000Y2300001D02*
G01X620013Y2300001D01*
G01X1230500Y1799500D02*
G01X1680001Y1349999D01*
G01X2054600Y1465402D02*
G01X2054600Y1338058D01*
G01X2419260Y973398D01*
G01X2596256Y973398D01*
G01X2085600Y1484402D02*
G01X2085600Y1350898D01*
G01X2432100Y1004398D01*
G01X2609096Y1004398D01*
G01X4211046Y1080000D02*
G01X4570000Y1080000D01*
G01X4092046Y961000D02*
G01X4211046Y1080000D01*
G01X2696335Y961000D02*
G01X4092046Y961000D01*
G01X2621937Y1035398D02*
G01X2696335Y961000D01*
G01X2444941Y1035398D02*
G01X2621937Y1035398D01*
G01X2116600Y1363739D02*
G01X2444941Y1035398D01*
G01X2116600Y1503402D02*
G01X2116600Y1363739D01*
G01X1750000Y1870002D02*
G01X2116600Y1503402D01*
G01X1750000Y2080000D02*
G01X1750000Y1870002D01*
G01X2580001Y1210004D02*
G01X2580001Y1160001D01*
G01X2729997Y1360000D02*
G01X2580001Y1210004D01*
G01X1680001Y1349999D02*
G01X1719999Y1349999D01*
G01X1890001Y1520001D01*
G01X1519997Y2059996D02*
G01X1400000Y2179993D01*
G01X1400000Y2220001D01*
G01X1600000Y2110000D02*
G01X1600000Y2220000D01*
G54D27*
G01X200000Y2500000D02*
G03X40000Y2340000I0J-160000D01*
G01X40000Y200000D02*
G03X200000Y40000I160000J0D01*
G04 Track End*

M02*

