G04 Layer: InnerLayer2*
G04 EasyEDA Pro v2.2.34.8, 2025-03-03 01:04:46*
G04 Gerber Generator version 0.3*
G04 Scale: 100 percent, Rotated: No, Reflected: No*
G04 Dimensions in millimeters*
G04 Leading zeros omitted, absolute positions, 4 integers and 5 decimals*
%FSLAX45Y45*%
%MOMM*%
%ADD10C,0.2032*%
%ADD11C,0.254*%
%ADD12C,2.0*%
%ADD13C,3.5*%
%ADD14C,1.5*%
%ADD15O,1.1X2.0*%
%ADD16O,1.2033X1.8*%
%ADD17O,1.2X1.8*%
%ADD18C,0.61*%
%ADD19C,0.6*%
%ADD20C,0.15*%
%ADD21C,0.5*%
%ADD22C,0.2*%
G75*


G04 Copper Start*
G36*
G01X1935163Y40160D02*
G01X1809757Y40160D01*
G03X1750000Y232414I-59757J86840D01*
G03X1690243Y40160I0J-105414D01*
G01X201423Y40160D01*
G01X134079Y59401D01*
G01X87186Y87537D01*
G01X69051Y114739D01*
G01X58264Y142017D01*
G01X40160Y201511D01*
G01X40160Y2348211D01*
G01X57589Y2396149D01*
G01X97208Y2442792D01*
G01X143636Y2482229D01*
G01X201512Y2499840D01*
G01X1090013Y2499840D01*
G03X1065088Y2437503I65488J-62337D01*
G01X1065088Y2377503D01*
G03X1245915Y2377503I90414J0D01*
G01X1245915Y2437503D01*
G03X1220990Y2499840I-90414J0D01*
G01X1955010Y2499840D01*
G03X1930085Y2437503I65488J-62337D01*
G01X1930085Y2377503D01*
G03X2110912Y2377503I90414J0D01*
G01X2110912Y2437503D01*
G03X2085987Y2499840I-90414J0D01*
G01X2198243Y2499840D01*
G03X2166006Y2361530I59757J-86840D01*
G03X2300742Y2316640I91994J51470D01*
G01X2404191Y2213191D01*
G03X2415467Y2205414I26809J26809D01*
G01X1820000Y2205414D01*
G03X1780816Y2189184I0J-55414D01*
G01X1773122Y2181490D01*
G01X1748706Y2205906D01*
G03X1727200Y2214814I-21506J-21506D01*
G01X1688847Y2214814D01*
G03X1667341Y2205906I0J-30414D01*
G01X1642194Y2180759D01*
G03X1633335Y2160983I21506J-21506D01*
G03X1539572Y2117679I-33335J-50983D01*
G03X1468343Y2027711I-19575J-57683D01*
G03X1580425Y2052317I51654J32285D01*
G03X1651469Y2077420I19575J57683D01*
G01X1705694Y2023194D01*
G03X1727200Y2014286I21506J21506D01*
G01X1804855Y2014286D01*
G03X1835269Y2044700I0J30414D01*
G01X1835269Y2086902D01*
G01X1842953Y2094586D01*
G01X1961852Y2094586D01*
G03X1935085Y2032488I58646J-62098D01*
G01X1935085Y1942488D01*
G03X2105912Y1942488I85414J0D01*
G01X2105912Y2032488D01*
G03X2079145Y2094586I-85414J0D01*
G01X3730968Y2094586D01*
G01X3583191Y1946809D01*
G03X3572086Y1920000I26809J-26809D01*
G01X3572086Y1547676D01*
G03X3552857Y1521100I37914J-47676D01*
G01X3546148Y1527809D01*
G03X3519339Y1538914I-26809J-26809D01*
G01X2067160Y1538914D01*
G03X2040350Y1527809I0J-37914D01*
G01X1927055Y1414514D01*
G01X1765326Y1414514D01*
G03X1729408Y1497739I-55326J25486D01*
G03X1650513Y1453106I-19408J-57739D01*
G01X1643409Y1460209D01*
G03X1616600Y1471314I-26809J-26809D01*
G01X662249Y1471314D01*
G03X549680Y1448485I-52249J-31314D01*
G03X651582Y1395486I60320J-8485D01*
G01X674674Y1395486D01*
G03X714272Y1311152I55326J-25486D01*
G03X790664Y1364486I15728J58848D01*
G01X1529787Y1364486D01*
G03X1542083Y1282321I50210J-34489D01*
G01X1542083Y905701D01*
G01X1093191Y456809D01*
G03X1082086Y430000I26809J-26809D01*
G01X1082086Y310000D01*
G03X1093191Y283191I37914J0D01*
G01X1119478Y256903D01*
G03X1189822Y189883I60521J-6903D01*
G03X1235177Y275807I-9823J60117D01*
G03X1343779Y353558I6823J105193D01*
G03X1288983Y475365I-101779J27442D01*
G01X1999243Y1185625D01*
G03X2088124Y1135967I60757J4375D01*
G03X2098437Y1237255I-28124J54033D01*
G01X2521804Y1237255D01*
G03X2569995Y1139084I48191J-37258D01*
G03X2618186Y1237255I0J60914D01*
G01X2705524Y1237255D01*
G03X2722086Y1162324I54476J-27255D01*
G01X2722086Y1115708D01*
G01X2576898Y970520D01*
G03X2509910Y920016I-6903J-60521D01*
G03X2556889Y850511I60084J-10018D01*
G01X2231191Y524813D01*
G03X2220086Y498004I26809J-26809D01*
G01X2220086Y479360D01*
G03X2258000Y275586I37914J-98360D01*
G03X2295914Y479360I0J105414D01*
G01X2295914Y482299D01*
G01X2863091Y1049476D01*
G03X2913067Y1153070I6903J60521D01*
G03X2809473Y1103095I-43073J-43073D01*
G01X2796642Y1090264D01*
G03X2797914Y1100003I-36642J9740D01*
G01X2797914Y1162324D01*
G03X2814476Y1237255I-37914J47676D01*
G01X2907493Y1237255D01*
G03X2962072Y1214648I47676J37914D01*
G01X3030128Y1146593D01*
G03X2949479Y1082197I-20128J-57492D01*
G01X2485191Y617909D01*
G03X2474086Y591100I26809J-26809D01*
G01X2474086Y479360D01*
G03X2462532Y287914I37914J-98360D01*
G01X2381000Y287914D01*
G03X2354191Y276809I0J-37914D01*
G01X2300742Y223360D01*
G03X2166006Y178470I-42742J-96360D01*
G03X2198243Y40160I91994J-51470D01*
G01X2072837Y40160D01*
G03X2004000Y237814I-68837J86840D01*
G03X1935163Y40160I0J-110814D01*
G37*
%LPC*%
G36*
G01X64586Y270000D02*
G03X475414Y270000I205414J0D01*
G03X64586Y270000I-205414J0D01*
G37*
G36*
G01X549086Y2300001D02*
G03X670914Y2300001I60914J0D01*
G03X549086Y2300001I-60914J0D01*
G37*
G36*
G01X749087Y1820001D02*
G03X870914Y1820001I60914J0D01*
G03X749087Y1820001I-60914J0D01*
G37*
G36*
G01X1019087Y2210001D02*
G03X1140915Y2210001I60914J0D01*
G03X1019087Y2210001I-60914J0D01*
G37*
G36*
G01X1240915Y1942488D02*
G01X1240915Y2032488D01*
G03X1070088Y2032488I-85414J0D01*
G01X1070088Y1942488D01*
G03X1240915Y1942488I85414J0D01*
G37*
G36*
G01X1139084Y1729997D02*
G03X1247674Y1692083I60914J0D01*
G01X2499997Y1692083D01*
G03X2522577Y1699540I0J37914D01*
G03X2578151Y1797309I7423J60460D01*
G03X2469602Y1767910I-48151J-37309D01*
G01X1247674Y1767910D01*
G03X1139084Y1729997I-47676J-37914D01*
G37*
G36*
G01X1601414Y381000D02*
G03X1390586Y381000I-105414J0D01*
G03X1601414Y381000I105414J0D01*
G37*
G36*
G01X1855414Y381000D02*
G03X1644586Y381000I-105414J0D01*
G03X1855414Y381000I105414J0D01*
G37*
G36*
G01X1759086Y1580000D02*
G03X1880914Y1580000I60914J0D01*
G03X1759086Y1580000I-60914J0D01*
G37*
G36*
G01X2114814Y381000D02*
G03X1893186Y381000I-110814J0D01*
G03X2114814Y381000I110814J0D01*
G37*
%LPD*%
G36*
G01X1638901Y1314481D02*
G03X1660560Y1307686I21658J31119D01*
G01X1955600Y1307686D01*
G03X1982409Y1318791I0J37914D01*
G01X2095705Y1432086D01*
G01X2135963Y1432086D01*
G03X2180000Y1329086I44037J-42086D01*
G03X2224037Y1432086I0J60914D01*
G01X3490794Y1432086D01*
G01X3544089Y1378791D01*
G03X3570898Y1367686I26809J26809D01*
G01X3789102Y1367686D01*
G03X3797739Y1368683I0J37914D01*
G01X4006253Y1368683D01*
G03X4021946Y1372083I0J37914D01*
G01X4522314Y1372083D01*
G03X4534916Y1360195I47676J37914D01*
G03X4525005Y1295004I45093J-40205D01*
G01X3380701Y1295004D01*
G03X3325095Y1350697I-60708J-5006D01*
G03X3260973Y1305066I-5101J-60700D01*
G03X3183324Y1308637I-40979J-45069D01*
G03X3165387Y1233004I36670J-48640D01*
G01X3140614Y1233004D01*
G01X3120521Y1253097D01*
G03X3082989Y1316409I-60521J6903D01*
G03X3011894Y1297368I-22990J-56409D01*
G03X2907493Y1313083I-56725J-22198D01*
G01X2035169Y1313083D01*
G03X2008360Y1301979I0J-37914D01*
G01X1617911Y911529D01*
G01X1617911Y1282321D01*
G03X1638901Y1314481I-37914J47676D01*
G37*
G36*
G01X2706243Y40160D02*
G01X2571757Y40160D01*
G03X2564929Y218162I-59757J86840D01*
G03X2571151Y223191I-20587J31838D01*
G01X2666809Y318849D01*
G03X2674172Y329234I-26809J26809D01*
G03X2845757Y312073I91828J51766D01*
G03X2803914Y479360I-79757J68927D01*
G01X2803914Y520295D01*
G01X3195704Y912086D01*
G01X3238467Y912086D01*
G01X2993191Y666809D01*
G03X2982086Y640000I26809J-26809D01*
G01X2982086Y479360D01*
G03X3020000Y275586I37914J-98360D01*
G03X3057914Y479360I0J105414D01*
G01X3057914Y624296D01*
G01X3314704Y881086D01*
G01X3559000Y881086D01*
G03X3585809Y892191I0J37914D01*
G01X3663097Y969478D01*
G03X3702086Y978222I6903J60521D01*
G01X3702086Y865704D01*
G01X3314645Y478263D01*
G03X3201086Y304871I-40645J-97263D01*
G03X3369420Y425801I72914J76129D01*
G01X3766809Y823191D01*
G03X3772086Y829802I-26809J26809D01*
G01X3772086Y678704D01*
G01X3570742Y477360D01*
G03X3427244Y350010I-42742J-96360D01*
G03X3617506Y325316I100756J30990D01*
G01X3617506Y253580D01*
G03X3628611Y226771I37914J0D01*
G01X3685640Y169742D01*
G03X3722243Y40160I96360J-42742D01*
G01X3587757Y40160D01*
G03X3528000Y232414I-59757J86840D01*
G03X3468243Y40160I0J-105414D01*
G01X3342837Y40160D01*
G03X3274000Y237814I-68837J86840D01*
G03X3205163Y40160I0J-110814D01*
G01X3079757Y40160D01*
G03X3020000Y232414I-59757J86840D01*
G03X2960243Y40160I0J-105414D01*
G01X2825757Y40160D01*
G03X2766000Y232414I-59757J86840D01*
G03X2706243Y40160I0J-105414D01*
G37*
G36*
G01X2821414Y2323326D02*
G03X2825757Y2499840I-55414J89674D01*
G01X2960243Y2499840D01*
G03X3020000Y2307586I59757J-86840D01*
G03X3079757Y2499840I0J105414D01*
G01X3214243Y2499840D01*
G03X3274000Y2307586I59757J-86840D01*
G03X3333757Y2499840I0J105414D01*
G01X3468243Y2499840D01*
G03X3528000Y2307586I59757J-86840D01*
G03X3587757Y2499840I0J105414D01*
G01X3722243Y2499840D01*
G03X3782000Y2307586I59757J-86840D01*
G03X3841757Y2499840I0J105414D01*
G01X3976243Y2499840D01*
G03X4036000Y2307586I59757J-86840D01*
G03X4095757Y2499840I0J105414D01*
G01X4230243Y2499840D01*
G03X4290000Y2307586I59757J-86840D01*
G03X4349757Y2499840I0J105414D01*
G01X4484243Y2499840D01*
G03X4544000Y2307586I59757J-86840D01*
G03X4603757Y2499840I0J105414D01*
G01X4738243Y2499840D01*
G03X4798000Y2307586I59757J-86840D01*
G03X4857757Y2499840I0J105414D01*
G01X4992243Y2499840D01*
G03X5052000Y2307586I59757J-86840D01*
G03X5111757Y2499840I0J105414D01*
G01X5246243Y2499840D01*
G03X5203408Y2388775I59757J-86840D01*
G01X5100047Y2285414D01*
G01X3851411Y2285414D01*
G03X3812228Y2269184I0J-55414D01*
G01X3748458Y2205414D01*
G01X2821414Y2205414D01*
G01X2821414Y2323326D01*
G37*
G36*
G01X3976243Y40160D02*
G01X3841757Y40160D01*
G03X3873994Y178470I-59757J86840D01*
G03X3739258Y223360I-91994J-51470D01*
G01X3693334Y269284D01*
G01X3693334Y323987D01*
G03X3832025Y288212I88666J57013D01*
G03X3878360Y423742I-50025J92788D01*
G01X4076704Y622086D01*
G01X4520000Y622086D01*
G03X4546809Y633191I0J37914D01*
G01X4726809Y813191D01*
G03X4737914Y840000I-26809J26809D01*
G01X4737914Y1004296D01*
G01X4835704Y1102086D01*
G01X4872324Y1102086D01*
G03X4951930Y1088125I47676J37914D01*
G03X4975326Y1165486I-31930J51875D01*
G01X5090883Y1165486D01*
G01X5129468Y1126901D01*
G03X5187614Y1059130I60521J-6903D01*
G03X5250865Y1122164I2375J60868D01*
G03X5265775Y1119230I19124J57834D01*
G03X5361035Y1055889I59230J-14226D01*
G03X5329219Y1165772I-36031J49115D01*
G03X5325315Y1205484I-59230J14226D01*
G01X5357383Y1205484D01*
G01X5394078Y1168788D01*
G03X5420888Y1157683I26809J26809D01*
G01X5422095Y1157683D01*
G03X5399367Y1115846I37905J-47683D01*
G03X5413683Y1070436I60633J-5845D01*
G01X5413683Y967299D01*
G01X5103191Y656807D01*
G03X5092086Y629997I26809J-26809D01*
G01X5092086Y547676D01*
G03X5081542Y536910I37914J-47676D01*
G01X5081542Y725877D01*
G03X5083848Y738899I-35608J13022D01*
G01X5083848Y782812D01*
G03X5068651Y884097I-40220J45747D01*
G03X4982714Y828380I-25023J-55537D01*
G03X4922759Y755740I-180J-60914D01*
G03X5005714Y711135I59775J11726D01*
G01X5005714Y475709D01*
G03X5024688Y279186I46286J-94709D01*
G03X5139473Y439827I27312J101814D01*
G03X5183427Y470742I-9473J60173D01*
G03X5273685Y467546I46576J39258D01*
G03X5267917Y557677I-43683J42454D01*
G01X5267917Y659506D01*
G01X5488543Y880133D01*
G03X5524358Y874812I26454J54870D01*
G03X5594451Y790826I55631J-24813D01*
G03X5617903Y897675I-14462J59172D01*
G01X5617903Y912319D01*
G01X5658486Y871736D01*
G01X5658486Y791616D01*
G03X5636473Y754861I37914J-47676D01*
G03X5555704Y672387I-26473J-54861D01*
G03X5669927Y689079I54296J27613D01*
G03X5713352Y685432I26473J54861D01*
G03X5799840Y514656I82648J-65432D01*
G01X5799840Y40160D01*
G01X5628837Y40160D01*
G03X5560000Y237814I-68837J86840D01*
G03X5491163Y40160I0J-110814D01*
G01X5365757Y40160D01*
G03X5306000Y232414I-59757J86840D01*
G03X5246243Y40160I0J-105414D01*
G01X5111757Y40160D01*
G03X5052000Y232414I-59757J86840D01*
G03X4992243Y40160I0J-105414D01*
G01X4857757Y40160D01*
G03X4798000Y232414I-59757J86840D01*
G03X4738243Y40160I0J-105414D01*
G01X4603757Y40160D01*
G03X4544000Y232414I-59757J86840D01*
G03X4484243Y40160I0J-105414D01*
G01X4349757Y40160D01*
G03X4290000Y232414I-59757J86840D01*
G03X4230243Y40160I0J-105414D01*
G01X4095757Y40160D01*
G03X4036000Y232414I-59757J86840D01*
G03X3976243Y40160I0J-105414D01*
G37*
%LPC*%
G36*
G01X4141414Y381000D02*
G03X3930586Y381000I-105414J0D01*
G03X4141414Y381000I105414J0D01*
G37*
G36*
G01X4395414Y381000D02*
G03X4184586Y381000I-105414J0D01*
G03X4395414Y381000I105414J0D01*
G37*
G36*
G01X4649414Y381000D02*
G03X4438586Y381000I-105414J0D01*
G03X4649414Y381000I105414J0D01*
G37*
G36*
G01X4903414Y381000D02*
G03X4692586Y381000I-105414J0D01*
G03X4903414Y381000I105414J0D01*
G37*
G36*
G01X4788189Y1020899D02*
G03X4910016Y1020899I60914J0D01*
G03X4788189Y1020899I-60914J0D01*
G37*
G36*
G01X5389075Y529999D02*
G03X5510903Y529999I60914J0D01*
G03X5389075Y529999I-60914J0D01*
G37*
G36*
G01X5609086Y380000D02*
G03X5730914Y380000I60914J0D01*
G03X5609086Y380000I-60914J0D01*
G37*
%LPD*%
G36*
G01X3878914Y904295D02*
G01X3906809Y932191D01*
G03X3917914Y959000I-26809J26809D01*
G01X3917914Y1042324D01*
G03X3932385Y1121086I-37914J47676D01*
G01X4525028Y1121086D01*
G03X4570000Y1019086I44972J-41086D01*
G03X4614972Y1121086I0J60914D01*
G01X4620000Y1121086D01*
G03X4638975Y1126176I0J37914D01*
G01X4708521Y1126176D01*
G03X4735331Y1137281I0J37914D01*
G01X4763536Y1165486D01*
G01X4791868Y1165486D01*
G01X4673191Y1046809D01*
G03X4662086Y1020000I26809J-26809D01*
G01X4662086Y855704D01*
G01X4504296Y697914D01*
G01X4061000Y697914D01*
G03X4034191Y686809I0J-37914D01*
G01X3824742Y477360D01*
G03X3693334Y438013I-42742J-96360D01*
G01X3693334Y448875D01*
G01X3867809Y623350D01*
G03X3878914Y650159I-26809J26809D01*
G01X3878914Y904295D01*
G37*
%LPC*%
G36*
G01X4179078Y1009998D02*
G03X4300905Y1009998I60914J0D01*
G03X4179078Y1009998I-60914J0D01*
G37*
G36*
G01X4189086Y860000D02*
G03X4310914Y860000I60914J0D01*
G03X4189086Y860000I-60914J0D01*
G37*
%LPD*%
G36*
G01X3920105Y2016486D02*
G01X4225146Y2016486D01*
G03X4264223Y1931165I54854J-26486D01*
G03X4340746Y1985486I15777J58835D01*
G01X4694296Y1985486D01*
G01X4752868Y1926914D01*
G01X3839000Y1926914D01*
G03X3829260Y1925641I0J-37914D01*
G01X3920105Y2016486D01*
G37*
G36*
G01X4953530Y1643191D02*
G03X4960141Y1637914I26809J26809D01*
G01X4709661Y1637914D01*
G03X4682852Y1626809I0J-37914D01*
G01X4637143Y1581100D01*
G03X4553272Y1614737I-57143J-21100D01*
G03X4528222Y1527914I26728J-54737D01*
G01X4065355Y1527914D01*
G01X4033062Y1560206D01*
G03X4029326Y1563482I-26809J-26809D01*
G03X4033878Y1652252I-39326J46518D01*
G03X3945000Y1651055I-43878J-42252D01*
G03X3857914Y1654037I-45000J-41055D01*
G01X3857914Y1754295D01*
G01X3923705Y1820086D01*
G01X4776634Y1820086D01*
G01X4953530Y1643191D01*
G37*
G36*
G01X5402368Y2370276D02*
G03X5365757Y2499840I-96368J42724D01*
G01X5491163Y2499840D01*
G03X5560000Y2302186I68837J-86840D01*
G03X5628837Y2499840I0J110814D01*
G01X5799840Y2499840D01*
G01X5799840Y725344D01*
G03X5749888Y714793I-3840J-105344D01*
G03X5734314Y791616I-53488J29146D01*
G01X5734314Y887440D01*
G03X5723209Y914250I-37914J0D01*
G01X5592314Y1045145D01*
G01X5592314Y1092132D01*
G03X5690355Y1148151I37675J47866D01*
G03X5580966Y1176154I-60366J-8153D01*
G01X5506481Y1250640D01*
G03X5507101Y1328611I-46492J39358D01*
G03X5430526Y1343312I-47112J-38613D01*
G01X5324747Y1343312D01*
G03X5300825Y1422530I-54757J26686D01*
G03X5219996Y1404799I-30836J-52533D01*
G03X5160214Y1430123I-49996J-34799D01*
G03X5111549Y1387147I9786J-60123D01*
G03X5031504Y1425615I-58084J-18350D01*
G03X4998139Y1343312I21961J-56817D01*
G01X4718308Y1343312D01*
G03X4691499Y1332207I0J-37914D01*
G01X4654296Y1295004D01*
G01X4635015Y1295004D01*
G03X4615158Y1369127I-55005J24986D01*
G03X4611967Y1454139I-45168J40870D01*
G03X4626471Y1463191I-12306J35861D01*
G01X4725366Y1562086D01*
G01X4846657Y1562086D01*
G03X4889990Y1459576I43333J-42097D01*
G03X4933322Y1562086I0J60414D01*
G01X5100000Y1562086D01*
G03X5126809Y1573191I0J37914D01*
G01X5163097Y1609478D01*
G03X5223267Y1699549I6903J60521D01*
G03X5115000Y1696182I-53267J-29549D01*
G03X5047395Y1729595I-55000J-26182D01*
G03X5037693Y1787893I-57395J20405D01*
G03X4983097Y1810522I-47693J-37893D01*
G01X4911532Y1882086D01*
G01X5129994Y1882086D01*
G03X5156803Y1893191I0J37914D01*
G01X5183087Y1919475D01*
G03X5239490Y1944496I6903J60521D01*
G03X5340531Y1996723I40500J45500D01*
G03X5230490Y2025496I-60541J-6727D01*
G03X5137324Y2010603I-40500J-45500D01*
G03X5050815Y2043467I-57324J-20603D01*
G03X4984813Y2100693I-60815J-3467D01*
G03X4929478Y2033097I5187J-60693D01*
G01X4916295Y2019914D01*
G01X4854785Y2019914D01*
G01X4762490Y2112209D01*
G03X4735681Y2123314I-26809J-26809D01*
G01X3866932Y2123314D01*
G01X3885704Y2142086D01*
G01X5306654Y2142086D01*
G03X5354839Y2043907I48186J-37265D01*
G03X5403025Y2142086I0J60914D01*
G01X5422324Y2142086D01*
G03X5530914Y2180000I47676J37914D01*
G03X5422324Y2217914I-60914J0D01*
G01X5189281Y2217914D01*
G01X5281775Y2310407D01*
G03X5402368Y2370276I24225J102593D01*
G37*
%LPC*%
G36*
G01X5099086Y1520000D02*
G03X5220914Y1520000I60914J0D01*
G03X5099086Y1520000I-60914J0D01*
G37*
G36*
G01X5269086Y1680000D02*
G03X5380000Y1645208I60914J0D01*
G03X5490914Y1680000I50000J34792D01*
G03X5380000Y1714792I-60914J0D01*
G03X5269086Y1680000I-50000J-34792D01*
G37*
G36*
G01X5449075Y1939996D02*
G03X5570903Y1939996I60914J0D01*
G03X5449075Y1939996I-60914J0D01*
G37*
G36*
G01X5502486Y1779101D02*
G03X5624313Y1779101I60914J0D01*
G03X5502486Y1779101I-60914J0D01*
G37*
%LPD*%
G54D10*
G01X1935163Y40160D02*
G01X1809757Y40160D01*
G03X1750000Y232414I-59757J86840D01*
G03X1690243Y40160I0J-105414D01*
G01X201423Y40160D01*
G01X134079Y59401D01*
G01X87186Y87537D01*
G01X69051Y114739D01*
G01X58264Y142017D01*
G01X40160Y201511D01*
G01X40160Y2348211D01*
G01X57589Y2396149D01*
G01X97208Y2442792D01*
G01X143636Y2482229D01*
G01X201512Y2499840D01*
G01X1090013Y2499840D01*
G03X1065088Y2437503I65488J-62337D01*
G01X1065088Y2377503D01*
G03X1245915Y2377503I90414J0D01*
G01X1245915Y2437503D01*
G03X1220990Y2499840I-90414J0D01*
G01X1955010Y2499840D01*
G03X1930085Y2437503I65488J-62337D01*
G01X1930085Y2377503D01*
G03X2110912Y2377503I90414J0D01*
G01X2110912Y2437503D01*
G03X2085987Y2499840I-90414J0D01*
G01X2198243Y2499840D01*
G03X2166006Y2361530I59757J-86840D01*
G03X2300742Y2316640I91994J51470D01*
G01X2404191Y2213191D01*
G03X2415467Y2205414I26809J26809D01*
G01X1820000Y2205414D01*
G03X1780816Y2189184I0J-55414D01*
G01X1773122Y2181490D01*
G01X1748706Y2205906D01*
G03X1727200Y2214814I-21506J-21506D01*
G01X1688847Y2214814D01*
G03X1667341Y2205906I0J-30414D01*
G01X1642194Y2180759D01*
G03X1633335Y2160983I21506J-21506D01*
G03X1539572Y2117679I-33335J-50983D01*
G03X1468343Y2027711I-19575J-57683D01*
G03X1580425Y2052317I51654J32285D01*
G03X1651469Y2077420I19575J57683D01*
G01X1705694Y2023194D01*
G03X1727200Y2014286I21506J21506D01*
G01X1804855Y2014286D01*
G03X1835269Y2044700I0J30414D01*
G01X1835269Y2086902D01*
G01X1842953Y2094586D01*
G01X1961852Y2094586D01*
G03X1935085Y2032488I58646J-62098D01*
G01X1935085Y1942488D01*
G03X2105912Y1942488I85414J0D01*
G01X2105912Y2032488D01*
G03X2079145Y2094586I-85414J0D01*
G01X3730968Y2094586D01*
G01X3583191Y1946809D01*
G03X3572086Y1920000I26809J-26809D01*
G01X3572086Y1547676D01*
G03X3552857Y1521100I37914J-47676D01*
G01X3546148Y1527809D01*
G03X3519339Y1538914I-26809J-26809D01*
G01X2067160Y1538914D01*
G03X2040350Y1527809I0J-37914D01*
G01X1927055Y1414514D01*
G01X1765326Y1414514D01*
G03X1729408Y1497739I-55326J25486D01*
G03X1650513Y1453106I-19408J-57739D01*
G01X1643409Y1460209D01*
G03X1616600Y1471314I-26809J-26809D01*
G01X662249Y1471314D01*
G03X549680Y1448485I-52249J-31314D01*
G03X651582Y1395486I60320J-8485D01*
G01X674674Y1395486D01*
G03X714272Y1311152I55326J-25486D01*
G03X790664Y1364486I15728J58848D01*
G01X1529787Y1364486D01*
G03X1542083Y1282321I50210J-34489D01*
G01X1542083Y905701D01*
G01X1093191Y456809D01*
G03X1082086Y430000I26809J-26809D01*
G01X1082086Y310000D01*
G03X1093191Y283191I37914J0D01*
G01X1119478Y256903D01*
G03X1189822Y189883I60521J-6903D01*
G03X1235177Y275807I-9823J60117D01*
G03X1343779Y353558I6823J105193D01*
G03X1288983Y475365I-101779J27442D01*
G01X1999243Y1185625D01*
G03X2088124Y1135967I60757J4375D01*
G03X2098437Y1237255I-28124J54033D01*
G01X2521804Y1237255D01*
G03X2569995Y1139084I48191J-37258D01*
G03X2618186Y1237255I0J60914D01*
G01X2705524Y1237255D01*
G03X2722086Y1162324I54476J-27255D01*
G01X2722086Y1115708D01*
G01X2576898Y970520D01*
G03X2509910Y920016I-6903J-60521D01*
G03X2556889Y850511I60084J-10018D01*
G01X2231191Y524813D01*
G03X2220086Y498004I26809J-26809D01*
G01X2220086Y479360D01*
G03X2258000Y275586I37914J-98360D01*
G03X2295914Y479360I0J105414D01*
G01X2295914Y482299D01*
G01X2863091Y1049476D01*
G03X2913067Y1153070I6903J60521D01*
G03X2809473Y1103095I-43073J-43073D01*
G01X2796642Y1090264D01*
G03X2797914Y1100003I-36642J9740D01*
G01X2797914Y1162324D01*
G03X2814476Y1237255I-37914J47676D01*
G01X2907493Y1237255D01*
G03X2962072Y1214648I47676J37914D01*
G01X3030128Y1146593D01*
G03X2949479Y1082197I-20128J-57492D01*
G01X2485191Y617909D01*
G03X2474086Y591100I26809J-26809D01*
G01X2474086Y479360D01*
G03X2462532Y287914I37914J-98360D01*
G01X2381000Y287914D01*
G03X2354191Y276809I0J-37914D01*
G01X2300742Y223360D01*
G03X2166006Y178470I-42742J-96360D01*
G03X2198243Y40160I91994J-51470D01*
G01X2072837Y40160D01*
G03X2004000Y237814I-68837J86840D01*
G03X1935163Y40160I0J-110814D01*
G01X64586Y270000D02*
G03X475414Y270000I205414J0D01*
G03X64586Y270000I-205414J0D01*
G01X549086Y2300001D02*
G03X670914Y2300001I60914J0D01*
G03X549086Y2300001I-60914J0D01*
G01X749087Y1820001D02*
G03X870914Y1820001I60914J0D01*
G03X749087Y1820001I-60914J0D01*
G01X1019087Y2210001D02*
G03X1140915Y2210001I60914J0D01*
G03X1019087Y2210001I-60914J0D01*
G01X1240915Y1942488D02*
G01X1240915Y2032488D01*
G03X1070088Y2032488I-85414J0D01*
G01X1070088Y1942488D01*
G03X1240915Y1942488I85414J0D01*
G01X1139084Y1729997D02*
G03X1247674Y1692083I60914J0D01*
G01X2499997Y1692083D01*
G03X2522577Y1699540I0J37914D01*
G03X2578151Y1797309I7423J60460D01*
G03X2469602Y1767910I-48151J-37309D01*
G01X1247674Y1767910D01*
G03X1139084Y1729997I-47676J-37914D01*
G01X1601414Y381000D02*
G03X1390586Y381000I-105414J0D01*
G03X1601414Y381000I105414J0D01*
G01X1855414Y381000D02*
G03X1644586Y381000I-105414J0D01*
G03X1855414Y381000I105414J0D01*
G01X1759086Y1580000D02*
G03X1880914Y1580000I60914J0D01*
G03X1759086Y1580000I-60914J0D01*
G01X2114814Y381000D02*
G03X1893186Y381000I-110814J0D01*
G03X2114814Y381000I110814J0D01*
G01X1638901Y1314481D02*
G03X1660560Y1307686I21658J31119D01*
G01X1955600Y1307686D01*
G03X1982409Y1318791I0J37914D01*
G01X2095705Y1432086D01*
G01X2135963Y1432086D01*
G03X2180000Y1329086I44037J-42086D01*
G03X2224037Y1432086I0J60914D01*
G01X3490794Y1432086D01*
G01X3544089Y1378791D01*
G03X3570898Y1367686I26809J26809D01*
G01X3789102Y1367686D01*
G03X3797739Y1368683I0J37914D01*
G01X4006253Y1368683D01*
G03X4021946Y1372083I0J37914D01*
G01X4522314Y1372083D01*
G03X4534916Y1360195I47676J37914D01*
G03X4525005Y1295004I45093J-40205D01*
G01X3380701Y1295004D01*
G03X3325095Y1350697I-60708J-5006D01*
G03X3260973Y1305066I-5101J-60700D01*
G03X3183324Y1308637I-40979J-45069D01*
G03X3165387Y1233004I36670J-48640D01*
G01X3140614Y1233004D01*
G01X3120521Y1253097D01*
G03X3082989Y1316409I-60521J6903D01*
G03X3011894Y1297368I-22990J-56409D01*
G03X2907493Y1313083I-56725J-22198D01*
G01X2035169Y1313083D01*
G03X2008360Y1301979I0J-37914D01*
G01X1617911Y911529D01*
G01X1617911Y1282321D01*
G03X1638901Y1314481I-37914J47676D01*
G01X2706243Y40160D02*
G01X2571757Y40160D01*
G03X2564929Y218162I-59757J86840D01*
G03X2571151Y223191I-20587J31838D01*
G01X2666809Y318849D01*
G03X2674172Y329234I-26809J26809D01*
G03X2845757Y312073I91828J51766D01*
G03X2803914Y479360I-79757J68927D01*
G01X2803914Y520295D01*
G01X3195704Y912086D01*
G01X3238467Y912086D01*
G01X2993191Y666809D01*
G03X2982086Y640000I26809J-26809D01*
G01X2982086Y479360D01*
G03X3020000Y275586I37914J-98360D01*
G03X3057914Y479360I0J105414D01*
G01X3057914Y624296D01*
G01X3314704Y881086D01*
G01X3559000Y881086D01*
G03X3585809Y892191I0J37914D01*
G01X3663097Y969478D01*
G03X3702086Y978222I6903J60521D01*
G01X3702086Y865704D01*
G01X3314645Y478263D01*
G03X3201086Y304871I-40645J-97263D01*
G03X3369420Y425801I72914J76129D01*
G01X3766809Y823191D01*
G03X3772086Y829802I-26809J26809D01*
G01X3772086Y678704D01*
G01X3570742Y477360D01*
G03X3427244Y350010I-42742J-96360D01*
G03X3617506Y325316I100756J30990D01*
G01X3617506Y253580D01*
G03X3628611Y226771I37914J0D01*
G01X3685640Y169742D01*
G03X3722243Y40160I96360J-42742D01*
G01X3587757Y40160D01*
G03X3528000Y232414I-59757J86840D01*
G03X3468243Y40160I0J-105414D01*
G01X3342837Y40160D01*
G03X3274000Y237814I-68837J86840D01*
G03X3205163Y40160I0J-110814D01*
G01X3079757Y40160D01*
G03X3020000Y232414I-59757J86840D01*
G03X2960243Y40160I0J-105414D01*
G01X2825757Y40160D01*
G03X2766000Y232414I-59757J86840D01*
G03X2706243Y40160I0J-105414D01*
G01X2821414Y2323326D02*
G03X2825757Y2499840I-55414J89674D01*
G01X2960243Y2499840D01*
G03X3020000Y2307586I59757J-86840D01*
G03X3079757Y2499840I0J105414D01*
G01X3214243Y2499840D01*
G03X3274000Y2307586I59757J-86840D01*
G03X3333757Y2499840I0J105414D01*
G01X3468243Y2499840D01*
G03X3528000Y2307586I59757J-86840D01*
G03X3587757Y2499840I0J105414D01*
G01X3722243Y2499840D01*
G03X3782000Y2307586I59757J-86840D01*
G03X3841757Y2499840I0J105414D01*
G01X3976243Y2499840D01*
G03X4036000Y2307586I59757J-86840D01*
G03X4095757Y2499840I0J105414D01*
G01X4230243Y2499840D01*
G03X4290000Y2307586I59757J-86840D01*
G03X4349757Y2499840I0J105414D01*
G01X4484243Y2499840D01*
G03X4544000Y2307586I59757J-86840D01*
G03X4603757Y2499840I0J105414D01*
G01X4738243Y2499840D01*
G03X4798000Y2307586I59757J-86840D01*
G03X4857757Y2499840I0J105414D01*
G01X4992243Y2499840D01*
G03X5052000Y2307586I59757J-86840D01*
G03X5111757Y2499840I0J105414D01*
G01X5246243Y2499840D01*
G03X5203408Y2388775I59757J-86840D01*
G01X5100047Y2285414D01*
G01X3851411Y2285414D01*
G03X3812228Y2269184I0J-55414D01*
G01X3748458Y2205414D01*
G01X2821414Y2205414D01*
G01X2821414Y2323326D01*
G01X3976243Y40160D02*
G01X3841757Y40160D01*
G03X3873994Y178470I-59757J86840D01*
G03X3739258Y223360I-91994J-51470D01*
G01X3693334Y269284D01*
G01X3693334Y323987D01*
G03X3832025Y288212I88666J57013D01*
G03X3878360Y423742I-50025J92788D01*
G01X4076704Y622086D01*
G01X4520000Y622086D01*
G03X4546809Y633191I0J37914D01*
G01X4726809Y813191D01*
G03X4737914Y840000I-26809J26809D01*
G01X4737914Y1004296D01*
G01X4835704Y1102086D01*
G01X4872324Y1102086D01*
G03X4951930Y1088125I47676J37914D01*
G03X4975326Y1165486I-31930J51875D01*
G01X5090883Y1165486D01*
G01X5129468Y1126901D01*
G03X5187614Y1059130I60521J-6903D01*
G03X5250865Y1122164I2375J60868D01*
G03X5265775Y1119230I19124J57834D01*
G03X5361035Y1055889I59230J-14226D01*
G03X5329219Y1165772I-36031J49115D01*
G03X5325315Y1205484I-59230J14226D01*
G01X5357383Y1205484D01*
G01X5394078Y1168788D01*
G03X5420888Y1157683I26809J26809D01*
G01X5422095Y1157683D01*
G03X5399367Y1115846I37905J-47683D01*
G03X5413683Y1070436I60633J-5845D01*
G01X5413683Y967299D01*
G01X5103191Y656807D01*
G03X5092086Y629997I26809J-26809D01*
G01X5092086Y547676D01*
G03X5081542Y536910I37914J-47676D01*
G01X5081542Y725877D01*
G03X5083848Y738899I-35608J13022D01*
G01X5083848Y782812D01*
G03X5068651Y884097I-40220J45747D01*
G03X4982714Y828380I-25023J-55537D01*
G03X4922759Y755740I-180J-60914D01*
G03X5005714Y711135I59775J11726D01*
G01X5005714Y475709D01*
G03X5024688Y279186I46286J-94709D01*
G03X5139473Y439827I27312J101814D01*
G03X5183427Y470742I-9473J60173D01*
G03X5273685Y467546I46576J39258D01*
G03X5267917Y557677I-43683J42454D01*
G01X5267917Y659506D01*
G01X5488543Y880133D01*
G03X5524358Y874812I26454J54870D01*
G03X5594451Y790826I55631J-24813D01*
G03X5617903Y897675I-14462J59172D01*
G01X5617903Y912319D01*
G01X5658486Y871736D01*
G01X5658486Y791616D01*
G03X5636473Y754861I37914J-47676D01*
G03X5555704Y672387I-26473J-54861D01*
G03X5669927Y689079I54296J27613D01*
G03X5713352Y685432I26473J54861D01*
G03X5799840Y514656I82648J-65432D01*
G01X5799840Y40160D01*
G01X5628837Y40160D01*
G03X5560000Y237814I-68837J86840D01*
G03X5491163Y40160I0J-110814D01*
G01X5365757Y40160D01*
G03X5306000Y232414I-59757J86840D01*
G03X5246243Y40160I0J-105414D01*
G01X5111757Y40160D01*
G03X5052000Y232414I-59757J86840D01*
G03X4992243Y40160I0J-105414D01*
G01X4857757Y40160D01*
G03X4798000Y232414I-59757J86840D01*
G03X4738243Y40160I0J-105414D01*
G01X4603757Y40160D01*
G03X4544000Y232414I-59757J86840D01*
G03X4484243Y40160I0J-105414D01*
G01X4349757Y40160D01*
G03X4290000Y232414I-59757J86840D01*
G03X4230243Y40160I0J-105414D01*
G01X4095757Y40160D01*
G03X4036000Y232414I-59757J86840D01*
G03X3976243Y40160I0J-105414D01*
G01X4141414Y381000D02*
G03X3930586Y381000I-105414J0D01*
G03X4141414Y381000I105414J0D01*
G01X4395414Y381000D02*
G03X4184586Y381000I-105414J0D01*
G03X4395414Y381000I105414J0D01*
G01X4649414Y381000D02*
G03X4438586Y381000I-105414J0D01*
G03X4649414Y381000I105414J0D01*
G01X4903414Y381000D02*
G03X4692586Y381000I-105414J0D01*
G03X4903414Y381000I105414J0D01*
G01X4788189Y1020899D02*
G03X4910016Y1020899I60914J0D01*
G03X4788189Y1020899I-60914J0D01*
G01X5389075Y529999D02*
G03X5510903Y529999I60914J0D01*
G03X5389075Y529999I-60914J0D01*
G01X5609086Y380000D02*
G03X5730914Y380000I60914J0D01*
G03X5609086Y380000I-60914J0D01*
G01X3878914Y904295D02*
G01X3906809Y932191D01*
G03X3917914Y959000I-26809J26809D01*
G01X3917914Y1042324D01*
G03X3932385Y1121086I-37914J47676D01*
G01X4525028Y1121086D01*
G03X4570000Y1019086I44972J-41086D01*
G03X4614972Y1121086I0J60914D01*
G01X4620000Y1121086D01*
G03X4638975Y1126176I0J37914D01*
G01X4708521Y1126176D01*
G03X4735331Y1137281I0J37914D01*
G01X4763536Y1165486D01*
G01X4791868Y1165486D01*
G01X4673191Y1046809D01*
G03X4662086Y1020000I26809J-26809D01*
G01X4662086Y855704D01*
G01X4504296Y697914D01*
G01X4061000Y697914D01*
G03X4034191Y686809I0J-37914D01*
G01X3824742Y477360D01*
G03X3693334Y438013I-42742J-96360D01*
G01X3693334Y448875D01*
G01X3867809Y623350D01*
G03X3878914Y650159I-26809J26809D01*
G01X3878914Y904295D01*
G01X4179078Y1009998D02*
G03X4300905Y1009998I60914J0D01*
G03X4179078Y1009998I-60914J0D01*
G01X4189086Y860000D02*
G03X4310914Y860000I60914J0D01*
G03X4189086Y860000I-60914J0D01*
G01X3920105Y2016486D02*
G01X4225146Y2016486D01*
G03X4264223Y1931165I54854J-26486D01*
G03X4340746Y1985486I15777J58835D01*
G01X4694296Y1985486D01*
G01X4752868Y1926914D01*
G01X3839000Y1926914D01*
G03X3829260Y1925641I0J-37914D01*
G01X3920105Y2016486D01*
G01X4953530Y1643191D02*
G03X4960141Y1637914I26809J26809D01*
G01X4709661Y1637914D01*
G03X4682852Y1626809I0J-37914D01*
G01X4637143Y1581100D01*
G03X4553272Y1614737I-57143J-21100D01*
G03X4528222Y1527914I26728J-54737D01*
G01X4065355Y1527914D01*
G01X4033062Y1560206D01*
G03X4029326Y1563482I-26809J-26809D01*
G03X4033878Y1652252I-39326J46518D01*
G03X3945000Y1651055I-43878J-42252D01*
G03X3857914Y1654037I-45000J-41055D01*
G01X3857914Y1754295D01*
G01X3923705Y1820086D01*
G01X4776634Y1820086D01*
G01X4953530Y1643191D01*
G01X5402368Y2370276D02*
G03X5365757Y2499840I-96368J42724D01*
G01X5491163Y2499840D01*
G03X5560000Y2302186I68837J-86840D01*
G03X5628837Y2499840I0J110814D01*
G01X5799840Y2499840D01*
G01X5799840Y725344D01*
G03X5749888Y714793I-3840J-105344D01*
G03X5734314Y791616I-53488J29146D01*
G01X5734314Y887440D01*
G03X5723209Y914250I-37914J0D01*
G01X5592314Y1045145D01*
G01X5592314Y1092132D01*
G03X5690355Y1148151I37675J47866D01*
G03X5580966Y1176154I-60366J-8153D01*
G01X5506481Y1250640D01*
G03X5507101Y1328611I-46492J39358D01*
G03X5430526Y1343312I-47112J-38613D01*
G01X5324747Y1343312D01*
G03X5300825Y1422530I-54757J26686D01*
G03X5219996Y1404799I-30836J-52533D01*
G03X5160214Y1430123I-49996J-34799D01*
G03X5111549Y1387147I9786J-60123D01*
G03X5031504Y1425615I-58084J-18350D01*
G03X4998139Y1343312I21961J-56817D01*
G01X4718308Y1343312D01*
G03X4691499Y1332207I0J-37914D01*
G01X4654296Y1295004D01*
G01X4635015Y1295004D01*
G03X4615158Y1369127I-55005J24986D01*
G03X4611967Y1454139I-45168J40870D01*
G03X4626471Y1463191I-12306J35861D01*
G01X4725366Y1562086D01*
G01X4846657Y1562086D01*
G03X4889990Y1459576I43333J-42097D01*
G03X4933322Y1562086I0J60414D01*
G01X5100000Y1562086D01*
G03X5126809Y1573191I0J37914D01*
G01X5163097Y1609478D01*
G03X5223267Y1699549I6903J60521D01*
G03X5115000Y1696182I-53267J-29549D01*
G03X5047395Y1729595I-55000J-26182D01*
G03X5037693Y1787893I-57395J20405D01*
G03X4983097Y1810522I-47693J-37893D01*
G01X4911532Y1882086D01*
G01X5129994Y1882086D01*
G03X5156803Y1893191I0J37914D01*
G01X5183087Y1919475D01*
G03X5239490Y1944496I6903J60521D01*
G03X5340531Y1996723I40500J45500D01*
G03X5230490Y2025496I-60541J-6727D01*
G03X5137324Y2010603I-40500J-45500D01*
G03X5050815Y2043467I-57324J-20603D01*
G03X4984813Y2100693I-60815J-3467D01*
G03X4929478Y2033097I5187J-60693D01*
G01X4916295Y2019914D01*
G01X4854785Y2019914D01*
G01X4762490Y2112209D01*
G03X4735681Y2123314I-26809J-26809D01*
G01X3866932Y2123314D01*
G01X3885704Y2142086D01*
G01X5306654Y2142086D01*
G03X5354839Y2043907I48186J-37265D01*
G03X5403025Y2142086I0J60914D01*
G01X5422324Y2142086D01*
G03X5530914Y2180000I47676J37914D01*
G03X5422324Y2217914I-60914J0D01*
G01X5189281Y2217914D01*
G01X5281775Y2310407D01*
G03X5402368Y2370276I24225J102593D01*
G01X5099086Y1520000D02*
G03X5220914Y1520000I60914J0D01*
G03X5099086Y1520000I-60914J0D01*
G01X5269086Y1680000D02*
G03X5380000Y1645208I60914J0D01*
G03X5490914Y1680000I50000J34792D01*
G03X5380000Y1714792I-60914J0D01*
G03X5269086Y1680000I-50000J-34792D01*
G01X5449075Y1939996D02*
G03X5570903Y1939996I60914J0D01*
G03X5449075Y1939996I-60914J0D01*
G01X5502486Y1779101D02*
G03X5624313Y1779101I60914J0D01*
G03X5502486Y1779101I-60914J0D01*
G54D11*
G01X2078746Y381000D02*
G01X2104654Y381000D01*
G01X1929254Y381000D02*
G01X1903346Y381000D01*
G01X2004000Y306254D02*
G01X2004000Y280346D01*
G01X2004000Y455746D02*
G01X2004000Y481654D01*
G01X2078746Y127000D02*
G01X2104654Y127000D01*
G01X1929254Y127000D02*
G01X1903346Y127000D01*
G01X2004000Y201746D02*
G01X2004000Y227654D01*
G01X3348746Y127000D02*
G01X3374654Y127000D01*
G01X3199254Y127000D02*
G01X3173346Y127000D01*
G01X3274000Y201746D02*
G01X3274000Y227654D01*
G01X5560000Y2338254D02*
G01X5560000Y2312346D01*
G01X5485254Y2413000D02*
G01X5459346Y2413000D01*
G01X5634746Y2413000D02*
G01X5660654Y2413000D01*
G01X5634746Y127000D02*
G01X5660654Y127000D01*
G01X5485254Y127000D02*
G01X5459346Y127000D01*
G01X5560000Y201746D02*
G01X5560000Y227654D01*
G04 Copper End*

G04 PolygonModel Start*
G36*
G01X1727200Y2044700D02*
G01X1804855Y2044700D01*
G01X1804855Y2106745D01*
G01X1727200Y2184400D01*
G01X1688847Y2184400D01*
G01X1663700Y2159253D01*
G01X1663700Y2108200D01*
G01X1727200Y2044700D01*
G37*

G04 Pad Start*
G54D12*
G01X6530000Y2270000D03*
G54D13*
G01X6530000Y270000D03*
G01X270000Y270000D03*
G54D14*
G01X3782000Y2413000D03*
G01X3528000Y2413000D03*
G01X4036000Y2413000D03*
G01X4290000Y2413000D03*
G01X4544000Y2413000D03*
G01X4798000Y2413000D03*
G01X5306000Y2413000D03*
G01X5052000Y2413000D03*
G01X3020000Y2413000D03*
G01X3274000Y2413000D03*
G01X2766000Y2413000D03*
G01X2512000Y2413000D03*
G01X2258000Y2413000D03*
G01X5560000Y2413000D03*
G01X1242000Y381000D03*
G01X1496000Y381000D03*
G01X3782000Y381000D03*
G01X3528000Y381000D03*
G01X4036000Y381000D03*
G01X4290000Y381000D03*
G01X4544000Y381000D03*
G01X4798000Y381000D03*
G01X5052000Y381000D03*
G01X3274000Y381000D03*
G01X3274000Y127000D03*
G01X5052000Y127000D03*
G01X5306000Y127000D03*
G01X4798000Y127000D03*
G01X4544000Y127000D03*
G01X4290000Y127000D03*
G01X4036000Y127000D03*
G01X5560000Y127000D03*
G01X3528000Y127000D03*
G01X3782000Y127000D03*
G01X3020000Y381000D03*
G01X2766000Y381000D03*
G01X2512000Y381000D03*
G01X2258000Y381000D03*
G01X2004000Y381000D03*
G01X1750000Y381000D03*
G01X1750000Y127000D03*
G01X2004000Y127000D03*
G01X2258000Y127000D03*
G01X2512000Y127000D03*
G01X2766000Y127000D03*
G01X3020000Y127000D03*
G01X5796000Y620000D03*
G01X6050000Y620000D03*
G54D15*
G01X2020499Y1987488D03*
G01X1155502Y1987488D03*
G54D17*
G01X2020499Y2407503D03*
G01X1155502Y2407503D03*
G04 Pad End*

G04 Via Start*
G54D18*
G01X4600000Y860000D03*
G01X1080001Y2210001D03*
G01X1040000Y1990000D03*
G01X6330000Y2040000D03*
G01X6450000Y840000D03*
G01X3610000Y1500000D03*
G01X3680000Y1570000D03*
G01X3750000Y1500000D03*
G01X3900000Y1610000D03*
G01X3820000Y1570000D03*
G01X5340000Y2260000D03*
G01X3150000Y560000D03*
G01X3660000Y2260000D03*
G01X3150000Y2060000D03*
G01X4380000Y1690000D03*
G01X4030000Y1750000D03*
G01X3610000Y2020000D03*
G01X3970000Y790000D03*
G01X3560000Y820000D03*
G01X4130000Y790000D03*
G01X5610000Y700000D03*
G01X5490000Y330000D03*
G01X5650000Y1290000D03*
G01X2810000Y1970000D03*
G01X2310000Y1580000D03*
G01X1670000Y780000D03*
G01X1850000Y820000D03*
G01X2440000Y1200000D03*
G01X2180000Y1390000D03*
G01X3810000Y1030000D03*
G01X3740000Y1090000D03*
G01X3670000Y1030000D03*
G01X3530000Y1030000D03*
G01X3600000Y1090000D03*
G01X2500000Y1580000D03*
G01X640000Y2410001D03*
G01X780000Y1910001D03*
G01X620000Y1230000D03*
G01X910000Y1280001D03*
G01X800000Y460000D03*
G01X1070000Y600000D03*
G01X1170000Y950000D03*
G01X1420000Y850000D03*
G01X1340000Y780000D03*
G01X2530000Y1760000D03*
G01X1199998Y1729997D03*
G01X5354839Y2104821D03*
G01X5189990Y1979996D03*
G01X5563400Y1779101D03*
G01X5509989Y1939996D03*
G01X5449989Y529999D03*
G01X5325004Y1105004D03*
G01X5579989Y849998D03*
G01X5514998Y935002D03*
G01X4680000Y1960000D03*
G01X5650000Y1470000D03*
G01X5770000Y1770000D03*
G01X4982534Y767466D03*
G01X5770000Y1990000D03*
G01X5630000Y1650000D03*
G01X5770000Y1300000D03*
G01X5770000Y1140000D03*
G01X5780000Y840000D03*
G54D19*
G01X4580010Y1319990D03*
G54D18*
G01X5650003Y570000D03*
G01X4239992Y1009998D03*
G01X4580000Y950000D03*
G01X4570000Y1080000D03*
G01X1600000Y2110000D03*
G01X1519997Y2059996D03*
G01X4250000Y860000D03*
G01X1820000Y1580000D03*
G01X1710000Y1440000D03*
G01X810000Y1820001D03*
G54D19*
G01X4889990Y1519990D03*
G54D18*
G01X5629989Y1139998D03*
G01X5460000Y1110000D03*
G01X5459989Y1289997D03*
G01X5130000Y500000D03*
G01X5230003Y510000D03*
G01X1700000Y2130000D03*
G01X1750000Y2080000D03*
G01X3219994Y1259997D03*
G01X3319993Y1289997D03*
G01X4849103Y1020899D03*
G01X4920000Y1140000D03*
G01X4569991Y1409997D03*
G01X730000Y1370000D03*
G01X4580000Y1560000D03*
G01X610000Y1440000D03*
G01X2569995Y909998D03*
G01X1180000Y250000D03*
G01X1579997Y1329997D03*
G01X3060000Y1260000D03*
G01X2955169Y1275169D03*
G01X2760000Y1210000D03*
G01X2060000Y1190000D03*
G01X610000Y2300001D03*
G01X3979992Y1469997D03*
G01X2869994Y1109998D03*
G01X3010000Y1089100D03*
G01X2569995Y1199998D03*
G01X5269989Y1179998D03*
G01X5189990Y1119998D03*
G01X5043628Y828560D03*
G01X5053465Y1368797D03*
G01X5170000Y1370000D03*
G01X5269989Y1369997D03*
G01X5670000Y380000D03*
G01X5430000Y1680000D03*
G01X5330000Y1680000D03*
G01X4280000Y1990000D03*
G01X5470000Y2180000D03*
G01X5279989Y1989996D03*
G01X4990000Y2040000D03*
G01X5080000Y1990000D03*
G01X4990000Y1750000D03*
G01X5160000Y1520000D03*
G01X5060000Y1670000D03*
G01X5170000Y1670000D03*
G01X3880000Y1090000D03*
G01X3990000Y1610000D03*
G01X3760000Y1910000D03*
G01X2250000Y2060000D03*
G01X2600000Y2240000D03*
G01X5780000Y2240000D03*
G01X5780003Y2470001D03*
G01X5760003Y80000D03*
G01X5320003Y440000D03*
G01X4360000Y560000D03*
G01X2910000Y240000D03*
G01X3420000Y820000D03*
G01X2470000Y1390000D03*
G01X140000Y1860000D03*
G01X140000Y1680000D03*
G01X340000Y1990000D03*
G01X340000Y1780000D03*
G01X340000Y1550000D03*
G01X1310001Y2140001D03*
G01X1230000Y1530000D03*
G01X1050000Y1770000D03*
G01X1300000Y2450000D03*
G01X1600000Y2450000D03*
G01X1880000Y2450000D03*
G01X1860001Y2240001D03*
G01X1440001Y2380001D03*
G01X1740001Y2380001D03*
G01X350000Y1090000D03*
G01X350000Y830000D03*
G01X120000Y830000D03*
G01X120000Y1090000D03*
G01X560000Y650000D03*
G01X860000Y650000D03*
G01X90000Y460000D03*
G01X470000Y90000D03*
G01X490000Y440000D03*
G01X1520000Y140000D03*
G01X5696400Y743940D03*
G01X5770000Y1430000D03*
G01X5770000Y1670000D03*
G01X5660000Y1770000D03*
G01X4600000Y1960000D03*
G01X5690000Y1970000D03*
G01X4410000Y770000D03*
G01X770000Y90000D03*
G01X1040000Y90000D03*
G01X1970001Y1830001D03*
G54D19*
G01X5490003Y840000D03*
G54D18*
G01X5270003Y1490001D03*
G01X1340000Y1816677D03*
G01X5500003Y1450001D03*
G01X4810003Y570000D03*
G04 Via End*

G04 Track Start*
G54D20*
G01X2258000Y498004D02*
G01X2869994Y1109998D01*
G01X4700000Y1020000D02*
G01X4820000Y1140000D01*
G01X4700000Y840000D02*
G01X4700000Y1020000D01*
G01X4520000Y660000D02*
G01X4700000Y840000D01*
G01X4061000Y660000D02*
G01X4520000Y660000D01*
G01X3071000Y1159000D02*
G01X4620000Y1159000D01*
G01X3071000Y1159000D02*
G01X3071000Y1159339D01*
G01X3789102Y1405600D02*
G01X3790099Y1406597D01*
G01X4009653Y1409997D02*
G01X4569991Y1409997D01*
G01X4006253Y1406597D02*
G01X4009653Y1409997D01*
G01X3610000Y1500000D02*
G01X3610000Y1920000D01*
G01X3680000Y1570000D02*
G01X3680000Y1946160D01*
G01X3750000Y1500000D02*
G01X3750000Y1800000D01*
G01X3583739Y1436600D02*
G01X3776261Y1436600D01*
G01X3750000Y1800000D02*
G01X3839000Y1889000D01*
G01X3900000Y1610000D02*
G01X3976603Y1533397D01*
G01X3680000Y1946160D02*
G01X3819240Y2085400D01*
G01X3610000Y1920000D02*
G01X3870000Y2180000D01*
G01X3820000Y1570000D02*
G01X3820000Y1770000D01*
G01X3570898Y1405600D02*
G01X3789102Y1405600D01*
G54D21*
G01X2766000Y2154000D02*
G01X2766000Y2413000D01*
G54D20*
G01X3870000Y2180000D02*
G01X5470000Y2180000D01*
G01X3810000Y663000D02*
G01X3810000Y1030000D01*
G01X3124910Y1195090D02*
G01X4695681Y1195090D01*
G01X3253901Y1226090D02*
G01X4682841Y1226090D01*
G01X3352901Y1257090D02*
G01X4670000Y1257090D01*
G01X3740000Y850000D02*
G01X3740000Y1090000D01*
G01X3559000Y919000D02*
G01X3670000Y1030000D01*
G01X3600000Y1010000D02*
G01X3600000Y1090000D01*
G01X3540000Y950000D02*
G01X3600000Y1010000D01*
G01X3110000Y1030000D02*
G01X3530000Y1030000D01*
G01X5189990Y1979996D02*
G01X5199996Y1979996D01*
G01X5451597Y1101597D02*
G01X5460000Y1110000D01*
G01X5579989Y849998D02*
G01X5579989Y960011D01*
G01X5523400Y1016600D02*
G01X5579989Y960011D01*
G01X5523400Y1016600D02*
G01X5523400Y1136261D01*
G01X5554400Y1029440D02*
G01X5696400Y887440D01*
G01X5554400Y1029440D02*
G01X5554400Y1149102D01*
G01X3319993Y1289997D02*
G01X3352901Y1257090D01*
G01X5433728Y1226597D02*
G01X5476904Y1226597D01*
G01X5554400Y1149102D01*
G01X3219994Y1259997D02*
G01X3253901Y1226090D01*
G01X5420888Y1195597D02*
G01X5464064Y1195597D01*
G01X5523400Y1136261D01*
G01X4625090Y1164090D02*
G01X4708521Y1164090D01*
G01X4747832Y1203400D01*
G01X4820000Y1140000D02*
G01X4920000Y1140000D01*
G01X3782000Y381000D02*
G01X4061000Y660000D01*
G01X610000Y1440000D02*
G01X616600Y1433400D01*
G01X1616600Y1433400D01*
G01X1673400Y1376600D01*
G01X1942759Y1376600D01*
G01X1660560Y1345600D02*
G01X1955600Y1345600D01*
G01X1603759Y1402400D02*
G01X1660560Y1345600D01*
G01X762400Y1402400D02*
G01X1603759Y1402400D01*
G01X730000Y1370000D02*
G01X762400Y1402400D01*
G01X1120000Y310000D02*
G01X1180000Y250000D01*
G01X1120000Y310000D02*
G01X1120000Y430000D01*
G01X1579997Y889997D01*
G01X1579997Y1329997D01*
G01X3060000Y1260000D02*
G01X3124910Y1195090D01*
G01X2955169Y1275169D02*
G01X3071000Y1159339D01*
G01X2569995Y909998D02*
G01X2760000Y1100003D01*
G01X2760000Y1210000D01*
G01X2035169Y1275169D02*
G01X2955169Y1275169D01*
G01X1242000Y482000D02*
G01X2035169Y1275169D01*
G01X1242000Y381000D02*
G01X1242000Y482000D01*
G01X2258000Y381000D02*
G01X2258000Y498004D01*
G01X2512000Y591100D02*
G01X3010000Y1089100D01*
G01X2512000Y381000D02*
G01X2512000Y591100D01*
G01X4718308Y1305398D02*
G01X5444589Y1305398D01*
G01X4731148Y1274398D02*
G01X5385928Y1274398D01*
G01X4743989Y1243398D02*
G01X5373087Y1243398D01*
G01X4695681Y1195090D02*
G01X4743989Y1243398D01*
G01X5373087Y1243398D02*
G01X5420888Y1195597D01*
G01X4682841Y1226090D02*
G01X4731148Y1274398D01*
G01X5385928Y1274398D02*
G01X5433728Y1226597D01*
G01X4670000Y1257090D02*
G01X4718308Y1305398D01*
G01X5444589Y1305398D02*
G01X5459989Y1289997D01*
G01X4747832Y1203400D02*
G01X5106587Y1203400D01*
G01X5189990Y1119998D01*
G01X5043628Y828560D02*
G01X5045934Y826254D01*
G01X5045934Y738899D02*
G01X5045934Y826254D01*
G01X5043628Y736592D02*
G01X5045934Y738899D01*
G01X5043628Y389372D02*
G01X5043628Y736592D01*
G01X5043628Y389372D02*
G01X5052000Y381000D01*
G01X4280000Y1990000D02*
G01X4313400Y2023400D01*
G01X4710000Y2023400D01*
G01X4813400Y1920000D01*
G01X5129994Y1920000D01*
G01X5189990Y1979996D01*
G01X5041000Y1951000D02*
G01X5080000Y1990000D01*
G01X4826241Y1951000D02*
G01X5041000Y1951000D01*
G01X4722840Y2054400D02*
G01X4826241Y1951000D01*
G01X3904400Y2054400D02*
G01X4722840Y2054400D01*
G01X4932000Y1982000D02*
G01X4990000Y2040000D01*
G01X4839081Y1982000D02*
G01X4932000Y1982000D01*
G01X4735681Y2085400D02*
G01X4839081Y1982000D01*
G01X3819240Y2085400D02*
G01X4735681Y2085400D01*
G01X4851000Y1889000D02*
G01X4990000Y1750000D01*
G01X4980339Y1670000D02*
G01X5060000Y1670000D01*
G01X4792339Y1858000D02*
G01X4980339Y1670000D01*
G01X3839000Y1889000D02*
G01X4851000Y1889000D01*
G01X3820000Y1770000D02*
G01X3908000Y1858000D01*
G01X4792339Y1858000D01*
G01X5100000Y1600000D02*
G01X5170000Y1670000D01*
G01X4709661Y1600000D02*
G01X5100000Y1600000D01*
G01X4599661Y1490000D02*
G01X4709661Y1600000D01*
G01X4049650Y1490000D02*
G01X4599661Y1490000D01*
G01X4006253Y1533397D02*
G01X4049650Y1490000D01*
G01X3976603Y1533397D02*
G01X4006253Y1533397D01*
G01X3760000Y1910000D02*
G01X3904400Y2054400D01*
G01X2640000Y560000D02*
G01X3110000Y1030000D01*
G01X2640000Y345658D02*
G01X2640000Y560000D01*
G01X2544342Y250000D02*
G01X2640000Y345658D01*
G01X2381000Y250000D02*
G01X2544342Y250000D01*
G01X2258000Y127000D02*
G01X2381000Y250000D01*
G01X3180000Y950000D02*
G01X3540000Y950000D01*
G01X2766000Y536000D02*
G01X3180000Y950000D01*
G01X2766000Y381000D02*
G01X2766000Y536000D01*
G01X3299000Y919000D02*
G01X3559000Y919000D01*
G01X3020000Y640000D02*
G01X3299000Y919000D01*
G01X3020000Y381000D02*
G01X3020000Y640000D01*
G01X3274000Y384000D02*
G01X3740000Y850000D01*
G01X3528000Y381000D02*
G01X3810000Y663000D01*
G01X3880000Y959000D02*
G01X3880000Y1090000D01*
G01X3841000Y920000D02*
G01X3880000Y959000D01*
G01X3841000Y650159D02*
G01X3841000Y920000D01*
G01X3655420Y464580D02*
G01X3841000Y650159D01*
G01X3655420Y253580D02*
G01X3655420Y464580D01*
G01X3655420Y253580D02*
G01X3782000Y127000D01*
G01X2431000Y2240000D02*
G01X2600000Y2240000D01*
G01X2258000Y2413000D02*
G01X2431000Y2240000D01*
G01X3776261Y1436600D02*
G01X3809653Y1469992D01*
G01X3979992Y1469992D01*
G01X3790099Y1406597D02*
G01X4006253Y1406597D01*
G01X1955600Y1345600D02*
G01X2080000Y1470000D01*
G01X3506498Y1470000D01*
G01X3570898Y1405600D01*
G01X2067160Y1501000D02*
G01X3519339Y1501000D01*
G01X1942759Y1376600D02*
G01X2067160Y1501000D01*
G01X3519339Y1501000D02*
G01X3583739Y1436600D01*
G01X5696400Y743940D02*
G01X5696400Y887440D01*
G54D21*
G01X5123000Y2230000D02*
G01X5306000Y2413000D01*
G01X3851411Y2230000D02*
G01X5123000Y2230000D01*
G01X3771411Y2150000D02*
G01X3851411Y2230000D01*
G01X1820000Y2150000D02*
G01X1750000Y2080000D01*
G01X1820000Y2150000D02*
G01X3771411Y2150000D01*
G54D20*
G01X5230003Y675210D02*
G01X5230003Y510000D01*
G01X5230003Y675210D02*
G01X5489795Y935002D01*
G01X5514998Y935002D02*
G01X5489795Y935002D01*
G01X5130000Y500000D02*
G01X5130000Y629997D01*
G01X5451597Y951595D01*
G01X5451597Y1101597D01*
G01X2530000Y1760000D02*
G01X2499997Y1729997D01*
G01X1199998Y1729997D01*
G54D22*
G01X200000Y2500000D02*
G03X40000Y2340000I0J-160000D01*
G01X40000Y200000D02*
G03X200000Y40000I160000J0D01*
G04 Track End*

M02*

