G04 Layer: TopPasteMaskLayer*
G04 EasyEDA Pro v2.2.34.8, 2025-03-03 01:04:46*
G04 Gerber Generator version 0.3*
G04 Scale: 100 percent, Rotated: No, Reflected: No*
G04 Dimensions in millimeters*
G04 Leading zeros omitted, absolute positions, 4 integers and 5 decimals*
%FSLAX45Y45*%
%MOMM*%
%AMRoundRect*1,1,$1,$2,$3*1,1,$1,$4,$5*1,1,$1,0-$2,0-$3*1,1,$1,0-$4,0-$5*20,1,$1,$2,$3,$4,$5,0*20,1,$1,$4,$5,0-$2,0-$3,0*20,1,$1,0-$2,0-$3,0-$4,0-$5,0*20,1,$1,0-$4,0-$5,$2,$3,0*4,1,4,$2,$3,$4,$5,0-$2,0-$3,0-$4,0-$5,$2,$3,0*%
%ADD10R,0.6X0.6*%
%ADD11R,0.40005X0.59995*%
%ADD12R,0.59995X0.40005*%
%ADD13R,0.40005X0.59995*%
%ADD14R,0.59995X0.40005*%
%ADD15RoundRect,1.0X0.0X0.0X0.0X0.0*%
%ADD16R,0.6X0.6*%
%ADD17R,0.6623X1.0*%
%ADD18R,0.6604X1.0*%
%ADD19R,1.0X0.6604*%
%ADD20R,0.7X1.3*%
%ADD21R,0.75001X0.9*%
%ADD22R,0.75001X0.7*%
%ADD23R,0.6X0.6*%
%ADD24R,3.6X1.0*%
%ADD25R,3.28X1.5*%
%ADD26R,2.0X1.1999*%
%ADD27R,1.35001X0.59995*%
%ADD28R,0.65X1.05*%
%ADD29R,0.54991X1.1999*%
%ADD30R,0.6X0.6*%
%ADD31R,0.62992X0.83007*%
%ADD32R,1.0X0.95*%
%ADD33R,1.0X0.95*%
%ADD34R,1.1999X0.54991*%
%ADD35R,0.7X0.3*%
%ADD36R,0.4X1.8*%
%ADD37R,0.95X1.0*%
%ADD38R,0.95X1.0*%
%ADD39R,0.89992X0.8001*%
%ADD40R,1.8001X1.0*%
%ADD41R,0.70002X0.70002*%
%ADD42R,1.0X1.0*%
%ADD43R,1.0X1.0*%
%ADD44R,2.37998X0.7399*%
%ADD45R,1.0X1.0*%
%ADD46R,0.5X0.8*%
%ADD47R,0.9X0.5*%
%ADD48R,0.5X0.8*%
G75*


G04 PolygonModel Start*
G36*
G01X1447993Y1987496D02*
G01X1447993Y1877496D01*
G01X1477995Y1877496D01*
G01X1477995Y1987496D01*
G01X1447993Y1987496D01*
G37*
G36*
G01X1427983Y1877496D02*
G01X1427983Y1987496D01*
G01X1397980Y1987496D01*
G01X1397980Y1877496D01*
G01X1427983Y1877496D01*
G37*
G36*
G01X1938002Y1877496D02*
G01X1938002Y1987496D01*
G01X1878002Y1987496D01*
G01X1878002Y1877496D01*
G01X1938002Y1877496D01*
G37*
G36*
G01X1498005Y1987496D02*
G01X1498005Y1877496D01*
G01X1528008Y1877496D01*
G01X1528008Y1987496D01*
G01X1498005Y1987496D01*
G37*
G36*
G01X1377983Y1877496D02*
G01X1377983Y1987496D01*
G01X1317983Y1987496D01*
G01X1317983Y1877496D01*
G01X1377983Y1877496D01*
G37*
G36*
G01X1237998Y1987496D02*
G01X1237998Y1877496D01*
G01X1297998Y1877496D01*
G01X1297998Y1987496D01*
G01X1237998Y1987496D01*
G37*
G36*
G01X1547993Y1987496D02*
G01X1547993Y1877496D01*
G01X1577995Y1877496D01*
G01X1577995Y1987496D01*
G01X1547993Y1987496D01*
G37*
G36*
G01X1598005Y1987496D02*
G01X1598005Y1877496D01*
G01X1628008Y1877496D01*
G01X1628008Y1987496D01*
G01X1598005Y1987496D01*
G37*
G36*
G01X1857992Y1877496D02*
G01X1857992Y1987496D01*
G01X1797992Y1987496D01*
G01X1797992Y1877496D01*
G01X1857992Y1877496D01*
G37*
G36*
G01X1647992Y1987496D02*
G01X1647992Y1877496D01*
G01X1677995Y1877496D01*
G01X1677995Y1987496D01*
G01X1647992Y1987496D01*
G37*
G36*
G01X1697980Y1987496D02*
G01X1697980Y1877496D01*
G01X1727982Y1877496D01*
G01X1727982Y1987496D01*
G01X1697980Y1987496D01*
G37*
G36*
G01X1747992Y1987496D02*
G01X1747992Y1877496D01*
G01X1777995Y1877496D01*
G01X1777995Y1987496D01*
G01X1747992Y1987496D01*
G37*
G36*
G01X1151019Y1887656D02*
G01X1154006Y1887506D01*
G01X1156998Y1887506D01*
G01X1159985Y1887656D01*
G01X1162962Y1887953D01*
G01X1165921Y1888400D01*
G01X1168852Y1888992D01*
G01X1171753Y1889731D01*
G01X1174610Y1890613D01*
G01X1177422Y1891636D01*
G01X1180178Y1892797D01*
G01X1182875Y1894095D01*
G01X1185502Y1895528D01*
G01X1188054Y1897087D01*
G01X1190526Y1898771D01*
G01X1192911Y1900580D01*
G01X1195202Y1902502D01*
G01X1197396Y1904537D01*
G01X1199484Y1906678D01*
G01X1201465Y1908921D01*
G01X1203330Y1911260D01*
G01X1205075Y1913689D01*
G01X1206698Y1916203D01*
G01X1208194Y1918794D01*
G01X1209560Y1921456D01*
G01X1210790Y1924181D01*
G01X1211882Y1926968D01*
G01X1212837Y1929802D01*
G01X1213647Y1932683D01*
G01X1214313Y1935599D01*
G01X1214831Y1938545D01*
G01X1215204Y1941514D01*
G01X1215428Y1944499D01*
G01X1215502Y1947488D01*
G01X1215502Y2027488D01*
G01X1215428Y2030478D01*
G01X1215204Y2033462D01*
G01X1214831Y2036432D01*
G01X1214313Y2039378D01*
G01X1213647Y2042294D01*
G01X1212837Y2045174D01*
G01X1211882Y2048009D01*
G01X1210790Y2050795D01*
G01X1209560Y2053521D01*
G01X1208194Y2056183D01*
G01X1206698Y2058773D01*
G01X1205075Y2061288D01*
G01X1203330Y2063716D01*
G01X1201465Y2066056D01*
G01X1199484Y2068298D01*
G01X1197396Y2070440D01*
G01X1195202Y2072474D01*
G01X1192911Y2074397D01*
G01X1190526Y2076205D01*
G01X1188054Y2077889D01*
G01X1185502Y2079449D01*
G01X1182875Y2080882D01*
G01X1180178Y2082179D01*
G01X1177422Y2083340D01*
G01X1174610Y2084364D01*
G01X1171753Y2085245D01*
G01X1168852Y2085984D01*
G01X1165921Y2086576D01*
G01X1162962Y2087023D01*
G01X1159985Y2087320D01*
G01X1156998Y2087470D01*
G01X1154006Y2087470D01*
G01X1151019Y2087320D01*
G01X1148042Y2087023D01*
G01X1145083Y2086576D01*
G01X1142151Y2085984D01*
G01X1139251Y2085245D01*
G01X1136393Y2084364D01*
G01X1133581Y2083340D01*
G01X1130826Y2082179D01*
G01X1128128Y2080882D01*
G01X1125502Y2079449D01*
G01X1122949Y2077889D01*
G01X1120478Y2076205D01*
G01X1118093Y2074397D01*
G01X1115801Y2072474D01*
G01X1113607Y2070440D01*
G01X1111519Y2068298D01*
G01X1109538Y2066056D01*
G01X1107673Y2063716D01*
G01X1105928Y2061288D01*
G01X1104305Y2058773D01*
G01X1102809Y2056183D01*
G01X1101443Y2053521D01*
G01X1100213Y2050795D01*
G01X1099121Y2048009D01*
G01X1098166Y2045174D01*
G01X1097356Y2042294D01*
G01X1096690Y2039378D01*
G01X1096172Y2036432D01*
G01X1095799Y2033462D01*
G01X1095575Y2030478D01*
G01X1095502Y2027488D01*
G01X1095502Y1947488D01*
G01X1095575Y1944499D01*
G01X1095799Y1941514D01*
G01X1096172Y1938545D01*
G01X1096690Y1935599D01*
G01X1097356Y1932683D01*
G01X1098166Y1929802D01*
G01X1099121Y1926968D01*
G01X1100213Y1924181D01*
G01X1101443Y1921456D01*
G01X1102809Y1918794D01*
G01X1104305Y1916203D01*
G01X1105928Y1913689D01*
G01X1107673Y1911260D01*
G01X1109538Y1908921D01*
G01X1111519Y1906678D01*
G01X1113607Y1904537D01*
G01X1115801Y1902502D01*
G01X1118093Y1900580D01*
G01X1120478Y1898771D01*
G01X1122949Y1897087D01*
G01X1125502Y1895528D01*
G01X1128128Y1894095D01*
G01X1130826Y1892797D01*
G01X1133581Y1891636D01*
G01X1136393Y1890613D01*
G01X1139251Y1889731D01*
G01X1142151Y1888992D01*
G01X1145083Y1888400D01*
G01X1148042Y1887953D01*
G01X1151019Y1887656D01*
G37*
G36*
G01X2021995Y1887506D02*
G01X2024982Y1887656D01*
G01X2027959Y1887953D01*
G01X2030918Y1888400D01*
G01X2033849Y1888992D01*
G01X2036750Y1889731D01*
G01X2039607Y1890613D01*
G01X2042419Y1891636D01*
G01X2045175Y1892797D01*
G01X2047872Y1894095D01*
G01X2050499Y1895528D01*
G01X2053051Y1897087D01*
G01X2055523Y1898771D01*
G01X2057908Y1900580D01*
G01X2060199Y1902502D01*
G01X2062393Y1904537D01*
G01X2064481Y1906678D01*
G01X2066462Y1908921D01*
G01X2068327Y1911260D01*
G01X2070072Y1913689D01*
G01X2071695Y1916203D01*
G01X2073191Y1918794D01*
G01X2074557Y1921456D01*
G01X2075787Y1924181D01*
G01X2076879Y1926968D01*
G01X2077834Y1929802D01*
G01X2078644Y1932683D01*
G01X2079310Y1935599D01*
G01X2079828Y1938545D01*
G01X2080201Y1941514D01*
G01X2080425Y1944499D01*
G01X2080499Y1947488D01*
G01X2080499Y2027488D01*
G01X2080425Y2030478D01*
G01X2080201Y2033462D01*
G01X2079828Y2036432D01*
G01X2079310Y2039378D01*
G01X2078644Y2042294D01*
G01X2077834Y2045174D01*
G01X2076879Y2048009D01*
G01X2075787Y2050795D01*
G01X2074557Y2053521D01*
G01X2073191Y2056183D01*
G01X2071695Y2058773D01*
G01X2070072Y2061288D01*
G01X2068327Y2063716D01*
G01X2066462Y2066056D01*
G01X2064481Y2068298D01*
G01X2062393Y2070440D01*
G01X2060199Y2072474D01*
G01X2057908Y2074397D01*
G01X2055523Y2076205D01*
G01X2053051Y2077889D01*
G01X2050499Y2079449D01*
G01X2047872Y2080882D01*
G01X2045175Y2082179D01*
G01X2042419Y2083340D01*
G01X2039607Y2084364D01*
G01X2036750Y2085245D01*
G01X2033849Y2085984D01*
G01X2030918Y2086576D01*
G01X2027959Y2087023D01*
G01X2024982Y2087320D01*
G01X2021995Y2087470D01*
G01X2019003Y2087470D01*
G01X2016016Y2087320D01*
G01X2013039Y2087023D01*
G01X2010080Y2086576D01*
G01X2007148Y2085984D01*
G01X2004248Y2085245D01*
G01X2001390Y2084364D01*
G01X1998578Y2083340D01*
G01X1995823Y2082179D01*
G01X1993125Y2080882D01*
G01X1990499Y2079449D01*
G01X1987946Y2077889D01*
G01X1985475Y2076205D01*
G01X1983090Y2074397D01*
G01X1980798Y2072474D01*
G01X1978604Y2070440D01*
G01X1976516Y2068298D01*
G01X1974535Y2066056D01*
G01X1972670Y2063716D01*
G01X1970925Y2061288D01*
G01X1969302Y2058773D01*
G01X1967806Y2056183D01*
G01X1966440Y2053521D01*
G01X1965210Y2050795D01*
G01X1964118Y2048009D01*
G01X1963163Y2045174D01*
G01X1962353Y2042294D01*
G01X1961687Y2039378D01*
G01X1961169Y2036432D01*
G01X1960796Y2033462D01*
G01X1960572Y2030478D01*
G01X1960499Y2027488D01*
G01X1960499Y1947488D01*
G01X1960572Y1944499D01*
G01X1960796Y1941514D01*
G01X1961169Y1938545D01*
G01X1961687Y1935599D01*
G01X1962353Y1932683D01*
G01X1963163Y1929802D01*
G01X1964118Y1926968D01*
G01X1965210Y1924181D01*
G01X1966440Y1921456D01*
G01X1967806Y1918794D01*
G01X1969302Y1916203D01*
G01X1970925Y1913689D01*
G01X1972670Y1911260D01*
G01X1974535Y1908921D01*
G01X1976516Y1906678D01*
G01X1978604Y1904537D01*
G01X1980798Y1902502D01*
G01X1983090Y1900580D01*
G01X1985475Y1898771D01*
G01X1987946Y1897087D01*
G01X1990499Y1895528D01*
G01X1993125Y1894095D01*
G01X1995823Y1892797D01*
G01X1998578Y1891636D01*
G01X2001390Y1890613D01*
G01X2004248Y1889731D01*
G01X2007148Y1888992D01*
G01X2010080Y1888400D01*
G01X2013039Y1887953D01*
G01X2016016Y1887656D01*
G01X2019003Y1887506D01*
G01X2021995Y1887506D01*
G37*
G36*
G01X2016016Y2332672D02*
G01X2019003Y2332522D01*
G01X2021995Y2332522D01*
G01X2024982Y2332672D01*
G01X2027959Y2332969D01*
G01X2030918Y2333416D01*
G01X2033849Y2334008D01*
G01X2036750Y2334747D01*
G01X2039607Y2335628D01*
G01X2042419Y2336652D01*
G01X2045175Y2337813D01*
G01X2047872Y2339111D01*
G01X2050499Y2340543D01*
G01X2053051Y2342103D01*
G01X2055523Y2343787D01*
G01X2057908Y2345595D01*
G01X2060199Y2347518D01*
G01X2062393Y2349553D01*
G01X2064481Y2351694D01*
G01X2066462Y2353937D01*
G01X2068327Y2356276D01*
G01X2070072Y2358704D01*
G01X2071695Y2361219D01*
G01X2073191Y2363810D01*
G01X2074557Y2366472D01*
G01X2075787Y2369197D01*
G01X2076879Y2371983D01*
G01X2077834Y2374818D01*
G01X2078644Y2377698D01*
G01X2079310Y2380614D01*
G01X2079828Y2383561D01*
G01X2080201Y2386530D01*
G01X2080425Y2389514D01*
G01X2080499Y2392504D01*
G01X2080499Y2422504D01*
G01X2080425Y2425493D01*
G01X2080201Y2428478D01*
G01X2079828Y2431447D01*
G01X2079310Y2434394D01*
G01X2078644Y2437310D01*
G01X2077834Y2440190D01*
G01X2076879Y2443025D01*
G01X2075787Y2445811D01*
G01X2074557Y2448536D01*
G01X2073191Y2451198D01*
G01X2071695Y2453789D01*
G01X2070072Y2456304D01*
G01X2068327Y2458732D01*
G01X2066462Y2461071D01*
G01X2064481Y2463314D01*
G01X2062393Y2465455D01*
G01X2060199Y2467490D01*
G01X2057908Y2469413D01*
G01X2055523Y2471221D01*
G01X2053051Y2472905D01*
G01X2050499Y2474465D01*
G01X2047872Y2475897D01*
G01X2045175Y2477195D01*
G01X2042419Y2478356D01*
G01X2039607Y2479380D01*
G01X2036750Y2480261D01*
G01X2033849Y2481000D01*
G01X2030918Y2481592D01*
G01X2027959Y2482039D01*
G01X2024982Y2482336D01*
G01X2021995Y2482486D01*
G01X2019003Y2482486D01*
G01X2016016Y2482336D01*
G01X2013039Y2482039D01*
G01X2010080Y2481592D01*
G01X2007148Y2481000D01*
G01X2004248Y2480261D01*
G01X2001390Y2479380D01*
G01X1998578Y2478356D01*
G01X1995823Y2477195D01*
G01X1993125Y2475897D01*
G01X1990499Y2474465D01*
G01X1987946Y2472905D01*
G01X1985475Y2471221D01*
G01X1983090Y2469413D01*
G01X1980798Y2467490D01*
G01X1978604Y2465455D01*
G01X1976516Y2463314D01*
G01X1974535Y2461071D01*
G01X1972670Y2458732D01*
G01X1970925Y2456304D01*
G01X1969302Y2453789D01*
G01X1967806Y2451198D01*
G01X1966440Y2448536D01*
G01X1965210Y2445811D01*
G01X1964118Y2443025D01*
G01X1963163Y2440190D01*
G01X1962353Y2437310D01*
G01X1961687Y2434394D01*
G01X1961169Y2431447D01*
G01X1960796Y2428478D01*
G01X1960572Y2425493D01*
G01X1960499Y2422504D01*
G01X1960499Y2392504D01*
G01X1960572Y2389514D01*
G01X1960796Y2386530D01*
G01X1961169Y2383561D01*
G01X1961687Y2380614D01*
G01X1962353Y2377698D01*
G01X1963163Y2374818D01*
G01X1964118Y2371983D01*
G01X1965210Y2369197D01*
G01X1966440Y2366472D01*
G01X1967806Y2363810D01*
G01X1969302Y2361219D01*
G01X1970925Y2358704D01*
G01X1972670Y2356276D01*
G01X1974535Y2353937D01*
G01X1976516Y2351694D01*
G01X1978604Y2349553D01*
G01X1980798Y2347518D01*
G01X1983090Y2345595D01*
G01X1985475Y2343787D01*
G01X1987946Y2342103D01*
G01X1990499Y2340543D01*
G01X1993125Y2339111D01*
G01X1995823Y2337813D01*
G01X1998578Y2336652D01*
G01X2001390Y2335628D01*
G01X2004248Y2334747D01*
G01X2007148Y2334008D01*
G01X2010080Y2333416D01*
G01X2013039Y2332969D01*
G01X2016016Y2332672D01*
G37*
G36*
G01X1156998Y2332522D02*
G01X1159985Y2332672D01*
G01X1162962Y2332969D01*
G01X1165921Y2333416D01*
G01X1168852Y2334008D01*
G01X1171753Y2334747D01*
G01X1174610Y2335628D01*
G01X1177422Y2336652D01*
G01X1180178Y2337813D01*
G01X1182875Y2339111D01*
G01X1185502Y2340543D01*
G01X1188054Y2342103D01*
G01X1190526Y2343787D01*
G01X1192911Y2345595D01*
G01X1195202Y2347518D01*
G01X1197396Y2349553D01*
G01X1199484Y2351694D01*
G01X1201465Y2353937D01*
G01X1203330Y2356276D01*
G01X1205075Y2358704D01*
G01X1206698Y2361219D01*
G01X1208194Y2363810D01*
G01X1209560Y2366472D01*
G01X1210790Y2369197D01*
G01X1211882Y2371983D01*
G01X1212837Y2374818D01*
G01X1213647Y2377698D01*
G01X1214313Y2380614D01*
G01X1214831Y2383561D01*
G01X1215204Y2386530D01*
G01X1215428Y2389514D01*
G01X1215502Y2392504D01*
G01X1215502Y2422504D01*
G01X1215428Y2425493D01*
G01X1215204Y2428478D01*
G01X1214831Y2431447D01*
G01X1214313Y2434394D01*
G01X1213647Y2437310D01*
G01X1212837Y2440190D01*
G01X1211882Y2443025D01*
G01X1210790Y2445811D01*
G01X1209560Y2448536D01*
G01X1208194Y2451198D01*
G01X1206698Y2453789D01*
G01X1205075Y2456304D01*
G01X1203330Y2458732D01*
G01X1201465Y2461071D01*
G01X1199484Y2463314D01*
G01X1197396Y2465455D01*
G01X1195202Y2467490D01*
G01X1192911Y2469413D01*
G01X1190526Y2471221D01*
G01X1188054Y2472905D01*
G01X1185502Y2474465D01*
G01X1182875Y2475897D01*
G01X1180178Y2477195D01*
G01X1177422Y2478356D01*
G01X1174610Y2479380D01*
G01X1171753Y2480261D01*
G01X1168852Y2481000D01*
G01X1165921Y2481592D01*
G01X1162962Y2482039D01*
G01X1159985Y2482336D01*
G01X1156998Y2482486D01*
G01X1154006Y2482486D01*
G01X1151019Y2482336D01*
G01X1148042Y2482039D01*
G01X1145083Y2481592D01*
G01X1142151Y2481000D01*
G01X1139251Y2480261D01*
G01X1136393Y2479380D01*
G01X1133581Y2478356D01*
G01X1130826Y2477195D01*
G01X1128128Y2475897D01*
G01X1125502Y2474465D01*
G01X1122949Y2472905D01*
G01X1120478Y2471221D01*
G01X1118093Y2469413D01*
G01X1115801Y2467490D01*
G01X1113607Y2465455D01*
G01X1111519Y2463314D01*
G01X1109538Y2461071D01*
G01X1107673Y2458732D01*
G01X1105928Y2456304D01*
G01X1104305Y2453789D01*
G01X1102809Y2451198D01*
G01X1101443Y2448536D01*
G01X1100213Y2445811D01*
G01X1099121Y2443025D01*
G01X1098166Y2440190D01*
G01X1097356Y2437310D01*
G01X1096690Y2434394D01*
G01X1096172Y2431447D01*
G01X1095799Y2428478D01*
G01X1095575Y2425493D01*
G01X1095502Y2422504D01*
G01X1095502Y2392504D01*
G01X1095575Y2389514D01*
G01X1095799Y2386530D01*
G01X1096172Y2383561D01*
G01X1096690Y2380614D01*
G01X1097356Y2377698D01*
G01X1098166Y2374818D01*
G01X1099121Y2371983D01*
G01X1100213Y2369197D01*
G01X1101443Y2366472D01*
G01X1102809Y2363810D01*
G01X1104305Y2361219D01*
G01X1105928Y2358704D01*
G01X1107673Y2356276D01*
G01X1109538Y2353937D01*
G01X1111519Y2351694D01*
G01X1113607Y2349553D01*
G01X1115801Y2347518D01*
G01X1118093Y2345595D01*
G01X1120478Y2343787D01*
G01X1122949Y2342103D01*
G01X1125502Y2340543D01*
G01X1128128Y2339111D01*
G01X1130826Y2337813D01*
G01X1133581Y2336652D01*
G01X1136393Y2335628D01*
G01X1139251Y2334747D01*
G01X1142151Y2334008D01*
G01X1145083Y2333416D01*
G01X1148042Y2332969D01*
G01X1151019Y2332672D01*
G01X1154006Y2332522D01*
G01X1156998Y2332522D01*
G37*

G04 Pad Start*
G54D10*
G01X4360000Y860000D03*
G01X4460000Y860000D03*
G01X4360000Y1020000D03*
G01X4460000Y1020000D03*
G54D11*
G01X5795006Y1864998D03*
G01X5604988Y1864998D03*
G01X5444994Y1864998D03*
G01X5404989Y1775006D03*
G01X5325004Y1775006D03*
G01X5244994Y1775006D03*
G01X5204989Y1864998D03*
G01X5165009Y1775006D03*
G01X5125004Y1864998D03*
G01X5084999Y1775006D03*
G01X5044994Y1864998D03*
G01X5284999Y1864998D03*
G54D12*
G01X4704990Y1880009D03*
G54D13*
G01X5365009Y1864998D03*
G54D12*
G01X4704990Y1799999D03*
G54D13*
G01X5684998Y1864998D03*
G54D12*
G01X4704990Y1719989D03*
G54D14*
G01X4704990Y1640005D03*
G01X4704990Y1559995D03*
G01X4704990Y1480010D03*
G01X4704990Y1400000D03*
G01X4704990Y1319990D03*
G01X4704990Y1240005D03*
G54D12*
G01X4795008Y1519990D03*
G01X4795008Y1440005D03*
G01X4795008Y1359995D03*
G01X4795008Y1280010D03*
G01X4795008Y1200000D03*
G01X4704990Y1000001D03*
G54D14*
G01X4704990Y1159995D03*
G54D12*
G01X4704990Y1080011D03*
G01X4704990Y919991D03*
G54D13*
G01X4804990Y935002D03*
G01X4885000Y935002D03*
G01X4965010Y935002D03*
G01X5004989Y1024994D03*
G01X5084999Y1024994D03*
G01X5044994Y935002D03*
G01X4925005Y1024994D03*
G54D12*
G01X4795008Y1600000D03*
G54D13*
G01X5125004Y935002D03*
G01X5165009Y1024994D03*
G01X5244994Y1024994D03*
G01X5284999Y935002D03*
G01X5325004Y1024994D03*
G01X5365009Y935002D03*
G01X5404989Y1024994D03*
G01X5444994Y935002D03*
G01X5484999Y1024994D03*
G01X5565009Y1024994D03*
G01X5604988Y935002D03*
G01X5644993Y1024994D03*
G01X5684998Y935002D03*
G01X5725003Y1024994D03*
G01X5795006Y935002D03*
G54D12*
G01X5365009Y1600000D03*
G01X5365009Y1519990D03*
G01X5365009Y1440005D03*
G01X5365009Y1359995D03*
G01X5365009Y1280010D03*
G01X5365009Y1200000D03*
G54D15*
G01X6320000Y1270000D03*
G54D16*
G01X4160000Y1410000D03*
G01X4160000Y1510000D03*
G01X4160000Y1690000D03*
G01X4160000Y1790000D03*
G54D15*
G01X2140000Y910000D03*
G01X2040000Y1520000D03*
G01X2640000Y1620000D03*
G54D18*
G01X977930Y1630000D03*
G01X1082070Y1630000D03*
G54D19*
G01X2680000Y917930D03*
G01X2680000Y1022070D03*
G54D20*
G01X740000Y2166495D03*
G01X640000Y2166495D03*
G01X540000Y2166495D03*
G54D21*
G01X342490Y2261491D03*
G54D22*
G01X342490Y2474000D03*
G01X937510Y2474000D03*
G54D21*
G01X937510Y2261491D03*
G54D23*
G01X960000Y1450001D03*
G01X860001Y1450001D03*
G54D24*
G01X769507Y1050000D03*
G01X769507Y850000D03*
G54D25*
G01X200493Y614999D03*
G01X200493Y1285000D03*
G54D26*
G01X141387Y2050010D03*
G54D27*
G01X508900Y1920012D03*
G01X508900Y1820013D03*
G01X508900Y1719987D03*
G01X508900Y1619988D03*
G54D26*
G01X141387Y1489990D03*
G54D28*
G01X6647500Y1967500D03*
G01X6647500Y1552500D03*
G01X6432500Y1967500D03*
G01X6432500Y1552500D03*
G01X6647500Y987500D03*
G01X6647500Y572500D03*
G01X6432500Y987500D03*
G01X6432500Y572500D03*
G54D23*
G01X1500000Y1430000D03*
G01X1400000Y1430000D03*
G54D16*
G01X1340000Y1580000D03*
G01X1340000Y1680000D03*
G01X1520000Y1580000D03*
G01X1520000Y1680000D03*
G54D29*
G01X1305004Y989977D03*
G01X1400000Y989977D03*
G01X1494996Y989977D03*
G01X1494996Y1250023D03*
G01X1305004Y1250023D03*
G54D30*
G01X1130000Y1410000D03*
G01X1130000Y1310000D03*
G01X1740000Y1020000D03*
G01X1740000Y920000D03*
G54D31*
G01X1935011Y1640000D03*
G01X1704989Y1640000D03*
G54D16*
G01X2440000Y1850000D03*
G01X2440000Y1950000D03*
G01X2250000Y1850000D03*
G01X2250000Y1950000D03*
G54D32*
G01X2640000Y1940000D03*
G54D33*
G01X2640000Y1780000D03*
G54D32*
G01X2640000Y1470000D03*
G54D33*
G01X2640000Y1310000D03*
G54D34*
G01X2179977Y1674996D03*
G01X2179977Y1580000D03*
G01X2179977Y1485004D03*
G01X2440023Y1485004D03*
G01X2440023Y1674996D03*
G01X2179977Y1294996D03*
G01X2179977Y1200000D03*
G01X2179977Y1105004D03*
G01X2440023Y1105004D03*
G01X2440023Y1294996D03*
G54D35*
G01X5517307Y604994D03*
G01X5517307Y655032D03*
G01X5517307Y705019D03*
G01X5517307Y754981D03*
G01X5222667Y754981D03*
G01X5222667Y705019D03*
G01X5222667Y655032D03*
G01X5222667Y604994D03*
G54D36*
G01X5369987Y680000D03*
G54D37*
G01X4290000Y1210000D03*
G54D38*
G01X4450000Y1210000D03*
G54D39*
G01X1930000Y1235004D03*
G01X1719992Y1330000D03*
G01X1930000Y1424996D03*
G54D10*
G01X6490000Y1130000D03*
G01X6590000Y1130000D03*
G54D23*
G01X4460000Y1390000D03*
G01X4360000Y1390000D03*
G54D40*
G01X4390000Y1814993D03*
G01X4390000Y1565007D03*
G54D41*
G01X6631491Y1384991D03*
G01X6631491Y1275009D03*
G01X6448509Y1275009D03*
G01X6448509Y1384991D03*
G54D42*
G01X6130000Y287000D03*
G01X6130000Y127000D03*
G54D43*
G01X160000Y2230000D03*
G01X160000Y2390000D03*
G54D23*
G01X4190000Y1960000D03*
G01X4090000Y1960000D03*
G01X4470000Y1960000D03*
G01X4370000Y1960000D03*
G54D44*
G01X3051989Y1543000D03*
G01X3428011Y1543000D03*
G01X3051989Y1416000D03*
G01X3428011Y1416000D03*
G01X3051989Y1924000D03*
G01X3428011Y1924000D03*
G01X3051989Y1797000D03*
G01X3428011Y1797000D03*
G01X3051989Y1670000D03*
G01X3428011Y1670000D03*
G54D45*
G01X1180000Y120000D03*
G01X1340000Y120000D03*
G54D10*
G01X5500000Y2040000D03*
G01X5600000Y2040000D03*
G54D30*
G01X5950000Y260000D03*
G01X5950000Y160000D03*
G54D46*
G01X590000Y90002D03*
G01X930000Y90002D03*
G01X930000Y210001D03*
G54D47*
G01X760000Y300001D03*
G54D48*
G01X590000Y210001D03*
G54D16*
G01X1970000Y920000D03*
G01X1970000Y1020000D03*
G01X940000Y1890001D03*
G01X940000Y1990001D03*
G54D10*
G01X2330000Y910000D03*
G01X2430000Y910000D03*
G54D43*
G01X6130000Y2253000D03*
G01X6130000Y2413000D03*
G54D23*
G01X1240000Y820000D03*
G01X1140000Y820000D03*
G04 Pad End*

M02*

