G04 Layer: TopLayer*
G04 EasyEDA Pro v2.2.34.8, 2025-03-03 01:04:46*
G04 Gerber Generator version 0.3*
G04 Scale: 100 percent, Rotated: No, Reflected: No*
G04 Dimensions in millimeters*
G04 Leading zeros omitted, absolute positions, 4 integers and 5 decimals*
%FSLAX45Y45*%
%MOMM*%
%AMRoundRect*1,1,$1,$2,$3*1,1,$1,$4,$5*1,1,$1,0-$2,0-$3*1,1,$1,0-$4,0-$5*20,1,$1,$2,$3,$4,$5,0*20,1,$1,$4,$5,0-$2,0-$3,0*20,1,$1,0-$2,0-$3,0-$4,0-$5,0*20,1,$1,0-$4,0-$5,$2,$3,0*4,1,4,$2,$3,$4,$5,0-$2,0-$3,0-$4,0-$5,$2,$3,0*%
%ADD10C,0.2032*%
%ADD11C,0.254*%
%ADD12C,2.0*%
%ADD13C,3.5*%
%ADD14R,0.6X0.6*%
%ADD15C,1.5037*%
%ADD16C,1.5*%
%ADD17R,0.40005X0.59995*%
%ADD18R,0.59995X0.40005*%
%ADD19R,0.40005X0.59995*%
%ADD20R,0.59995X0.40005*%
%ADD21RoundRect,1.0X0.0X0.0X0.0X0.0*%
%ADD22R,0.6X0.6*%
%ADD23R,0.6604X1.0*%
%ADD24R,1.0X0.6604*%
%ADD25R,0.55001X1.1*%
%ADD26R,0.3X1.1*%
%ADD27O,1.1X2.0*%
%ADD28O,1.2X1.8*%
%ADD29R,0.7X1.3*%
%ADD30R,0.75001X0.9*%
%ADD31R,0.75001X0.7*%
%ADD32R,0.6X0.6*%
%ADD33R,3.6X1.0*%
%ADD34R,3.28X1.5*%
%ADD35R,2.0X1.1999*%
%ADD36R,1.35001X0.59995*%
%ADD37R,0.65X1.05*%
%ADD38R,0.54991X1.1999*%
%ADD39R,0.6X0.6*%
%ADD40R,0.62992X0.83007*%
%ADD41R,1.0X0.95*%
%ADD42R,1.0X0.95*%
%ADD43R,1.1999X0.54991*%
%ADD44R,0.7X0.3*%
%ADD45R,0.4X1.8*%
%ADD46R,0.95X1.0*%
%ADD47R,0.95X1.0*%
%ADD48R,0.89992X0.8001*%
%ADD49R,1.8001X1.0*%
%ADD50R,0.70002X0.70002*%
%ADD51R,1.0X1.0*%
%ADD52R,1.0X1.0*%
%ADD53R,2.37998X0.7399*%
%ADD54R,1.0X1.0*%
%ADD55R,0.5X0.8*%
%ADD56R,0.9X0.5*%
%ADD57R,0.5X0.8*%
%ADD58C,0.61*%
%ADD59C,0.6*%
%ADD60C,0.15*%
%ADD61C,0.25*%
%ADD62C,0.4*%
%ADD63C,0.5*%
%ADD64C,0.2*%
%ADD65C,0.35*%
%ADD66C,0.3*%
%ADD67C,0.54*%
G75*


G04 Copper Start*
G36*
G01X40160Y1580374D02*
G01X40160Y1959626D01*
G01X41388Y1959601D01*
G01X241387Y1959601D01*
G03X271801Y1990015I0J30414D01*
G01X271801Y2110004D01*
G03X241387Y2140418I-30414J0D01*
G01X41388Y2140418D01*
G01X40160Y2140394D01*
G01X40160Y2348211D01*
G01X57589Y2396149D01*
G01X74186Y2415689D01*
G01X74186Y2340000D01*
G03X96038Y2307020I35814J0D01*
G03X79586Y2280000I13962J-27020D01*
G01X79586Y2180000D01*
G03X110000Y2149586I30414J0D01*
G01X210000Y2149586D01*
G03X240176Y2176207I0J30414D01*
G01X431855Y1984528D01*
G03X405585Y1950010I9545J-34519D01*
G01X405585Y1890015D01*
G03X415251Y1865543I35814J0D01*
G03X410985Y1850010I26149J-15533D01*
G01X410985Y1790015D01*
G03X418500Y1770000I30414J0D01*
G03X410985Y1749985I22900J-20015D01*
G01X410985Y1689990D01*
G03X418489Y1669988I30414J0D01*
G03X410985Y1649985I22911J-20002D01*
G01X410985Y1589990D01*
G03X441399Y1559576I30414J0D01*
G01X472086Y1559576D01*
G01X472086Y1540000D01*
G03X483191Y1513191I37914J0D01*
G01X549479Y1446903D01*
G03X653073Y1396927I60521J-6903D01*
G03X603097Y1500521I-43073J43073D01*
G01X547914Y1555704D01*
G01X547914Y1559576D01*
G01X576400Y1559576D01*
G03X606814Y1589990I0J30414D01*
G01X606814Y1649985D01*
G03X599311Y1669988I-30414J0D01*
G03X605438Y1680944I-22911J20003D01*
G01X692086Y1594295D01*
G01X692086Y1417676D01*
G03X730000Y1309086I37914J-47676D01*
G03X767914Y1417676I0J60914D01*
G01X767914Y1610000D01*
G03X756809Y1636809I-37914J0D01*
G01X646822Y1746797D01*
G03X620012Y1757901I-26809J-26809D01*
G01X605766Y1757901D01*
G03X599655Y1769587I-29366J-7917D01*
G01X775811Y1769587D01*
G03X852087Y1775964I34190J50414D01*
G01X852087Y1765705D01*
G01X833191Y1746810D01*
G03X822087Y1720001I26809J-26809D01*
G01X822087Y1509367D01*
G03X799587Y1480001I7914J-29366D01*
G01X799587Y1420001D01*
G03X830001Y1389587I30414J0D01*
G01X890001Y1389587D01*
G03X910000Y1397088I0J30414D01*
G03X930000Y1389587I20000J22913D01*
G01X990000Y1389587D01*
G03X1020414Y1420001I0J30414D01*
G01X1020414Y1480001D01*
G03X997915Y1509367I-30414J0D01*
G01X997915Y1514296D01*
G01X1004739Y1521121D01*
G03X1015844Y1547930I-26809J26809D01*
G01X1015844Y1549982D01*
G03X1030000Y1556291I-4894J30018D01*
G03X1049050Y1549586I19050J23709D01*
G01X1115090Y1549586D01*
G03X1145504Y1580000I0J30414D01*
G01X1145504Y1638986D01*
G01X1179245Y1672727D01*
G03X1252776Y1760409I20753J57270D01*
G03X1140042Y1740761I-52779J-30412D01*
G01X1109696Y1710414D01*
G01X1049050Y1710414D01*
G03X1030000Y1703709I0J-30414D01*
G03X1010950Y1710414I-19050J-23709D01*
G01X944910Y1710414D01*
G03X914496Y1680000I0J-30414D01*
G01X914496Y1580000D01*
G03X930167Y1553398I30414J0D01*
G03X922087Y1530001I29833J-23397D01*
G01X922087Y1509367D01*
G03X910000Y1502914I7914J-29366D01*
G03X897915Y1509367I-20000J-22913D01*
G01X897915Y1704297D01*
G01X916810Y1723191D01*
G03X927914Y1750001I-26809J26809D01*
G01X927912Y1829587D01*
G01X970000Y1829587D01*
G03X1000414Y1860001I0J30414D01*
G01X1000414Y1920001D01*
G03X992913Y1940001I-30414J0D01*
G03X1000414Y1960001I-22913J20000D01*
G01X1000414Y2020001D01*
G03X982914Y2047537I-30414J0D01*
G01X982914Y2052225D01*
G01X1079777Y2149088D01*
G03X1123073Y2253074I224J60913D01*
G03X1019087Y2209777I-43073J-43073D01*
G01X909655Y2100346D01*
G03X897086Y2070001I30345J-30345D01*
G01X897086Y2047537D01*
G03X879586Y2020001I12914J-27536D01*
G01X879586Y2004033D01*
G01X826809Y2056810D01*
G03X800000Y2067915I-26809J-26809D01*
G01X787452Y2067915D01*
G03X810814Y2101495I-12452J33580D01*
G01X810814Y2231494D01*
G03X775000Y2267308I-35814J0D01*
G01X705000Y2267308D01*
G03X684040Y2260534I0J-35814D01*
G03X675000Y2261908I-9039J-29040D01*
G01X657534Y2261908D01*
G03X626893Y2358526I-47534J38093D01*
G03X549479Y2293098I-16893J-58525D01*
G01X518289Y2261908D01*
G01X505001Y2261908D01*
G03X474587Y2231494I0J-30414D01*
G01X474587Y2101495D01*
G03X505001Y2071081I30414J0D01*
G01X575000Y2071081D01*
G03X590000Y2075037I0J30414D01*
G03X602086Y2071221I15000J26458D01*
G01X602086Y2050001D01*
G03X609184Y2027914I37914J0D01*
G01X495706Y2027914D01*
G01X337543Y2186077D01*
G01X379991Y2186077D01*
G03X410405Y2216491I0J30414D01*
G01X410405Y2306490D01*
G03X379991Y2336904I-30414J0D01*
G01X304989Y2336904D01*
G03X274576Y2306490I0J-30414D01*
G01X274576Y2249044D01*
G01X266811Y2256809D01*
G03X240414Y2267912I-26809J-26809D01*
G01X240414Y2280000D01*
G03X223962Y2307020I-30414J0D01*
G03X245814Y2340000I-13962J32980D01*
G01X245814Y2440000D01*
G03X210000Y2475814I-35814J0D01*
G01X136084Y2475814D01*
G01X143636Y2482229D01*
G01X201512Y2499840D01*
G01X274576Y2499840D01*
G01X274576Y2439000D01*
G03X304989Y2408586I30414J0D01*
G01X379991Y2408586D01*
G03X410405Y2439000I0J30414D01*
G01X410405Y2499840D01*
G01X869596Y2499840D01*
G01X869596Y2439000D01*
G03X900010Y2408586I30414J0D01*
G01X975011Y2408586D01*
G03X1005425Y2439000I0J30414D01*
G01X1005425Y2499840D01*
G01X1090013Y2499840D01*
G03X1065088Y2437503I65488J-62337D01*
G01X1065088Y2377503D01*
G03X1245915Y2377503I90414J0D01*
G01X1245915Y2437503D01*
G03X1220990Y2499840I-90414J0D01*
G01X1955010Y2499840D01*
G03X1930085Y2437503I65488J-62337D01*
G01X1930085Y2377503D01*
G03X2110912Y2377503I90414J0D01*
G01X2110912Y2437503D01*
G03X2085987Y2499840I-90414J0D01*
G01X2198243Y2499840D01*
G03X2156890Y2383186I59757J-86840D01*
G01X2114352Y2340648D01*
G03X2099586Y2305000I35648J-35648D01*
G01X2099586Y2064748D01*
G03X1935085Y2032488I-79087J-32260D01*
G01X1935085Y2023311D01*
G01X1880501Y2023311D01*
G03X1860847Y2017436I0J-35814D01*
G03X1855493Y2017911I-5354J-29939D01*
G01X1851734Y2017911D01*
G03X1842113Y2032114I-41733J-17910D01*
G01X1834807Y2039420D01*
G03X1835269Y2044700I-29952J5280D01*
G01X1835269Y2090948D01*
G03X1842720Y2182718I-35268J49051D01*
G01X1782719Y2242719D01*
G03X1740000Y2260414I-42719J-42719D01*
G01X1530828Y2260414D01*
G03X1488108Y2242719I0J-60414D01*
G01X1357282Y2111892D01*
G03X1339608Y2070757I42719J-42719D01*
G03X1334587Y2050001I40393J-20756D01*
G01X1334587Y2028812D01*
G01X1323686Y2017911D01*
G01X1320482Y2017911D01*
G03X1315148Y2017440I0J-30414D01*
G03X1295499Y2023311I-19649J-29943D01*
G01X1240915Y2023311D01*
G01X1240915Y2032488D01*
G03X1070088Y2032488I-85414J0D01*
G01X1070088Y1942488D01*
G03X1204984Y1872868I85414J0D01*
G03X1240498Y1841683I35514J4629D01*
G01X1295499Y1841683D01*
G03X1315148Y1847555I0J35814D01*
G03X1320482Y1847083I5334J29943D01*
G01X1370280Y1847083D01*
G01X1370280Y1770970D01*
G01X1339724Y1740414D01*
G01X1310000Y1740414D01*
G03X1279586Y1710000I0J-30414D01*
G01X1279586Y1650000D01*
G03X1283850Y1634470I30414J0D01*
G03X1274186Y1610000I26150J-24470D01*
G01X1274186Y1550000D01*
G03X1310000Y1514186I35814J0D01*
G01X1370000Y1514186D01*
G03X1405814Y1550000I0J35814D01*
G01X1405814Y1610000D01*
G03X1396150Y1634470I-35814J0D01*
G03X1400414Y1650000I-26150J15530D01*
G01X1400414Y1679724D01*
G01X1443539Y1722849D01*
G03X1456108Y1753194I-30345J30345D01*
G01X1456108Y1847083D01*
G01X1471396Y1847083D01*
G03X1482849Y1826462I41798J9723D01*
G01X1519655Y1789655D01*
G03X1550000Y1777086I30345J30345D01*
G01X1590000Y1777086D01*
G03X1620345Y1789655I0J42914D01*
G01X1643538Y1812849D01*
G03X1656108Y1843194I-30345J30345D01*
G01X1656108Y1847083D01*
G01X1670279Y1847083D01*
G01X1670279Y1820969D01*
G01X1575651Y1726340D01*
G03X1550000Y1740414I-25651J-16341D01*
G01X1490000Y1740414D01*
G03X1459586Y1710000I0J-30414D01*
G01X1459586Y1650000D01*
G03X1463849Y1634470I30414J0D01*
G03X1454186Y1610000I26150J-24470D01*
G01X1454186Y1550000D01*
G03X1490000Y1514186I35814J0D01*
G01X1550000Y1514186D01*
G03X1585814Y1550000I0J35814D01*
G01X1585814Y1610000D01*
G03X1576150Y1634470I-35814J0D01*
G03X1577536Y1637086I-26150J15530D01*
G01X1590000Y1637086D01*
G03X1620345Y1649655I0J42914D01*
G01X1643079Y1672389D01*
G01X1643079Y1598496D01*
G03X1644352Y1589790I30414J0D01*
G01X1544975Y1490414D01*
G01X1470000Y1490414D01*
G03X1454470Y1486150I0J-30414D01*
G03X1430000Y1495814I-24470J-26150D01*
G01X1370000Y1495814D01*
G03X1334186Y1460000I0J-35814D01*
G01X1334186Y1400000D01*
G03X1370000Y1364186I35814J0D01*
G01X1430000Y1364186D01*
G03X1439586Y1365492I0J35814D01*
G01X1439586Y1322092D01*
G03X1437087Y1310017I27915J-12074D01*
G01X1437087Y1190028D01*
G03X1449661Y1165395I30414J0D01*
G01X1350339Y1165395D01*
G03X1362913Y1190028I-17840J24632D01*
G01X1362913Y1310017D01*
G03X1332499Y1340431I-30414J0D01*
G01X1277508Y1340431D01*
G03X1247095Y1310017I0J-30414D01*
G01X1247095Y1292937D01*
G01X1207753Y1292937D01*
G01X1190414Y1310275D01*
G01X1190414Y1340000D01*
G03X1186151Y1355530I-30414J0D01*
G03X1195814Y1380000I-26150J24470D01*
G01X1195814Y1440000D01*
G03X1160000Y1475814I-35814J0D01*
G01X1100000Y1475814D01*
G03X1064186Y1440000I0J-35814D01*
G01X1064186Y1380000D01*
G03X1073850Y1355530I35814J0D01*
G03X1069586Y1340000I26150J-15530D01*
G01X1069586Y1280000D01*
G03X1100000Y1249586I30414J0D01*
G01X1129724Y1249586D01*
G01X1159632Y1219678D01*
G03X1189977Y1207109I30345J30345D01*
G01X1247095Y1207109D01*
G01X1247095Y1190028D01*
G03X1259669Y1165395I30414J0D01*
G01X1144981Y1165395D01*
G03X1102262Y1147701I0J-60414D01*
G01X1064975Y1110414D01*
G01X978082Y1110414D01*
G03X949507Y1130414I-28575J-10414D01*
G01X589507Y1130414D01*
G03X559093Y1100000I0J-30414D01*
G01X559093Y1000000D01*
G03X589507Y969586I30414J0D01*
G01X949507Y969586D01*
G03X978082Y989586I0J30414D01*
G01X1090000Y989586D01*
G03X1132719Y1007281I0J60414D01*
G01X1170006Y1044568D01*
G01X1247095Y1044568D01*
G01X1247095Y929983D01*
G03X1262090Y903767I30414J0D01*
G01X1262090Y902779D01*
G01X1239724Y880414D01*
G01X1210000Y880414D01*
G03X1190000Y872913I0J-30414D01*
G03X1170000Y880414I-20000J-22913D01*
G01X1110000Y880414D01*
G03X1079586Y850000I0J-30414D01*
G01X1079586Y790000D01*
G03X1110000Y759586I30414J0D01*
G01X1146795Y759586D01*
G01X1322086Y584295D01*
G01X1322086Y449544D01*
G03X1143640Y418914I-80086J-68544D01*
G01X1101000Y418914D01*
G03X1074191Y407809I0J-37914D01*
G01X946797Y280415D01*
G01X905000Y280415D01*
G03X874586Y250001I0J-30414D01*
G01X874586Y170001D01*
G03X882087Y150001I30414J0D01*
G03X874586Y130002I22913J-20000D01*
G01X874586Y50002D01*
G03X876222Y40160I30414J0D01*
G01X649435Y40160D01*
G03X650814Y50002I-34435J9842D01*
G01X650814Y130002D01*
G03X641151Y154472I-35814J0D01*
G03X645414Y170001I-26150J15530D01*
G01X645414Y250001D01*
G03X615000Y280415I-30414J0D01*
G01X565000Y280415D01*
G03X534586Y250001I0J-30414D01*
G01X534586Y170001D01*
G03X538850Y154472I30414J0D01*
G03X529186Y130002I26150J-24470D01*
G01X529186Y50002D01*
G03X530565Y40160I35814J0D01*
G01X201423Y40160D01*
G01X134079Y59401D01*
G01X87186Y87537D01*
G01X69051Y114739D01*
G01X58264Y142017D01*
G01X40160Y201511D01*
G01X40160Y509585D01*
G01X364493Y509585D01*
G03X394907Y539999I0J30414D01*
G01X394907Y689999D01*
G03X364493Y720413I-30414J0D01*
G01X40160Y720413D01*
G01X40160Y1179587D01*
G01X364493Y1179587D01*
G03X394907Y1210001I0J30414D01*
G01X394907Y1360000D01*
G03X364493Y1390414I-30414J0D01*
G01X40160Y1390414D01*
G01X40160Y1399606D01*
G01X41388Y1399582D01*
G01X241387Y1399582D01*
G03X271801Y1429996I0J30414D01*
G01X271801Y1549985D01*
G03X241387Y1580399I-30414J0D01*
G01X41388Y1580399D01*
G01X40160Y1580374D01*
G37*
%LPC*%
G36*
G01X64586Y270000D02*
G03X475414Y270000I205414J0D01*
G03X64586Y270000I-205414J0D01*
G37*
G36*
G01X589507Y935814D02*
G03X553693Y900000I0J-35814D01*
G01X553693Y800000D01*
G03X589507Y764186I35814J0D01*
G01X949507Y764186D01*
G03X985321Y800000I0J35814D01*
G01X985321Y900000D01*
G03X949507Y935814I-35814J0D01*
G01X589507Y935814D01*
G37*
G36*
G01X805000Y244587D02*
G03X835414Y275001I0J30414D01*
G01X835414Y325001D01*
G03X805000Y355415I-30414J0D01*
G01X715000Y355415D01*
G03X684586Y325001I0J-30414D01*
G01X684586Y275001D01*
G03X715000Y244587I30414J0D01*
G01X805000Y244587D01*
G37*
G36*
G01X1005425Y2306490D02*
G03X975011Y2336904I-30414J0D01*
G01X900010Y2336904D01*
G03X869596Y2306490I0J-30414D01*
G01X869596Y2216491D01*
G03X900010Y2186077I30414J0D01*
G01X975011Y2186077D01*
G03X1005425Y2216491I0J30414D01*
G01X1005425Y2306490D01*
G37*
%LPD*%
G36*
G01X612214Y1890015D02*
G01X612214Y1950010D01*
G01X612154Y1952086D01*
G01X774297Y1952086D01*
G01X812087Y1914296D01*
G01X812087Y1880879D01*
G03X775811Y1870415I-2086J-60878D01*
G01X606375Y1870415D01*
G03X612214Y1890015I-29975J19600D01*
G37*
G36*
G01X1124120Y40160D02*
G01X983777Y40160D01*
G03X985414Y50002I-28778J9842D01*
G01X985414Y130002D01*
G03X977913Y150001I-30414J0D01*
G03X985414Y170001I-22913J20000D01*
G01X985414Y211795D01*
G01X1116705Y343086D01*
G01X1143640Y343086D01*
G03X1164976Y309032I98360J37914D01*
G03X1142086Y202324I15024J-59032D01*
G01X1142086Y200414D01*
G01X1130000Y200414D01*
G03X1099586Y170000I0J-30414D01*
G01X1099586Y70000D01*
G03X1124120Y40160I30414J0D01*
G37*
G36*
G01X1764989Y1259581D02*
G03X1795014Y1285149I0J30414D01*
G03X1799655Y1279655I34986J24851D01*
G01X1854590Y1224721D01*
G01X1854590Y1194999D01*
G03X1885004Y1164585I30414J0D01*
G01X1887086Y1164585D01*
G01X1887086Y1090001D01*
G03X1899655Y1059656I42914J0D01*
G01X1909586Y1049725D01*
G01X1909586Y990000D01*
G03X1913850Y974471I30414J0D01*
G03X1904186Y950000I26150J-24470D01*
G01X1904186Y890000D01*
G03X1940000Y854186I35814J0D01*
G01X2000000Y854186D01*
G03X2035814Y890000I0J35814D01*
G01X2035814Y950000D01*
G03X2026150Y974471I-35814J0D01*
G03X2030414Y990000I-26150J15530D01*
G01X2030414Y1050000D01*
G03X2000277Y1080413I-30414J0D01*
G01X1972914Y1107776D01*
G01X1972914Y1164585D01*
G01X1974996Y1164585D01*
G03X2000265Y1178073I0J30414D01*
G03X2089892Y1136925I59735J11927D01*
G03X2089569Y1132499I30090J-4425D01*
G01X2089569Y1077508D01*
G03X2119983Y1047094I30414J0D01*
G01X2184268Y1047094D01*
G01X2274614Y956749D01*
G03X2270634Y947914I25387J-16749D01*
G01X2210915Y947914D01*
G03X2059586Y910000I-70915J-37914D01*
G03X2210915Y872086I80414J0D01*
G01X2270634Y872086D01*
G03X2300000Y849586I29366J7914D01*
G01X2360000Y849586D01*
G03X2380000Y857087I0J30414D01*
G03X2400000Y849586I20000J22913D01*
G01X2460000Y849586D01*
G03X2490414Y880000I0J30414D01*
G01X2490414Y886795D01*
G01X2509239Y905620D01*
G03X2608832Y863071I60756J4379D01*
G03X2630000Y854496I21168J21839D01*
G01X2730000Y854496D01*
G03X2760414Y884910I0J30414D01*
G01X2760414Y950950D01*
G03X2753709Y970000I-30414J0D01*
G03X2760414Y989050I-23709J19050D01*
G01X2760414Y1016809D01*
G01X2764586Y1012637D01*
G01X2764586Y842953D01*
G01X2717047Y795414D01*
G01X1920000Y795414D01*
G03X1880816Y779184I0J-55414D01*
G01X1710817Y609184D01*
G03X1694586Y570000I39184J-39184D01*
G01X1694586Y470674D01*
G03X1660326Y436414I55414J-89674D01*
G01X1585674Y436414D01*
G03X1397914Y419616I-89674J-55414D01*
G01X1397914Y600000D01*
G03X1386809Y626809I-37914J0D01*
G01X1254032Y759586D01*
G01X1270000Y759586D01*
G03X1300414Y790000I0J30414D01*
G01X1300414Y819724D01*
G01X1335349Y854659D01*
G03X1347918Y885004I-30345J30345D01*
G01X1347918Y903767D01*
G01X1348120Y903886D01*
G03X1372504Y894169I24494J26012D01*
G01X1427495Y894169D01*
G03X1451968Y903834I0J35814D01*
G03X1467500Y899569I15533J26149D01*
G01X1522491Y899569D01*
G03X1552905Y929983I0J30414D01*
G01X1552905Y962449D01*
G01X1610000Y1019543D01*
G01X1622262Y1007281D01*
G03X1664981Y989586I42719J42719D01*
G01X1679589Y989586D01*
G03X1683850Y974471I30411J414D01*
G03X1674186Y950000I26150J-24470D01*
G01X1674186Y890000D01*
G03X1710000Y854186I35814J0D01*
G01X1770000Y854186D01*
G03X1805814Y890000I0J35814D01*
G01X1805814Y950000D01*
G03X1796151Y974471I-35814J0D01*
G03X1800414Y990000I-26150J15530D01*
G01X1800414Y1050000D01*
G03X1740000Y1110414I-60414J0D01*
G01X1690006Y1110414D01*
G01X1670414Y1130006D01*
G01X1670414Y1194983D01*
G01X1735012Y1259581D01*
G01X1764989Y1259581D01*
G37*
G36*
G01X1690243Y40160D02*
G01X1395880Y40160D01*
G03X1420414Y70000I-5880J29840D01*
G01X1420414Y170000D01*
G03X1397914Y199366I-30414J0D01*
G01X1397914Y342384D01*
G03X1585674Y325586I98086J38616D01*
G01X1660326Y325586D01*
G03X1694586Y291326I89674J55414D01*
G01X1694586Y216674D01*
G03X1690243Y40160I55414J-89674D01*
G37*
G36*
G01X1935163Y40160D02*
G01X1809757Y40160D01*
G03X1805414Y216674I-59757J86840D01*
G01X1805414Y291326D01*
G03X1855414Y381000I-55414J89674D01*
G03X1805414Y470674I-105414J0D01*
G01X1805414Y547047D01*
G01X1942953Y684586D01*
G01X2740000Y684586D01*
G03X2779184Y700816I0J55414D01*
G01X2850453Y772086D01*
G01X3250154Y772086D01*
G01X3352086Y670153D01*
G01X3352086Y451814D01*
G03X3168586Y381000I-78086J-70814D01*
G03X3352086Y310186I105414J0D01*
G01X3352086Y255000D01*
G03X3366120Y221120I47914J0D01*
G01X3427726Y159514D01*
G03X3468243Y40160I100274J-32514D01*
G01X3342837Y40160D01*
G03X3274000Y237814I-68837J86840D01*
G03X3205163Y40160I0J-110814D01*
G01X3079757Y40160D01*
G03X3020000Y232414I-59757J86840D01*
G03X2960243Y40160I0J-105414D01*
G01X2825757Y40160D01*
G03X2766000Y232414I-59757J86840D01*
G03X2706243Y40160I0J-105414D01*
G01X2571757Y40160D01*
G03X2512000Y232414I-59757J86840D01*
G03X2452243Y40160I0J-105414D01*
G01X2317757Y40160D01*
G03X2258000Y232414I-59757J86840D01*
G03X2198243Y40160I0J-105414D01*
G01X2072837Y40160D01*
G03X2004000Y237814I-68837J86840D01*
G03X1935163Y40160I0J-110814D01*
G37*
%LPC*%
G36*
G01X2114814Y381000D02*
G03X1893186Y381000I-110814J0D01*
G03X2114814Y381000I110814J0D01*
G37*
G36*
G01X2363414Y381000D02*
G03X2152586Y381000I-105414J0D01*
G03X2363414Y381000I105414J0D01*
G37*
G36*
G01X2617414Y381000D02*
G03X2406586Y381000I-105414J0D01*
G03X2617414Y381000I105414J0D01*
G37*
G36*
G01X2871414Y381000D02*
G03X2660586Y381000I-105414J0D01*
G03X2871414Y381000I105414J0D01*
G37*
G36*
G01X3125414Y381000D02*
G03X2914586Y381000I-105414J0D01*
G03X3125414Y381000I105414J0D01*
G37*
%LPD*%
G36*
G01X1935503Y1841683D02*
G03X1971016Y1872868I0J35814D01*
G03X2099586Y1910229I49482J69620D01*
G01X2099586Y1890882D01*
G01X2009119Y1800415D01*
G01X1900001Y1800415D01*
G03X1888431Y1799069I0J-50414D01*
G01X1888406Y1840001D01*
G01X1888382Y1841683D01*
G01X1935503Y1841683D01*
G37*
G36*
G01X2353160Y2367650D02*
G03X2317757Y2499840I-95160J45350D01*
G01X2452243Y2499840D01*
G03X2512000Y2307586I59757J-86840D01*
G03X2571757Y2499840I0J105414D01*
G01X2706243Y2499840D01*
G03X2766000Y2307586I59757J-86840D01*
G03X2825757Y2499840I0J105414D01*
G01X2960243Y2499840D01*
G03X3020000Y2307586I59757J-86840D01*
G03X3079757Y2499840I0J105414D01*
G01X3214243Y2499840D01*
G03X3274000Y2307586I59757J-86840D01*
G03X3333757Y2499840I0J105414D01*
G01X3468243Y2499840D01*
G03X3528000Y2307586I59757J-86840D01*
G03X3587757Y2499840I0J105414D01*
G01X3722243Y2499840D01*
G03X3690006Y2361530I59757J-86840D01*
G03X3824742Y2316640I91994J51470D01*
G01X4008191Y2133191D01*
G03X4035000Y2122086I26809J26809D01*
G01X4414296Y2122086D01*
G01X4492086Y2044295D01*
G01X4492086Y2025814D01*
G01X4440000Y2025814D01*
G03X4415530Y2016150I0J-35814D01*
G03X4400000Y2020414I-15530J-26150D01*
G01X4340000Y2020414D01*
G03X4333213Y2019646I0J-30414D01*
G03X4226787Y2019646I-53213J-29646D01*
G03X4220000Y2020414I-6787J-29647D01*
G01X4160000Y2020414D01*
G03X4140000Y2012913I0J-30414D01*
G03X4120000Y2020414I-20000J-22913D01*
G01X4060000Y2020414D01*
G03X4030634Y1997914I0J-30414D01*
G01X3885705Y1997914D01*
G01X3716809Y2166809D01*
G03X3690000Y2177914I-26809J-26809D01*
G01X2715704Y2177914D01*
G01X2660521Y2233097D01*
G03X2556927Y2283073I-60521J6903D01*
G03X2606903Y2179479I43073J-43073D01*
G01X2673191Y2113191D01*
G03X2700000Y2102086I26809J26809D01*
G01X3674295Y2102086D01*
G01X3843191Y1933190D01*
G03X3870000Y1922086I26809J26809D01*
G01X4030634Y1922086D01*
G03X4060000Y1899586I29366J7914D01*
G01X4120000Y1899586D01*
G03X4140000Y1907087I0J30414D01*
G03X4160000Y1899586I20000J22913D01*
G01X4220000Y1899586D01*
G03X4249366Y1922086I0J30414D01*
G01X4310634Y1922086D01*
G03X4340000Y1899586I29366J7914D01*
G01X4400000Y1899586D01*
G03X4415530Y1903849I0J30414D01*
G03X4430726Y1895407I24470J26150D01*
G01X4299995Y1895407D01*
G03X4269581Y1864993I0J-30414D01*
G01X4269581Y1837914D01*
G01X4214578Y1837914D01*
G03X4190000Y1850414I-24578J-17914D01*
G01X4130000Y1850414D01*
G03X4099586Y1820000I0J-30414D01*
G01X4099586Y1760000D01*
G03X4103849Y1744471I30414J0D01*
G03X4094186Y1720000I26150J-24470D01*
G01X4094186Y1660000D01*
G03X4130000Y1624186I35814J0D01*
G01X4190000Y1624186D01*
G03X4225814Y1660000I0J35814D01*
G01X4225814Y1720000D01*
G03X4216150Y1744471I-35814J0D01*
G03X4220414Y1760000I-26150J15530D01*
G01X4220414Y1762086D01*
G01X4269721Y1762086D01*
G03X4299995Y1734579I30275J2907D01*
G01X4480005Y1734579D01*
G03X4510419Y1764993I0J30414D01*
G01X4510419Y1777079D01*
G01X4529302Y1777079D01*
G01X4613202Y1693180D01*
G03X4640011Y1682075I26809J26809D01*
G01X4650412Y1682075D01*
G03X4652071Y1679997I24580J17911D01*
G03X4650412Y1677919I22922J-19990D01*
G01X4560005Y1677919D01*
G03X4533195Y1666814I0J-37914D01*
G01X4502191Y1635810D01*
G03X4480005Y1645420I-22186J-20803D01*
G01X4299995Y1645420D01*
G03X4269581Y1615006I0J-30414D01*
G01X4269581Y1567914D01*
G01X4202075Y1567914D01*
G03X4190000Y1570414I-12075J-27914D01*
G01X4130000Y1570414D01*
G03X4099586Y1540000I0J-30414D01*
G01X4099586Y1480000D01*
G03X4103849Y1464470I30414J0D01*
G03X4094186Y1440000I26150J-24470D01*
G01X4094186Y1380000D01*
G01X4094190Y1379428D01*
G01X4033227Y1440391D01*
G03X3963620Y1528669I-53235J29606D01*
G03X3949778Y1417105I16372J-58672D01*
G03X3953183Y1413199I30214J22903D01*
G01X4073191Y1293191D01*
G03X4100000Y1282086I26809J26809D01*
G01X4214306Y1282086D01*
G03X4206686Y1260000I28193J-22086D01*
G01X4206686Y1165414D01*
G01X4025253Y1165414D01*
G01X3961484Y1229183D01*
G03X3922300Y1245414I-39184J-39184D01*
G01X3483425Y1245414D01*
G01X3483425Y1348591D01*
G01X3547010Y1348591D01*
G03X3577424Y1379005I0J30414D01*
G01X3577424Y1448529D01*
G03X3643629Y1449210I32576J51471D01*
G03X3670105Y1509895I-33629J50790D01*
G03X3689895Y1509895I9895J60105D01*
G03X3750000Y1439086I60105J-9895D01*
G03X3810105Y1509895I0J60914D01*
G03X3878496Y1553008I9895J60105D01*
G03X3945000Y1568945I21504J56992D01*
G03X4047034Y1588609I45000J41055D01*
G03X3983097Y1670522I-57034J21391D01*
G01X3917914Y1735704D01*
G01X3917914Y1790000D01*
G03X3906809Y1816809I-37914J0D01*
G01X3820522Y1903097D01*
G03X3716927Y1953073I-60521J6903D01*
G03X3766903Y1849479I43073J-43073D01*
G01X3842086Y1774296D01*
G01X3842086Y1720000D01*
G03X3853191Y1693191I37914J0D01*
G01X3879148Y1667234D01*
G03X3841504Y1626992I20852J-57234D01*
G03X3759895Y1560105I-21504J-56992D01*
G03X3740105Y1560105I-9895J-60105D01*
G03X3680000Y1630914I-60105J9895D01*
G03X3619895Y1560105I0J-60914D01*
G03X3582824Y1554516I-9895J-60105D01*
G01X3582824Y1579995D01*
G03X3571096Y1606500I-35814J0D01*
G03X3582824Y1633005I-24086J26505D01*
G01X3582824Y1706995D01*
G03X3566757Y1736873I-35814J0D01*
G03X3577424Y1760005I-19747J23132D01*
G01X3577424Y1833995D01*
G03X3566757Y1857127I-30414J0D01*
G03X3582824Y1887005I-19747J29878D01*
G01X3582824Y1960995D01*
G03X3547010Y1996809I-35814J0D01*
G01X3309012Y1996809D01*
G03X3273198Y1960995I0J-35814D01*
G01X3273198Y1887005D01*
G03X3289265Y1857127I35814J0D01*
G03X3278598Y1833995I19747J-23132D01*
G01X3278598Y1760005D01*
G03X3289265Y1736873I30414J0D01*
G03X3273198Y1706995I19747J-29878D01*
G01X3273198Y1633005D01*
G03X3284926Y1606500I35814J0D01*
G03X3273200Y1580421I24086J-26505D01*
G01X3216811Y1636810D01*
G03X3201402Y1646160I-26809J-26809D01*
G01X3201402Y1706995D01*
G03X3185905Y1733500I-30414J0D01*
G03X3201402Y1760005I-14916J26505D01*
G01X3201402Y1833995D01*
G03X3185905Y1860500I-30414J0D01*
G03X3201402Y1887005I-14916J26505D01*
G01X3201402Y1960995D01*
G03X3170988Y1991409I-30414J0D01*
G01X2932990Y1991409D01*
G03X2902576Y1960995I0J-30414D01*
G01X2902576Y1936195D01*
G01X2873191Y1906809D01*
G03X2862086Y1880000I26809J-26809D01*
G01X2862086Y1330339D01*
G03X2862331Y1326036I37914J0D01*
G01X2815414Y1372953D01*
G01X2815414Y1660000D01*
G03X2799184Y1699183I-55414J0D01*
G01X2720414Y1777953D01*
G01X2720414Y1827500D01*
G03X2696325Y1857249I-30414J0D01*
G03X2725814Y1892500I-6325J35251D01*
G01X2725814Y1987500D01*
G03X2690000Y2023314I-35814J0D01*
G01X2590000Y2023314D01*
G03X2554186Y1987500I0J-35814D01*
G01X2554186Y1892500D01*
G03X2583675Y1857249I35814J0D01*
G03X2559586Y1827500I6325J-29749D01*
G01X2559586Y1813246D01*
G03X2499537Y1812749I-29586J-53246D01*
G03X2500414Y1820000I-29537J7251D01*
G01X2500414Y1880000D01*
G03X2496150Y1895530I-30414J0D01*
G03X2505814Y1920000I-26150J24470D01*
G01X2505814Y1980000D01*
G03X2470000Y2015814I-35814J0D01*
G01X2410000Y2015814D01*
G03X2374186Y1980000I0J-35814D01*
G01X2374186Y1920000D01*
G03X2383849Y1895530I35814J0D01*
G03X2379586Y1880000I26150J-15530D01*
G01X2379586Y1820000D01*
G03X2384609Y1803258I30414J0D01*
G01X2384609Y1732905D01*
G01X2380028Y1732905D01*
G03X2349614Y1702491I0J-30414D01*
G01X2349614Y1647500D01*
G03X2380028Y1617086I30414J0D01*
G01X2500017Y1617086D01*
G03X2512083Y1619582I0J30414D01*
G01X2534996Y1619582D01*
G03X2559769Y1625428I0J55414D01*
G03X2595062Y1553314I80231J-5428D01*
G01X2590000Y1553314D01*
G03X2554186Y1517500I0J-35814D01*
G01X2554186Y1422500D01*
G03X2583675Y1387249I35814J0D01*
G03X2559586Y1357500I6325J-29749D01*
G01X2559586Y1355410D01*
G01X2440023Y1355410D01*
G03X2422808Y1352905I0J-60414D01*
G01X2380028Y1352905D01*
G03X2349614Y1322491I0J-30414D01*
G01X2349614Y1267500D01*
G03X2380028Y1237086I30414J0D01*
G01X2422808Y1237086D01*
G03X2440023Y1234582I17214J57909D01*
G01X2519851Y1234582D01*
G03X2509743Y1191040I50144J-34584D01*
G03X2532081Y1152321I60252J8958D01*
G01X2532081Y1112390D01*
G01X2530431Y1110741D01*
G01X2530431Y1132499D01*
G03X2500017Y1162913I-30414J0D01*
G01X2380028Y1162913D01*
G03X2349614Y1132499I0J-30414D01*
G01X2349614Y1077508D01*
G03X2351167Y1067914I30414J0D01*
G01X2345018Y1067914D01*
G03X2318209Y1056809I0J-37914D01*
G01X2300000Y1038600D01*
G01X2269267Y1069333D01*
G03X2270386Y1077508I-29295J8175D01*
G01X2270386Y1132499D01*
G03X2266121Y1148032I-30414J0D01*
G03X2275786Y1172504I-26149J24472D01*
G01X2275786Y1227495D01*
G03X2266121Y1251968I-35814J0D01*
G03X2270386Y1267500I-26149J15533D01*
G01X2270386Y1322491D01*
G03X2239972Y1352905I-30414J0D01*
G01X2228317Y1352905D01*
G03X2228317Y1427094I-48317J37095D01*
G01X2239972Y1427094D01*
G03X2270386Y1457508I0J30414D01*
G01X2270386Y1512499D01*
G03X2266121Y1528032I-30414J0D01*
G03X2275786Y1552504I-26149J24472D01*
G01X2275786Y1607495D01*
G03X2266121Y1631968I-35814J0D01*
G03X2270386Y1647500I-26149J15533D01*
G01X2270386Y1702491D01*
G03X2240391Y1732902I-30414J0D01*
G01X2240391Y1754953D01*
G01X2275024Y1789586D01*
G01X2280000Y1789586D01*
G03X2310414Y1820000I0J30414D01*
G01X2310414Y1880000D01*
G03X2306150Y1895530I-30414J0D01*
G03X2315814Y1920000I-26150J24470D01*
G01X2315814Y1980000D01*
G03X2280000Y2015814I-35814J0D01*
G01X2220000Y2015814D01*
G03X2200414Y2009984I0J-35814D01*
G01X2200414Y2284118D01*
G01X2228186Y2311890D01*
G03X2353160Y2367650I29814J101110D01*
G37*
%LPC*%
G36*
G01X2380028Y1542913D02*
G03X2349614Y1512499I0J-30414D01*
G01X2349614Y1457508D01*
G03X2380028Y1427094I30414J0D01*
G01X2500017Y1427094D01*
G03X2530431Y1457508I0J30414D01*
G01X2530431Y1512499D01*
G03X2500017Y1542913I-30414J0D01*
G01X2380028Y1542913D01*
G37*
%LPD*%
G36*
G01X3722243Y40160D02*
G01X3587757Y40160D01*
G03X3622544Y173622I-59757J86840D01*
G03X3495486Y227274I-94544J-46622D01*
G01X3447914Y274847D01*
G01X3447914Y312456D01*
G03X3633414Y381000I80086J68544D01*
G03X3447914Y449544I-105414J0D01*
G01X3447914Y690000D01*
G03X3433880Y723880I-47914J0D01*
G01X3303881Y853880D01*
G03X3270000Y867914I-33880J-33880D01*
G01X2875414Y867914D01*
G01X2875414Y1035591D01*
G03X2873717Y1049198I-55414J0D01*
G03X2930670Y1115377I-3723J60800D01*
G03X2940000Y1114586I9330J54623D01*
G01X2954674Y1114586D01*
G03X3010000Y1028186I55326J-25486D01*
G03X3065326Y1114586I0J60914D01*
G01X3370000Y1114586D01*
G03X3409183Y1130816I0J55414D01*
G01X3412953Y1134586D01*
G01X3558496Y1134586D01*
G03X3539086Y1090232I41504J-44586D01*
G03X3483751Y990358I-9086J-60232D01*
G03X3590914Y1029768I46249J39642D01*
G03X3609087Y1029768I9086J60232D01*
G03X3670000Y969086I60913J232D01*
G03X3730913Y1029768I0J60914D01*
G03X3749087Y1029768I9086J60232D01*
G03X3810000Y969086I60913J232D01*
G03X3870913Y1029768I0J60914D01*
G03X3940835Y1093098I9087J60232D01*
G01X3963116Y1070817D01*
G03X4002300Y1054587I39184J39184D01*
G01X4198490Y1054587D01*
G03X4198625Y965284I41501J-44589D01*
G03X4287668Y972084I41367J44714D01*
G01X4305423Y972084D01*
G03X4330000Y959586I24577J17916D01*
G01X4390000Y959586D01*
G03X4410000Y967087I0J30414D01*
G03X4422086Y960634I20000J22913D01*
G01X4422086Y960003D01*
G03X4433191Y933194I37914J0D01*
G01X4445970Y920414D01*
G01X4430000Y920414D01*
G03X4410000Y912913I0J-30414D01*
G03X4390000Y920414I-20000J-22913D01*
G01X4330000Y920414D01*
G03X4300634Y897914I0J-30414D01*
G01X4297676Y897914D01*
G03X4189086Y860000I-47676J-37914D01*
G03X4297676Y822086I60914J0D01*
G01X4300634Y822086D01*
G03X4330000Y799586I29366J7914D01*
G01X4390000Y799586D01*
G03X4410000Y807087I0J30414D01*
G03X4430000Y799586I20000J22913D01*
G01X4466795Y799586D01*
G01X4563865Y702516D01*
G01X4319602Y702516D01*
G03X4292793Y691412I0J-37914D01*
G01X4078742Y477360D01*
G03X3938610Y421340I-42742J-96360D01*
G03X3998086Y282640I97390J-40340D01*
G01X3998086Y225360D01*
G03X3976243Y40160I37914J-98360D01*
G01X3841757Y40160D01*
G03X3782000Y232414I-59757J86840D01*
G03X3722243Y40160I0J-105414D01*
G37*
%LPC*%
G36*
G01X3887414Y381000D02*
G03X3676586Y381000I-105414J0D01*
G03X3887414Y381000I105414J0D01*
G37*
%LPD*%
G36*
G01X4230243Y40160D02*
G01X4095757Y40160D01*
G03X4073914Y225360I-59757J86840D01*
G01X4073914Y282640D01*
G03X4132360Y423742I-37914J98360D01*
G01X4335307Y626688D01*
G01X4482070Y626688D01*
G01X4332742Y477360D01*
G03X4192610Y421340I-42742J-96360D01*
G03X4252086Y282640I97390J-40340D01*
G01X4252086Y225360D01*
G03X4230243Y40160I37914J-98360D01*
G37*
G36*
G01X4286809Y1323191D02*
G03X4297559Y1344826I-26809J26809D01*
G03X4330000Y1324186I32441J15173D01*
G01X4390000Y1324186D01*
G03X4394586Y1324481I0J35814D01*
G01X4394586Y1289366D01*
G03X4372751Y1266325I7914J-29366D01*
G03X4337500Y1295814I-35251J-6325D01*
G01X4259433Y1295814D01*
G01X4286809Y1323191D01*
G37*
G36*
G01X4484243Y40160D02*
G01X4349757Y40160D01*
G03X4327914Y225360I-59757J86840D01*
G01X4327914Y282640D01*
G03X4386360Y423742I-37914J98360D01*
G01X4529297Y566678D01*
G01X4730000Y566678D01*
G03X4756809Y577783I0J37914D01*
G01X4925392Y746366D01*
G03X4989437Y706945I57143J21100D01*
G01X5095068Y601314D01*
G01X4903402Y601314D01*
G03X4876593Y590209I0J-37914D01*
G01X4824298Y537914D01*
G01X4663000Y537914D01*
G03X4636191Y526809I0J-37914D01*
G01X4586742Y477360D01*
G03X4446610Y421340I-42742J-96360D01*
G03X4506086Y282640I97390J-40340D01*
G01X4506086Y225360D01*
G03X4484243Y40160I37914J-98360D01*
G37*
G36*
G01X4567914Y2060000D02*
G03X4556809Y2086809I-37914J0D01*
G01X4456809Y2186809D01*
G03X4453071Y2190086I-26809J-26809D01*
G01X4708615Y2190086D01*
G01X4758086Y2140615D01*
G01X4758086Y1927381D01*
G03X4734987Y1935826I-23099J-27369D01*
G01X4674993Y1935826D01*
G03X4639179Y1900012I0J-35814D01*
G01X4639179Y1860007D01*
G03X4639700Y1853918I35814J0D01*
G01X4567914Y1925704D01*
G01X4567914Y2060000D01*
G37*
G36*
G01X4557916Y859543D02*
G01X4557916Y900000D01*
G03X4546812Y926810I-37914J0D01*
G01X4508079Y965543D01*
G03X4520414Y990000I-18079J24458D01*
G01X4520414Y1044620D01*
G03X4576903Y1019479I49586J35380D01*
G01X4623190Y973192D01*
G03X4646905Y962213I26809J26809D01*
G03X4639179Y939993I28088J-22220D01*
G01X4639179Y899988D01*
G03X4674993Y864174I35814J0D01*
G01X4699154Y864174D01*
G01X4632894Y797914D01*
G01X4619545Y797914D01*
G01X4557916Y859543D01*
G37*
G36*
G01X5143994Y2361530D02*
G03X5111757Y2499840I-91994J51470D01*
G01X5246243Y2499840D01*
G03X5306000Y2307586I59757J-86840D01*
G03X5365757Y2499840I0J105414D01*
G01X5491163Y2499840D01*
G03X5560000Y2302186I68837J-86840D01*
G03X5628837Y2499840I0J110814D01*
G01X5799840Y2499840D01*
G01X5799840Y2213458D01*
G01X5664295Y2077914D01*
G01X5659366Y2077914D01*
G03X5630000Y2100414I-29366J-7913D01*
G01X5570000Y2100414D01*
G03X5550000Y2092913I0J-30414D01*
G03X5530000Y2100414I-20000J-22913D01*
G01X5470000Y2100414D01*
G03X5457914Y2097910I0J-30414D01*
G01X5457914Y2114296D01*
G01X5463097Y2119478D01*
G03X5513073Y2223073I6903J60521D01*
G03X5409478Y2173097I-43073J-43073D01*
G01X5393191Y2156809D01*
G03X5390699Y2154061I26809J-26809D01*
G03X5306370Y2141717I-35860J-49240D01*
G03X5316925Y2057145I48469J-36895D01*
G01X5316925Y2038434D01*
G03X5230490Y2025496I-36936J-48438D01*
G03X5137324Y2010603I-40500J-45500D01*
G03X5050815Y2043467I-57324J-20603D01*
G03X5018104Y2094043I-60815J-3467D01*
G03X4957914Y2091778I-28104J-54043D01*
G01X4957914Y2265296D01*
G01X5009258Y2316640D01*
G03X5143994Y2361530I42742J96360D01*
G37*
G36*
G01X5115000Y1643818D02*
G03X5186771Y1611440I55000J26182D01*
G03X5230522Y1676903I-16771J58560D01*
G01X5268404Y1714786D01*
G03X5284999Y1722097I-3408J30222D01*
G01X5285538Y1721637D01*
G03X5285963Y1637914I44462J-41637D01*
G01X5240000Y1637914D01*
G03X5213190Y1626809I0J-37914D01*
G01X5166903Y1580521D01*
G03X5116927Y1476927I-6903J-60521D01*
G03X5220522Y1526903I43073J43073D01*
G01X5255704Y1562086D01*
G01X5310431Y1562086D01*
G03X5312101Y1559995I24580J17911D01*
G03X5304598Y1539992I22911J-20002D01*
G01X5304598Y1499987D01*
G03X5312090Y1479997I30414J0D01*
G03X5304598Y1460007I22922J-19990D01*
G01X5304598Y1420125D01*
G03X5219996Y1404799I-34608J-50128D01*
G03X5111549Y1387147I-49996J-34799D01*
G03X5074566Y1425940I-58084J-18350D01*
G01X5076809Y1428184D01*
G03X5087914Y1454993I-26809J26809D01*
G01X5087914Y1580455D01*
G03X5076809Y1607264I-37914J0D01*
G01X5073477Y1610596D01*
G03X5115000Y1643818I-13477J59404D01*
G37*
G36*
G01X5246243Y40160D02*
G01X5111757Y40160D01*
G03X5089914Y225360I-59757J86840D01*
G01X5089914Y282640D01*
G03X5139473Y439827I-37914J98360D01*
G03X5183427Y470742I-9473J60173D01*
G03X5275208Y469171I46576J39258D01*
G03X5264332Y560319I-45205J40829D01*
G03X5269437Y561949I-6665J29675D01*
G01X5398195Y433191D01*
G03X5425004Y422086I26809J26809D01*
G01X5625963Y422086D01*
G03X5615440Y352913I44037J-42086D01*
G03X5676903Y319479I54560J27087D01*
G01X5763191Y233191D01*
G03X5790000Y222086I26809J26809D01*
G01X5799840Y222086D01*
G01X5799840Y44208D01*
G01X5795792Y40160D01*
G01X5628837Y40160D01*
G03X5560000Y237814I-68837J86840D01*
G03X5491163Y40160I0J-110814D01*
G01X5365757Y40160D01*
G03X5306000Y232414I-59757J86840D01*
G03X5246243Y40160I0J-105414D01*
G37*
G36*
G01X5416652Y875756D02*
G03X5424991Y874591I8339J29248D01*
G01X5464996Y874591D01*
G03X5484925Y882029I0J30414D01*
G03X5524358Y874812I30073J52973D01*
G03X5538078Y805795I55631J-24813D01*
G01X5483888Y805795D01*
G03X5476812Y815597I-33885J-17007D01*
G01X5416652Y875756D01*
G37*
G36*
G01X5518451Y1307106D02*
G03X5425420Y1340152I-58462J-17109D01*
G01X5425420Y1379997D01*
G03X5417917Y1400000I-30414J0D01*
G03X5425420Y1420002I-22911J20003D01*
G01X5425420Y1421802D01*
G01X5526809Y1523191D01*
G01X5527095Y1523479D01*
G01X5527095Y1079572D01*
G03X5525004Y1077903I17911J-24580D01*
G03X5522913Y1079572I-20002J-22911D01*
G01X5522913Y1085001D01*
G03X5520011Y1099549I-37914J0D01*
G03X5505943Y1149997I-60011J10451D01*
G03X5457914Y1170878I-45943J-39996D01*
G01X5457914Y1229119D01*
G03X5518451Y1307106I2075J60879D01*
G37*
G36*
G01X5582721Y640032D02*
G01X5582721Y645536D01*
G03X5669927Y689079I27279J54465D01*
G03X5713352Y685432I26473J54861D01*
G03X5742939Y528914I82648J-65432D01*
G01X5510893Y528914D01*
G03X5503238Y559580I-60904J1085D01*
G01X5552307Y559580D01*
G03X5582721Y589994I0J30414D01*
G01X5582721Y619994D01*
G03X5581024Y630013I-30414J0D01*
G03X5582721Y640032I-28716J10019D01*
G37*
G36*
G01X5775003Y1799186D02*
G01X5799840Y1799186D01*
G01X5799840Y1640160D01*
G01X5690000Y1640160D01*
G03X5679840Y1630000I0J-10160D01*
G01X5679840Y1470000D01*
G03X5690000Y1459840I10160J0D01*
G01X5799840Y1459840D01*
G01X5799840Y1000814D01*
G01X5775420Y1000814D01*
G01X5775420Y1054992D01*
G03X5745006Y1085406I-30414J0D01*
G01X5705001Y1085406D01*
G03X5684998Y1077903I0J-30414D01*
G03X5682907Y1079572I-20002J-22911D01*
G01X5682907Y1109829D01*
G03X5674286Y1181810I-52918J30168D01*
G03X5602923Y1194568I-44297J-41812D01*
G01X5602923Y1545991D01*
G03X5591818Y1572800I-37914J0D01*
G01X5568914Y1595704D01*
G01X5568914Y1718437D01*
G03X5618726Y1804586I-5514J60664D01*
G01X5624991Y1804586D01*
G03X5640523Y1808852I0J30414D01*
G03X5664996Y1799186I24472J26149D01*
G01X5705001Y1799186D01*
G03X5740002Y1827414I0J35814D01*
G03X5775003Y1799186I35001J7587D01*
G37*
G36*
G01X5706809Y2013191D02*
G01X5799840Y2106222D01*
G01X5799840Y1930809D01*
G01X5775003Y1930809D01*
G03X5740002Y1902582I0J-35814D01*
G03X5705001Y1930809I-35001J-7587D01*
G01X5664996Y1930809D01*
G03X5642902Y1923182I0J-35814D01*
G01X5642902Y1935012D01*
G03X5631797Y1961821I-37914J0D01*
G01X5614032Y1979586D01*
G01X5630000Y1979586D01*
G03X5659366Y2002086I0J30414D01*
G01X5680000Y2002086D01*
G03X5706809Y2013191I0J37914D01*
G37*
G36*
G01X5775003Y869191D02*
G01X5799840Y869191D01*
G01X5799840Y788083D01*
G01X5795874Y788083D01*
G01X5754514Y829444D01*
G01X5754514Y850816D01*
G03X5762945Y871282I-29313J24046D01*
G03X5775003Y869191I12058J33723D01*
G37*
G54D10*
G01X40160Y1580374D02*
G01X40160Y1959626D01*
G01X41388Y1959601D01*
G01X241387Y1959601D01*
G03X271801Y1990015I0J30414D01*
G01X271801Y2110004D01*
G03X241387Y2140418I-30414J0D01*
G01X41388Y2140418D01*
G01X40160Y2140394D01*
G01X40160Y2348211D01*
G01X57589Y2396149D01*
G01X74186Y2415689D01*
G01X74186Y2340000D01*
G03X96038Y2307020I35814J0D01*
G03X79586Y2280000I13962J-27020D01*
G01X79586Y2180000D01*
G03X110000Y2149586I30414J0D01*
G01X210000Y2149586D01*
G03X240176Y2176207I0J30414D01*
G01X431855Y1984528D01*
G03X405585Y1950010I9545J-34519D01*
G01X405585Y1890015D01*
G03X415251Y1865543I35814J0D01*
G03X410985Y1850010I26149J-15533D01*
G01X410985Y1790015D01*
G03X418500Y1770000I30414J0D01*
G03X410985Y1749985I22900J-20015D01*
G01X410985Y1689990D01*
G03X418489Y1669988I30414J0D01*
G03X410985Y1649985I22911J-20002D01*
G01X410985Y1589990D01*
G03X441399Y1559576I30414J0D01*
G01X472086Y1559576D01*
G01X472086Y1540000D01*
G03X483191Y1513191I37914J0D01*
G01X549479Y1446903D01*
G03X653073Y1396927I60521J-6903D01*
G03X603097Y1500521I-43073J43073D01*
G01X547914Y1555704D01*
G01X547914Y1559576D01*
G01X576400Y1559576D01*
G03X606814Y1589990I0J30414D01*
G01X606814Y1649985D01*
G03X599311Y1669988I-30414J0D01*
G03X605438Y1680944I-22911J20003D01*
G01X692086Y1594295D01*
G01X692086Y1417676D01*
G03X730000Y1309086I37914J-47676D01*
G03X767914Y1417676I0J60914D01*
G01X767914Y1610000D01*
G03X756809Y1636809I-37914J0D01*
G01X646822Y1746797D01*
G03X620012Y1757901I-26809J-26809D01*
G01X605766Y1757901D01*
G03X599655Y1769587I-29366J-7917D01*
G01X775811Y1769587D01*
G03X852087Y1775964I34190J50414D01*
G01X852087Y1765705D01*
G01X833191Y1746810D01*
G03X822087Y1720001I26809J-26809D01*
G01X822087Y1509367D01*
G03X799587Y1480001I7914J-29366D01*
G01X799587Y1420001D01*
G03X830001Y1389587I30414J0D01*
G01X890001Y1389587D01*
G03X910000Y1397088I0J30414D01*
G03X930000Y1389587I20000J22913D01*
G01X990000Y1389587D01*
G03X1020414Y1420001I0J30414D01*
G01X1020414Y1480001D01*
G03X997915Y1509367I-30414J0D01*
G01X997915Y1514296D01*
G01X1004739Y1521121D01*
G03X1015844Y1547930I-26809J26809D01*
G01X1015844Y1549982D01*
G03X1030000Y1556291I-4894J30018D01*
G03X1049050Y1549586I19050J23709D01*
G01X1115090Y1549586D01*
G03X1145504Y1580000I0J30414D01*
G01X1145504Y1638986D01*
G01X1179245Y1672727D01*
G03X1252776Y1760409I20753J57270D01*
G03X1140042Y1740761I-52779J-30412D01*
G01X1109696Y1710414D01*
G01X1049050Y1710414D01*
G03X1030000Y1703709I0J-30414D01*
G03X1010950Y1710414I-19050J-23709D01*
G01X944910Y1710414D01*
G03X914496Y1680000I0J-30414D01*
G01X914496Y1580000D01*
G03X930167Y1553398I30414J0D01*
G03X922087Y1530001I29833J-23397D01*
G01X922087Y1509367D01*
G03X910000Y1502914I7914J-29366D01*
G03X897915Y1509367I-20000J-22913D01*
G01X897915Y1704297D01*
G01X916810Y1723191D01*
G03X927914Y1750001I-26809J26809D01*
G01X927912Y1829587D01*
G01X970000Y1829587D01*
G03X1000414Y1860001I0J30414D01*
G01X1000414Y1920001D01*
G03X992913Y1940001I-30414J0D01*
G03X1000414Y1960001I-22913J20000D01*
G01X1000414Y2020001D01*
G03X982914Y2047537I-30414J0D01*
G01X982914Y2052225D01*
G01X1079777Y2149088D01*
G03X1123073Y2253074I224J60913D01*
G03X1019087Y2209777I-43073J-43073D01*
G01X909655Y2100346D01*
G03X897086Y2070001I30345J-30345D01*
G01X897086Y2047537D01*
G03X879586Y2020001I12914J-27536D01*
G01X879586Y2004033D01*
G01X826809Y2056810D01*
G03X800000Y2067915I-26809J-26809D01*
G01X787452Y2067915D01*
G03X810814Y2101495I-12452J33580D01*
G01X810814Y2231494D01*
G03X775000Y2267308I-35814J0D01*
G01X705000Y2267308D01*
G03X684040Y2260534I0J-35814D01*
G03X675000Y2261908I-9039J-29040D01*
G01X657534Y2261908D01*
G03X626893Y2358526I-47534J38093D01*
G03X549479Y2293098I-16893J-58525D01*
G01X518289Y2261908D01*
G01X505001Y2261908D01*
G03X474587Y2231494I0J-30414D01*
G01X474587Y2101495D01*
G03X505001Y2071081I30414J0D01*
G01X575000Y2071081D01*
G03X590000Y2075037I0J30414D01*
G03X602086Y2071221I15000J26458D01*
G01X602086Y2050001D01*
G03X609184Y2027914I37914J0D01*
G01X495706Y2027914D01*
G01X337543Y2186077D01*
G01X379991Y2186077D01*
G03X410405Y2216491I0J30414D01*
G01X410405Y2306490D01*
G03X379991Y2336904I-30414J0D01*
G01X304989Y2336904D01*
G03X274576Y2306490I0J-30414D01*
G01X274576Y2249044D01*
G01X266811Y2256809D01*
G03X240414Y2267912I-26809J-26809D01*
G01X240414Y2280000D01*
G03X223962Y2307020I-30414J0D01*
G03X245814Y2340000I-13962J32980D01*
G01X245814Y2440000D01*
G03X210000Y2475814I-35814J0D01*
G01X136084Y2475814D01*
G01X143636Y2482229D01*
G01X201512Y2499840D01*
G01X274576Y2499840D01*
G01X274576Y2439000D01*
G03X304989Y2408586I30414J0D01*
G01X379991Y2408586D01*
G03X410405Y2439000I0J30414D01*
G01X410405Y2499840D01*
G01X869596Y2499840D01*
G01X869596Y2439000D01*
G03X900010Y2408586I30414J0D01*
G01X975011Y2408586D01*
G03X1005425Y2439000I0J30414D01*
G01X1005425Y2499840D01*
G01X1090013Y2499840D01*
G03X1065088Y2437503I65488J-62337D01*
G01X1065088Y2377503D01*
G03X1245915Y2377503I90414J0D01*
G01X1245915Y2437503D01*
G03X1220990Y2499840I-90414J0D01*
G01X1955010Y2499840D01*
G03X1930085Y2437503I65488J-62337D01*
G01X1930085Y2377503D01*
G03X2110912Y2377503I90414J0D01*
G01X2110912Y2437503D01*
G03X2085987Y2499840I-90414J0D01*
G01X2198243Y2499840D01*
G03X2156890Y2383186I59757J-86840D01*
G01X2114352Y2340648D01*
G03X2099586Y2305000I35648J-35648D01*
G01X2099586Y2064748D01*
G03X1935085Y2032488I-79087J-32260D01*
G01X1935085Y2023311D01*
G01X1880501Y2023311D01*
G03X1860847Y2017436I0J-35814D01*
G03X1855493Y2017911I-5354J-29939D01*
G01X1851734Y2017911D01*
G03X1842113Y2032114I-41733J-17910D01*
G01X1834807Y2039420D01*
G03X1835269Y2044700I-29952J5280D01*
G01X1835269Y2090948D01*
G03X1842720Y2182718I-35268J49051D01*
G01X1782719Y2242719D01*
G03X1740000Y2260414I-42719J-42719D01*
G01X1530828Y2260414D01*
G03X1488108Y2242719I0J-60414D01*
G01X1357282Y2111892D01*
G03X1339608Y2070757I42719J-42719D01*
G03X1334587Y2050001I40393J-20756D01*
G01X1334587Y2028812D01*
G01X1323686Y2017911D01*
G01X1320482Y2017911D01*
G03X1315148Y2017440I0J-30414D01*
G03X1295499Y2023311I-19649J-29943D01*
G01X1240915Y2023311D01*
G01X1240915Y2032488D01*
G03X1070088Y2032488I-85414J0D01*
G01X1070088Y1942488D01*
G03X1204984Y1872868I85414J0D01*
G03X1240498Y1841683I35514J4629D01*
G01X1295499Y1841683D01*
G03X1315148Y1847555I0J35814D01*
G03X1320482Y1847083I5334J29943D01*
G01X1370280Y1847083D01*
G01X1370280Y1770970D01*
G01X1339724Y1740414D01*
G01X1310000Y1740414D01*
G03X1279586Y1710000I0J-30414D01*
G01X1279586Y1650000D01*
G03X1283850Y1634470I30414J0D01*
G03X1274186Y1610000I26150J-24470D01*
G01X1274186Y1550000D01*
G03X1310000Y1514186I35814J0D01*
G01X1370000Y1514186D01*
G03X1405814Y1550000I0J35814D01*
G01X1405814Y1610000D01*
G03X1396150Y1634470I-35814J0D01*
G03X1400414Y1650000I-26150J15530D01*
G01X1400414Y1679724D01*
G01X1443539Y1722849D01*
G03X1456108Y1753194I-30345J30345D01*
G01X1456108Y1847083D01*
G01X1471396Y1847083D01*
G03X1482849Y1826462I41798J9723D01*
G01X1519655Y1789655D01*
G03X1550000Y1777086I30345J30345D01*
G01X1590000Y1777086D01*
G03X1620345Y1789655I0J42914D01*
G01X1643538Y1812849D01*
G03X1656108Y1843194I-30345J30345D01*
G01X1656108Y1847083D01*
G01X1670279Y1847083D01*
G01X1670279Y1820969D01*
G01X1575651Y1726340D01*
G03X1550000Y1740414I-25651J-16341D01*
G01X1490000Y1740414D01*
G03X1459586Y1710000I0J-30414D01*
G01X1459586Y1650000D01*
G03X1463849Y1634470I30414J0D01*
G03X1454186Y1610000I26150J-24470D01*
G01X1454186Y1550000D01*
G03X1490000Y1514186I35814J0D01*
G01X1550000Y1514186D01*
G03X1585814Y1550000I0J35814D01*
G01X1585814Y1610000D01*
G03X1576150Y1634470I-35814J0D01*
G03X1577536Y1637086I-26150J15530D01*
G01X1590000Y1637086D01*
G03X1620345Y1649655I0J42914D01*
G01X1643079Y1672389D01*
G01X1643079Y1598496D01*
G03X1644352Y1589790I30414J0D01*
G01X1544975Y1490414D01*
G01X1470000Y1490414D01*
G03X1454470Y1486150I0J-30414D01*
G03X1430000Y1495814I-24470J-26150D01*
G01X1370000Y1495814D01*
G03X1334186Y1460000I0J-35814D01*
G01X1334186Y1400000D01*
G03X1370000Y1364186I35814J0D01*
G01X1430000Y1364186D01*
G03X1439586Y1365492I0J35814D01*
G01X1439586Y1322092D01*
G03X1437087Y1310017I27915J-12074D01*
G01X1437087Y1190028D01*
G03X1449661Y1165395I30414J0D01*
G01X1350339Y1165395D01*
G03X1362913Y1190028I-17840J24632D01*
G01X1362913Y1310017D01*
G03X1332499Y1340431I-30414J0D01*
G01X1277508Y1340431D01*
G03X1247095Y1310017I0J-30414D01*
G01X1247095Y1292937D01*
G01X1207753Y1292937D01*
G01X1190414Y1310275D01*
G01X1190414Y1340000D01*
G03X1186151Y1355530I-30414J0D01*
G03X1195814Y1380000I-26150J24470D01*
G01X1195814Y1440000D01*
G03X1160000Y1475814I-35814J0D01*
G01X1100000Y1475814D01*
G03X1064186Y1440000I0J-35814D01*
G01X1064186Y1380000D01*
G03X1073850Y1355530I35814J0D01*
G03X1069586Y1340000I26150J-15530D01*
G01X1069586Y1280000D01*
G03X1100000Y1249586I30414J0D01*
G01X1129724Y1249586D01*
G01X1159632Y1219678D01*
G03X1189977Y1207109I30345J30345D01*
G01X1247095Y1207109D01*
G01X1247095Y1190028D01*
G03X1259669Y1165395I30414J0D01*
G01X1144981Y1165395D01*
G03X1102262Y1147701I0J-60414D01*
G01X1064975Y1110414D01*
G01X978082Y1110414D01*
G03X949507Y1130414I-28575J-10414D01*
G01X589507Y1130414D01*
G03X559093Y1100000I0J-30414D01*
G01X559093Y1000000D01*
G03X589507Y969586I30414J0D01*
G01X949507Y969586D01*
G03X978082Y989586I0J30414D01*
G01X1090000Y989586D01*
G03X1132719Y1007281I0J60414D01*
G01X1170006Y1044568D01*
G01X1247095Y1044568D01*
G01X1247095Y929983D01*
G03X1262090Y903767I30414J0D01*
G01X1262090Y902779D01*
G01X1239724Y880414D01*
G01X1210000Y880414D01*
G03X1190000Y872913I0J-30414D01*
G03X1170000Y880414I-20000J-22913D01*
G01X1110000Y880414D01*
G03X1079586Y850000I0J-30414D01*
G01X1079586Y790000D01*
G03X1110000Y759586I30414J0D01*
G01X1146795Y759586D01*
G01X1322086Y584295D01*
G01X1322086Y449544D01*
G03X1143640Y418914I-80086J-68544D01*
G01X1101000Y418914D01*
G03X1074191Y407809I0J-37914D01*
G01X946797Y280415D01*
G01X905000Y280415D01*
G03X874586Y250001I0J-30414D01*
G01X874586Y170001D01*
G03X882087Y150001I30414J0D01*
G03X874586Y130002I22913J-20000D01*
G01X874586Y50002D01*
G03X876222Y40160I30414J0D01*
G01X649435Y40160D01*
G03X650814Y50002I-34435J9842D01*
G01X650814Y130002D01*
G03X641151Y154472I-35814J0D01*
G03X645414Y170001I-26150J15530D01*
G01X645414Y250001D01*
G03X615000Y280415I-30414J0D01*
G01X565000Y280415D01*
G03X534586Y250001I0J-30414D01*
G01X534586Y170001D01*
G03X538850Y154472I30414J0D01*
G03X529186Y130002I26150J-24470D01*
G01X529186Y50002D01*
G03X530565Y40160I35814J0D01*
G01X201423Y40160D01*
G01X134079Y59401D01*
G01X87186Y87537D01*
G01X69051Y114739D01*
G01X58264Y142017D01*
G01X40160Y201511D01*
G01X40160Y509585D01*
G01X364493Y509585D01*
G03X394907Y539999I0J30414D01*
G01X394907Y689999D01*
G03X364493Y720413I-30414J0D01*
G01X40160Y720413D01*
G01X40160Y1179587D01*
G01X364493Y1179587D01*
G03X394907Y1210001I0J30414D01*
G01X394907Y1360000D01*
G03X364493Y1390414I-30414J0D01*
G01X40160Y1390414D01*
G01X40160Y1399606D01*
G01X41388Y1399582D01*
G01X241387Y1399582D01*
G03X271801Y1429996I0J30414D01*
G01X271801Y1549985D01*
G03X241387Y1580399I-30414J0D01*
G01X41388Y1580399D01*
G01X40160Y1580374D01*
G01X64586Y270000D02*
G03X475414Y270000I205414J0D01*
G03X64586Y270000I-205414J0D01*
G01X589507Y935814D02*
G03X553693Y900000I0J-35814D01*
G01X553693Y800000D01*
G03X589507Y764186I35814J0D01*
G01X949507Y764186D01*
G03X985321Y800000I0J35814D01*
G01X985321Y900000D01*
G03X949507Y935814I-35814J0D01*
G01X589507Y935814D01*
G01X805000Y244587D02*
G03X835414Y275001I0J30414D01*
G01X835414Y325001D01*
G03X805000Y355415I-30414J0D01*
G01X715000Y355415D01*
G03X684586Y325001I0J-30414D01*
G01X684586Y275001D01*
G03X715000Y244587I30414J0D01*
G01X805000Y244587D01*
G01X1005425Y2306490D02*
G03X975011Y2336904I-30414J0D01*
G01X900010Y2336904D01*
G03X869596Y2306490I0J-30414D01*
G01X869596Y2216491D01*
G03X900010Y2186077I30414J0D01*
G01X975011Y2186077D01*
G03X1005425Y2216491I0J30414D01*
G01X1005425Y2306490D01*
G01X612214Y1890015D02*
G01X612214Y1950010D01*
G01X612154Y1952086D01*
G01X774297Y1952086D01*
G01X812087Y1914296D01*
G01X812087Y1880879D01*
G03X775811Y1870415I-2086J-60878D01*
G01X606375Y1870415D01*
G03X612214Y1890015I-29975J19600D01*
G01X1124120Y40160D02*
G01X983777Y40160D01*
G03X985414Y50002I-28778J9842D01*
G01X985414Y130002D01*
G03X977913Y150001I-30414J0D01*
G03X985414Y170001I-22913J20000D01*
G01X985414Y211795D01*
G01X1116705Y343086D01*
G01X1143640Y343086D01*
G03X1164976Y309032I98360J37914D01*
G03X1142086Y202324I15024J-59032D01*
G01X1142086Y200414D01*
G01X1130000Y200414D01*
G03X1099586Y170000I0J-30414D01*
G01X1099586Y70000D01*
G03X1124120Y40160I30414J0D01*
G01X1764989Y1259581D02*
G03X1795014Y1285149I0J30414D01*
G03X1799655Y1279655I34986J24851D01*
G01X1854590Y1224721D01*
G01X1854590Y1194999D01*
G03X1885004Y1164585I30414J0D01*
G01X1887086Y1164585D01*
G01X1887086Y1090001D01*
G03X1899655Y1059656I42914J0D01*
G01X1909586Y1049725D01*
G01X1909586Y990000D01*
G03X1913850Y974471I30414J0D01*
G03X1904186Y950000I26150J-24470D01*
G01X1904186Y890000D01*
G03X1940000Y854186I35814J0D01*
G01X2000000Y854186D01*
G03X2035814Y890000I0J35814D01*
G01X2035814Y950000D01*
G03X2026150Y974471I-35814J0D01*
G03X2030414Y990000I-26150J15530D01*
G01X2030414Y1050000D01*
G03X2000277Y1080413I-30414J0D01*
G01X1972914Y1107776D01*
G01X1972914Y1164585D01*
G01X1974996Y1164585D01*
G03X2000265Y1178073I0J30414D01*
G03X2089892Y1136925I59735J11927D01*
G03X2089569Y1132499I30090J-4425D01*
G01X2089569Y1077508D01*
G03X2119983Y1047094I30414J0D01*
G01X2184268Y1047094D01*
G01X2274614Y956749D01*
G03X2270634Y947914I25387J-16749D01*
G01X2210915Y947914D01*
G03X2059586Y910000I-70915J-37914D01*
G03X2210915Y872086I80414J0D01*
G01X2270634Y872086D01*
G03X2300000Y849586I29366J7914D01*
G01X2360000Y849586D01*
G03X2380000Y857087I0J30414D01*
G03X2400000Y849586I20000J22913D01*
G01X2460000Y849586D01*
G03X2490414Y880000I0J30414D01*
G01X2490414Y886795D01*
G01X2509239Y905620D01*
G03X2608832Y863071I60756J4379D01*
G03X2630000Y854496I21168J21839D01*
G01X2730000Y854496D01*
G03X2760414Y884910I0J30414D01*
G01X2760414Y950950D01*
G03X2753709Y970000I-30414J0D01*
G03X2760414Y989050I-23709J19050D01*
G01X2760414Y1016809D01*
G01X2764586Y1012637D01*
G01X2764586Y842953D01*
G01X2717047Y795414D01*
G01X1920000Y795414D01*
G03X1880816Y779184I0J-55414D01*
G01X1710817Y609184D01*
G03X1694586Y570000I39184J-39184D01*
G01X1694586Y470674D01*
G03X1660326Y436414I55414J-89674D01*
G01X1585674Y436414D01*
G03X1397914Y419616I-89674J-55414D01*
G01X1397914Y600000D01*
G03X1386809Y626809I-37914J0D01*
G01X1254032Y759586D01*
G01X1270000Y759586D01*
G03X1300414Y790000I0J30414D01*
G01X1300414Y819724D01*
G01X1335349Y854659D01*
G03X1347918Y885004I-30345J30345D01*
G01X1347918Y903767D01*
G01X1348120Y903886D01*
G03X1372504Y894169I24494J26012D01*
G01X1427495Y894169D01*
G03X1451968Y903834I0J35814D01*
G03X1467500Y899569I15533J26149D01*
G01X1522491Y899569D01*
G03X1552905Y929983I0J30414D01*
G01X1552905Y962449D01*
G01X1610000Y1019543D01*
G01X1622262Y1007281D01*
G03X1664981Y989586I42719J42719D01*
G01X1679589Y989586D01*
G03X1683850Y974471I30411J414D01*
G03X1674186Y950000I26150J-24470D01*
G01X1674186Y890000D01*
G03X1710000Y854186I35814J0D01*
G01X1770000Y854186D01*
G03X1805814Y890000I0J35814D01*
G01X1805814Y950000D01*
G03X1796151Y974471I-35814J0D01*
G03X1800414Y990000I-26150J15530D01*
G01X1800414Y1050000D01*
G03X1740000Y1110414I-60414J0D01*
G01X1690006Y1110414D01*
G01X1670414Y1130006D01*
G01X1670414Y1194983D01*
G01X1735012Y1259581D01*
G01X1764989Y1259581D01*
G01X1690243Y40160D02*
G01X1395880Y40160D01*
G03X1420414Y70000I-5880J29840D01*
G01X1420414Y170000D01*
G03X1397914Y199366I-30414J0D01*
G01X1397914Y342384D01*
G03X1585674Y325586I98086J38616D01*
G01X1660326Y325586D01*
G03X1694586Y291326I89674J55414D01*
G01X1694586Y216674D01*
G03X1690243Y40160I55414J-89674D01*
G01X1935163Y40160D02*
G01X1809757Y40160D01*
G03X1805414Y216674I-59757J86840D01*
G01X1805414Y291326D01*
G03X1855414Y381000I-55414J89674D01*
G03X1805414Y470674I-105414J0D01*
G01X1805414Y547047D01*
G01X1942953Y684586D01*
G01X2740000Y684586D01*
G03X2779184Y700816I0J55414D01*
G01X2850453Y772086D01*
G01X3250154Y772086D01*
G01X3352086Y670153D01*
G01X3352086Y451814D01*
G03X3168586Y381000I-78086J-70814D01*
G03X3352086Y310186I105414J0D01*
G01X3352086Y255000D01*
G03X3366120Y221120I47914J0D01*
G01X3427726Y159514D01*
G03X3468243Y40160I100274J-32514D01*
G01X3342837Y40160D01*
G03X3274000Y237814I-68837J86840D01*
G03X3205163Y40160I0J-110814D01*
G01X3079757Y40160D01*
G03X3020000Y232414I-59757J86840D01*
G03X2960243Y40160I0J-105414D01*
G01X2825757Y40160D01*
G03X2766000Y232414I-59757J86840D01*
G03X2706243Y40160I0J-105414D01*
G01X2571757Y40160D01*
G03X2512000Y232414I-59757J86840D01*
G03X2452243Y40160I0J-105414D01*
G01X2317757Y40160D01*
G03X2258000Y232414I-59757J86840D01*
G03X2198243Y40160I0J-105414D01*
G01X2072837Y40160D01*
G03X2004000Y237814I-68837J86840D01*
G03X1935163Y40160I0J-110814D01*
G01X2114814Y381000D02*
G03X1893186Y381000I-110814J0D01*
G03X2114814Y381000I110814J0D01*
G01X2363414Y381000D02*
G03X2152586Y381000I-105414J0D01*
G03X2363414Y381000I105414J0D01*
G01X2617414Y381000D02*
G03X2406586Y381000I-105414J0D01*
G03X2617414Y381000I105414J0D01*
G01X2871414Y381000D02*
G03X2660586Y381000I-105414J0D01*
G03X2871414Y381000I105414J0D01*
G01X3125414Y381000D02*
G03X2914586Y381000I-105414J0D01*
G03X3125414Y381000I105414J0D01*
G01X1935503Y1841683D02*
G03X1971016Y1872868I0J35814D01*
G03X2099586Y1910229I49482J69620D01*
G01X2099586Y1890882D01*
G01X2009119Y1800415D01*
G01X1900001Y1800415D01*
G03X1888431Y1799069I0J-50414D01*
G01X1888406Y1840001D01*
G01X1888382Y1841683D01*
G01X1935503Y1841683D01*
G01X2353160Y2367650D02*
G03X2317757Y2499840I-95160J45350D01*
G01X2452243Y2499840D01*
G03X2512000Y2307586I59757J-86840D01*
G03X2571757Y2499840I0J105414D01*
G01X2706243Y2499840D01*
G03X2766000Y2307586I59757J-86840D01*
G03X2825757Y2499840I0J105414D01*
G01X2960243Y2499840D01*
G03X3020000Y2307586I59757J-86840D01*
G03X3079757Y2499840I0J105414D01*
G01X3214243Y2499840D01*
G03X3274000Y2307586I59757J-86840D01*
G03X3333757Y2499840I0J105414D01*
G01X3468243Y2499840D01*
G03X3528000Y2307586I59757J-86840D01*
G03X3587757Y2499840I0J105414D01*
G01X3722243Y2499840D01*
G03X3690006Y2361530I59757J-86840D01*
G03X3824742Y2316640I91994J51470D01*
G01X4008191Y2133191D01*
G03X4035000Y2122086I26809J26809D01*
G01X4414296Y2122086D01*
G01X4492086Y2044295D01*
G01X4492086Y2025814D01*
G01X4440000Y2025814D01*
G03X4415530Y2016150I0J-35814D01*
G03X4400000Y2020414I-15530J-26150D01*
G01X4340000Y2020414D01*
G03X4333213Y2019646I0J-30414D01*
G03X4226787Y2019646I-53213J-29646D01*
G03X4220000Y2020414I-6787J-29647D01*
G01X4160000Y2020414D01*
G03X4140000Y2012913I0J-30414D01*
G03X4120000Y2020414I-20000J-22913D01*
G01X4060000Y2020414D01*
G03X4030634Y1997914I0J-30414D01*
G01X3885705Y1997914D01*
G01X3716809Y2166809D01*
G03X3690000Y2177914I-26809J-26809D01*
G01X2715704Y2177914D01*
G01X2660521Y2233097D01*
G03X2556927Y2283073I-60521J6903D01*
G03X2606903Y2179479I43073J-43073D01*
G01X2673191Y2113191D01*
G03X2700000Y2102086I26809J26809D01*
G01X3674295Y2102086D01*
G01X3843191Y1933190D01*
G03X3870000Y1922086I26809J26809D01*
G01X4030634Y1922086D01*
G03X4060000Y1899586I29366J7914D01*
G01X4120000Y1899586D01*
G03X4140000Y1907087I0J30414D01*
G03X4160000Y1899586I20000J22913D01*
G01X4220000Y1899586D01*
G03X4249366Y1922086I0J30414D01*
G01X4310634Y1922086D01*
G03X4340000Y1899586I29366J7914D01*
G01X4400000Y1899586D01*
G03X4415530Y1903849I0J30414D01*
G03X4430726Y1895407I24470J26150D01*
G01X4299995Y1895407D01*
G03X4269581Y1864993I0J-30414D01*
G01X4269581Y1837914D01*
G01X4214578Y1837914D01*
G03X4190000Y1850414I-24578J-17914D01*
G01X4130000Y1850414D01*
G03X4099586Y1820000I0J-30414D01*
G01X4099586Y1760000D01*
G03X4103849Y1744471I30414J0D01*
G03X4094186Y1720000I26150J-24470D01*
G01X4094186Y1660000D01*
G03X4130000Y1624186I35814J0D01*
G01X4190000Y1624186D01*
G03X4225814Y1660000I0J35814D01*
G01X4225814Y1720000D01*
G03X4216150Y1744471I-35814J0D01*
G03X4220414Y1760000I-26150J15530D01*
G01X4220414Y1762086D01*
G01X4269721Y1762086D01*
G03X4299995Y1734579I30275J2907D01*
G01X4480005Y1734579D01*
G03X4510419Y1764993I0J30414D01*
G01X4510419Y1777079D01*
G01X4529302Y1777079D01*
G01X4613202Y1693180D01*
G03X4640011Y1682075I26809J26809D01*
G01X4650412Y1682075D01*
G03X4652071Y1679997I24580J17911D01*
G03X4650412Y1677919I22922J-19990D01*
G01X4560005Y1677919D01*
G03X4533195Y1666814I0J-37914D01*
G01X4502191Y1635810D01*
G03X4480005Y1645420I-22186J-20803D01*
G01X4299995Y1645420D01*
G03X4269581Y1615006I0J-30414D01*
G01X4269581Y1567914D01*
G01X4202075Y1567914D01*
G03X4190000Y1570414I-12075J-27914D01*
G01X4130000Y1570414D01*
G03X4099586Y1540000I0J-30414D01*
G01X4099586Y1480000D01*
G03X4103849Y1464470I30414J0D01*
G03X4094186Y1440000I26150J-24470D01*
G01X4094186Y1380000D01*
G01X4094190Y1379428D01*
G01X4033227Y1440391D01*
G03X3963620Y1528669I-53235J29606D01*
G03X3949778Y1417105I16372J-58672D01*
G03X3953183Y1413199I30214J22903D01*
G01X4073191Y1293191D01*
G03X4100000Y1282086I26809J26809D01*
G01X4214306Y1282086D01*
G03X4206686Y1260000I28193J-22086D01*
G01X4206686Y1165414D01*
G01X4025253Y1165414D01*
G01X3961484Y1229183D01*
G03X3922300Y1245414I-39184J-39184D01*
G01X3483425Y1245414D01*
G01X3483425Y1348591D01*
G01X3547010Y1348591D01*
G03X3577424Y1379005I0J30414D01*
G01X3577424Y1448529D01*
G03X3643629Y1449210I32576J51471D01*
G03X3670105Y1509895I-33629J50790D01*
G03X3689895Y1509895I9895J60105D01*
G03X3750000Y1439086I60105J-9895D01*
G03X3810105Y1509895I0J60914D01*
G03X3878496Y1553008I9895J60105D01*
G03X3945000Y1568945I21504J56992D01*
G03X4047034Y1588609I45000J41055D01*
G03X3983097Y1670522I-57034J21391D01*
G01X3917914Y1735704D01*
G01X3917914Y1790000D01*
G03X3906809Y1816809I-37914J0D01*
G01X3820522Y1903097D01*
G03X3716927Y1953073I-60521J6903D01*
G03X3766903Y1849479I43073J-43073D01*
G01X3842086Y1774296D01*
G01X3842086Y1720000D01*
G03X3853191Y1693191I37914J0D01*
G01X3879148Y1667234D01*
G03X3841504Y1626992I20852J-57234D01*
G03X3759895Y1560105I-21504J-56992D01*
G03X3740105Y1560105I-9895J-60105D01*
G03X3680000Y1630914I-60105J9895D01*
G03X3619895Y1560105I0J-60914D01*
G03X3582824Y1554516I-9895J-60105D01*
G01X3582824Y1579995D01*
G03X3571096Y1606500I-35814J0D01*
G03X3582824Y1633005I-24086J26505D01*
G01X3582824Y1706995D01*
G03X3566757Y1736873I-35814J0D01*
G03X3577424Y1760005I-19747J23132D01*
G01X3577424Y1833995D01*
G03X3566757Y1857127I-30414J0D01*
G03X3582824Y1887005I-19747J29878D01*
G01X3582824Y1960995D01*
G03X3547010Y1996809I-35814J0D01*
G01X3309012Y1996809D01*
G03X3273198Y1960995I0J-35814D01*
G01X3273198Y1887005D01*
G03X3289265Y1857127I35814J0D01*
G03X3278598Y1833995I19747J-23132D01*
G01X3278598Y1760005D01*
G03X3289265Y1736873I30414J0D01*
G03X3273198Y1706995I19747J-29878D01*
G01X3273198Y1633005D01*
G03X3284926Y1606500I35814J0D01*
G03X3273200Y1580421I24086J-26505D01*
G01X3216811Y1636810D01*
G03X3201402Y1646160I-26809J-26809D01*
G01X3201402Y1706995D01*
G03X3185905Y1733500I-30414J0D01*
G03X3201402Y1760005I-14916J26505D01*
G01X3201402Y1833995D01*
G03X3185905Y1860500I-30414J0D01*
G03X3201402Y1887005I-14916J26505D01*
G01X3201402Y1960995D01*
G03X3170988Y1991409I-30414J0D01*
G01X2932990Y1991409D01*
G03X2902576Y1960995I0J-30414D01*
G01X2902576Y1936195D01*
G01X2873191Y1906809D01*
G03X2862086Y1880000I26809J-26809D01*
G01X2862086Y1330339D01*
G03X2862331Y1326036I37914J0D01*
G01X2815414Y1372953D01*
G01X2815414Y1660000D01*
G03X2799184Y1699183I-55414J0D01*
G01X2720414Y1777953D01*
G01X2720414Y1827500D01*
G03X2696325Y1857249I-30414J0D01*
G03X2725814Y1892500I-6325J35251D01*
G01X2725814Y1987500D01*
G03X2690000Y2023314I-35814J0D01*
G01X2590000Y2023314D01*
G03X2554186Y1987500I0J-35814D01*
G01X2554186Y1892500D01*
G03X2583675Y1857249I35814J0D01*
G03X2559586Y1827500I6325J-29749D01*
G01X2559586Y1813246D01*
G03X2499537Y1812749I-29586J-53246D01*
G03X2500414Y1820000I-29537J7251D01*
G01X2500414Y1880000D01*
G03X2496150Y1895530I-30414J0D01*
G03X2505814Y1920000I-26150J24470D01*
G01X2505814Y1980000D01*
G03X2470000Y2015814I-35814J0D01*
G01X2410000Y2015814D01*
G03X2374186Y1980000I0J-35814D01*
G01X2374186Y1920000D01*
G03X2383849Y1895530I35814J0D01*
G03X2379586Y1880000I26150J-15530D01*
G01X2379586Y1820000D01*
G03X2384609Y1803258I30414J0D01*
G01X2384609Y1732905D01*
G01X2380028Y1732905D01*
G03X2349614Y1702491I0J-30414D01*
G01X2349614Y1647500D01*
G03X2380028Y1617086I30414J0D01*
G01X2500017Y1617086D01*
G03X2512083Y1619582I0J30414D01*
G01X2534996Y1619582D01*
G03X2559769Y1625428I0J55414D01*
G03X2595062Y1553314I80231J-5428D01*
G01X2590000Y1553314D01*
G03X2554186Y1517500I0J-35814D01*
G01X2554186Y1422500D01*
G03X2583675Y1387249I35814J0D01*
G03X2559586Y1357500I6325J-29749D01*
G01X2559586Y1355410D01*
G01X2440023Y1355410D01*
G03X2422808Y1352905I0J-60414D01*
G01X2380028Y1352905D01*
G03X2349614Y1322491I0J-30414D01*
G01X2349614Y1267500D01*
G03X2380028Y1237086I30414J0D01*
G01X2422808Y1237086D01*
G03X2440023Y1234582I17214J57909D01*
G01X2519851Y1234582D01*
G03X2509743Y1191040I50144J-34584D01*
G03X2532081Y1152321I60252J8958D01*
G01X2532081Y1112390D01*
G01X2530431Y1110741D01*
G01X2530431Y1132499D01*
G03X2500017Y1162913I-30414J0D01*
G01X2380028Y1162913D01*
G03X2349614Y1132499I0J-30414D01*
G01X2349614Y1077508D01*
G03X2351167Y1067914I30414J0D01*
G01X2345018Y1067914D01*
G03X2318209Y1056809I0J-37914D01*
G01X2300000Y1038600D01*
G01X2269267Y1069333D01*
G03X2270386Y1077508I-29295J8175D01*
G01X2270386Y1132499D01*
G03X2266121Y1148032I-30414J0D01*
G03X2275786Y1172504I-26149J24472D01*
G01X2275786Y1227495D01*
G03X2266121Y1251968I-35814J0D01*
G03X2270386Y1267500I-26149J15533D01*
G01X2270386Y1322491D01*
G03X2239972Y1352905I-30414J0D01*
G01X2228317Y1352905D01*
G03X2228317Y1427094I-48317J37095D01*
G01X2239972Y1427094D01*
G03X2270386Y1457508I0J30414D01*
G01X2270386Y1512499D01*
G03X2266121Y1528032I-30414J0D01*
G03X2275786Y1552504I-26149J24472D01*
G01X2275786Y1607495D01*
G03X2266121Y1631968I-35814J0D01*
G03X2270386Y1647500I-26149J15533D01*
G01X2270386Y1702491D01*
G03X2240391Y1732902I-30414J0D01*
G01X2240391Y1754953D01*
G01X2275024Y1789586D01*
G01X2280000Y1789586D01*
G03X2310414Y1820000I0J30414D01*
G01X2310414Y1880000D01*
G03X2306150Y1895530I-30414J0D01*
G03X2315814Y1920000I-26150J24470D01*
G01X2315814Y1980000D01*
G03X2280000Y2015814I-35814J0D01*
G01X2220000Y2015814D01*
G03X2200414Y2009984I0J-35814D01*
G01X2200414Y2284118D01*
G01X2228186Y2311890D01*
G03X2353160Y2367650I29814J101110D01*
G01X2380028Y1542913D02*
G03X2349614Y1512499I0J-30414D01*
G01X2349614Y1457508D01*
G03X2380028Y1427094I30414J0D01*
G01X2500017Y1427094D01*
G03X2530431Y1457508I0J30414D01*
G01X2530431Y1512499D01*
G03X2500017Y1542913I-30414J0D01*
G01X2380028Y1542913D01*
G01X3722243Y40160D02*
G01X3587757Y40160D01*
G03X3622544Y173622I-59757J86840D01*
G03X3495486Y227274I-94544J-46622D01*
G01X3447914Y274847D01*
G01X3447914Y312456D01*
G03X3633414Y381000I80086J68544D01*
G03X3447914Y449544I-105414J0D01*
G01X3447914Y690000D01*
G03X3433880Y723880I-47914J0D01*
G01X3303881Y853880D01*
G03X3270000Y867914I-33880J-33880D01*
G01X2875414Y867914D01*
G01X2875414Y1035591D01*
G03X2873717Y1049198I-55414J0D01*
G03X2930670Y1115377I-3723J60800D01*
G03X2940000Y1114586I9330J54623D01*
G01X2954674Y1114586D01*
G03X3010000Y1028186I55326J-25486D01*
G03X3065326Y1114586I0J60914D01*
G01X3370000Y1114586D01*
G03X3409183Y1130816I0J55414D01*
G01X3412953Y1134586D01*
G01X3558496Y1134586D01*
G03X3539086Y1090232I41504J-44586D01*
G03X3483751Y990358I-9086J-60232D01*
G03X3590914Y1029768I46249J39642D01*
G03X3609087Y1029768I9086J60232D01*
G03X3670000Y969086I60913J232D01*
G03X3730913Y1029768I0J60914D01*
G03X3749087Y1029768I9086J60232D01*
G03X3810000Y969086I60913J232D01*
G03X3870913Y1029768I0J60914D01*
G03X3940835Y1093098I9087J60232D01*
G01X3963116Y1070817D01*
G03X4002300Y1054587I39184J39184D01*
G01X4198490Y1054587D01*
G03X4198625Y965284I41501J-44589D01*
G03X4287668Y972084I41367J44714D01*
G01X4305423Y972084D01*
G03X4330000Y959586I24577J17916D01*
G01X4390000Y959586D01*
G03X4410000Y967087I0J30414D01*
G03X4422086Y960634I20000J22913D01*
G01X4422086Y960003D01*
G03X4433191Y933194I37914J0D01*
G01X4445970Y920414D01*
G01X4430000Y920414D01*
G03X4410000Y912913I0J-30414D01*
G03X4390000Y920414I-20000J-22913D01*
G01X4330000Y920414D01*
G03X4300634Y897914I0J-30414D01*
G01X4297676Y897914D01*
G03X4189086Y860000I-47676J-37914D01*
G03X4297676Y822086I60914J0D01*
G01X4300634Y822086D01*
G03X4330000Y799586I29366J7914D01*
G01X4390000Y799586D01*
G03X4410000Y807087I0J30414D01*
G03X4430000Y799586I20000J22913D01*
G01X4466795Y799586D01*
G01X4563865Y702516D01*
G01X4319602Y702516D01*
G03X4292793Y691412I0J-37914D01*
G01X4078742Y477360D01*
G03X3938610Y421340I-42742J-96360D01*
G03X3998086Y282640I97390J-40340D01*
G01X3998086Y225360D01*
G03X3976243Y40160I37914J-98360D01*
G01X3841757Y40160D01*
G03X3782000Y232414I-59757J86840D01*
G03X3722243Y40160I0J-105414D01*
G01X3887414Y381000D02*
G03X3676586Y381000I-105414J0D01*
G03X3887414Y381000I105414J0D01*
G01X4230243Y40160D02*
G01X4095757Y40160D01*
G03X4073914Y225360I-59757J86840D01*
G01X4073914Y282640D01*
G03X4132360Y423742I-37914J98360D01*
G01X4335307Y626688D01*
G01X4482070Y626688D01*
G01X4332742Y477360D01*
G03X4192610Y421340I-42742J-96360D01*
G03X4252086Y282640I97390J-40340D01*
G01X4252086Y225360D01*
G03X4230243Y40160I37914J-98360D01*
G01X4286809Y1323191D02*
G03X4297559Y1344826I-26809J26809D01*
G03X4330000Y1324186I32441J15173D01*
G01X4390000Y1324186D01*
G03X4394586Y1324481I0J35814D01*
G01X4394586Y1289366D01*
G03X4372751Y1266325I7914J-29366D01*
G03X4337500Y1295814I-35251J-6325D01*
G01X4259433Y1295814D01*
G01X4286809Y1323191D01*
G01X4484243Y40160D02*
G01X4349757Y40160D01*
G03X4327914Y225360I-59757J86840D01*
G01X4327914Y282640D01*
G03X4386360Y423742I-37914J98360D01*
G01X4529297Y566678D01*
G01X4730000Y566678D01*
G03X4756809Y577783I0J37914D01*
G01X4925392Y746366D01*
G03X4989437Y706945I57143J21100D01*
G01X5095068Y601314D01*
G01X4903402Y601314D01*
G03X4876593Y590209I0J-37914D01*
G01X4824298Y537914D01*
G01X4663000Y537914D01*
G03X4636191Y526809I0J-37914D01*
G01X4586742Y477360D01*
G03X4446610Y421340I-42742J-96360D01*
G03X4506086Y282640I97390J-40340D01*
G01X4506086Y225360D01*
G03X4484243Y40160I37914J-98360D01*
G01X4567914Y2060000D02*
G03X4556809Y2086809I-37914J0D01*
G01X4456809Y2186809D01*
G03X4453071Y2190086I-26809J-26809D01*
G01X4708615Y2190086D01*
G01X4758086Y2140615D01*
G01X4758086Y1927381D01*
G03X4734987Y1935826I-23099J-27369D01*
G01X4674993Y1935826D01*
G03X4639179Y1900012I0J-35814D01*
G01X4639179Y1860007D01*
G03X4639700Y1853918I35814J0D01*
G01X4567914Y1925704D01*
G01X4567914Y2060000D01*
G01X4557916Y859543D02*
G01X4557916Y900000D01*
G03X4546812Y926810I-37914J0D01*
G01X4508079Y965543D01*
G03X4520414Y990000I-18079J24458D01*
G01X4520414Y1044620D01*
G03X4576903Y1019479I49586J35380D01*
G01X4623190Y973192D01*
G03X4646905Y962213I26809J26809D01*
G03X4639179Y939993I28088J-22220D01*
G01X4639179Y899988D01*
G03X4674993Y864174I35814J0D01*
G01X4699154Y864174D01*
G01X4632894Y797914D01*
G01X4619545Y797914D01*
G01X4557916Y859543D01*
G01X5143994Y2361530D02*
G03X5111757Y2499840I-91994J51470D01*
G01X5246243Y2499840D01*
G03X5306000Y2307586I59757J-86840D01*
G03X5365757Y2499840I0J105414D01*
G01X5491163Y2499840D01*
G03X5560000Y2302186I68837J-86840D01*
G03X5628837Y2499840I0J110814D01*
G01X5799840Y2499840D01*
G01X5799840Y2213458D01*
G01X5664295Y2077914D01*
G01X5659366Y2077914D01*
G03X5630000Y2100414I-29366J-7913D01*
G01X5570000Y2100414D01*
G03X5550000Y2092913I0J-30414D01*
G03X5530000Y2100414I-20000J-22913D01*
G01X5470000Y2100414D01*
G03X5457914Y2097910I0J-30414D01*
G01X5457914Y2114296D01*
G01X5463097Y2119478D01*
G03X5513073Y2223073I6903J60521D01*
G03X5409478Y2173097I-43073J-43073D01*
G01X5393191Y2156809D01*
G03X5390699Y2154061I26809J-26809D01*
G03X5306370Y2141717I-35860J-49240D01*
G03X5316925Y2057145I48469J-36895D01*
G01X5316925Y2038434D01*
G03X5230490Y2025496I-36936J-48438D01*
G03X5137324Y2010603I-40500J-45500D01*
G03X5050815Y2043467I-57324J-20603D01*
G03X5018104Y2094043I-60815J-3467D01*
G03X4957914Y2091778I-28104J-54043D01*
G01X4957914Y2265296D01*
G01X5009258Y2316640D01*
G03X5143994Y2361530I42742J96360D01*
G01X5115000Y1643818D02*
G03X5186771Y1611440I55000J26182D01*
G03X5230522Y1676903I-16771J58560D01*
G01X5268404Y1714786D01*
G03X5284999Y1722097I-3408J30222D01*
G01X5285538Y1721637D01*
G03X5285963Y1637914I44462J-41637D01*
G01X5240000Y1637914D01*
G03X5213190Y1626809I0J-37914D01*
G01X5166903Y1580521D01*
G03X5116927Y1476927I-6903J-60521D01*
G03X5220522Y1526903I43073J43073D01*
G01X5255704Y1562086D01*
G01X5310431Y1562086D01*
G03X5312101Y1559995I24580J17911D01*
G03X5304598Y1539992I22911J-20002D01*
G01X5304598Y1499987D01*
G03X5312090Y1479997I30414J0D01*
G03X5304598Y1460007I22922J-19990D01*
G01X5304598Y1420125D01*
G03X5219996Y1404799I-34608J-50128D01*
G03X5111549Y1387147I-49996J-34799D01*
G03X5074566Y1425940I-58084J-18350D01*
G01X5076809Y1428184D01*
G03X5087914Y1454993I-26809J26809D01*
G01X5087914Y1580455D01*
G03X5076809Y1607264I-37914J0D01*
G01X5073477Y1610596D01*
G03X5115000Y1643818I-13477J59404D01*
G01X5246243Y40160D02*
G01X5111757Y40160D01*
G03X5089914Y225360I-59757J86840D01*
G01X5089914Y282640D01*
G03X5139473Y439827I-37914J98360D01*
G03X5183427Y470742I-9473J60173D01*
G03X5275208Y469171I46576J39258D01*
G03X5264332Y560319I-45205J40829D01*
G03X5269437Y561949I-6665J29675D01*
G01X5398195Y433191D01*
G03X5425004Y422086I26809J26809D01*
G01X5625963Y422086D01*
G03X5615440Y352913I44037J-42086D01*
G03X5676903Y319479I54560J27087D01*
G01X5763191Y233191D01*
G03X5790000Y222086I26809J26809D01*
G01X5799840Y222086D01*
G01X5799840Y44208D01*
G01X5795792Y40160D01*
G01X5628837Y40160D01*
G03X5560000Y237814I-68837J86840D01*
G03X5491163Y40160I0J-110814D01*
G01X5365757Y40160D01*
G03X5306000Y232414I-59757J86840D01*
G03X5246243Y40160I0J-105414D01*
G01X5416652Y875756D02*
G03X5424991Y874591I8339J29248D01*
G01X5464996Y874591D01*
G03X5484925Y882029I0J30414D01*
G03X5524358Y874812I30073J52973D01*
G03X5538078Y805795I55631J-24813D01*
G01X5483888Y805795D01*
G03X5476812Y815597I-33885J-17007D01*
G01X5416652Y875756D01*
G01X5518451Y1307106D02*
G03X5425420Y1340152I-58462J-17109D01*
G01X5425420Y1379997D01*
G03X5417917Y1400000I-30414J0D01*
G03X5425420Y1420002I-22911J20003D01*
G01X5425420Y1421802D01*
G01X5526809Y1523191D01*
G01X5527095Y1523479D01*
G01X5527095Y1079572D01*
G03X5525004Y1077903I17911J-24580D01*
G03X5522913Y1079572I-20002J-22911D01*
G01X5522913Y1085001D01*
G03X5520011Y1099549I-37914J0D01*
G03X5505943Y1149997I-60011J10451D01*
G03X5457914Y1170878I-45943J-39996D01*
G01X5457914Y1229119D01*
G03X5518451Y1307106I2075J60879D01*
G01X5582721Y640032D02*
G01X5582721Y645536D01*
G03X5669927Y689079I27279J54465D01*
G03X5713352Y685432I26473J54861D01*
G03X5742939Y528914I82648J-65432D01*
G01X5510893Y528914D01*
G03X5503238Y559580I-60904J1085D01*
G01X5552307Y559580D01*
G03X5582721Y589994I0J30414D01*
G01X5582721Y619994D01*
G03X5581024Y630013I-30414J0D01*
G03X5582721Y640032I-28716J10019D01*
G01X5775003Y1799186D02*
G01X5799840Y1799186D01*
G01X5799840Y1640160D01*
G01X5690000Y1640160D01*
G03X5679840Y1630000I0J-10160D01*
G01X5679840Y1470000D01*
G03X5690000Y1459840I10160J0D01*
G01X5799840Y1459840D01*
G01X5799840Y1000814D01*
G01X5775420Y1000814D01*
G01X5775420Y1054992D01*
G03X5745006Y1085406I-30414J0D01*
G01X5705001Y1085406D01*
G03X5684998Y1077903I0J-30414D01*
G03X5682907Y1079572I-20002J-22911D01*
G01X5682907Y1109829D01*
G03X5674286Y1181810I-52918J30168D01*
G03X5602923Y1194568I-44297J-41812D01*
G01X5602923Y1545991D01*
G03X5591818Y1572800I-37914J0D01*
G01X5568914Y1595704D01*
G01X5568914Y1718437D01*
G03X5618726Y1804586I-5514J60664D01*
G01X5624991Y1804586D01*
G03X5640523Y1808852I0J30414D01*
G03X5664996Y1799186I24472J26149D01*
G01X5705001Y1799186D01*
G03X5740002Y1827414I0J35814D01*
G03X5775003Y1799186I35001J7587D01*
G01X5706809Y2013191D02*
G01X5799840Y2106222D01*
G01X5799840Y1930809D01*
G01X5775003Y1930809D01*
G03X5740002Y1902582I0J-35814D01*
G03X5705001Y1930809I-35001J-7587D01*
G01X5664996Y1930809D01*
G03X5642902Y1923182I0J-35814D01*
G01X5642902Y1935012D01*
G03X5631797Y1961821I-37914J0D01*
G01X5614032Y1979586D01*
G01X5630000Y1979586D01*
G03X5659366Y2002086I0J30414D01*
G01X5680000Y2002086D01*
G03X5706809Y2013191I0J37914D01*
G01X5775003Y869191D02*
G01X5799840Y869191D01*
G01X5799840Y788083D01*
G01X5795874Y788083D01*
G01X5754514Y829444D01*
G01X5754514Y850816D01*
G03X5762945Y871282I-29313J24046D01*
G03X5775003Y869191I12058J33723D01*
G54D11*
G01X2239718Y1200000D02*
G01X2265626Y1200000D01*
G01X1908002Y1877751D02*
G01X1908002Y1851843D01*
G01X1908002Y1987243D02*
G01X1908002Y2013151D01*
G01X2590254Y1940000D02*
G01X2564346Y1940000D01*
G01X2689746Y1940000D02*
G01X2715654Y1940000D01*
G01X2640000Y1987246D02*
G01X2640000Y2013154D01*
G01X2279746Y1950000D02*
G01X2305654Y1950000D01*
G01X2250000Y1979746D02*
G01X2250000Y2005654D01*
G01X2469746Y1950000D02*
G01X2495654Y1950000D01*
G01X2410254Y1950000D02*
G01X2384346Y1950000D01*
G01X2440000Y1979746D02*
G01X2440000Y2005654D01*
G01X2590254Y1470000D02*
G01X2564346Y1470000D01*
G01X2239718Y1580000D02*
G01X2265626Y1580000D01*
G01X1999746Y920000D02*
G01X2025654Y920000D01*
G01X1940254Y920000D02*
G01X1914346Y920000D01*
G01X1970000Y890254D02*
G01X1970000Y864346D01*
G01X3309266Y1670000D02*
G01X3283358Y1670000D01*
G01X3546756Y1670000D02*
G01X3572664Y1670000D01*
G01X4189746Y1690000D02*
G01X4215654Y1690000D01*
G01X4130254Y1690000D02*
G01X4104346Y1690000D01*
G01X4160000Y1660254D02*
G01X4160000Y1634346D01*
G01X4130254Y1410000D02*
G01X4104346Y1410000D01*
G01X4290000Y1259746D02*
G01X4290000Y1285654D01*
G01X4242754Y1210000D02*
G01X4216846Y1210000D01*
G01X3428011Y1960741D02*
G01X3428011Y1986649D01*
G01X3309266Y1924000D02*
G01X3283358Y1924000D01*
G01X3546756Y1924000D02*
G01X3572664Y1924000D01*
G01X4675247Y1880009D02*
G01X4649339Y1880009D01*
G01X4704990Y1899758D02*
G01X4704990Y1925666D01*
G01X4470000Y1989746D02*
G01X4470000Y2015654D01*
G01X4360000Y1360254D02*
G01X4360000Y1334346D01*
G01X4675247Y919991D02*
G01X4649339Y919991D01*
G01X774746Y2166495D02*
G01X800654Y2166495D01*
G01X740000Y2231240D02*
G01X740000Y2257148D01*
G01X769507Y899746D02*
G01X769507Y925654D01*
G01X769507Y800254D02*
G01X769507Y774346D01*
G01X949253Y850000D02*
G01X975161Y850000D01*
G01X589761Y850000D02*
G01X563853Y850000D01*
G01X1369746Y1580000D02*
G01X1395654Y1580000D01*
G01X1310254Y1580000D02*
G01X1284346Y1580000D01*
G01X1340000Y1550254D02*
G01X1340000Y1524346D01*
G01X565254Y90002D02*
G01X539346Y90002D01*
G01X614746Y90002D02*
G01X640654Y90002D01*
G01X576146Y1920012D02*
G01X602054Y1920012D01*
G01X441653Y1920012D02*
G01X415745Y1920012D01*
G01X1267998Y1877751D02*
G01X1267998Y1851843D01*
G01X1267998Y1987243D02*
G01X1267998Y2013151D01*
G01X1100254Y1410000D02*
G01X1074346Y1410000D01*
G01X1159746Y1410000D02*
G01X1185654Y1410000D01*
G01X1130000Y1439746D02*
G01X1130000Y1465654D01*
G01X1400000Y930237D02*
G01X1400000Y904329D01*
G01X1400000Y1459746D02*
G01X1400000Y1485654D01*
G01X1400000Y1400254D02*
G01X1400000Y1374346D01*
G01X1370254Y1430000D02*
G01X1344346Y1430000D01*
G01X1549746Y1580000D02*
G01X1575654Y1580000D01*
G01X1490254Y1580000D02*
G01X1464346Y1580000D01*
G01X1520000Y1550254D02*
G01X1520000Y1524346D01*
G01X1710254Y920000D02*
G01X1684346Y920000D01*
G01X1769746Y920000D02*
G01X1795654Y920000D01*
G01X1740000Y890254D02*
G01X1740000Y864346D01*
G01X110254Y2390000D02*
G01X84346Y2390000D01*
G01X209746Y2390000D02*
G01X235654Y2390000D01*
G01X160000Y2439746D02*
G01X160000Y2465654D01*
G01X5517307Y769727D02*
G01X5517307Y795635D01*
G01X5795006Y905259D02*
G01X5795006Y879351D01*
G01X5795006Y964746D02*
G01X5795006Y990654D01*
G01X5684998Y1835254D02*
G01X5684998Y1809346D01*
G01X5684998Y1894741D02*
G01X5684998Y1920649D01*
G01X5795006Y1894741D02*
G01X5795006Y1920649D01*
G01X5795006Y1835254D02*
G01X5795006Y1809346D01*
G01X2078746Y381000D02*
G01X2104654Y381000D01*
G01X1929254Y381000D02*
G01X1903346Y381000D01*
G01X2004000Y306254D02*
G01X2004000Y280346D01*
G01X2004000Y455746D02*
G01X2004000Y481654D01*
G01X2078746Y127000D02*
G01X2104654Y127000D01*
G01X1929254Y127000D02*
G01X1903346Y127000D01*
G01X2004000Y201746D02*
G01X2004000Y227654D01*
G01X3348746Y127000D02*
G01X3374654Y127000D01*
G01X3199254Y127000D02*
G01X3173346Y127000D01*
G01X3274000Y201746D02*
G01X3274000Y227654D01*
G01X5560000Y2338254D02*
G01X5560000Y2312346D01*
G01X5485254Y2413000D02*
G01X5459346Y2413000D01*
G01X5634746Y2413000D02*
G01X5660654Y2413000D01*
G01X5634746Y127000D02*
G01X5660654Y127000D01*
G01X5485254Y127000D02*
G01X5459346Y127000D01*
G01X5560000Y201746D02*
G01X5560000Y227654D01*
G04 Copper End*

G04 PolygonModel Start*
G36*
G01X1664173Y2107727D02*
G01X1727200Y2044700D01*
G01X1804855Y2044700D01*
G01X1804855Y2111800D01*
G01X1732255Y2184400D01*
G01X1663700Y2184400D01*
G01X1663227Y2134073D01*
G01X1664173Y2107727D01*
G37*

G04 Rect Start*
G36*
G01X1050000Y1640000D02*
G01X1050000Y1620000D01*
G01X1011500Y1620000D01*
G01X1011500Y1640000D01*
G01X1050000Y1640000D01*
G37*
G36*
G01X2670000Y990000D02*
G01X2690000Y990000D01*
G01X2690000Y951500D01*
G01X2670000Y951500D01*
G01X2670000Y990000D01*
G37*
G04 Rect End*

G04 Pad Start*
G54D12*
G01X6530000Y2270000D03*
G54D13*
G01X6530000Y270000D03*
G01X270000Y270000D03*
G54D14*
G01X4360000Y860000D03*
G01X4460000Y860000D03*
G01X4360000Y1020000D03*
G01X4460000Y1020000D03*
G54D16*
G01X3782000Y2413000D03*
G01X3528000Y2413000D03*
G01X4036000Y2413000D03*
G01X4290000Y2413000D03*
G01X4544000Y2413000D03*
G01X4798000Y2413000D03*
G01X5306000Y2413000D03*
G01X5052000Y2413000D03*
G01X3020000Y2413000D03*
G01X3274000Y2413000D03*
G01X2766000Y2413000D03*
G01X2512000Y2413000D03*
G01X2258000Y2413000D03*
G01X5560000Y2413000D03*
G01X1242000Y381000D03*
G01X1496000Y381000D03*
G01X3782000Y381000D03*
G01X3528000Y381000D03*
G01X4036000Y381000D03*
G01X4290000Y381000D03*
G01X4544000Y381000D03*
G01X4798000Y381000D03*
G01X5052000Y381000D03*
G01X3274000Y381000D03*
G01X3274000Y127000D03*
G01X5052000Y127000D03*
G01X5306000Y127000D03*
G01X4798000Y127000D03*
G01X4544000Y127000D03*
G01X4290000Y127000D03*
G01X4036000Y127000D03*
G01X5560000Y127000D03*
G01X3528000Y127000D03*
G01X3782000Y127000D03*
G01X3020000Y381000D03*
G01X2766000Y381000D03*
G01X2512000Y381000D03*
G01X2258000Y381000D03*
G01X2004000Y381000D03*
G01X1750000Y381000D03*
G01X1750000Y127000D03*
G01X2004000Y127000D03*
G01X2258000Y127000D03*
G01X2512000Y127000D03*
G01X2766000Y127000D03*
G01X3020000Y127000D03*
G54D17*
G01X5795006Y1864998D03*
G01X5604988Y1864998D03*
G01X5444994Y1864998D03*
G01X5404989Y1775006D03*
G01X5325004Y1775006D03*
G01X5244994Y1775006D03*
G01X5204989Y1864998D03*
G01X5165009Y1775006D03*
G01X5125004Y1864998D03*
G01X5084999Y1775006D03*
G01X5044994Y1864998D03*
G01X5284999Y1864998D03*
G54D18*
G01X4704990Y1880009D03*
G54D19*
G01X5365009Y1864998D03*
G54D18*
G01X4704990Y1799999D03*
G54D19*
G01X5684998Y1864998D03*
G54D18*
G01X4704990Y1719989D03*
G54D20*
G01X4704990Y1640005D03*
G01X4704990Y1559995D03*
G01X4704990Y1480010D03*
G01X4704990Y1400000D03*
G01X4704990Y1319990D03*
G01X4704990Y1240005D03*
G54D18*
G01X4795008Y1519990D03*
G01X4795008Y1440005D03*
G01X4795008Y1359995D03*
G01X4795008Y1280010D03*
G01X4795008Y1200000D03*
G01X4704990Y1000001D03*
G54D20*
G01X4704990Y1159995D03*
G54D18*
G01X4704990Y1080011D03*
G01X4704990Y919991D03*
G54D19*
G01X4804990Y935002D03*
G01X4885000Y935002D03*
G01X4965010Y935002D03*
G01X5004989Y1024994D03*
G01X5084999Y1024994D03*
G01X5044994Y935002D03*
G01X4925005Y1024994D03*
G54D18*
G01X4795008Y1600000D03*
G54D19*
G01X5125004Y935002D03*
G01X5165009Y1024994D03*
G01X5244994Y1024994D03*
G01X5284999Y935002D03*
G01X5325004Y1024994D03*
G01X5365009Y935002D03*
G01X5404989Y1024994D03*
G01X5444994Y935002D03*
G01X5484999Y1024994D03*
G01X5565009Y1024994D03*
G01X5604988Y935002D03*
G01X5644993Y1024994D03*
G01X5684998Y935002D03*
G01X5725003Y1024994D03*
G01X5795006Y935002D03*
G54D18*
G01X5365009Y1600000D03*
G01X5365009Y1519990D03*
G01X5365009Y1440005D03*
G01X5365009Y1359995D03*
G01X5365009Y1280010D03*
G01X5365009Y1200000D03*
G54D21*
G01X6320000Y1270000D03*
G54D16*
G01X5796000Y620000D03*
G01X6050000Y620000D03*
G54D22*
G01X4160000Y1410000D03*
G01X4160000Y1510000D03*
G01X4160000Y1690000D03*
G01X4160000Y1790000D03*
G54D21*
G01X2140000Y910000D03*
G01X2040000Y1520000D03*
G01X2640000Y1620000D03*
G54D23*
G01X977930Y1630000D03*
G01X1082070Y1630000D03*
G54D24*
G01X2680000Y917930D03*
G01X2680000Y1022070D03*
G54D25*
G01X1908002Y1932497D03*
G01X1827992Y1932497D03*
G54D26*
G01X1762993Y1932497D03*
G01X1712981Y1932497D03*
G01X1662994Y1932497D03*
G01X1613006Y1932497D03*
G01X1562994Y1932497D03*
G01X1513007Y1932497D03*
G01X1462994Y1932497D03*
G01X1412981Y1932497D03*
G54D25*
G01X1347983Y1932497D03*
G01X1267998Y1932497D03*
G54D27*
G01X2020499Y1987488D03*
G01X1155502Y1987488D03*
G54D28*
G01X2020499Y2407503D03*
G01X1155502Y2407503D03*
G54D29*
G01X740000Y2166495D03*
G01X640000Y2166495D03*
G01X540000Y2166495D03*
G54D30*
G01X342490Y2261491D03*
G54D31*
G01X342490Y2474000D03*
G01X937510Y2474000D03*
G54D30*
G01X937510Y2261491D03*
G54D32*
G01X960000Y1450001D03*
G01X860001Y1450001D03*
G54D33*
G01X769507Y1050000D03*
G01X769507Y850000D03*
G54D34*
G01X200493Y614999D03*
G01X200493Y1285000D03*
G54D35*
G01X141387Y2050010D03*
G54D36*
G01X508900Y1920012D03*
G01X508900Y1820013D03*
G01X508900Y1719987D03*
G01X508900Y1619988D03*
G54D35*
G01X141387Y1489990D03*
G54D37*
G01X6647500Y1967500D03*
G01X6647500Y1552500D03*
G01X6432500Y1967500D03*
G01X6432500Y1552500D03*
G01X6647500Y987500D03*
G01X6647500Y572500D03*
G01X6432500Y987500D03*
G01X6432500Y572500D03*
G54D32*
G01X1500000Y1430000D03*
G01X1400000Y1430000D03*
G54D22*
G01X1340000Y1580000D03*
G01X1340000Y1680000D03*
G01X1520000Y1580000D03*
G01X1520000Y1680000D03*
G54D38*
G01X1305004Y989977D03*
G01X1400000Y989977D03*
G01X1494996Y989977D03*
G01X1494996Y1250023D03*
G01X1305004Y1250023D03*
G54D39*
G01X1130000Y1410000D03*
G01X1130000Y1310000D03*
G01X1740000Y1020000D03*
G01X1740000Y920000D03*
G54D40*
G01X1935011Y1640000D03*
G01X1704989Y1640000D03*
G54D22*
G01X2440000Y1850000D03*
G01X2440000Y1950000D03*
G01X2250000Y1850000D03*
G01X2250000Y1950000D03*
G54D41*
G01X2640000Y1940000D03*
G54D42*
G01X2640000Y1780000D03*
G54D41*
G01X2640000Y1470000D03*
G54D42*
G01X2640000Y1310000D03*
G54D43*
G01X2179977Y1674996D03*
G01X2179977Y1580000D03*
G01X2179977Y1485004D03*
G01X2440023Y1485004D03*
G01X2440023Y1674996D03*
G01X2179977Y1294996D03*
G01X2179977Y1200000D03*
G01X2179977Y1105004D03*
G01X2440023Y1105004D03*
G01X2440023Y1294996D03*
G54D44*
G01X5517307Y604994D03*
G01X5517307Y655032D03*
G01X5517307Y705019D03*
G01X5517307Y754981D03*
G01X5222667Y754981D03*
G01X5222667Y705019D03*
G01X5222667Y655032D03*
G01X5222667Y604994D03*
G54D45*
G01X5369987Y680000D03*
G54D46*
G01X4290000Y1210000D03*
G54D47*
G01X4450000Y1210000D03*
G54D48*
G01X1930000Y1235004D03*
G01X1719992Y1330000D03*
G01X1930000Y1424996D03*
G54D14*
G01X6490000Y1130000D03*
G01X6590000Y1130000D03*
G54D32*
G01X4460000Y1390000D03*
G01X4360000Y1390000D03*
G54D49*
G01X4390000Y1814993D03*
G01X4390000Y1565007D03*
G54D50*
G01X6631491Y1384991D03*
G01X6631491Y1275009D03*
G01X6448509Y1275009D03*
G01X6448509Y1384991D03*
G54D51*
G01X6130000Y287000D03*
G01X6130000Y127000D03*
G54D52*
G01X160000Y2230000D03*
G01X160000Y2390000D03*
G54D32*
G01X4190000Y1960000D03*
G01X4090000Y1960000D03*
G01X4470000Y1960000D03*
G01X4370000Y1960000D03*
G54D53*
G01X3051989Y1543000D03*
G01X3428011Y1543000D03*
G01X3051989Y1416000D03*
G01X3428011Y1416000D03*
G01X3051989Y1924000D03*
G01X3428011Y1924000D03*
G01X3051989Y1797000D03*
G01X3428011Y1797000D03*
G01X3051989Y1670000D03*
G01X3428011Y1670000D03*
G54D54*
G01X1180000Y120000D03*
G01X1340000Y120000D03*
G54D14*
G01X5500000Y2040000D03*
G01X5600000Y2040000D03*
G54D39*
G01X5950000Y260000D03*
G01X5950000Y160000D03*
G54D55*
G01X590000Y90002D03*
G01X930000Y90002D03*
G01X930000Y210001D03*
G54D56*
G01X760000Y300001D03*
G54D57*
G01X590000Y210001D03*
G54D22*
G01X1970000Y920000D03*
G01X1970000Y1020000D03*
G01X940000Y1890001D03*
G01X940000Y1990001D03*
G54D14*
G01X2330000Y910000D03*
G01X2430000Y910000D03*
G54D52*
G01X6130000Y2253000D03*
G01X6130000Y2413000D03*
G54D32*
G01X1240000Y820000D03*
G01X1140000Y820000D03*
G04 Pad End*

G04 Via Start*
G54D58*
G01X4600000Y860000D03*
G01X1080001Y2210001D03*
G01X1040000Y1990000D03*
G01X6330000Y2040000D03*
G01X6450000Y840000D03*
G01X3610000Y1500000D03*
G01X3680000Y1570000D03*
G01X3750000Y1500000D03*
G01X3900000Y1610000D03*
G01X3820000Y1570000D03*
G01X5340000Y2260000D03*
G01X3150000Y560000D03*
G01X3660000Y2260000D03*
G01X3150000Y2060000D03*
G01X4380000Y1690000D03*
G01X4030000Y1750000D03*
G01X3610000Y2020000D03*
G01X3970000Y790000D03*
G01X3560000Y820000D03*
G01X4130000Y790000D03*
G01X5610000Y700000D03*
G01X5490000Y330000D03*
G01X5650000Y1290000D03*
G01X2810000Y1970000D03*
G01X2310000Y1580000D03*
G01X1670000Y780000D03*
G01X1850000Y820000D03*
G01X2440000Y1200000D03*
G01X2180000Y1390000D03*
G01X3810000Y1030000D03*
G01X3740000Y1090000D03*
G01X3670000Y1030000D03*
G01X3530000Y1030000D03*
G01X3600000Y1090000D03*
G01X2500000Y1580000D03*
G01X640000Y2410001D03*
G01X780000Y1910001D03*
G01X620000Y1230000D03*
G01X910000Y1280001D03*
G01X800000Y460000D03*
G01X1070000Y600000D03*
G01X1170000Y950000D03*
G01X1420000Y850000D03*
G01X1340000Y780000D03*
G01X2530000Y1760000D03*
G01X1199998Y1729997D03*
G01X5354839Y2104821D03*
G01X5189990Y1979996D03*
G01X5563400Y1779101D03*
G01X5509989Y1939996D03*
G01X5449989Y529999D03*
G01X5325004Y1105004D03*
G01X5579989Y849998D03*
G01X5514998Y935002D03*
G01X4680000Y1960000D03*
G01X5650000Y1470000D03*
G01X5770000Y1770000D03*
G01X4982534Y767466D03*
G01X5770000Y1990000D03*
G01X5630000Y1650000D03*
G01X5770000Y1300000D03*
G01X5770000Y1140000D03*
G01X5780000Y840000D03*
G54D59*
G01X4580010Y1319990D03*
G54D58*
G01X5650003Y570000D03*
G01X4239992Y1009998D03*
G01X4580000Y950000D03*
G01X4570000Y1080000D03*
G01X1600000Y2110000D03*
G01X1519997Y2059996D03*
G01X4250000Y860000D03*
G01X1820000Y1580000D03*
G01X1710000Y1440000D03*
G01X810000Y1820001D03*
G54D59*
G01X4889990Y1519990D03*
G54D58*
G01X5629989Y1139998D03*
G01X5460000Y1110000D03*
G01X5459989Y1289997D03*
G01X5130000Y500000D03*
G01X5230003Y510000D03*
G01X1700000Y2130000D03*
G01X1750000Y2080000D03*
G01X3219994Y1259997D03*
G01X3319993Y1289997D03*
G01X4849103Y1020899D03*
G01X4920000Y1140000D03*
G01X4569991Y1409997D03*
G01X730000Y1370000D03*
G01X4580000Y1560000D03*
G01X610000Y1440000D03*
G01X2569995Y909998D03*
G01X1180000Y250000D03*
G01X1579997Y1329997D03*
G01X3060000Y1260000D03*
G01X2955169Y1275169D03*
G01X2760000Y1210000D03*
G01X2060000Y1190000D03*
G01X610000Y2300001D03*
G01X3979992Y1469997D03*
G01X2869994Y1109998D03*
G01X3010000Y1089100D03*
G01X2569995Y1199998D03*
G01X5269989Y1179998D03*
G01X5189990Y1119998D03*
G01X5043628Y828560D03*
G01X5053465Y1368797D03*
G01X5170000Y1370000D03*
G01X5269989Y1369997D03*
G01X5670000Y380000D03*
G01X5430000Y1680000D03*
G01X5330000Y1680000D03*
G01X4280000Y1990000D03*
G01X5470000Y2180000D03*
G01X5279989Y1989996D03*
G01X4990000Y2040000D03*
G01X5080000Y1990000D03*
G01X4990000Y1750000D03*
G01X5160000Y1520000D03*
G01X5060000Y1670000D03*
G01X5170000Y1670000D03*
G01X3880000Y1090000D03*
G01X3990000Y1610000D03*
G01X3760000Y1910000D03*
G01X2250000Y2060000D03*
G01X2600000Y2240000D03*
G01X5780000Y2240000D03*
G01X5780003Y2470001D03*
G01X5760003Y80000D03*
G01X5320003Y440000D03*
G01X4360000Y560000D03*
G01X2910000Y240000D03*
G01X3420000Y820000D03*
G01X2470000Y1390000D03*
G01X140000Y1860000D03*
G01X140000Y1680000D03*
G01X340000Y1990000D03*
G01X340000Y1780000D03*
G01X340000Y1550000D03*
G01X1310001Y2140001D03*
G01X1230000Y1530000D03*
G01X1050000Y1770000D03*
G01X1300000Y2450000D03*
G01X1600000Y2450000D03*
G01X1880000Y2450000D03*
G01X1860001Y2240001D03*
G01X1440001Y2380001D03*
G01X1740001Y2380001D03*
G01X350000Y1090000D03*
G01X350000Y830000D03*
G01X120000Y830000D03*
G01X120000Y1090000D03*
G01X560000Y650000D03*
G01X860000Y650000D03*
G01X90000Y460000D03*
G01X470000Y90000D03*
G01X490000Y440000D03*
G01X1520000Y140000D03*
G01X5696400Y743940D03*
G01X5770000Y1430000D03*
G01X5770000Y1670000D03*
G01X5660000Y1770000D03*
G01X4600000Y1960000D03*
G01X5690000Y1970000D03*
G01X4410000Y770000D03*
G01X770000Y90000D03*
G01X1040000Y90000D03*
G01X1970001Y1830001D03*
G54D59*
G01X5490003Y840000D03*
G54D58*
G01X5270003Y1490001D03*
G01X1340000Y1816677D03*
G01X5500003Y1450001D03*
G01X4810003Y570000D03*
G04 Via End*

G04 Track Start*
G54D60*
G01X2300000Y984982D02*
G01X2330000Y954981D01*
G01X2179977Y1105004D02*
G01X2300000Y984982D01*
G01X2345018Y1030000D01*
G01X2330000Y910000D02*
G01X2330000Y954981D01*
G01X2572901Y1022900D02*
G01X2680000Y1022900D01*
G01X2460000Y910000D02*
G01X2572901Y1022900D01*
G01X2672068Y909998D02*
G01X2680000Y917930D01*
G01X2569995Y909998D02*
G01X2672068Y909998D01*
G01X2345018Y1030000D02*
G01X2503309Y1030000D01*
G01X2569995Y1096686D01*
G01X2569995Y1199998D01*
G01X4804990Y916392D02*
G01X4648598Y760000D01*
G01X4603841Y760000D01*
G01X4610000Y710000D02*
G01X4683587Y710000D01*
G01X4460000Y860000D02*
G01X4610000Y710000D01*
G01X4683587Y710000D02*
G01X4885000Y911413D01*
G01X6552500Y1967500D02*
G01X6647500Y1967500D01*
G01X6239500Y2280500D02*
G01X6552500Y1967500D01*
G01X6239500Y2280500D02*
G01X6239500Y2360500D01*
G54D61*
G01X1189977Y1250023D02*
G01X1305004Y1250023D01*
G54D60*
G01X6330000Y2030000D02*
G01X6392500Y1967500D01*
G01X6432500Y1967500D01*
G01X6432500Y1552500D02*
G01X6432500Y1967500D01*
G01X6432500Y987500D02*
G01X6450000Y970000D01*
G01X6450000Y840000D02*
G01X6450000Y970000D01*
G01X6432500Y822500D02*
G01X6450000Y840000D01*
G01X6432500Y572500D02*
G01X6432500Y822500D01*
G01X5950001Y160000D02*
G01X6010000Y160000D01*
G01X6030000Y180000D01*
G01X6030000Y260000D01*
G01X6057000Y287000D01*
G01X6130000Y287000D01*
G01X6267618Y264618D02*
G01X6267618Y312381D01*
G01X6130000Y127000D02*
G01X6267618Y264618D01*
G01X6098000Y95000D02*
G01X6130000Y127000D01*
G01X6045000Y95000D02*
G01X6098000Y95000D01*
G01X6030000Y80000D02*
G01X6045000Y95000D01*
G01X5760003Y80000D02*
G01X6030000Y80000D01*
G01X6187000Y2413000D02*
G01X6239500Y2360500D01*
G01X6434991Y1384991D02*
G01X6448509Y1384991D01*
G01X6320000Y1270000D02*
G01X6434991Y1384991D01*
G01X6320000Y1270000D02*
G01X6329000Y1261000D01*
G01X6329000Y735658D02*
G01X6329000Y1261000D01*
G01X6084342Y491000D02*
G01X6329000Y735658D01*
G01X6448509Y1275009D02*
G01X6490000Y1233518D01*
G01X6490000Y1130000D02*
G01X6490000Y1233518D01*
G01X6430000Y1130000D02*
G01X6490000Y1130000D01*
G01X6360000Y1060000D02*
G01X6430000Y1130000D01*
G01X6360000Y700000D02*
G01X6360000Y1060000D01*
G01X6120000Y460000D02*
G01X6360000Y700000D01*
G01X6445237Y490000D02*
G01X6560500Y490000D01*
G01X6267618Y312381D02*
G01X6445237Y490000D01*
G01X6565000Y490000D02*
G01X6647500Y572500D01*
G01X6647500Y987500D01*
G01X6590000Y1130000D02*
G01X6640000Y1080000D01*
G01X6640000Y995000D02*
G01X6640000Y1080000D01*
G01X6640000Y995000D02*
G01X6647500Y987500D01*
G01X6647500Y1007500D01*
G01X6700000Y1060000D01*
G01X6700000Y1316481D01*
G01X6631491Y1384991D02*
G01X6700000Y1316481D01*
G01X6631491Y1384991D02*
G01X6647500Y1401000D01*
G01X6647500Y1552500D01*
G01X6647500Y1967500D01*
G01X3880000Y1720000D02*
G01X3990000Y1610000D01*
G01X4290000Y1210000D02*
G01X4290000Y1280000D01*
G01X4360000Y1350000D01*
G01X4360000Y1390000D01*
G54D62*
G01X4630009Y919991D02*
G01X4704990Y919991D01*
G54D63*
G01X3428011Y1543000D02*
G01X3428011Y1670000D01*
G54D60*
G01X2180000Y1390000D02*
G01X2180000Y1484981D01*
G54D63*
G01X3390000Y1190000D02*
G01X3922300Y1190000D01*
G54D60*
G01X5790000Y260000D02*
G01X5950000Y260000D01*
G01X1082900Y1630000D02*
G01X1182897Y1729997D01*
G01X1199998Y1729997D01*
G01X2640000Y1650000D02*
G01X2575000Y1715000D01*
G01X2640000Y1620000D02*
G01X2640000Y1650000D01*
G54D63*
G01X2760000Y1350000D02*
G01X2760000Y1660000D01*
G01X2575000Y1715000D02*
G01X2640000Y1780000D01*
G01X2534996Y1674996D02*
G01X2575000Y1715000D01*
G54D60*
G01X2530000Y1760000D02*
G01X2575000Y1715000D01*
G01X1200000Y1729999D02*
G01X1200000Y1747930D01*
G01X4444000Y2259000D02*
G01X4737160Y2259000D01*
G01X4290000Y2413000D02*
G01X4444000Y2259000D01*
G01X5204989Y1864998D02*
G01X5204989Y1965011D01*
G01X5531000Y1746701D02*
G01X5563400Y1779101D01*
G01X5531000Y1580000D02*
G01X5531000Y1746701D01*
G01X5390005Y1440005D02*
G01X5500000Y1550000D01*
G01X5365009Y1440005D02*
G01X5390005Y1440005D01*
G01X5893000Y2253000D02*
G01X6130000Y2253000D01*
G01X5680000Y2040000D02*
G01X5893000Y2253000D01*
G01X5600000Y2040000D02*
G01X5680000Y2040000D01*
G01X5500000Y2040000D02*
G01X5604988Y1935012D01*
G01X5604988Y1864998D02*
G01X5604988Y1935012D01*
G01X5469000Y491000D02*
G01X6084342Y491000D01*
G01X5449989Y510011D02*
G01X5469000Y491000D01*
G01X5449989Y510011D02*
G01X5449989Y529999D01*
G01X5425004Y460000D02*
G01X6120000Y460000D01*
G01X5280011Y604994D02*
G01X5425004Y460000D01*
G01X5004989Y1024994D02*
G01X5004989Y1084989D01*
G01X5084999Y1024994D02*
G01X5084999Y1075008D01*
G54D64*
G01X5325004Y1024994D02*
G01X5325004Y1105004D01*
G54D60*
G01X5579989Y849998D02*
G01X5604988Y874998D01*
G01X5604988Y935002D01*
G01X5444994Y935002D02*
G01X5514998Y935002D01*
G01X5725003Y1024994D02*
G01X5725201Y1024797D01*
G01X4982534Y767466D02*
G01X5145006Y604994D01*
G01X4714985Y1150000D02*
G01X4720002Y1150000D01*
G01X4704990Y1159995D02*
G01X4714985Y1150000D01*
G01X5484999Y1024994D02*
G01X5485196Y1024797D01*
G01X4580010Y1319990D02*
G01X4704990Y1319990D01*
G01X5052000Y127000D02*
G01X5052000Y381000D01*
G01X4036000Y127000D02*
G01X4036000Y381000D01*
G01X4290000Y127000D02*
G01X4290000Y381000D01*
G01X4544000Y127000D02*
G01X4544000Y381000D01*
G01X4798000Y127000D02*
G01X4798000Y381000D01*
G01X4239992Y1009998D02*
G01X4349998Y1009998D01*
G01X4360000Y1020000D01*
G01X4375007Y1800000D02*
G01X4390000Y1814993D01*
G01X4170000Y1800000D02*
G01X4375007Y1800000D01*
G01X4570000Y1080000D02*
G01X4649999Y1000001D01*
G01X4704990Y1000001D01*
G54D61*
G01X4804990Y916392D02*
G01X4804990Y935002D01*
G01X1663206Y1932520D02*
G01X1663206Y2016794D01*
G01X1640000Y2040000D02*
G01X1663206Y2016794D01*
G01X1600000Y2040000D02*
G01X1640000Y2040000D01*
G01X1563206Y2003207D02*
G01X1600000Y2040000D01*
G01X1563206Y1932520D02*
G01X1563206Y2003207D01*
G01X1590000Y1820000D02*
G01X1613194Y1843194D01*
G01X1550000Y1820000D02*
G01X1590000Y1820000D01*
G01X1513194Y1856806D02*
G01X1550000Y1820000D01*
G01X1600000Y2040000D02*
G01X1600000Y2110000D01*
G01X1513194Y2053193D02*
G01X1519997Y2059996D01*
G54D60*
G01X4250000Y860000D02*
G01X4360000Y860000D01*
G54D59*
G01X1704989Y1564989D02*
G01X1704989Y1640000D01*
G01X1570000Y1430000D02*
G01X1704989Y1564989D01*
G01X1500000Y1430000D02*
G01X1570000Y1430000D01*
G54D61*
G01X1704989Y1564989D02*
G01X1830000Y1439978D01*
G01X1830000Y1310000D02*
G01X1830000Y1439978D01*
G01X1830000Y1310000D02*
G01X1904996Y1235004D01*
G01X1930000Y1235004D01*
G01X1930000Y1090001D02*
G01X1930000Y1235004D01*
G01X1930000Y1090001D02*
G01X1970000Y1050000D01*
G54D59*
G01X1610000Y1220007D02*
G01X1719992Y1330000D01*
G01X1610000Y1104982D02*
G01X1610000Y1220007D01*
G01X1494996Y989977D02*
G01X1610000Y1104982D01*
G01X1664981Y1050000D02*
G01X1740000Y1050000D01*
G01X1610000Y1104982D02*
G01X1664981Y1050000D01*
G01X1970007Y1674996D02*
G01X2179977Y1674996D01*
G01X1930000Y1634989D02*
G01X1935011Y1640000D01*
G01X1970007Y1674996D01*
G01X2060000Y1294996D02*
G01X2179977Y1294996D01*
G01X2179977Y1674996D02*
G01X2179977Y1779978D01*
G01X2250000Y1850000D01*
G54D63*
G01X2440023Y1674996D02*
G01X2534996Y1674996D01*
G01X2440023Y1674996D02*
G01X2440023Y1849977D01*
G54D59*
G01X2440023Y1294996D02*
G01X2624996Y1294996D01*
G54D62*
G01X2150000Y2305000D02*
G01X2258000Y2413000D01*
G01X2150000Y1870000D02*
G01X2150000Y2305000D01*
G01X1710000Y1339992D02*
G01X1710000Y1440000D01*
G01X1710000Y1339992D02*
G01X1719992Y1330000D01*
G54D59*
G01X720002Y1050000D02*
G01X1090000Y1050000D01*
G01X1144981Y1104982D01*
G01X1610000Y1104982D01*
G54D61*
G01X1305004Y885004D02*
G01X1305004Y989977D01*
G01X1240000Y820000D02*
G01X1305004Y885004D01*
G01X1520000Y1680000D02*
G01X1590000Y1680000D01*
G54D63*
G01X2640000Y1780000D02*
G01X2760000Y1660000D01*
G01X4450000Y1160000D02*
G01X4450000Y1210000D01*
G01X4674985Y1210000D01*
G01X4704990Y1240005D01*
G01X4704990Y1159995D02*
G01X4704990Y1240005D01*
G01X4450000Y1210000D02*
G01X4450000Y1380000D01*
G01X4460000Y1390000D01*
G01X1496000Y381000D02*
G01X1750000Y381000D01*
G01X1750000Y127000D02*
G01X1750000Y381000D01*
G01X1750000Y570000D02*
G01X1920000Y740000D01*
G01X1750000Y381000D02*
G01X1750000Y570000D01*
G54D65*
G01X3400000Y255000D02*
G01X3528000Y127000D01*
G01X3400000Y690000D02*
G01X3400000Y255000D01*
G01X3270000Y820000D02*
G01X3400000Y690000D01*
G01X2820000Y820000D02*
G01X3270000Y820000D01*
G54D64*
G01X5044994Y919587D02*
G01X5044994Y935002D01*
G54D60*
G01X4730000Y604592D02*
G01X5044994Y919587D01*
G01X4513592Y604592D02*
G01X4730000Y604592D01*
G01X4290000Y381000D02*
G01X4513592Y604592D01*
G54D64*
G01X4965010Y919612D02*
G01X4965010Y935002D01*
G54D60*
G01X4710000Y664602D02*
G01X4965010Y919612D01*
G01X4319602Y664602D02*
G01X4710000Y664602D01*
G01X4036000Y381000D02*
G01X4319602Y664602D01*
G01X4795008Y1519990D02*
G01X4889990Y1519990D01*
G01X4544000Y2413000D02*
G01X4667000Y2290000D01*
G01X4795008Y1440005D02*
G01X4898959Y1440005D01*
G01X4957000Y1498046D01*
G01X4795008Y1359995D02*
G01X4862790Y1359995D01*
G01X4988000Y1485206D01*
G01X4915589Y1582890D02*
G01X4916044Y1582890D01*
G01X4928430Y1613890D02*
G01X4928884Y1613890D01*
G01X4795008Y1280010D02*
G01X4831177Y1280010D01*
G01X5019000Y1467833D01*
G01X4036000Y2413000D02*
G01X4221000Y2228000D01*
G01X3782000Y2413000D02*
G01X4035000Y2160000D01*
G01X4430000Y2160000D01*
G01X4640001Y1799999D02*
G01X4704990Y1799999D01*
G01X4390000Y1814993D02*
G01X4545007Y1814993D01*
G01X4640011Y1719989D01*
G01X4704990Y1719989D01*
G01X4897000Y1601479D02*
G01X4915589Y1582890D01*
G01X4928000Y1614319D02*
G01X4928430Y1613890D01*
G01X4920000Y1710455D02*
G01X4920000Y2281000D01*
G01X5052000Y2413000D01*
G01X4928000Y1614319D02*
G01X4928000Y1614774D01*
G01X4858000Y1684774D02*
G01X4928000Y1614774D01*
G01X4897000Y1601479D02*
G01X4897000Y1601933D01*
G01X4827000Y1671933D02*
G01X4897000Y1601933D01*
G01X4798000Y2413000D02*
G01X4889000Y2322000D01*
G01X4889000Y1697614D02*
G01X4889000Y2322000D01*
G01X4667000Y2290000D02*
G01X4750000Y2290000D01*
G01X4858000Y2182000D01*
G01X4858000Y1684774D02*
G01X4858000Y2182000D01*
G01X4737160Y2259000D02*
G01X4827000Y2169159D01*
G01X4827000Y1671933D02*
G01X4827000Y2169159D01*
G01X4724319Y2228000D02*
G01X4796000Y2156319D01*
G01X4796000Y1600000D02*
G01X4796000Y2156319D01*
G01X4221000Y2228000D02*
G01X4724319Y2228000D01*
G01X5644993Y1024994D02*
G01X5644993Y1124993D01*
G01X5629989Y1139998D02*
G01X5644993Y1124993D01*
G01X5244994Y1024994D02*
G01X5244796Y1024797D01*
G01X5244796Y872884D01*
G01X5531000Y1580000D02*
G01X5565009Y1545991D01*
G01X5565009Y1024994D02*
G01X5565009Y1545991D01*
G01X5420000Y1250008D02*
G01X5459989Y1289997D01*
G01X5404989Y1062159D02*
G01X5388404Y1078743D01*
G01X5404989Y1024994D02*
G01X5404989Y1062159D01*
G01X5484999Y1024994D02*
G01X5484999Y1085001D01*
G01X5460000Y1110000D02*
G01X5484999Y1085001D01*
G01X4917000Y500000D02*
G01X5130000Y500000D01*
G01X4798000Y381000D02*
G01X4917000Y500000D01*
G01X5230003Y510000D02*
G01X5176603Y563400D01*
G01X3219994Y1259997D02*
G01X3219994Y1480006D01*
G01X3157000Y1543000D02*
G01X3219994Y1480006D01*
G01X3051989Y1543000D02*
G01X3157000Y1543000D01*
G01X4720002Y1150000D02*
G01X4849103Y1020899D01*
G01X4920000Y1029999D02*
G01X4925005Y1024994D01*
G01X4920000Y1029999D02*
G01X4920000Y1140000D01*
G01X2900000Y1330339D02*
G01X2900000Y1880000D01*
G01X2944000Y1924000D01*
G01X3051989Y1924000D01*
G01X4579988Y1400000D02*
G01X4704990Y1400000D01*
G01X4569991Y1409997D02*
G01X4579988Y1400000D01*
G01X510000Y1540000D02*
G01X610000Y1440000D01*
G01X510000Y1540000D02*
G01X510000Y1619988D01*
G01X730000Y1370000D02*
G01X730000Y1610000D01*
G01X620012Y1719987D02*
G01X730000Y1610000D01*
G01X510000Y1719987D02*
G01X620012Y1719987D01*
G01X2160000Y910000D02*
G01X2300000Y910000D01*
G54D63*
G01X2760000Y1350000D02*
G01X2830000Y1280000D01*
G54D60*
G01X1140000Y820000D02*
G01X1360000Y600000D01*
G01X1180000Y120000D02*
G01X1180000Y250000D01*
G01X1500002Y1329997D02*
G01X1579997Y1329997D01*
G54D59*
G01X1500000Y1255026D02*
G01X1500000Y1430000D01*
G54D60*
G01X1340000Y120000D02*
G01X1360000Y140000D01*
G01X1360000Y600000D01*
G01X3060000Y1260000D02*
G01X3060000Y1407989D01*
G01X2955169Y1275169D02*
G01X2900000Y1330339D01*
G01X2760000Y1210000D02*
G01X2830000Y1280000D01*
G01X2060000Y1190000D02*
G01X2060000Y1294996D01*
G01X4390000Y1565007D02*
G01X4485007Y1565007D01*
G01X4560005Y1640005D01*
G01X4704990Y1640005D01*
G01X4580005Y1559995D02*
G01X4704990Y1559995D01*
G01X5240000Y1600000D02*
G01X5365009Y1600000D01*
G01X5266589Y1183398D02*
G01X5269989Y1179998D01*
G01X5103398Y1183398D02*
G01X5266589Y1183398D01*
G01X5084999Y1075008D02*
G01X5129990Y1119998D01*
G01X5189990Y1119998D01*
G01X5004989Y1084989D02*
G01X5103398Y1183398D01*
G01X5340000Y1200000D02*
G01X5365009Y1200000D01*
G01X5296602Y1243398D02*
G01X5340000Y1200000D01*
G01X5146602Y1243398D02*
G01X5296602Y1243398D01*
G01X5053465Y1336535D02*
G01X5146602Y1243398D01*
G01X5053465Y1336535D02*
G01X5053465Y1368797D01*
G01X5259990Y1280010D02*
G01X5365009Y1280010D01*
G01X5170000Y1370000D02*
G01X5259990Y1280010D01*
G01X5279992Y1359995D02*
G01X5365009Y1359995D01*
G01X5269989Y1369997D02*
G01X5279992Y1359995D01*
G01X5670000Y380000D02*
G01X5790000Y260000D01*
G01X5500000Y1930007D02*
G01X5509989Y1939996D01*
G01X5500000Y1550000D02*
G01X5500000Y1930007D01*
G01X5404989Y1705011D02*
G01X5404989Y1775006D01*
G01X5404989Y1705011D02*
G01X5430000Y1680000D01*
G01X5325004Y1684996D02*
G01X5325004Y1775006D01*
G01X5325004Y1684996D02*
G01X5330000Y1680000D01*
G01X4180000Y1530000D02*
G01X4354994Y1530000D01*
G01X4390000Y1565007D01*
G01X4160000Y1510000D02*
G01X4180000Y1530000D01*
G01X4160000Y1790000D02*
G01X4170000Y1800000D01*
G01X4190000Y1960000D02*
G01X4370000Y1960000D01*
G01X4290010Y1480010D02*
G01X4704990Y1480010D01*
G01X4260000Y1450000D02*
G01X4290010Y1480010D01*
G01X4260000Y1350000D02*
G01X4260000Y1450000D01*
G01X4230000Y1320000D02*
G01X4260000Y1350000D01*
G01X4100000Y1320000D02*
G01X4230000Y1320000D01*
G01X3979992Y1440008D02*
G01X4100000Y1320000D01*
G01X3979992Y1440008D02*
G01X3979992Y1469997D01*
G01X5444994Y1864998D02*
G01X5444994Y1955007D01*
G01X5279989Y1870007D02*
G01X5284999Y1864998D01*
G01X5279989Y1870007D02*
G01X5279989Y1989996D01*
G01X5354839Y1875168D02*
G01X5354839Y2104821D01*
G01X5354839Y1875168D02*
G01X5365009Y1864998D01*
G01X5420000Y1980000D02*
G01X5444994Y1955007D01*
G01X5420000Y1980000D02*
G01X5420000Y2130000D01*
G01X5470000Y2180000D01*
G01X4957000Y1498046D02*
G01X4957000Y1541933D01*
G01X4916044Y1582890D02*
G01X4957000Y1541933D01*
G01X4928884Y1613890D02*
G01X4988000Y1554774D01*
G01X4988000Y1485206D02*
G01X4988000Y1554774D01*
G01X4889000Y1697614D02*
G01X5019000Y1567614D01*
G01X5019000Y1467833D02*
G01X5019000Y1567614D01*
G01X4920000Y1710455D02*
G01X5050000Y1580455D01*
G01X5160000Y1520000D02*
G01X5240000Y1600000D01*
G01X5015005Y1775006D02*
G01X5084999Y1775006D01*
G01X4990000Y1750000D02*
G01X5015005Y1775006D01*
G01X5244994Y1744994D02*
G01X5244994Y1775006D01*
G01X5170000Y1670000D02*
G01X5244994Y1744994D01*
G01X4990000Y1919992D02*
G01X5044994Y1864998D01*
G01X4990000Y1919992D02*
G01X4990000Y2040000D01*
G01X5125004Y1864998D02*
G01X5125004Y1944996D01*
G01X5080000Y1990000D02*
G01X5125004Y1944996D01*
G54D63*
G01X2830000Y1280000D02*
G01X2940000Y1170000D01*
G01X3428011Y1228011D02*
G01X3428011Y1416000D01*
G01X2940000Y1170000D02*
G01X3370000Y1170000D01*
G54D60*
G01X3760000Y1910000D02*
G01X3880000Y1790000D01*
G01X3880000Y1720000D02*
G01X3880000Y1790000D01*
G54D61*
G01X1590000Y1680000D02*
G01X1713193Y1803193D01*
G01X1340000Y1680000D02*
G01X1413194Y1753194D01*
G01X1413194Y1932520D01*
G01X1713193Y1803193D02*
G01X1713193Y1932520D01*
G01X1613194Y1843194D02*
G01X1613194Y1932520D01*
G54D63*
G01X1920000Y740000D02*
G01X2740000Y740000D01*
G01X2820000Y820000D01*
G01X2624996Y1294996D02*
G01X2640000Y1310000D01*
G01X2820000Y1035591D02*
G01X2650895Y1204696D01*
G01X2820000Y820000D02*
G01X2820000Y1035591D01*
G01X2650895Y1204696D02*
G01X2650895Y1310000D01*
G54D60*
G01X1944996Y1424996D02*
G01X2040000Y1520000D01*
G54D59*
G01X1930000Y1424996D02*
G01X2060000Y1294996D01*
G01X1930000Y1424996D02*
G01X1930000Y1634989D01*
G54D60*
G01X3870000Y1960000D02*
G01X4090000Y1960000D01*
G01X3690000Y2140000D02*
G01X3870000Y1960000D01*
G01X2700000Y2140000D02*
G01X3690000Y2140000D01*
G01X2600000Y2240000D02*
G01X2700000Y2140000D01*
G01X5725201Y874862D02*
G01X5725201Y1024797D01*
G01X5716600Y866261D02*
G01X5725201Y874862D01*
G01X5684998Y755341D02*
G01X5696400Y743940D01*
G01X5684998Y755341D02*
G01X5684998Y935002D01*
G01X5716600Y813739D02*
G01X5716600Y866261D01*
G01X5919831Y750169D02*
G01X6050000Y620000D01*
G01X5716600Y813739D02*
G01X5780170Y750169D01*
G01X5919831Y750169D01*
G54D62*
G01X5795006Y855006D02*
G01X5795006Y935002D01*
G01X5780000Y840000D02*
G01X5795006Y855006D01*
G54D60*
G01X4530000Y1910000D02*
G01X4640001Y1799999D01*
G01X4530000Y1910000D02*
G01X4530000Y2060000D01*
G01X4430000Y2160000D02*
G01X4530000Y2060000D01*
G01X930000Y210000D02*
G01X1101000Y381000D01*
G01X1242000Y381000D01*
G54D59*
G01X1740000Y2200000D02*
G01X1800001Y2139999D01*
G54D61*
G01X1130000Y1310000D02*
G01X1189977Y1250023D01*
G01X1513194Y1856806D02*
G01X1513194Y1932520D01*
G01X1513194Y2053193D01*
G54D59*
G01X1530828Y2200000D02*
G01X1740000Y2200000D01*
G54D66*
G01X1827992Y1972010D02*
G01X1810001Y1990001D01*
G01X1750000Y2060002D02*
G01X1750000Y2080000D01*
G01X1750000Y2060002D02*
G01X1810001Y2000001D01*
G01X1810001Y1990001D01*
G01X1347983Y1932497D02*
G01X1347983Y1977983D01*
G01X1380001Y2010001D01*
G01X1380001Y2050001D01*
G54D59*
G01X1400001Y2069173D02*
G01X1530828Y2200000D01*
G54D66*
G01X1380001Y2050001D02*
G01X1380829Y2050001D01*
G01X1400001Y2069173D01*
G54D60*
G01X610000Y2300001D02*
G01X540000Y2230001D01*
G01X540000Y2166495D01*
G01X860001Y1720001D02*
G01X860001Y1450000D01*
G01X890001Y1750001D02*
G01X860001Y1720001D01*
G01X890001Y1830001D02*
G01X890001Y1750001D01*
G01X850001Y1870001D02*
G01X890001Y1830001D01*
G01X850001Y1930001D02*
G01X850001Y1870001D01*
G01X790002Y1990000D02*
G01X850001Y1930001D01*
G01X977930Y1630000D02*
G01X977930Y1547930D01*
G01X960001Y1530001D01*
G01X960001Y1450001D01*
G01X940000Y1890001D02*
G01X800000Y2030001D01*
G01X660000Y2030001D02*
G01X640000Y2050001D01*
G01X640000Y2166495D01*
G01X800000Y2030001D02*
G01X660000Y2030001D01*
G54D61*
G01X1080001Y2210001D02*
G01X940000Y2070001D01*
G01X940000Y1990001D01*
G54D62*
G01X810000Y1820001D02*
G01X530014Y1820001D01*
G54D60*
G01X5145006Y604994D02*
G01X5222667Y604994D01*
G01X5280011Y604994D01*
G01X5165009Y1024994D02*
G01X5170000Y1020004D01*
G01X5244796Y872884D02*
G01X5320003Y797678D01*
G01X5320003Y690000D01*
G01X5285034Y655032D01*
G01X5222667Y655032D01*
G01X5265167Y705019D02*
G01X5222667Y705019D01*
G01X5290003Y729855D02*
G01X5265167Y705019D01*
G01X5222667Y754981D02*
G01X5175022Y754981D01*
G01X5125004Y804999D01*
G01X5125004Y935002D01*
G01X5290003Y783837D02*
G01X5290003Y729855D01*
G01X5170000Y903840D02*
G01X5290003Y783837D01*
G01X5170000Y1020004D02*
G01X5170000Y903840D01*
G54D62*
G01X2030001Y1750001D02*
G01X2150000Y1870000D01*
G54D60*
G01X930000Y90000D02*
G01X930000Y210000D01*
G01X5610000Y700000D02*
G01X5604981Y705019D01*
G01X5517307Y705019D01*
G54D66*
G01X5490003Y840000D02*
G01X5517307Y812696D01*
G01X5517307Y754981D01*
G54D60*
G01X5464972Y655032D02*
G01X5517307Y655032D01*
G01X5450003Y670000D02*
G01X5464972Y655032D01*
G01X5284999Y935002D02*
G01X5284999Y890001D01*
G01X5374999Y800000D01*
G01X5390003Y800000D02*
G01X5420003Y770000D01*
G01X5420003Y630000D01*
G01X5445010Y604994D02*
G01X5517307Y604994D01*
G01X5374999Y800000D02*
G01X5390003Y800000D01*
G01X5420003Y630000D02*
G01X5445010Y604994D01*
G01X5450003Y788787D02*
G01X5450003Y670000D01*
G01X5365009Y873781D02*
G01X5450003Y788787D01*
G01X5365009Y935002D02*
G01X5365009Y873781D01*
G01X5176603Y563400D02*
G01X4903402Y563400D01*
G01X4840003Y500000D01*
G01X4663000Y500000D01*
G01X4544000Y381000D01*
G01X3051989Y1670000D02*
G01X3111988Y1610001D01*
G01X3260002Y1349989D02*
G01X3319993Y1289997D01*
G01X3111988Y1610001D02*
G01X3190002Y1610001D01*
G01X3260002Y1540001D01*
G01X3260002Y1349989D01*
G54D67*
G01X1827992Y1932497D02*
G01X1827992Y1840001D01*
G54D66*
G01X1827992Y1932520D02*
G01X1827992Y1972010D01*
G54D62*
G01X1820000Y1580000D02*
G01X1820000Y1670000D01*
G01X1900001Y1750001D01*
G01X2030001Y1750001D01*
G54D59*
G01X1827992Y1840001D02*
G01X1827992Y1797992D01*
G01X1704989Y1674989D01*
G01X1704989Y1640000D01*
G54D60*
G01X160000Y2230000D02*
G01X240002Y2230000D01*
G01X480002Y1990000D01*
G01X790002Y1990000D01*
G54D63*
G01X3922300Y1190000D02*
G01X4002300Y1110001D01*
G01X4400001Y1110001D01*
G01X4450000Y1160000D01*
G01X3370000Y1170000D02*
G01X3390000Y1190000D01*
G01X3428011Y1228011D01*
G54D60*
G01X4603841Y760000D02*
G01X4520002Y843838D01*
G01X4520002Y900000D01*
G01X4460000Y960003D01*
G01X4460000Y1020000D01*
G01X5050000Y1454993D02*
G01X5050000Y1580455D01*
G01X4920003Y1324995D02*
G01X5050000Y1454993D01*
G01X4920003Y1324995D02*
G01X4920003Y1270001D01*
G01X4850002Y1200001D01*
G01X4795008Y1200001D01*
G01X5165009Y1775006D02*
G01X5165009Y1755008D01*
G01X5080002Y1670000D02*
G01X5060000Y1670000D01*
G01X5165009Y1755008D02*
G01X5080002Y1670000D01*
G01X5388404Y1078743D02*
G01X5388404Y1128402D01*
G01X5420000Y1159998D01*
G01X5420000Y1250008D01*
G01X5783000Y2413000D02*
G01X6130000Y2413000D01*
G01X6187000Y2413000D01*
G54D64*
G01X40000Y200000D02*
G03X200000Y40000I160000J0D01*
G01X200000Y2500000D02*
G03X40000Y2340000I0J-160000D01*
G04 Track End*

M02*

