G04 Layer: InnerLayer1*
G04 EasyEDA Pro v2.2.34.8, 2025-03-03 01:04:46*
G04 Gerber Generator version 0.3*
G04 Scale: 100 percent, Rotated: No, Reflected: No*
G04 Dimensions in millimeters*
G04 Leading zeros omitted, absolute positions, 4 integers and 5 decimals*
%FSLAX45Y45*%
%MOMM*%
%ADD10C,0.2032*%
%ADD11C,0.254*%
%ADD12C,2.0*%
%ADD13C,3.5*%
%ADD14C,1.5*%
%ADD15O,1.1026X2.0*%
%ADD16O,1.1X2.0*%
%ADD17O,1.2X1.8*%
%ADD18C,0.61*%
%ADD19C,0.6*%
%ADD20C,0.15*%
%ADD21C,0.2*%
G75*


G04 Copper Start*
G36*
G01X1935163Y40160D02*
G01X1809757Y40160D01*
G03X1750000Y232414I-59757J86840D01*
G03X1690243Y40160I0J-105414D01*
G01X201423Y40160D01*
G01X134079Y59401D01*
G01X87186Y87537D01*
G01X69051Y114739D01*
G01X58264Y142017D01*
G01X40160Y201511D01*
G01X40160Y2348211D01*
G01X57589Y2396149D01*
G01X97208Y2442792D01*
G01X143636Y2482229D01*
G01X201512Y2499840D01*
G01X1090013Y2499840D01*
G03X1065088Y2437503I65488J-62337D01*
G01X1065088Y2377503D01*
G03X1245915Y2377503I90414J0D01*
G01X1245915Y2437503D01*
G03X1220990Y2499840I-90414J0D01*
G01X1955010Y2499840D01*
G03X1930085Y2437503I65488J-62337D01*
G01X1930085Y2377503D01*
G03X2110912Y2377503I90414J0D01*
G01X2110912Y2437503D01*
G03X2085987Y2499840I-90414J0D01*
G01X2198243Y2499840D01*
G03X2258000Y2307586I59757J-86840D01*
G03X2317757Y2499840I0J105414D01*
G01X2452243Y2499840D01*
G03X2512000Y2307586I59757J-86840D01*
G03X2571757Y2499840I0J105414D01*
G01X2706243Y2499840D01*
G03X2766000Y2307586I59757J-86840D01*
G03X2825757Y2499840I0J105414D01*
G01X2960243Y2499840D01*
G03X3020000Y2307586I59757J-86840D01*
G03X3079757Y2499840I0J105414D01*
G01X3214243Y2499840D01*
G03X3274000Y2307586I59757J-86840D01*
G03X3333757Y2499840I0J105414D01*
G01X3468243Y2499840D01*
G03X3528000Y2307586I59757J-86840D01*
G03X3587757Y2499840I0J105414D01*
G01X3722243Y2499840D01*
G03X3782000Y2307586I59757J-86840D01*
G03X3841757Y2499840I0J105414D01*
G01X3976243Y2499840D01*
G03X4036000Y2307586I59757J-86840D01*
G03X4095757Y2499840I0J105414D01*
G01X4230243Y2499840D01*
G03X4290000Y2307586I59757J-86840D01*
G03X4349757Y2499840I0J105414D01*
G01X4484243Y2499840D01*
G03X4544000Y2307586I59757J-86840D01*
G03X4603757Y2499840I0J105414D01*
G01X4738243Y2499840D01*
G03X4798000Y2307586I59757J-86840D01*
G03X4857757Y2499840I0J105414D01*
G01X4992243Y2499840D01*
G03X5052000Y2307586I59757J-86840D01*
G03X5111757Y2499840I0J105414D01*
G01X5246243Y2499840D01*
G03X5306000Y2307586I59757J-86840D01*
G03X5365757Y2499840I0J105414D01*
G01X5491163Y2499840D01*
G03X5560000Y2302186I68837J-86840D01*
G03X5628837Y2499840I0J110814D01*
G01X5799840Y2499840D01*
G01X5799840Y1640160D01*
G01X5690000Y1640160D01*
G03X5679840Y1630000I0J-10160D01*
G01X5679840Y1470000D01*
G03X5690000Y1459840I10160J0D01*
G01X5799840Y1459840D01*
G01X5799840Y725344D01*
G03X5749888Y714793I-3840J-105344D01*
G03X5716690Y801375I-53488J29146D01*
G03X5636473Y754861I-20291J-57435D01*
G03X5562324Y737914I-26473J-54861D01*
G01X5475708Y737914D01*
G01X5362918Y850704D01*
G01X5362918Y1057328D01*
G03X5329219Y1165772I-37914J47676D01*
G03X5276075Y1240607I-59230J14226D01*
G03X5209114Y1177832I-6086J-60609D01*
G03X5141259Y1083449I-19124J-57834D01*
G03X5250865Y1122164I48731J36548D01*
G03X5265775Y1119230I19124J57834D01*
G03X5287090Y1057328I59230J-14226D01*
G01X5287090Y834999D01*
G03X5298195Y808190I37914J0D01*
G01X5433194Y673191D01*
G03X5460003Y662086I26809J26809D01*
G01X5562324Y662086D01*
G03X5669927Y689079I47676J37914D01*
G03X5713352Y685432I26473J54861D01*
G03X5799840Y514656I82648J-65432D01*
G01X5799840Y44208D01*
G01X5795792Y40160D01*
G01X5628837Y40160D01*
G03X5560000Y237814I-68837J86840D01*
G03X5491163Y40160I0J-110814D01*
G01X5365757Y40160D01*
G03X5306000Y232414I-59757J86840D01*
G03X5246243Y40160I0J-105414D01*
G01X5111757Y40160D01*
G03X5052000Y232414I-59757J86840D01*
G03X4992243Y40160I0J-105414D01*
G01X4857757Y40160D01*
G03X4798000Y232414I-59757J86840D01*
G03X4738243Y40160I0J-105414D01*
G01X4603757Y40160D01*
G03X4544000Y232414I-59757J86840D01*
G03X4484243Y40160I0J-105414D01*
G01X4349757Y40160D01*
G03X4290000Y232414I-59757J86840D01*
G03X4230243Y40160I0J-105414D01*
G01X4095757Y40160D01*
G03X4036000Y232414I-59757J86840D01*
G03X3976243Y40160I0J-105414D01*
G01X3841757Y40160D01*
G03X3782000Y232414I-59757J86840D01*
G03X3722243Y40160I0J-105414D01*
G01X3587757Y40160D01*
G03X3528000Y232414I-59757J86840D01*
G03X3468243Y40160I0J-105414D01*
G01X3342837Y40160D01*
G03X3274000Y237814I-68837J86840D01*
G03X3205163Y40160I0J-110814D01*
G01X3079757Y40160D01*
G03X3020000Y232414I-59757J86840D01*
G03X2960243Y40160I0J-105414D01*
G01X2825757Y40160D01*
G03X2766000Y232414I-59757J86840D01*
G03X2706243Y40160I0J-105414D01*
G01X2571757Y40160D01*
G03X2512000Y232414I-59757J86840D01*
G03X2452243Y40160I0J-105414D01*
G01X2317757Y40160D01*
G03X2258000Y232414I-59757J86840D01*
G03X2198243Y40160I0J-105414D01*
G01X2072837Y40160D01*
G03X2004000Y237814I-68837J86840D01*
G03X1935163Y40160I0J-110814D01*
G37*
%LPC*%
G36*
G01X64586Y270000D02*
G03X475414Y270000I205414J0D01*
G03X64586Y270000I-205414J0D01*
G37*
G36*
G01X549086Y1440000D02*
G03X670914Y1440000I60914J0D01*
G03X549086Y1440000I-60914J0D01*
G37*
G36*
G01X549086Y2300001D02*
G03X670914Y2300001I60914J0D01*
G03X549086Y2300001I-60914J0D01*
G37*
G36*
G01X669086Y1370000D02*
G03X790914Y1370000I60914J0D01*
G03X669086Y1370000I-60914J0D01*
G37*
G36*
G01X749087Y1820001D02*
G03X870914Y1820001I60914J0D01*
G03X749087Y1820001I-60914J0D01*
G37*
G36*
G01X1019087Y2210001D02*
G03X1140915Y2210001I60914J0D01*
G03X1019087Y2210001I-60914J0D01*
G37*
G36*
G01X1240915Y1942488D02*
G01X1240915Y2032488D01*
G03X1070088Y2032488I-85414J0D01*
G01X1070088Y1942488D01*
G03X1240915Y1942488I85414J0D01*
G37*
G36*
G01X1153942Y194941D02*
G03X1235177Y275807I26058J55059D01*
G03X1287095Y476281I6823J105193D01*
G03X1164976Y309032I-45095J-95281D01*
G03X1153942Y194941I15024J-59032D01*
G37*
G36*
G01X1139084Y1729997D02*
G03X1260911Y1729997I60914J0D01*
G03X1139084Y1729997I-60914J0D01*
G37*
G36*
G01X1601414Y381000D02*
G03X1390586Y381000I-105414J0D01*
G03X1601414Y381000I105414J0D01*
G37*
G36*
G01X1468343Y2027711D02*
G03X1580425Y2052317I51654J32285D01*
G03X1656535Y2087323I19575J57683D01*
G03X1689925Y2069925I43464J42677D01*
G03X1793073Y2036928I60075J10075D01*
G03X1760075Y2140075I-43073J43073D01*
G03X1706545Y2190561I-60075J-10075D01*
G03X1643465Y2152677I-6545J-60561D01*
G03X1539572Y2117679I-43464J-42677D01*
G03X1468343Y2027711I-19575J-57683D01*
G37*
G36*
G01X1519083Y1329997D02*
G03X1640911Y1329997I60914J0D01*
G03X1519083Y1329997I-60914J0D01*
G37*
G36*
G01X1855414Y381000D02*
G03X1644586Y381000I-105414J0D01*
G03X1855414Y381000I105414J0D01*
G37*
G36*
G01X1649086Y1440000D02*
G03X1770914Y1440000I60914J0D01*
G03X1649086Y1440000I-60914J0D01*
G37*
G36*
G01X1759086Y1580000D02*
G03X1880914Y1580000I60914J0D01*
G03X1759086Y1580000I-60914J0D01*
G37*
G36*
G01X2114814Y381000D02*
G03X1893186Y381000I-110814J0D01*
G03X2114814Y381000I110814J0D01*
G37*
G36*
G01X2105912Y1942488D02*
G01X2105912Y2032488D01*
G03X1935085Y2032488I-85414J0D01*
G01X1935085Y1942488D01*
G03X2105912Y1942488I85414J0D01*
G37*
G36*
G01X1999086Y1190000D02*
G03X2120914Y1190000I60914J0D01*
G03X1999086Y1190000I-60914J0D01*
G37*
G36*
G01X2119086Y1390000D02*
G03X2240914Y1390000I60914J0D01*
G03X2119086Y1390000I-60914J0D01*
G37*
G36*
G01X2363414Y381000D02*
G03X2152586Y381000I-105414J0D01*
G03X2363414Y381000I105414J0D01*
G37*
G36*
G01X2617414Y381000D02*
G03X2406586Y381000I-105414J0D01*
G03X2617414Y381000I105414J0D01*
G37*
G36*
G01X2469086Y1760000D02*
G03X2590914Y1760000I60914J0D01*
G03X2469086Y1760000I-60914J0D01*
G37*
G36*
G01X2509081Y909998D02*
G03X2630909Y909998I60914J0D01*
G03X2509081Y909998I-60914J0D01*
G37*
G36*
G01X2509081Y1199998D02*
G03X2630909Y1199998I60914J0D01*
G03X2509081Y1199998I-60914J0D01*
G37*
G36*
G01X2539086Y2240000D02*
G03X2660914Y2240000I60914J0D01*
G03X2539086Y2240000I-60914J0D01*
G37*
G36*
G01X2871414Y381000D02*
G03X2660586Y381000I-105414J0D01*
G03X2871414Y381000I105414J0D01*
G37*
G36*
G01X2699086Y1210000D02*
G03X2820914Y1210000I60914J0D01*
G03X2699086Y1210000I-60914J0D01*
G37*
G36*
G01X2809080Y1109998D02*
G03X2930908Y1109998I60914J0D01*
G03X2809080Y1109998I-60914J0D01*
G37*
G36*
G01X2894883Y1283893D02*
G03X3003275Y1237802I60286J-8724D01*
G03X3120286Y1251276I56725J22198D01*
G03X3011894Y1297368I-60286J8724D01*
G03X2894883Y1283893I-56725J-22198D01*
G37*
G36*
G01X3125414Y381000D02*
G03X2914586Y381000I-105414J0D01*
G03X3125414Y381000I105414J0D01*
G37*
G36*
G01X2949086Y1089100D02*
G03X3070914Y1089100I60914J0D01*
G03X2949086Y1089100I-60914J0D01*
G37*
G36*
G01X3161649Y1242494D02*
G03X3279014Y1244929I58345J17503D01*
G03X3378338Y1307501I40979J45069D01*
G03X3260973Y1305066I-58345J-17503D01*
G03X3161649Y1242494I-40979J-45069D01*
G37*
G36*
G01X3379414Y381000D02*
G03X3168586Y381000I-105414J0D01*
G03X3379414Y381000I105414J0D01*
G37*
G36*
G01X3633414Y381000D02*
G03X3422586Y381000I-105414J0D01*
G03X3633414Y381000I105414J0D01*
G37*
G36*
G01X3492086Y1077676D02*
G03X3503428Y975187I37914J-47676D01*
G03X3590914Y1029768I26572J54813D01*
G03X3609087Y1029768I9086J60232D01*
G03X3670000Y969086I60913J232D01*
G03X3730913Y1029768I0J60914D01*
G03X3749087Y1029768I9086J60232D01*
G03X3810000Y969086I60913J232D01*
G03X3870913Y1029768I0J60914D01*
G03X3935315Y1064490I9087J60232D01*
G03X3919914Y1136015I-55315J25511D01*
G01X3919914Y1459942D01*
G03X4030574Y1436056I60078J10055D01*
G03X3966523Y1529403I-50582J33941D01*
G01X3986318Y1549198D01*
G03X4046447Y1632897I3682J60803D01*
G03X3945000Y1651055I-56447J-22897D01*
G03X3841504Y1626992I-45000J-41055D01*
G03X3781387Y1617112I-21504J-56992D01*
G03X3759895Y1560105I38613J-47112D01*
G03X3740105Y1560105I-9895J-60105D01*
G03X3680000Y1630914I-60105J9895D01*
G03X3619895Y1560105I0J-60914D01*
G03X3554318Y1524699I-9895J-60105D01*
G03X3572086Y1452324I55682J-24699D01*
G01X3572086Y1439249D01*
G01X3503191Y1370354D01*
G03X3492086Y1343545I26809J-26809D01*
G01X3492086Y1077676D01*
G37*
G36*
G01X3887414Y381000D02*
G03X3676586Y381000I-105414J0D01*
G03X3887414Y381000I105414J0D01*
G37*
G36*
G01X3699086Y1910000D02*
G03X3820914Y1910000I60914J0D01*
G03X3699086Y1910000I-60914J0D01*
G37*
G36*
G01X4141414Y381000D02*
G03X3930586Y381000I-105414J0D01*
G03X4141414Y381000I105414J0D01*
G37*
G36*
G01X4179078Y1009998D02*
G03X4300905Y1009998I60914J0D01*
G03X4179078Y1009998I-60914J0D01*
G37*
G36*
G01X4395414Y381000D02*
G03X4184586Y381000I-105414J0D01*
G03X4395414Y381000I105414J0D01*
G37*
G36*
G01X4189086Y860000D02*
G03X4310914Y860000I60914J0D01*
G03X4189086Y860000I-60914J0D01*
G37*
G36*
G01X4219086Y1990000D02*
G03X4340914Y1990000I60914J0D01*
G03X4219086Y1990000I-60914J0D01*
G37*
G36*
G01X4649414Y381000D02*
G03X4438586Y381000I-105414J0D01*
G03X4649414Y381000I105414J0D01*
G37*
G36*
G01X4586694Y1259947D02*
G03X4615158Y1369127I-6684J60043D01*
G03X4563252Y1470537I-45168J40870D01*
G03X4534916Y1360195I6739J-60540D01*
G03X4586694Y1259947I45093J-40205D01*
G37*
G36*
G01X4509086Y1080000D02*
G03X4630914Y1080000I60914J0D01*
G03X4509086Y1080000I-60914J0D01*
G37*
G36*
G01X4519086Y1560000D02*
G03X4640914Y1560000I60914J0D01*
G03X4519086Y1560000I-60914J0D01*
G37*
G36*
G01X4903414Y381000D02*
G03X4692586Y381000I-105414J0D01*
G03X4903414Y381000I105414J0D01*
G37*
G36*
G01X4788189Y1020899D02*
G03X4910016Y1020899I60914J0D01*
G03X4788189Y1020899I-60914J0D01*
G37*
G36*
G01X4829576Y1519990D02*
G03X4950404Y1519990I60414J0D01*
G03X4829576Y1519990I-60414J0D01*
G37*
G36*
G01X4859086Y1140000D02*
G03X4980914Y1140000I60914J0D01*
G03X4859086Y1140000I-60914J0D01*
G37*
G36*
G01X5086701Y871633D02*
G03X4982714Y828380I-43073J-43073D01*
G03X4939461Y724393I-180J-60914D01*
G03X5043448Y767646I43073J43073D01*
G03X5086701Y871633I180J60914D01*
G37*
G36*
G01X5050815Y2043467D02*
G03X4936752Y2069582I-60815J-3467D01*
G03X5019185Y1986533I53248J-29582D01*
G03X5132666Y1959393I60815J3467D01*
G03X5239490Y1944496I57324J20603D01*
G03X5340531Y1996723I40500J45500D01*
G03X5230490Y2025496I-60541J-6727D01*
G03X5137324Y2010603I-40500J-45500D01*
G03X5050815Y2043467I-57324J-20603D01*
G37*
G36*
G01X5036676Y1613728D02*
G03X5115000Y1643818I23324J56272D01*
G03X5230914Y1670000I55000J26182D01*
G03X5115000Y1696182I-60914J0D01*
G03X5047395Y1729595I-55000J-26182D01*
G03X4949888Y1795842I-57395J20405D01*
G03X5002605Y1690405I40112J-45842D01*
G03X5036676Y1613728I57395J-20405D01*
G37*
G36*
G01X4994213Y292837D02*
G03X5139473Y439827I57787J88163D01*
G03X5183427Y470742I-9473J60173D01*
G03X5290614Y516061I46576J39258D01*
G03X5176576Y539258I-60612J-6061D01*
G03X5102017Y554106I-46576J-39258D01*
G03X5071044Y484679I27983J-54106D01*
G03X4994213Y292837I-19044J-103679D01*
G37*
G36*
G01X5111549Y1387147D02*
G03X4992554Y1368169I-58084J-18350D01*
G03X5111916Y1351650I60911J629D01*
G03X5219994Y1335199I58084J18350D01*
G03X5330903Y1369996I49996J34799D01*
G03X5219996Y1404799I-60914J2D01*
G03X5111549Y1387147I-49996J-34799D01*
G37*
G36*
G01X5099086Y1520000D02*
G03X5220914Y1520000I60914J0D01*
G03X5099086Y1520000I-60914J0D01*
G37*
G36*
G01X5269086Y1680000D02*
G03X5380000Y1645208I60914J0D01*
G03X5490914Y1680000I50000J34792D01*
G03X5380000Y1714792I-60914J0D01*
G03X5269086Y1680000I-50000J-34792D01*
G37*
G36*
G01X5293925Y2104821D02*
G03X5415753Y2104821I60914J0D01*
G03X5293925Y2104821I-60914J0D01*
G37*
G36*
G01X5389075Y529999D02*
G03X5510903Y529999I60914J0D01*
G03X5389075Y529999I-60914J0D01*
G37*
G36*
G01X5399075Y1289997D02*
G03X5520903Y1289997I60914J0D01*
G03X5399075Y1289997I-60914J0D01*
G37*
G36*
G01X5399086Y1110000D02*
G03X5520914Y1110000I60914J0D01*
G03X5399086Y1110000I-60914J0D01*
G37*
G36*
G01X5409086Y2180000D02*
G03X5530914Y2180000I60914J0D01*
G03X5409086Y2180000I-60914J0D01*
G37*
G36*
G01X5449075Y1939996D02*
G03X5570903Y1939996I60914J0D01*
G03X5449075Y1939996I-60914J0D01*
G37*
G36*
G01X5616987Y801608D02*
G03X5570628Y910189I-36998J48391D01*
G03X5478000Y983393I-55631J24813D01*
G03X5524358Y874812I36998J-48391D01*
G03X5616987Y801608I55631J-24813D01*
G37*
G36*
G01X5502486Y1779101D02*
G03X5624313Y1779101I60914J0D01*
G03X5502486Y1779101I-60914J0D01*
G37*
G36*
G01X5569075Y1139998D02*
G03X5690903Y1139998I60914J0D01*
G03X5569075Y1139998I-60914J0D01*
G37*
G36*
G01X5609086Y380000D02*
G03X5730914Y380000I60914J0D01*
G03X5609086Y380000I-60914J0D01*
G37*
%LPD*%
G54D10*
G01X1935163Y40160D02*
G01X1809757Y40160D01*
G03X1750000Y232414I-59757J86840D01*
G03X1690243Y40160I0J-105414D01*
G01X201423Y40160D01*
G01X134079Y59401D01*
G01X87186Y87537D01*
G01X69051Y114739D01*
G01X58264Y142017D01*
G01X40160Y201511D01*
G01X40160Y2348211D01*
G01X57589Y2396149D01*
G01X97208Y2442792D01*
G01X143636Y2482229D01*
G01X201512Y2499840D01*
G01X1090013Y2499840D01*
G03X1065088Y2437503I65488J-62337D01*
G01X1065088Y2377503D01*
G03X1245915Y2377503I90414J0D01*
G01X1245915Y2437503D01*
G03X1220990Y2499840I-90414J0D01*
G01X1955010Y2499840D01*
G03X1930085Y2437503I65488J-62337D01*
G01X1930085Y2377503D01*
G03X2110912Y2377503I90414J0D01*
G01X2110912Y2437503D01*
G03X2085987Y2499840I-90414J0D01*
G01X2198243Y2499840D01*
G03X2258000Y2307586I59757J-86840D01*
G03X2317757Y2499840I0J105414D01*
G01X2452243Y2499840D01*
G03X2512000Y2307586I59757J-86840D01*
G03X2571757Y2499840I0J105414D01*
G01X2706243Y2499840D01*
G03X2766000Y2307586I59757J-86840D01*
G03X2825757Y2499840I0J105414D01*
G01X2960243Y2499840D01*
G03X3020000Y2307586I59757J-86840D01*
G03X3079757Y2499840I0J105414D01*
G01X3214243Y2499840D01*
G03X3274000Y2307586I59757J-86840D01*
G03X3333757Y2499840I0J105414D01*
G01X3468243Y2499840D01*
G03X3528000Y2307586I59757J-86840D01*
G03X3587757Y2499840I0J105414D01*
G01X3722243Y2499840D01*
G03X3782000Y2307586I59757J-86840D01*
G03X3841757Y2499840I0J105414D01*
G01X3976243Y2499840D01*
G03X4036000Y2307586I59757J-86840D01*
G03X4095757Y2499840I0J105414D01*
G01X4230243Y2499840D01*
G03X4290000Y2307586I59757J-86840D01*
G03X4349757Y2499840I0J105414D01*
G01X4484243Y2499840D01*
G03X4544000Y2307586I59757J-86840D01*
G03X4603757Y2499840I0J105414D01*
G01X4738243Y2499840D01*
G03X4798000Y2307586I59757J-86840D01*
G03X4857757Y2499840I0J105414D01*
G01X4992243Y2499840D01*
G03X5052000Y2307586I59757J-86840D01*
G03X5111757Y2499840I0J105414D01*
G01X5246243Y2499840D01*
G03X5306000Y2307586I59757J-86840D01*
G03X5365757Y2499840I0J105414D01*
G01X5491163Y2499840D01*
G03X5560000Y2302186I68837J-86840D01*
G03X5628837Y2499840I0J110814D01*
G01X5799840Y2499840D01*
G01X5799840Y1640160D01*
G01X5690000Y1640160D01*
G03X5679840Y1630000I0J-10160D01*
G01X5679840Y1470000D01*
G03X5690000Y1459840I10160J0D01*
G01X5799840Y1459840D01*
G01X5799840Y725344D01*
G03X5749888Y714793I-3840J-105344D01*
G03X5716690Y801375I-53488J29146D01*
G03X5636473Y754861I-20291J-57435D01*
G03X5562324Y737914I-26473J-54861D01*
G01X5475708Y737914D01*
G01X5362918Y850704D01*
G01X5362918Y1057328D01*
G03X5329219Y1165772I-37914J47676D01*
G03X5276075Y1240607I-59230J14226D01*
G03X5209114Y1177832I-6086J-60609D01*
G03X5141259Y1083449I-19124J-57834D01*
G03X5250865Y1122164I48731J36548D01*
G03X5265775Y1119230I19124J57834D01*
G03X5287090Y1057328I59230J-14226D01*
G01X5287090Y834999D01*
G03X5298195Y808190I37914J0D01*
G01X5433194Y673191D01*
G03X5460003Y662086I26809J26809D01*
G01X5562324Y662086D01*
G03X5669927Y689079I47676J37914D01*
G03X5713352Y685432I26473J54861D01*
G03X5799840Y514656I82648J-65432D01*
G01X5799840Y44208D01*
G01X5795792Y40160D01*
G01X5628837Y40160D01*
G03X5560000Y237814I-68837J86840D01*
G03X5491163Y40160I0J-110814D01*
G01X5365757Y40160D01*
G03X5306000Y232414I-59757J86840D01*
G03X5246243Y40160I0J-105414D01*
G01X5111757Y40160D01*
G03X5052000Y232414I-59757J86840D01*
G03X4992243Y40160I0J-105414D01*
G01X4857757Y40160D01*
G03X4798000Y232414I-59757J86840D01*
G03X4738243Y40160I0J-105414D01*
G01X4603757Y40160D01*
G03X4544000Y232414I-59757J86840D01*
G03X4484243Y40160I0J-105414D01*
G01X4349757Y40160D01*
G03X4290000Y232414I-59757J86840D01*
G03X4230243Y40160I0J-105414D01*
G01X4095757Y40160D01*
G03X4036000Y232414I-59757J86840D01*
G03X3976243Y40160I0J-105414D01*
G01X3841757Y40160D01*
G03X3782000Y232414I-59757J86840D01*
G03X3722243Y40160I0J-105414D01*
G01X3587757Y40160D01*
G03X3528000Y232414I-59757J86840D01*
G03X3468243Y40160I0J-105414D01*
G01X3342837Y40160D01*
G03X3274000Y237814I-68837J86840D01*
G03X3205163Y40160I0J-110814D01*
G01X3079757Y40160D01*
G03X3020000Y232414I-59757J86840D01*
G03X2960243Y40160I0J-105414D01*
G01X2825757Y40160D01*
G03X2766000Y232414I-59757J86840D01*
G03X2706243Y40160I0J-105414D01*
G01X2571757Y40160D01*
G03X2512000Y232414I-59757J86840D01*
G03X2452243Y40160I0J-105414D01*
G01X2317757Y40160D01*
G03X2258000Y232414I-59757J86840D01*
G03X2198243Y40160I0J-105414D01*
G01X2072837Y40160D01*
G03X2004000Y237814I-68837J86840D01*
G03X1935163Y40160I0J-110814D01*
G01X64586Y270000D02*
G03X475414Y270000I205414J0D01*
G03X64586Y270000I-205414J0D01*
G01X549086Y1440000D02*
G03X670914Y1440000I60914J0D01*
G03X549086Y1440000I-60914J0D01*
G01X549086Y2300001D02*
G03X670914Y2300001I60914J0D01*
G03X549086Y2300001I-60914J0D01*
G01X669086Y1370000D02*
G03X790914Y1370000I60914J0D01*
G03X669086Y1370000I-60914J0D01*
G01X749087Y1820001D02*
G03X870914Y1820001I60914J0D01*
G03X749087Y1820001I-60914J0D01*
G01X1019087Y2210001D02*
G03X1140915Y2210001I60914J0D01*
G03X1019087Y2210001I-60914J0D01*
G01X1240915Y1942488D02*
G01X1240915Y2032488D01*
G03X1070088Y2032488I-85414J0D01*
G01X1070088Y1942488D01*
G03X1240915Y1942488I85414J0D01*
G01X1153942Y194941D02*
G03X1235177Y275807I26058J55059D01*
G03X1287095Y476281I6823J105193D01*
G03X1164976Y309032I-45095J-95281D01*
G03X1153942Y194941I15024J-59032D01*
G01X1139084Y1729997D02*
G03X1260911Y1729997I60914J0D01*
G03X1139084Y1729997I-60914J0D01*
G01X1601414Y381000D02*
G03X1390586Y381000I-105414J0D01*
G03X1601414Y381000I105414J0D01*
G01X1468343Y2027711D02*
G03X1580425Y2052317I51654J32285D01*
G03X1656535Y2087323I19575J57683D01*
G03X1689925Y2069925I43464J42677D01*
G03X1793073Y2036928I60075J10075D01*
G03X1760075Y2140075I-43073J43073D01*
G03X1706545Y2190561I-60075J-10075D01*
G03X1643465Y2152677I-6545J-60561D01*
G03X1539572Y2117679I-43464J-42677D01*
G03X1468343Y2027711I-19575J-57683D01*
G01X1519083Y1329997D02*
G03X1640911Y1329997I60914J0D01*
G03X1519083Y1329997I-60914J0D01*
G01X1855414Y381000D02*
G03X1644586Y381000I-105414J0D01*
G03X1855414Y381000I105414J0D01*
G01X1649086Y1440000D02*
G03X1770914Y1440000I60914J0D01*
G03X1649086Y1440000I-60914J0D01*
G01X1759086Y1580000D02*
G03X1880914Y1580000I60914J0D01*
G03X1759086Y1580000I-60914J0D01*
G01X2114814Y381000D02*
G03X1893186Y381000I-110814J0D01*
G03X2114814Y381000I110814J0D01*
G01X2105912Y1942488D02*
G01X2105912Y2032488D01*
G03X1935085Y2032488I-85414J0D01*
G01X1935085Y1942488D01*
G03X2105912Y1942488I85414J0D01*
G01X1999086Y1190000D02*
G03X2120914Y1190000I60914J0D01*
G03X1999086Y1190000I-60914J0D01*
G01X2119086Y1390000D02*
G03X2240914Y1390000I60914J0D01*
G03X2119086Y1390000I-60914J0D01*
G01X2363414Y381000D02*
G03X2152586Y381000I-105414J0D01*
G03X2363414Y381000I105414J0D01*
G01X2617414Y381000D02*
G03X2406586Y381000I-105414J0D01*
G03X2617414Y381000I105414J0D01*
G01X2469086Y1760000D02*
G03X2590914Y1760000I60914J0D01*
G03X2469086Y1760000I-60914J0D01*
G01X2509081Y909998D02*
G03X2630909Y909998I60914J0D01*
G03X2509081Y909998I-60914J0D01*
G01X2509081Y1199998D02*
G03X2630909Y1199998I60914J0D01*
G03X2509081Y1199998I-60914J0D01*
G01X2539086Y2240000D02*
G03X2660914Y2240000I60914J0D01*
G03X2539086Y2240000I-60914J0D01*
G01X2871414Y381000D02*
G03X2660586Y381000I-105414J0D01*
G03X2871414Y381000I105414J0D01*
G01X2699086Y1210000D02*
G03X2820914Y1210000I60914J0D01*
G03X2699086Y1210000I-60914J0D01*
G01X2809080Y1109998D02*
G03X2930908Y1109998I60914J0D01*
G03X2809080Y1109998I-60914J0D01*
G01X2894883Y1283893D02*
G03X3003275Y1237802I60286J-8724D01*
G03X3120286Y1251276I56725J22198D01*
G03X3011894Y1297368I-60286J8724D01*
G03X2894883Y1283893I-56725J-22198D01*
G01X3125414Y381000D02*
G03X2914586Y381000I-105414J0D01*
G03X3125414Y381000I105414J0D01*
G01X2949086Y1089100D02*
G03X3070914Y1089100I60914J0D01*
G03X2949086Y1089100I-60914J0D01*
G01X3161649Y1242494D02*
G03X3279014Y1244929I58345J17503D01*
G03X3378338Y1307501I40979J45069D01*
G03X3260973Y1305066I-58345J-17503D01*
G03X3161649Y1242494I-40979J-45069D01*
G01X3379414Y381000D02*
G03X3168586Y381000I-105414J0D01*
G03X3379414Y381000I105414J0D01*
G01X3633414Y381000D02*
G03X3422586Y381000I-105414J0D01*
G03X3633414Y381000I105414J0D01*
G01X3492086Y1077676D02*
G03X3503428Y975187I37914J-47676D01*
G03X3590914Y1029768I26572J54813D01*
G03X3609087Y1029768I9086J60232D01*
G03X3670000Y969086I60913J232D01*
G03X3730913Y1029768I0J60914D01*
G03X3749087Y1029768I9086J60232D01*
G03X3810000Y969086I60913J232D01*
G03X3870913Y1029768I0J60914D01*
G03X3935315Y1064490I9087J60232D01*
G03X3919914Y1136015I-55315J25511D01*
G01X3919914Y1459942D01*
G03X4030574Y1436056I60078J10055D01*
G03X3966523Y1529403I-50582J33941D01*
G01X3986318Y1549198D01*
G03X4046447Y1632897I3682J60803D01*
G03X3945000Y1651055I-56447J-22897D01*
G03X3841504Y1626992I-45000J-41055D01*
G03X3781387Y1617112I-21504J-56992D01*
G03X3759895Y1560105I38613J-47112D01*
G03X3740105Y1560105I-9895J-60105D01*
G03X3680000Y1630914I-60105J9895D01*
G03X3619895Y1560105I0J-60914D01*
G03X3554318Y1524699I-9895J-60105D01*
G03X3572086Y1452324I55682J-24699D01*
G01X3572086Y1439249D01*
G01X3503191Y1370354D01*
G03X3492086Y1343545I26809J-26809D01*
G01X3492086Y1077676D01*
G01X3887414Y381000D02*
G03X3676586Y381000I-105414J0D01*
G03X3887414Y381000I105414J0D01*
G01X3699086Y1910000D02*
G03X3820914Y1910000I60914J0D01*
G03X3699086Y1910000I-60914J0D01*
G01X4141414Y381000D02*
G03X3930586Y381000I-105414J0D01*
G03X4141414Y381000I105414J0D01*
G01X4179078Y1009998D02*
G03X4300905Y1009998I60914J0D01*
G03X4179078Y1009998I-60914J0D01*
G01X4395414Y381000D02*
G03X4184586Y381000I-105414J0D01*
G03X4395414Y381000I105414J0D01*
G01X4189086Y860000D02*
G03X4310914Y860000I60914J0D01*
G03X4189086Y860000I-60914J0D01*
G01X4219086Y1990000D02*
G03X4340914Y1990000I60914J0D01*
G03X4219086Y1990000I-60914J0D01*
G01X4649414Y381000D02*
G03X4438586Y381000I-105414J0D01*
G03X4649414Y381000I105414J0D01*
G01X4586694Y1259947D02*
G03X4615158Y1369127I-6684J60043D01*
G03X4563252Y1470537I-45168J40870D01*
G03X4534916Y1360195I6739J-60540D01*
G03X4586694Y1259947I45093J-40205D01*
G01X4509086Y1080000D02*
G03X4630914Y1080000I60914J0D01*
G03X4509086Y1080000I-60914J0D01*
G01X4519086Y1560000D02*
G03X4640914Y1560000I60914J0D01*
G03X4519086Y1560000I-60914J0D01*
G01X4903414Y381000D02*
G03X4692586Y381000I-105414J0D01*
G03X4903414Y381000I105414J0D01*
G01X4788189Y1020899D02*
G03X4910016Y1020899I60914J0D01*
G03X4788189Y1020899I-60914J0D01*
G01X4829576Y1519990D02*
G03X4950404Y1519990I60414J0D01*
G03X4829576Y1519990I-60414J0D01*
G01X4859086Y1140000D02*
G03X4980914Y1140000I60914J0D01*
G03X4859086Y1140000I-60914J0D01*
G01X5086701Y871633D02*
G03X4982714Y828380I-43073J-43073D01*
G03X4939461Y724393I-180J-60914D01*
G03X5043448Y767646I43073J43073D01*
G03X5086701Y871633I180J60914D01*
G01X5050815Y2043467D02*
G03X4936752Y2069582I-60815J-3467D01*
G03X5019185Y1986533I53248J-29582D01*
G03X5132666Y1959393I60815J3467D01*
G03X5239490Y1944496I57324J20603D01*
G03X5340531Y1996723I40500J45500D01*
G03X5230490Y2025496I-60541J-6727D01*
G03X5137324Y2010603I-40500J-45500D01*
G03X5050815Y2043467I-57324J-20603D01*
G01X5036676Y1613728D02*
G03X5115000Y1643818I23324J56272D01*
G03X5230914Y1670000I55000J26182D01*
G03X5115000Y1696182I-60914J0D01*
G03X5047395Y1729595I-55000J-26182D01*
G03X4949888Y1795842I-57395J20405D01*
G03X5002605Y1690405I40112J-45842D01*
G03X5036676Y1613728I57395J-20405D01*
G01X4994213Y292837D02*
G03X5139473Y439827I57787J88163D01*
G03X5183427Y470742I-9473J60173D01*
G03X5290614Y516061I46576J39258D01*
G03X5176576Y539258I-60612J-6061D01*
G03X5102017Y554106I-46576J-39258D01*
G03X5071044Y484679I27983J-54106D01*
G03X4994213Y292837I-19044J-103679D01*
G01X5111549Y1387147D02*
G03X4992554Y1368169I-58084J-18350D01*
G03X5111916Y1351650I60911J629D01*
G03X5219994Y1335199I58084J18350D01*
G03X5330903Y1369996I49996J34799D01*
G03X5219996Y1404799I-60914J2D01*
G03X5111549Y1387147I-49996J-34799D01*
G01X5099086Y1520000D02*
G03X5220914Y1520000I60914J0D01*
G03X5099086Y1520000I-60914J0D01*
G01X5269086Y1680000D02*
G03X5380000Y1645208I60914J0D01*
G03X5490914Y1680000I50000J34792D01*
G03X5380000Y1714792I-60914J0D01*
G03X5269086Y1680000I-50000J-34792D01*
G01X5293925Y2104821D02*
G03X5415753Y2104821I60914J0D01*
G03X5293925Y2104821I-60914J0D01*
G01X5389075Y529999D02*
G03X5510903Y529999I60914J0D01*
G03X5389075Y529999I-60914J0D01*
G01X5399075Y1289997D02*
G03X5520903Y1289997I60914J0D01*
G03X5399075Y1289997I-60914J0D01*
G01X5399086Y1110000D02*
G03X5520914Y1110000I60914J0D01*
G03X5399086Y1110000I-60914J0D01*
G01X5409086Y2180000D02*
G03X5530914Y2180000I60914J0D01*
G03X5409086Y2180000I-60914J0D01*
G01X5449075Y1939996D02*
G03X5570903Y1939996I60914J0D01*
G03X5449075Y1939996I-60914J0D01*
G01X5616987Y801608D02*
G03X5570628Y910189I-36998J48391D01*
G03X5478000Y983393I-55631J24813D01*
G03X5524358Y874812I36998J-48391D01*
G03X5616987Y801608I55631J-24813D01*
G01X5502486Y1779101D02*
G03X5624313Y1779101I60914J0D01*
G03X5502486Y1779101I-60914J0D01*
G01X5569075Y1139998D02*
G03X5690903Y1139998I60914J0D01*
G03X5569075Y1139998I-60914J0D01*
G01X5609086Y380000D02*
G03X5730914Y380000I60914J0D01*
G03X5609086Y380000I-60914J0D01*
G54D11*
G01X2078746Y381000D02*
G01X2104654Y381000D01*
G01X1929254Y381000D02*
G01X1903346Y381000D01*
G01X2004000Y306254D02*
G01X2004000Y280346D01*
G01X2004000Y455746D02*
G01X2004000Y481654D01*
G01X2078746Y127000D02*
G01X2104654Y127000D01*
G01X1929254Y127000D02*
G01X1903346Y127000D01*
G01X2004000Y201746D02*
G01X2004000Y227654D01*
G01X3348746Y127000D02*
G01X3374654Y127000D01*
G01X3199254Y127000D02*
G01X3173346Y127000D01*
G01X3274000Y201746D02*
G01X3274000Y227654D01*
G01X5560000Y2338254D02*
G01X5560000Y2312346D01*
G01X5485254Y2413000D02*
G01X5459346Y2413000D01*
G01X5634746Y2413000D02*
G01X5660654Y2413000D01*
G01X5634746Y127000D02*
G01X5660654Y127000D01*
G01X5485254Y127000D02*
G01X5459346Y127000D01*
G01X5560000Y201746D02*
G01X5560000Y227654D01*
G04 Copper End*

G04 Pad Start*
G54D12*
G01X6530000Y2270000D03*
G54D13*
G01X6530000Y270000D03*
G01X270000Y270000D03*
G54D14*
G01X3782000Y2413000D03*
G01X3528000Y2413000D03*
G01X4036000Y2413000D03*
G01X4290000Y2413000D03*
G01X4544000Y2413000D03*
G01X4798000Y2413000D03*
G01X5306000Y2413000D03*
G01X5052000Y2413000D03*
G01X3020000Y2413000D03*
G01X3274000Y2413000D03*
G01X2766000Y2413000D03*
G01X2512000Y2413000D03*
G01X2258000Y2413000D03*
G01X5560000Y2413000D03*
G01X1242000Y381000D03*
G01X1496000Y381000D03*
G01X3782000Y381000D03*
G01X3528000Y381000D03*
G01X4036000Y381000D03*
G01X4290000Y381000D03*
G01X4544000Y381000D03*
G01X4798000Y381000D03*
G01X5052000Y381000D03*
G01X3274000Y381000D03*
G01X3274000Y127000D03*
G01X5052000Y127000D03*
G01X5306000Y127000D03*
G01X4798000Y127000D03*
G01X4544000Y127000D03*
G01X4290000Y127000D03*
G01X4036000Y127000D03*
G01X5560000Y127000D03*
G01X3528000Y127000D03*
G01X3782000Y127000D03*
G01X3020000Y381000D03*
G01X2766000Y381000D03*
G01X2512000Y381000D03*
G01X2258000Y381000D03*
G01X2004000Y381000D03*
G01X1750000Y381000D03*
G01X1750000Y127000D03*
G01X2004000Y127000D03*
G01X2258000Y127000D03*
G01X2512000Y127000D03*
G01X2766000Y127000D03*
G01X3020000Y127000D03*
G01X5796000Y620000D03*
G01X6050000Y620000D03*
G54D16*
G01X2020499Y1987488D03*
G01X1155502Y1987488D03*
G54D17*
G01X2020499Y2407503D03*
G01X1155502Y2407503D03*
G04 Pad End*

G04 Via Start*
G54D18*
G01X4600000Y860000D03*
G01X1080001Y2210001D03*
G01X1040000Y1990000D03*
G01X6330000Y2040000D03*
G01X6450000Y840000D03*
G01X3610000Y1500000D03*
G01X3680000Y1570000D03*
G01X3750000Y1500000D03*
G01X3900000Y1610000D03*
G01X3820000Y1570000D03*
G01X5340000Y2260000D03*
G01X3150000Y560000D03*
G01X3660000Y2260000D03*
G01X3150000Y2060000D03*
G01X4380000Y1690000D03*
G01X4030000Y1750000D03*
G01X3610000Y2020000D03*
G01X3970000Y790000D03*
G01X3560000Y820000D03*
G01X4130000Y790000D03*
G01X5610000Y700000D03*
G01X5490000Y330000D03*
G01X5650000Y1290000D03*
G01X2810000Y1970000D03*
G01X2310000Y1580000D03*
G01X1670000Y780000D03*
G01X1850000Y820000D03*
G01X2440000Y1200000D03*
G01X2180000Y1390000D03*
G01X3810000Y1030000D03*
G01X3740000Y1090000D03*
G01X3670000Y1030000D03*
G01X3530000Y1030000D03*
G01X3600000Y1090000D03*
G01X2500000Y1580000D03*
G01X640000Y2410001D03*
G01X780000Y1910001D03*
G01X620000Y1230000D03*
G01X910000Y1280001D03*
G01X800000Y460000D03*
G01X1070000Y600000D03*
G01X1170000Y950000D03*
G01X1420000Y850000D03*
G01X1340000Y780000D03*
G01X2530000Y1760000D03*
G01X1199998Y1729997D03*
G01X5354839Y2104821D03*
G01X5189990Y1979996D03*
G01X5563400Y1779101D03*
G01X5509989Y1939996D03*
G01X5449989Y529999D03*
G01X5325004Y1105004D03*
G01X5579989Y849998D03*
G01X5514998Y935002D03*
G01X4680000Y1960000D03*
G01X5650000Y1470000D03*
G01X5770000Y1770000D03*
G01X4982534Y767466D03*
G01X5770000Y1990000D03*
G01X5630000Y1650000D03*
G01X5770000Y1300000D03*
G01X5770000Y1140000D03*
G01X5780000Y840000D03*
G54D19*
G01X4580010Y1319990D03*
G54D18*
G01X5650003Y570000D03*
G01X4239992Y1009998D03*
G01X4580000Y950000D03*
G01X4570000Y1080000D03*
G01X1600000Y2110000D03*
G01X1519997Y2059996D03*
G01X4250000Y860000D03*
G01X1820000Y1580000D03*
G01X1710000Y1440000D03*
G01X810000Y1820001D03*
G54D19*
G01X4889990Y1519990D03*
G54D18*
G01X5629989Y1139998D03*
G01X5460000Y1110000D03*
G01X5459989Y1289997D03*
G01X5130000Y500000D03*
G01X5230003Y510000D03*
G01X1700000Y2130000D03*
G01X1750000Y2080000D03*
G01X3219994Y1259997D03*
G01X3319993Y1289997D03*
G01X4849103Y1020899D03*
G01X4920000Y1140000D03*
G01X4569991Y1409997D03*
G01X730000Y1370000D03*
G01X4580000Y1560000D03*
G01X610000Y1440000D03*
G01X2569995Y909998D03*
G01X1180000Y250000D03*
G01X1579997Y1329997D03*
G01X3060000Y1260000D03*
G01X2955169Y1275169D03*
G01X2760000Y1210000D03*
G01X2060000Y1190000D03*
G01X610000Y2300001D03*
G01X3979992Y1469997D03*
G01X2869994Y1109998D03*
G01X3010000Y1089100D03*
G01X2569995Y1199998D03*
G01X5269989Y1179998D03*
G01X5189990Y1119998D03*
G01X5043628Y828560D03*
G01X5053465Y1368797D03*
G01X5170000Y1370000D03*
G01X5269989Y1369997D03*
G01X5670000Y380000D03*
G01X5430000Y1680000D03*
G01X5330000Y1680000D03*
G01X4280000Y1990000D03*
G01X5470000Y2180000D03*
G01X5279989Y1989996D03*
G01X4990000Y2040000D03*
G01X5080000Y1990000D03*
G01X4990000Y1750000D03*
G01X5160000Y1520000D03*
G01X5060000Y1670000D03*
G01X5170000Y1670000D03*
G01X3880000Y1090000D03*
G01X3990000Y1610000D03*
G01X3760000Y1910000D03*
G01X2250000Y2060000D03*
G01X2600000Y2240000D03*
G01X5780000Y2240000D03*
G01X5780003Y2470001D03*
G01X5760003Y80000D03*
G01X5320003Y440000D03*
G01X4360000Y560000D03*
G01X2910000Y240000D03*
G01X3420000Y820000D03*
G01X2470000Y1390000D03*
G01X140000Y1860000D03*
G01X140000Y1680000D03*
G01X340000Y1990000D03*
G01X340000Y1780000D03*
G01X340000Y1550000D03*
G01X1310001Y2140001D03*
G01X1230000Y1530000D03*
G01X1050000Y1770000D03*
G01X1300000Y2450000D03*
G01X1600000Y2450000D03*
G01X1880000Y2450000D03*
G01X1860001Y2240001D03*
G01X1440001Y2380001D03*
G01X1740001Y2380001D03*
G01X350000Y1090000D03*
G01X350000Y830000D03*
G01X120000Y830000D03*
G01X120000Y1090000D03*
G01X560000Y650000D03*
G01X860000Y650000D03*
G01X90000Y460000D03*
G01X470000Y90000D03*
G01X490000Y440000D03*
G01X1520000Y140000D03*
G01X5696400Y743940D03*
G01X5770000Y1430000D03*
G01X5770000Y1670000D03*
G01X5660000Y1770000D03*
G01X4600000Y1960000D03*
G01X5690000Y1970000D03*
G01X4410000Y770000D03*
G01X770000Y90000D03*
G01X1040000Y90000D03*
G01X1970001Y1830001D03*
G54D19*
G01X5490003Y840000D03*
G54D18*
G01X5270003Y1490001D03*
G01X1340000Y1816677D03*
G01X5500003Y1450001D03*
G01X4810003Y570000D03*
G04 Via End*

G04 Track Start*
G54D20*
G01X3610000Y1423545D02*
G01X3610000Y1500000D01*
G01X3680000Y1440000D02*
G01X3680000Y1570000D01*
G01X3750000Y1450000D02*
G01X3750000Y1500000D01*
G01X3900000Y1560339D02*
G01X3900000Y1610000D01*
G01X3851000Y1511339D02*
G01X3900000Y1560339D01*
G01X3820000Y1220000D02*
G01X3820000Y1570000D01*
G01X3740000Y1140000D02*
G01X3820000Y1220000D01*
G01X3740000Y1090000D02*
G01X3740000Y1140000D01*
G01X3810000Y1160000D02*
G01X3851000Y1201000D01*
G01X3810000Y1030000D02*
G01X3810000Y1160000D01*
G01X3670000Y1370000D02*
G01X3750000Y1450000D01*
G01X3670000Y1030000D02*
G01X3670000Y1370000D01*
G01X3600000Y1360000D02*
G01X3680000Y1440000D01*
G01X3600000Y1090000D02*
G01X3600000Y1360000D01*
G01X3530000Y1343545D02*
G01X3610000Y1423545D01*
G01X3530000Y1030000D02*
G01X3530000Y1343545D01*
G01X3851000Y1201000D02*
G01X3851000Y1511339D01*
G01X3990000Y1606498D02*
G01X3990000Y1610000D01*
G01X3882000Y1498498D02*
G01X3990000Y1606498D01*
G01X3882000Y1092000D02*
G01X3882000Y1498498D01*
G01X3880000Y1090000D02*
G01X3882000Y1092000D01*
G01X5325004Y1105004D02*
G01X5325004Y834999D01*
G01X5610000Y700000D02*
G01X5460003Y700000D01*
G01X5325004Y834999D01*
G54D21*
G01X40000Y200000D02*
G03X200000Y40000I160000J0D01*
G01X200000Y2500000D02*
G03X40000Y2340000I0J-160000D01*
G04 Track End*

M02*

